<svg width="120" height="48" viewBox="0 0 120 48" fill="none" xmlns="http://www.w3.org/2000/svg">
<rect width="120" height="48" fill="#1E1E1E"/>
<rect width="1440" height="10195" transform="translate(-1256 -852)" fill="#FAFAFA"/>
<rect width="48" height="48" rx="24" fill="#1A1F2E"/>
<path d="M37.4999 24C37.4999 24.2984 37.3814 24.5845 37.1704 24.7955C36.9594 25.0065 36.6733 25.125 36.3749 25.125H14.3404L22.5458 33.3291C22.6504 33.4336 22.7333 33.5577 22.7899 33.6943C22.8464 33.8308 22.8755 33.9772 22.8755 34.125C22.8755 34.2728 22.8464 34.4192 22.7899 34.5558C22.7333 34.6923 22.6504 34.8164 22.5458 34.921C22.4413 35.0255 22.3172 35.1084 22.1807 35.165C22.0441 35.2215 21.8977 35.2506 21.7499 35.2506C21.6021 35.2506 21.4557 35.2215 21.3191 35.165C21.1826 35.1084 21.0585 35.0255 20.954 34.921L10.829 24.796C10.7244 24.6915 10.6414 24.5674 10.5848 24.4308C10.5282 24.2943 10.499 24.1479 10.499 24C10.499 23.8522 10.5282 23.7058 10.5848 23.5692C10.6414 23.4326 10.7244 23.3086 10.829 23.2041L20.954 13.0791C21.1651 12.868 21.4514 12.7494 21.7499 12.7494C22.0484 12.7494 22.3348 12.868 22.5458 13.0791C22.7569 13.2902 22.8755 13.5765 22.8755 13.875C22.8755 14.1735 22.7569 14.4599 22.5458 14.671L14.3404 22.875H36.3749C36.6733 22.875 36.9594 22.9935 37.1704 23.2045C37.3814 23.4155 37.4999 23.7016 37.4999 24Z" fill="white"/>
<rect width="48" height="48" rx="24" transform="matrix(-1 0 0 1 120 0)" fill="#1A1F2E"/>
<path d="M82.5001 24C82.5001 24.2984 82.6186 24.5845 82.8296 24.7955C83.0406 25.0065 83.3267 25.125 83.6251 25.125H105.66L97.4542 33.3291C97.3496 33.4336 97.2667 33.5577 97.2101 33.6943C97.1536 33.8308 97.1245 33.9772 97.1245 34.125C97.1245 34.2728 97.1536 34.4192 97.2101 34.5558C97.2667 34.6923 97.3496 34.8164 97.4542 34.921C97.5587 35.0255 97.6828 35.1084 97.8193 35.165C97.9559 35.2215 98.1023 35.2506 98.2501 35.2506C98.3979 35.2506 98.5443 35.2215 98.6809 35.165C98.8174 35.1084 98.9415 35.0255 99.046 34.921L109.171 24.796C109.276 24.6915 109.359 24.5674 109.415 24.4308C109.472 24.2943 109.501 24.1479 109.501 24C109.501 23.8522 109.472 23.7058 109.415 23.5692C109.359 23.4326 109.276 23.3086 109.171 23.2041L99.046 13.0791C98.8349 12.868 98.5486 12.7494 98.2501 12.7494C97.9516 12.7494 97.6652 12.868 97.4542 13.0791C97.2431 13.2902 97.1245 13.5765 97.1245 13.875C97.1245 14.1735 97.2431 14.4599 97.4542 14.671L105.66 22.875H83.6251C83.3267 22.875 83.0406 22.9935 82.8296 23.2045C82.6186 23.4155 82.5001 23.7016 82.5001 24Z" fill="white"/>
</svg>
