<svg width="474" height="410" viewBox="0 0 474 410" fill="none" xmlns="http://www.w3.org/2000/svg">
<g clip-path="url(#clip0_324_8209)">
<rect x="432.502" y="409.969" width="11.2" height="11.2" rx="5.6" transform="rotate(180 432.502 409.969)" fill="#6279BD"/>
<rect x="460.897" y="395.501" width="11.2" height="11.2" rx="5.6" transform="rotate(180 460.897 395.501)" fill="#6279BD"/>
<rect x="368.765" y="402.567" width="11.2" height="11.2" rx="5.6" transform="rotate(180 368.765 402.567)" fill="#6279BD"/>
<rect x="390.138" y="378.83" width="11.2" height="11.2" rx="5.6" transform="rotate(180 390.138 378.83)" fill="#6279BD"/>
<rect x="415.979" y="360.055" width="11.2" height="11.2" rx="5.6" transform="rotate(180 415.979 360.055)" fill="#6279BD"/>
<rect x="445.159" y="347.064" width="11.2" height="11.2" rx="5.6" transform="rotate(180 445.159 347.064)" fill="#6279BD"/>
<rect x="476.402" y="340.423" width="11.2" height="11.2" rx="5.6" transform="rotate(180 476.402 340.423)" fill="#6279BD"/>
<rect x="310.859" y="399.888" width="11.2" height="11.2" rx="5.6" transform="rotate(180 310.859 399.888)" fill="#6279BD"/>
<rect x="327.562" y="372.632" width="11.2" height="11.2" rx="5.6" transform="rotate(180 327.562 372.632)" fill="#6279BD"/>
<rect x="348.323" y="348.324" width="11.2" height="11.2" rx="5.6" transform="rotate(180 348.323 348.324)" fill="#6279BD"/>
<rect x="372.631" y="327.563" width="11.2" height="11.2" rx="5.6" transform="rotate(180 372.631 327.563)" fill="#6279BD"/>
<rect x="399.888" y="310.86" width="11.2" height="11.2" rx="5.6" transform="rotate(180 399.888 310.86)" fill="#6279BD"/>
<rect x="429.421" y="298.627" width="11.2" height="11.2" rx="5.6" transform="rotate(180 429.421 298.627)" fill="#6279BD"/>
<rect x="460.505" y="291.164" width="11.2" height="11.2" rx="5.6" transform="rotate(180 460.505 291.164)" fill="#6279BD"/>
<rect x="255.607" y="398.632" width="11.2" height="11.2" rx="5.6" transform="rotate(180 255.607 398.632)" fill="#6279BD"/>
<rect x="269.224" y="369.697" width="11.2" height="11.2" rx="5.6" transform="rotate(180 269.224 369.697)" fill="#6279BD"/>
<rect x="286.359" y="342.696" width="11.2" height="11.2" rx="5.6" transform="rotate(180 286.359 342.696)" fill="#6279BD"/>
<rect x="306.743" y="318.056" width="11.2" height="11.2" rx="5.6" transform="rotate(180 306.743 318.056)" fill="#6279BD"/>
<rect x="330.055" y="296.165" width="11.2" height="11.2" rx="5.6" transform="rotate(180 330.055 296.165)" fill="#6279BD"/>
<rect x="355.926" y="277.368" width="11.2" height="11.2" rx="5.6" transform="rotate(180 355.926 277.368)" fill="#6279BD"/>
<rect x="383.949" y="261.962" width="11.2" height="11.2" rx="5.6" transform="rotate(180 383.949 261.962)" fill="#6279BD"/>
<rect x="413.683" y="250.19" width="11.2" height="11.2" rx="5.6" transform="rotate(180 413.683 250.19)" fill="#6279BD"/>
<rect x="444.657" y="242.237" width="11.2" height="11.2" rx="5.6" transform="rotate(180 444.657 242.237)" fill="#6279BD"/>
<rect x="476.384" y="238.229" width="11.2" height="11.2" rx="5.6" transform="rotate(180 476.384 238.229)" fill="#6279BD"/>
<rect x="201.752" y="397.946" width="11.2" height="11.2" rx="5.6" transform="rotate(180 201.752 397.946)" fill="#6279BD"/>
<rect x="213.215" y="368.085" width="11.2" height="11.2" rx="5.6" transform="rotate(180 213.215 368.085)" fill="#6279BD"/>
<rect x="227.735" y="339.586" width="11.2" height="11.2" rx="5.6" transform="rotate(180 227.735 339.586)" fill="#6279BD"/>
<rect x="245.156" y="312.76" width="11.2" height="11.2" rx="5.6" transform="rotate(180 245.156 312.76)" fill="#6279BD"/>
<rect x="265.285" y="287.903" width="11.2" height="11.2" rx="5.6" transform="rotate(180 265.285 287.903)" fill="#6279BD"/>
<rect x="287.902" y="265.286" width="11.2" height="11.2" rx="5.6" transform="rotate(180 287.902 265.286)" fill="#6279BD"/>
<rect x="312.76" y="245.157" width="11.2" height="11.2" rx="5.6" transform="rotate(180 312.76 245.157)" fill="#6279BD"/>
<rect x="339.585" y="227.737" width="11.2" height="11.2" rx="5.6" transform="rotate(180 339.585 227.737)" fill="#6279BD"/>
<rect x="368.084" y="213.215" width="11.2" height="11.2" rx="5.6" transform="rotate(180 368.084 213.215)" fill="#6279BD"/>
<rect x="397.944" y="201.753" width="11.2" height="11.2" rx="5.6" transform="rotate(180 397.944 201.753)" fill="#6279BD"/>
<rect x="428.84" y="193.474" width="11.2" height="11.2" rx="5.6" transform="rotate(180 428.84 193.474)" fill="#6279BD"/>
<rect x="460.432" y="188.471" width="11.2" height="11.2" rx="5.6" transform="rotate(180 460.432 188.471)" fill="#6279BD"/>
<rect x="148.714" y="397.53" width="11.2" height="11.2" rx="5.6" transform="rotate(180 148.714 397.53)" fill="#6279BD"/>
<rect x="158.599" y="367.107" width="11.2" height="11.2" rx="5.6" transform="rotate(180 158.599 367.107)" fill="#6279BD"/>
<rect x="171.172" y="337.692" width="11.2" height="11.2" rx="5.6" transform="rotate(180 171.172 337.692)" fill="#6279BD"/>
<rect x="186.33" y="309.522" width="11.2" height="11.2" rx="5.6" transform="rotate(180 186.33 309.522)" fill="#6279BD"/>
<rect x="203.953" y="282.825" width="11.2" height="11.2" rx="5.6" transform="rotate(180 203.953 282.825)" fill="#6279BD"/>
<rect x="223.898" y="257.815" width="11.2" height="11.2" rx="5.6" transform="rotate(180 223.898 257.815)" fill="#6279BD"/>
<rect x="246.005" y="234.693" width="11.2" height="11.2" rx="5.6" transform="rotate(180 246.005 234.693)" fill="#6279BD"/>
<rect x="270.095" y="213.646" width="11.2" height="11.2" rx="5.6" transform="rotate(180 270.095 213.646)" fill="#6279BD"/>
<rect x="295.975" y="194.843" width="11.2" height="11.2" rx="5.6" transform="rotate(180 295.975 194.843)" fill="#6279BD"/>
<rect x="323.436" y="178.436" width="11.2" height="11.2" rx="5.6" transform="rotate(180 323.436 178.436)" fill="#6279BD"/>
<rect x="352.257" y="164.556" width="11.2" height="11.2" rx="5.6" transform="rotate(180 352.257 164.556)" fill="#6279BD"/>
<rect x="382.207" y="153.316" width="11.2" height="11.2" rx="5.6" transform="rotate(180 382.207 153.316)" fill="#6279BD"/>
<rect x="413.043" y="144.806" width="11.2" height="11.2" rx="5.6" transform="rotate(180 413.043 144.806)" fill="#6279BD"/>
<rect x="444.519" y="139.094" width="11.2" height="11.2" rx="5.6" transform="rotate(180 444.519 139.094)" fill="#6279BD"/>
<rect x="476.379" y="136.226" width="11.2" height="11.2" rx="5.6" transform="rotate(180 476.379 136.226)" fill="#6279BD"/>
<rect x="96.1943" y="397.26" width="11.2" height="11.2" rx="5.6" transform="rotate(180 96.1943 397.26)" fill="#6279BD"/>
<rect x="104.878" y="366.47" width="11.2" height="11.2" rx="5.6" transform="rotate(180 104.878 366.47)" fill="#6279BD"/>
<rect x="115.951" y="336.455" width="11.2" height="11.2" rx="5.6" transform="rotate(180 115.951 336.455)" fill="#6279BD"/>
<rect x="129.345" y="307.402" width="11.2" height="11.2" rx="5.6" transform="rotate(180 129.345 307.402)" fill="#6279BD"/>
<rect x="144.977" y="279.489" width="11.2" height="11.2" rx="5.6" transform="rotate(180 144.977 279.489)" fill="#6279BD"/>
<rect x="162.75" y="252.889" width="11.2" height="11.2" rx="5.6" transform="rotate(180 162.75 252.889)" fill="#6279BD"/>
<rect x="182.557" y="227.766" width="11.2" height="11.2" rx="5.6" transform="rotate(180 182.557 227.766)" fill="#6279BD"/>
<rect x="204.272" y="204.273" width="11.2" height="11.2" rx="5.6" transform="rotate(180 204.272 204.273)" fill="#6279BD"/>
<rect x="227.765" y="182.557" width="11.2" height="11.2" rx="5.6" transform="rotate(180 227.765 182.557)" fill="#6279BD"/>
<rect x="252.889" y="162.751" width="11.2" height="11.2" rx="5.6" transform="rotate(180 252.889 162.751)" fill="#6279BD"/>
<rect x="279.488" y="144.978" width="11.2" height="11.2" rx="5.6" transform="rotate(180 279.488 144.978)" fill="#6279BD"/>
<rect x="307.401" y="129.346" width="11.2" height="11.2" rx="5.6" transform="rotate(180 307.401 129.346)" fill="#6279BD"/>
<rect x="336.454" y="115.952" width="11.2" height="11.2" rx="5.6" transform="rotate(180 336.454 115.952)" fill="#6279BD"/>
<rect x="366.469" y="104.879" width="11.2" height="11.2" rx="5.6" transform="rotate(180 366.469 104.879)" fill="#6279BD"/>
<rect x="397.259" y="96.1953" width="11.2" height="11.2" rx="5.6" transform="rotate(180 397.259 96.1953)" fill="#6279BD"/>
<rect x="428.637" y="89.954" width="11.2" height="11.2" rx="5.6" transform="rotate(180 428.637 89.954)" fill="#6279BD"/>
<rect x="460.406" y="86.1937" width="11.2" height="11.2" rx="5.6" transform="rotate(180 460.406 86.1937)" fill="#6279BD"/>
<rect x="44.0234" y="397.075" width="11.2" height="11.2" rx="5.6" transform="rotate(180 44.0234 397.075)" fill="#6279BD"/>
<rect x="51.7637" y="366.031" width="11.2" height="11.2" rx="5.6" transform="rotate(180 51.7637 366.031)" fill="#6279BD"/>
<rect x="61.6504" y="335.604" width="11.2" height="11.2" rx="5.6" transform="rotate(180 61.6504 335.604)" fill="#6279BD"/>
<rect x="73.6348" y="305.94" width="11.2" height="11.2" rx="5.6" transform="rotate(180 73.6348 305.94)" fill="#6279BD"/>
<rect x="87.6602" y="277.184" width="11.2" height="11.2" rx="5.6" transform="rotate(180 87.6602 277.184)" fill="#6279BD"/>
<rect x="103.657" y="249.477" width="11.2" height="11.2" rx="5.6" transform="rotate(180 103.657 249.477)" fill="#6279BD"/>
<rect x="121.547" y="222.953" width="11.2" height="11.2" rx="5.6" transform="rotate(180 121.547 222.953)" fill="#6279BD"/>
<rect x="141.244" y="197.742" width="11.2" height="11.2" rx="5.6" transform="rotate(180 141.244 197.742)" fill="#6279BD"/>
<rect x="162.652" y="173.966" width="11.2" height="11.2" rx="5.6" transform="rotate(180 162.652 173.966)" fill="#6279BD"/>
<rect x="185.667" y="151.742" width="11.2" height="11.2" rx="5.6" transform="rotate(180 185.667 151.742)" fill="#6279BD"/>
<rect x="210.175" y="131.177" width="11.2" height="11.2" rx="5.6" transform="rotate(180 210.175 131.177)" fill="#6279BD"/>
<rect x="236.059" y="112.372" width="11.2" height="11.2" rx="5.6" transform="rotate(180 236.059 112.372)" fill="#6279BD"/>
<rect x="263.19" y="95.4176" width="11.2" height="11.2" rx="5.6" transform="rotate(180 263.19 95.4176)" fill="#6279BD"/>
<rect x="291.438" y="80.3976" width="11.2" height="11.2" rx="5.6" transform="rotate(180 291.438 80.3976)" fill="#6279BD"/>
<rect x="320.666" y="67.3846" width="11.2" height="11.2" rx="5.6" transform="rotate(180 320.666 67.3846)" fill="#6279BD"/>
<rect x="350.73" y="56.4423" width="11.2" height="11.2" rx="5.6" transform="rotate(180 350.73 56.4423)" fill="#6279BD"/>
<rect x="381.484" y="47.6237" width="11.2" height="11.2" rx="5.6" transform="rotate(180 381.484 47.6237)" fill="#6279BD"/>
<rect x="412.779" y="40.9718" width="11.2" height="11.2" rx="5.6" transform="rotate(180 412.779 40.9718)" fill="#6279BD"/>
<rect x="444.461" y="36.5192" width="11.2" height="11.2" rx="5.6" transform="rotate(180 444.461 36.5192)" fill="#6279BD"/>
<rect x="476.377" y="34.2874" width="11.2" height="11.2" rx="5.6" transform="rotate(180 476.377 34.2874)" fill="#6279BD"/>
</g>
<defs>
<clipPath id="clip0_324_8209">
<rect width="486.773" height="486.774" fill="white" transform="matrix(-1 0 0 -1 486.773 486.774)"/>
</clipPath>
</defs>
</svg>
