<svg width="668" height="224" viewBox="0 0 668 224" fill="none" xmlns="http://www.w3.org/2000/svg">
<rect width="668" height="224" fill="#1E1E1E"/>
<rect width="1440" height="10195" transform="translate(-386 -6780)" fill="#FAFAFA"/>
<g filter="url(#filter0_d_261_2)">
<path d="M12 77C12 38.8924 42.8924 8 81 8H587C625.108 8 656 38.8924 656 77V139C656 177.108 625.108 208 587 208H12V77Z" fill="white"/>
<path d="M42.5909 57.2273L49.0682 76.1818H49.3295L55.8068 57.2273H59.6023L51.2273 80.5H47.1705L38.7955 57.2273H42.5909ZM62.6903 80.5V63.0455H66.0881V80.5H62.6903ZM64.4062 60.3523C63.8153 60.3523 63.3078 60.1553 62.8835 59.7614C62.4669 59.3598 62.2585 58.8826 62.2585 58.3295C62.2585 57.7689 62.4669 57.2917 62.8835 56.8977C63.3078 56.4962 63.8153 56.2955 64.4062 56.2955C64.9972 56.2955 65.5009 56.4962 65.9176 56.8977C66.3419 57.2917 66.554 57.7689 66.554 58.3295C66.554 58.8826 66.3419 59.3598 65.9176 59.7614C65.5009 60.1553 64.9972 60.3523 64.4062 60.3523ZM75.7386 80.8864C74.6326 80.8864 73.6326 80.6818 72.7386 80.2727C71.8447 79.8561 71.1364 79.2538 70.6136 78.4659C70.0985 77.678 69.8409 76.7121 69.8409 75.5682C69.8409 74.5833 70.0303 73.7727 70.4091 73.1364C70.7879 72.5 71.2992 71.9962 71.9432 71.625C72.5871 71.2538 73.3068 70.9735 74.1023 70.7841C74.8977 70.5947 75.7083 70.4508 76.5341 70.3523C77.5795 70.2311 78.428 70.1326 79.0795 70.0568C79.7311 69.9735 80.2045 69.8409 80.5 69.6591C80.7955 69.4773 80.9432 69.1818 80.9432 68.7727V68.6932C80.9432 67.7008 80.6629 66.9318 80.1023 66.3864C79.5492 65.8409 78.7235 65.5682 77.625 65.5682C76.4811 65.5682 75.5795 65.822 74.9205 66.3295C74.2689 66.8295 73.8182 67.3864 73.5682 68L70.375 67.2727C70.7538 66.2121 71.3068 65.3561 72.0341 64.7045C72.7689 64.0455 73.6136 63.5682 74.5682 63.2727C75.5227 62.9697 76.5265 62.8182 77.5795 62.8182C78.2765 62.8182 79.0152 62.9015 79.7955 63.0682C80.5833 63.2273 81.3182 63.5227 82 63.9545C82.6894 64.3864 83.2538 65.0038 83.6932 65.8068C84.1326 66.6023 84.3523 67.6364 84.3523 68.9091V80.5H81.0341V78.1136H80.8977C80.678 78.553 80.3485 78.9848 79.9091 79.4091C79.4697 79.8333 78.9053 80.1856 78.2159 80.4659C77.5265 80.7462 76.7008 80.8864 75.7386 80.8864ZM76.4773 78.1591C77.4167 78.1591 78.2197 77.9735 78.8864 77.6023C79.5606 77.2311 80.072 76.7462 80.4205 76.1477C80.7765 75.5417 80.9545 74.8939 80.9545 74.2045V71.9545C80.8333 72.0758 80.5985 72.1894 80.25 72.2955C79.9091 72.3939 79.5189 72.4811 79.0795 72.5568C78.6402 72.625 78.2121 72.6894 77.7955 72.75C77.3788 72.803 77.0303 72.8485 76.75 72.8864C76.0909 72.9697 75.4886 73.1098 74.9432 73.3068C74.4053 73.5038 73.9735 73.7879 73.6477 74.1591C73.3295 74.5227 73.1705 75.0076 73.1705 75.6136C73.1705 76.4545 73.4811 77.0909 74.1023 77.5227C74.7235 77.947 75.5152 78.1591 76.4773 78.1591ZM92.2756 70.1364V80.5H88.8778V63.0455H92.1392V65.8864H92.3551C92.7566 64.9621 93.3854 64.2197 94.2415 63.6591C95.1051 63.0985 96.1922 62.8182 97.5028 62.8182C98.6922 62.8182 99.7339 63.0682 100.628 63.5682C101.522 64.0606 102.215 64.7955 102.707 65.7727C103.2 66.75 103.446 67.9583 103.446 69.3977V80.5H100.048V69.8068C100.048 68.5417 99.7188 67.553 99.0597 66.8409C98.4006 66.1212 97.4953 65.7614 96.3438 65.7614C95.5559 65.7614 94.8551 65.9318 94.2415 66.2727C93.6354 66.6136 93.1544 67.1136 92.7983 67.7727C92.4498 68.4242 92.2756 69.2121 92.2756 70.1364ZM115.355 80.8523C113.719 80.8523 112.291 80.4773 111.071 79.7273C109.851 78.9773 108.904 77.928 108.23 76.5795C107.556 75.2311 107.219 73.6553 107.219 71.8523C107.219 70.0417 107.556 68.4583 108.23 67.1023C108.904 65.7462 109.851 64.6932 111.071 63.9432C112.291 63.1932 113.719 62.8182 115.355 62.8182C116.991 62.8182 118.42 63.1932 119.639 63.9432C120.859 64.6932 121.806 65.7462 122.48 67.1023C123.154 68.4583 123.491 70.0417 123.491 71.8523C123.491 73.6553 123.154 75.2311 122.48 76.5795C121.806 77.928 120.859 78.9773 119.639 79.7273C118.42 80.4773 116.991 80.8523 115.355 80.8523ZM115.366 78C116.427 78 117.306 77.7197 118.003 77.1591C118.7 76.5985 119.215 75.8523 119.548 74.9205C119.889 73.9886 120.06 72.9621 120.06 71.8409C120.06 70.7273 119.889 69.7045 119.548 68.7727C119.215 67.8333 118.7 67.0795 118.003 66.5114C117.306 65.9432 116.427 65.6591 115.366 65.6591C114.298 65.6591 113.412 65.9432 112.707 66.5114C112.01 67.0795 111.491 67.8333 111.151 68.7727C110.817 69.7045 110.651 70.7273 110.651 71.8409C110.651 72.9621 110.817 73.9886 111.151 74.9205C111.491 75.8523 112.01 76.5985 112.707 77.1591C113.412 77.7197 114.298 78 115.366 78ZM143.901 63.0455V65.7727H134.366V63.0455H143.901ZM136.923 58.8636H140.321V75.375C140.321 76.0341 140.42 76.5303 140.616 76.8636C140.813 77.1894 141.067 77.4129 141.378 77.5341C141.696 77.6477 142.041 77.7045 142.412 77.7045C142.685 77.7045 142.923 77.6856 143.128 77.6477C143.332 77.6098 143.491 77.5795 143.605 77.5568L144.219 80.3636C144.022 80.4394 143.741 80.5152 143.378 80.5909C143.014 80.6742 142.56 80.7197 142.014 80.7273C141.12 80.7424 140.287 80.5833 139.514 80.25C138.741 79.9167 138.116 79.4015 137.639 78.7045C137.162 78.0076 136.923 77.1326 136.923 76.0795V58.8636ZM147.659 80.5V63.0455H150.943V65.8182H151.125C151.443 64.8788 152.004 64.1402 152.807 63.6023C153.617 63.0568 154.534 62.7841 155.557 62.7841C155.769 62.7841 156.019 62.7917 156.307 62.8068C156.602 62.822 156.833 62.8409 157 62.8636V66.1136C156.864 66.0758 156.621 66.0341 156.273 65.9886C155.924 65.9356 155.576 65.9091 155.227 65.9091C154.424 65.9091 153.708 66.0795 153.08 66.4205C152.458 66.7538 151.966 67.2197 151.602 67.8182C151.239 68.4091 151.057 69.0833 151.057 69.8409V80.5H147.659ZM164.864 80.8864C163.758 80.8864 162.758 80.6818 161.864 80.2727C160.97 79.8561 160.261 79.2538 159.739 78.4659C159.223 77.678 158.966 76.7121 158.966 75.5682C158.966 74.5833 159.155 73.7727 159.534 73.1364C159.913 72.5 160.424 71.9962 161.068 71.625C161.712 71.2538 162.432 70.9735 163.227 70.7841C164.023 70.5947 164.833 70.4508 165.659 70.3523C166.705 70.2311 167.553 70.1326 168.205 70.0568C168.856 69.9735 169.33 69.8409 169.625 69.6591C169.92 69.4773 170.068 69.1818 170.068 68.7727V68.6932C170.068 67.7008 169.788 66.9318 169.227 66.3864C168.674 65.8409 167.848 65.5682 166.75 65.5682C165.606 65.5682 164.705 65.822 164.045 66.3295C163.394 66.8295 162.943 67.3864 162.693 68L159.5 67.2727C159.879 66.2121 160.432 65.3561 161.159 64.7045C161.894 64.0455 162.739 63.5682 163.693 63.2727C164.648 62.9697 165.652 62.8182 166.705 62.8182C167.402 62.8182 168.14 62.9015 168.92 63.0682C169.708 63.2273 170.443 63.5227 171.125 63.9545C171.814 64.3864 172.379 65.0038 172.818 65.8068C173.258 66.6023 173.477 67.6364 173.477 68.9091V80.5H170.159V78.1136H170.023C169.803 78.553 169.473 78.9848 169.034 79.4091C168.595 79.8333 168.03 80.1856 167.341 80.4659C166.652 80.7462 165.826 80.8864 164.864 80.8864ZM165.602 78.1591C166.542 78.1591 167.345 77.9735 168.011 77.6023C168.686 77.2311 169.197 76.7462 169.545 76.1477C169.902 75.5417 170.08 74.8939 170.08 74.2045V71.9545C169.958 72.0758 169.723 72.1894 169.375 72.2955C169.034 72.3939 168.644 72.4811 168.205 72.5568C167.765 72.625 167.337 72.6894 166.92 72.75C166.504 72.803 166.155 72.8485 165.875 72.8864C165.216 72.9697 164.614 73.1098 164.068 73.3068C163.53 73.5038 163.098 73.7879 162.773 74.1591C162.455 74.5227 162.295 75.0076 162.295 75.6136C162.295 76.4545 162.606 77.0909 163.227 77.5227C163.848 77.947 164.64 78.1591 165.602 78.1591ZM185.355 80.8523C183.666 80.8523 182.211 80.4697 180.991 79.7045C179.779 78.9318 178.848 77.8674 178.196 76.5114C177.545 75.1553 177.219 73.6023 177.219 71.8523C177.219 70.0795 177.552 68.5152 178.219 67.1591C178.885 65.7955 179.825 64.7311 181.037 63.9659C182.249 63.2008 183.677 62.8182 185.321 62.8182C186.647 62.8182 187.829 63.0644 188.866 63.5568C189.904 64.0417 190.741 64.7235 191.378 65.6023C192.022 66.4811 192.404 67.5076 192.526 68.6818H189.219C189.037 67.8636 188.62 67.1591 187.969 66.5682C187.325 65.9773 186.461 65.6818 185.378 65.6818C184.431 65.6818 183.601 65.9318 182.889 66.4318C182.185 66.9242 181.635 67.6288 181.241 68.5455C180.848 69.4545 180.651 70.5303 180.651 71.7727C180.651 73.0455 180.844 74.1439 181.23 75.0682C181.616 75.9924 182.162 76.7083 182.866 77.2159C183.579 77.7235 184.416 77.9773 185.378 77.9773C186.022 77.9773 186.605 77.8598 187.128 77.625C187.658 77.3826 188.101 77.0379 188.457 76.5909C188.821 76.1439 189.075 75.6061 189.219 74.9773H192.526C192.404 76.1061 192.037 77.1136 191.423 78C190.81 78.8864 189.988 79.5833 188.957 80.0909C187.935 80.5985 186.734 80.8523 185.355 80.8523ZM199.284 74.5795L199.261 70.4318H199.852L206.807 63.0455H210.875L202.943 71.4545H202.409L199.284 74.5795ZM196.159 80.5V57.2273H199.557V80.5H196.159ZM207.182 80.5L200.932 72.2045L203.273 69.8295L211.352 80.5H207.182ZM227.051 67.3068L223.972 67.8523C223.843 67.4583 223.638 67.0833 223.358 66.7273C223.085 66.3712 222.714 66.0795 222.244 65.8523C221.775 65.625 221.188 65.5114 220.483 65.5114C219.521 65.5114 218.718 65.7273 218.074 66.1591C217.43 66.5833 217.108 67.1326 217.108 67.8068C217.108 68.3902 217.324 68.8598 217.756 69.2159C218.188 69.572 218.884 69.8636 219.847 70.0909L222.619 70.7273C224.225 71.0985 225.422 71.6705 226.21 72.4432C226.998 73.2159 227.392 74.2197 227.392 75.4545C227.392 76.5 227.089 77.4318 226.483 78.25C225.884 79.0606 225.047 79.697 223.972 80.1591C222.903 80.6212 221.665 80.8523 220.256 80.8523C218.301 80.8523 216.706 80.4356 215.472 79.6023C214.237 78.7614 213.479 77.5682 213.199 76.0227L216.483 75.5227C216.688 76.3788 217.108 77.0265 217.744 77.4659C218.381 77.8977 219.21 78.1136 220.233 78.1136C221.347 78.1136 222.237 77.8826 222.903 77.4205C223.57 76.9508 223.903 76.3788 223.903 75.7045C223.903 75.1591 223.699 74.7008 223.29 74.3295C222.888 73.9583 222.271 73.678 221.438 73.4886L218.483 72.8409C216.854 72.4697 215.65 71.8788 214.869 71.0682C214.097 70.2576 213.71 69.2311 213.71 67.9886C213.71 66.9583 213.998 66.0568 214.574 65.2841C215.15 64.5114 215.945 63.9091 216.96 63.4773C217.975 63.0379 219.138 62.8182 220.449 62.8182C222.335 62.8182 223.82 63.2273 224.903 64.0455C225.987 64.8561 226.703 65.9432 227.051 67.3068ZM241.744 87.0455C241.237 87.0455 240.775 87.0038 240.358 86.9205C239.941 86.8447 239.631 86.7614 239.426 86.6705L240.244 83.8864C240.866 84.053 241.419 84.125 241.903 84.1023C242.388 84.0795 242.816 83.8977 243.188 83.5568C243.566 83.2159 243.9 82.6591 244.188 81.8864L244.608 80.7273L238.222 63.0455H241.858L246.278 76.5909H246.46L250.881 63.0455H254.528L247.335 82.8295C247.002 83.7386 246.578 84.5076 246.062 85.1364C245.547 85.7727 244.934 86.25 244.222 86.5682C243.509 86.8864 242.684 87.0455 241.744 87.0455ZM264.48 80.8523C262.844 80.8523 261.416 80.4773 260.196 79.7273C258.976 78.9773 258.029 77.928 257.355 76.5795C256.681 75.2311 256.344 73.6553 256.344 71.8523C256.344 70.0417 256.681 68.4583 257.355 67.1023C258.029 65.7462 258.976 64.6932 260.196 63.9432C261.416 63.1932 262.844 62.8182 264.48 62.8182C266.116 62.8182 267.545 63.1932 268.764 63.9432C269.984 64.6932 270.931 65.7462 271.605 67.1023C272.279 68.4583 272.616 70.0417 272.616 71.8523C272.616 73.6553 272.279 75.2311 271.605 76.5795C270.931 77.928 269.984 78.9773 268.764 79.7273C267.545 80.4773 266.116 80.8523 264.48 80.8523ZM264.491 78C265.552 78 266.431 77.7197 267.128 77.1591C267.825 76.5985 268.34 75.8523 268.673 74.9205C269.014 73.9886 269.185 72.9621 269.185 71.8409C269.185 70.7273 269.014 69.7045 268.673 68.7727C268.34 67.8333 267.825 67.0795 267.128 66.5114C266.431 65.9432 265.552 65.6591 264.491 65.6591C263.423 65.6591 262.537 65.9432 261.832 66.5114C261.135 67.0795 260.616 67.8333 260.276 68.7727C259.942 69.7045 259.776 70.7273 259.776 71.8409C259.776 72.9621 259.942 73.9886 260.276 74.9205C260.616 75.8523 261.135 76.5985 261.832 77.1591C262.537 77.7197 263.423 78 264.491 78ZM287.466 73.2614V63.0455H290.875V80.5H287.534V77.4773H287.352C286.951 78.4091 286.307 79.1856 285.42 79.8068C284.542 80.4205 283.447 80.7273 282.136 80.7273C281.015 80.7273 280.023 80.4811 279.159 79.9886C278.303 79.4886 277.629 78.75 277.136 77.7727C276.652 76.7955 276.409 75.5871 276.409 74.1477V63.0455H279.807V73.7386C279.807 74.928 280.136 75.875 280.795 76.5795C281.455 77.2841 282.311 77.6364 283.364 77.6364C284 77.6364 284.633 77.4773 285.261 77.1591C285.898 76.8409 286.424 76.3598 286.841 75.7159C287.265 75.072 287.473 74.2538 287.466 73.2614ZM295.44 80.5V63.0455H298.724V65.8182H298.906C299.224 64.8788 299.785 64.1402 300.588 63.6023C301.399 63.0568 302.315 62.7841 303.338 62.7841C303.55 62.7841 303.8 62.7917 304.088 62.8068C304.384 62.822 304.615 62.8409 304.781 62.8636V66.1136C304.645 66.0758 304.402 66.0341 304.054 65.9886C303.705 65.9356 303.357 65.9091 303.009 65.9091C302.205 65.9091 301.49 66.0795 300.861 66.4205C300.24 66.7538 299.747 67.2197 299.384 67.8182C299.02 68.4091 298.838 69.0833 298.838 69.8409V80.5H295.44ZM323.543 80.8523C321.853 80.8523 320.399 80.4697 319.179 79.7045C317.967 78.9318 317.035 77.8674 316.384 76.5114C315.732 75.1553 315.406 73.6023 315.406 71.8523C315.406 70.0795 315.74 68.5152 316.406 67.1591C317.073 65.7955 318.012 64.7311 319.224 63.9659C320.437 63.2008 321.865 62.8182 323.509 62.8182C324.834 62.8182 326.016 63.0644 327.054 63.5568C328.092 64.0417 328.929 64.7235 329.565 65.6023C330.209 66.4811 330.592 67.5076 330.713 68.6818H327.406C327.224 67.8636 326.808 67.1591 326.156 66.5682C325.512 65.9773 324.649 65.6818 323.565 65.6818C322.618 65.6818 321.789 65.9318 321.077 66.4318C320.372 66.9242 319.823 67.6288 319.429 68.5455C319.035 69.4545 318.838 70.5303 318.838 71.7727C318.838 73.0455 319.031 74.1439 319.418 75.0682C319.804 75.9924 320.349 76.7083 321.054 77.2159C321.766 77.7235 322.603 77.9773 323.565 77.9773C324.209 77.9773 324.793 77.8598 325.315 77.625C325.846 77.3826 326.289 77.0379 326.645 76.5909C327.009 76.1439 327.262 75.6061 327.406 74.9773H330.713C330.592 76.1061 330.224 77.1136 329.611 78C328.997 78.8864 328.175 79.5833 327.145 80.0909C326.122 80.5985 324.921 80.8523 323.543 80.8523ZM337.744 57.2273V80.5H334.347V57.2273H337.744ZM342.315 80.5V63.0455H345.713V80.5H342.315ZM344.031 60.3523C343.44 60.3523 342.933 60.1553 342.509 59.7614C342.092 59.3598 341.884 58.8826 341.884 58.3295C341.884 57.7689 342.092 57.2917 342.509 56.8977C342.933 56.4962 343.44 56.2955 344.031 56.2955C344.622 56.2955 345.126 56.4962 345.543 56.8977C345.967 57.2917 346.179 57.7689 346.179 58.3295C346.179 58.8826 345.967 59.3598 345.543 59.7614C345.126 60.1553 344.622 60.3523 344.031 60.3523ZM357.807 80.8523C356.087 80.8523 354.606 80.4848 353.364 79.75C352.129 79.0076 351.174 77.9659 350.5 76.625C349.833 75.2765 349.5 73.697 349.5 71.8864C349.5 70.0985 349.833 68.5227 350.5 67.1591C351.174 65.7955 352.114 64.7311 353.318 63.9659C354.53 63.2008 355.947 62.8182 357.568 62.8182C358.553 62.8182 359.508 62.9811 360.432 63.3068C361.356 63.6326 362.186 64.1439 362.92 64.8409C363.655 65.5379 364.235 66.4432 364.659 67.5568C365.083 68.6629 365.295 70.0076 365.295 71.5909V72.7955H351.42V70.25H361.966C361.966 69.3561 361.784 68.5644 361.42 67.875C361.057 67.178 360.545 66.6288 359.886 66.2273C359.235 65.8258 358.47 65.625 357.591 65.625C356.636 65.625 355.803 65.8598 355.091 66.3295C354.386 66.7917 353.841 67.3977 353.455 68.1477C353.076 68.8902 352.886 69.697 352.886 70.5682V72.5568C352.886 73.7235 353.091 74.7159 353.5 75.5341C353.917 76.3523 354.496 76.9773 355.239 77.4091C355.981 77.8333 356.848 78.0455 357.841 78.0455C358.485 78.0455 359.072 77.9545 359.602 77.7727C360.133 77.5833 360.591 77.303 360.977 76.9318C361.364 76.5606 361.659 76.1023 361.864 75.5568L365.08 76.1364C364.822 77.0833 364.36 77.9129 363.693 78.625C363.034 79.3295 362.205 79.8788 361.205 80.2727C360.212 80.6591 359.08 80.8523 357.807 80.8523ZM372.463 70.1364V80.5H369.065V63.0455H372.327V65.8864H372.543C372.944 64.9621 373.573 64.2197 374.429 63.6591C375.293 63.0985 376.38 62.8182 377.69 62.8182C378.88 62.8182 379.921 63.0682 380.815 63.5682C381.709 64.0606 382.402 64.7955 382.895 65.7727C383.387 66.75 383.634 67.9583 383.634 69.3977V80.5H380.236V69.8068C380.236 68.5417 379.906 67.553 379.247 66.8409C378.588 66.1212 377.683 65.7614 376.531 65.7614C375.743 65.7614 375.043 65.9318 374.429 66.2727C373.823 66.6136 373.342 67.1136 372.986 67.7727C372.637 68.4242 372.463 69.2121 372.463 70.1364ZM396.338 63.0455V65.7727H386.804V63.0455H396.338ZM389.361 58.8636H392.759V75.375C392.759 76.0341 392.857 76.5303 393.054 76.8636C393.251 77.1894 393.505 77.4129 393.815 77.5341C394.134 77.6477 394.478 77.7045 394.849 77.7045C395.122 77.7045 395.361 77.6856 395.565 77.6477C395.77 77.6098 395.929 77.5795 396.043 77.5568L396.656 80.3636C396.459 80.4394 396.179 80.5152 395.815 80.5909C395.452 80.6742 394.997 80.7197 394.452 80.7273C393.558 80.7424 392.724 80.5833 391.952 80.25C391.179 79.9167 390.554 79.4015 390.077 78.7045C389.599 78.0076 389.361 77.1326 389.361 76.0795V58.8636ZM412.895 67.3068L409.815 67.8523C409.687 67.4583 409.482 67.0833 409.202 66.7273C408.929 66.3712 408.558 66.0795 408.088 65.8523C407.618 65.625 407.031 65.5114 406.327 65.5114C405.365 65.5114 404.562 65.7273 403.918 66.1591C403.274 66.5833 402.952 67.1326 402.952 67.8068C402.952 68.3902 403.168 68.8598 403.599 69.2159C404.031 69.572 404.728 69.8636 405.69 70.0909L408.463 70.7273C410.069 71.0985 411.266 71.6705 412.054 72.4432C412.842 73.2159 413.236 74.2197 413.236 75.4545C413.236 76.5 412.933 77.4318 412.327 78.25C411.728 79.0606 410.891 79.697 409.815 80.1591C408.747 80.6212 407.509 80.8523 406.099 80.8523C404.145 80.8523 402.55 80.4356 401.315 79.6023C400.08 78.7614 399.323 77.5682 399.043 76.0227L402.327 75.5227C402.531 76.3788 402.952 77.0265 403.588 77.4659C404.224 77.8977 405.054 78.1136 406.077 78.1136C407.19 78.1136 408.08 77.8826 408.747 77.4205C409.414 76.9508 409.747 76.3788 409.747 75.7045C409.747 75.1591 409.543 74.7008 409.134 74.3295C408.732 73.9583 408.115 73.678 407.281 73.4886L404.327 72.8409C402.698 72.4697 401.493 71.8788 400.713 71.0682C399.94 70.2576 399.554 69.2311 399.554 67.9886C399.554 66.9583 399.842 66.0568 400.418 65.2841C400.993 64.5114 401.789 63.9091 402.804 63.4773C403.819 63.0379 404.982 62.8182 406.293 62.8182C408.179 62.8182 409.664 63.2273 410.747 64.0455C411.83 64.8561 412.546 65.9432 412.895 67.3068ZM419.892 57.2273V59.4091C419.892 60.053 419.771 60.7311 419.528 61.4432C419.294 62.1477 418.96 62.8258 418.528 63.4773C418.097 64.1288 417.589 64.6894 417.006 65.1591L415.324 63.9545C415.771 63.303 416.157 62.6098 416.483 61.875C416.816 61.1402 416.983 60.3295 416.983 59.4432V57.2273H419.892ZM435.213 70.1364V80.5H431.815V57.2273H435.168V65.8864H435.384C435.793 64.947 436.418 64.2008 437.259 63.6477C438.099 63.0947 439.198 62.8182 440.554 62.8182C441.751 62.8182 442.796 63.0644 443.69 63.5568C444.592 64.0492 445.289 64.7841 445.781 65.7614C446.281 66.7311 446.531 67.9432 446.531 69.3977V80.5H443.134V69.8068C443.134 68.5265 442.804 67.5341 442.145 66.8295C441.486 66.1174 440.569 65.7614 439.395 65.7614C438.592 65.7614 437.872 65.9318 437.236 66.2727C436.607 66.6136 436.111 67.1136 435.747 67.7727C435.391 68.4242 435.213 69.2121 435.213 70.1364ZM458.418 80.8523C456.781 80.8523 455.353 80.4773 454.134 79.7273C452.914 78.9773 451.967 77.928 451.293 76.5795C450.618 75.2311 450.281 73.6553 450.281 71.8523C450.281 70.0417 450.618 68.4583 451.293 67.1023C451.967 65.7462 452.914 64.6932 454.134 63.9432C455.353 63.1932 456.781 62.8182 458.418 62.8182C460.054 62.8182 461.482 63.1932 462.702 63.9432C463.921 64.6932 464.868 65.7462 465.543 67.1023C466.217 68.4583 466.554 70.0417 466.554 71.8523C466.554 73.6553 466.217 75.2311 465.543 76.5795C464.868 77.928 463.921 78.9773 462.702 79.7273C461.482 80.4773 460.054 80.8523 458.418 80.8523ZM458.429 78C459.49 78 460.368 77.7197 461.065 77.1591C461.762 76.5985 462.277 75.8523 462.611 74.9205C462.952 73.9886 463.122 72.9621 463.122 71.8409C463.122 70.7273 462.952 69.7045 462.611 68.7727C462.277 67.8333 461.762 67.0795 461.065 66.5114C460.368 65.9432 459.49 65.6591 458.429 65.6591C457.361 65.6591 456.474 65.9432 455.77 66.5114C455.073 67.0795 454.554 67.8333 454.213 68.7727C453.88 69.7045 453.713 70.7273 453.713 71.8409C453.713 72.9621 453.88 73.9886 454.213 74.9205C454.554 75.8523 455.073 76.5985 455.77 77.1591C456.474 77.7197 457.361 78 458.429 78ZM470.347 80.5V63.0455H473.608V65.8864H473.824C474.188 64.9242 474.782 64.1742 475.608 63.6364C476.434 63.0909 477.422 62.8182 478.574 62.8182C479.741 62.8182 480.718 63.0909 481.506 63.6364C482.301 64.1818 482.888 64.9318 483.267 65.8864H483.449C483.866 64.9545 484.528 64.2121 485.438 63.6591C486.347 63.0985 487.43 62.8182 488.688 62.8182C490.271 62.8182 491.562 63.3144 492.562 64.3068C493.57 65.2992 494.074 66.7955 494.074 68.7955V80.5H490.676V69.1136C490.676 67.9318 490.354 67.0758 489.71 66.5455C489.066 66.0152 488.297 65.75 487.403 65.75C486.297 65.75 485.438 66.0909 484.824 66.7727C484.21 67.447 483.903 68.3144 483.903 69.375V80.5H480.517V68.8977C480.517 67.9508 480.222 67.1894 479.631 66.6136C479.04 66.0379 478.271 65.75 477.324 65.75C476.68 65.75 476.085 65.9205 475.54 66.2614C475.002 66.5947 474.566 67.0606 474.233 67.6591C473.907 68.2576 473.744 68.9508 473.744 69.7386V80.5H470.347ZM506.151 80.8523C504.431 80.8523 502.95 80.4848 501.707 79.75C500.473 79.0076 499.518 77.9659 498.844 76.625C498.177 75.2765 497.844 73.697 497.844 71.8864C497.844 70.0985 498.177 68.5227 498.844 67.1591C499.518 65.7955 500.457 64.7311 501.662 63.9659C502.874 63.2008 504.291 62.8182 505.912 62.8182C506.897 62.8182 507.851 62.9811 508.776 63.3068C509.7 63.6326 510.529 64.1439 511.264 64.8409C511.999 65.5379 512.579 66.4432 513.003 67.5568C513.427 68.6629 513.639 70.0076 513.639 71.5909V72.7955H499.764V70.25H510.31C510.31 69.3561 510.128 68.5644 509.764 67.875C509.401 67.178 508.889 66.6288 508.23 66.2273C507.579 65.8258 506.813 65.625 505.935 65.625C504.98 65.625 504.147 65.8598 503.435 66.3295C502.73 66.7917 502.185 67.3977 501.798 68.1477C501.42 68.8902 501.23 69.697 501.23 70.5682V72.5568C501.23 73.7235 501.435 74.7159 501.844 75.5341C502.26 76.3523 502.84 76.9773 503.582 77.4091C504.325 77.8333 505.192 78.0455 506.185 78.0455C506.829 78.0455 507.416 77.9545 507.946 77.7727C508.476 77.5833 508.935 77.303 509.321 76.9318C509.707 76.5606 510.003 76.1023 510.207 75.5568L513.423 76.1364C513.166 77.0833 512.704 77.9129 512.037 78.625C511.378 79.3295 510.548 79.8788 509.548 80.2727C508.556 80.6591 507.423 80.8523 506.151 80.8523ZM530.489 67.3068L527.409 67.8523C527.28 67.4583 527.076 67.0833 526.795 66.7273C526.523 66.3712 526.152 66.0795 525.682 65.8523C525.212 65.625 524.625 65.5114 523.92 65.5114C522.958 65.5114 522.155 65.7273 521.511 66.1591C520.867 66.5833 520.545 67.1326 520.545 67.8068C520.545 68.3902 520.761 68.8598 521.193 69.2159C521.625 69.572 522.322 69.8636 523.284 70.0909L526.057 70.7273C527.663 71.0985 528.86 71.6705 529.648 72.4432C530.436 73.2159 530.83 74.2197 530.83 75.4545C530.83 76.5 530.527 77.4318 529.92 78.25C529.322 79.0606 528.485 79.697 527.409 80.1591C526.341 80.6212 525.102 80.8523 523.693 80.8523C521.739 80.8523 520.144 80.4356 518.909 79.6023C517.674 78.7614 516.917 77.5682 516.636 76.0227L519.92 75.5227C520.125 76.3788 520.545 77.0265 521.182 77.4659C521.818 77.8977 522.648 78.1136 523.67 78.1136C524.784 78.1136 525.674 77.8826 526.341 77.4205C527.008 76.9508 527.341 76.3788 527.341 75.7045C527.341 75.1591 527.136 74.7008 526.727 74.3295C526.326 73.9583 525.708 73.678 524.875 73.4886L521.92 72.8409C520.292 72.4697 519.087 71.8788 518.307 71.0682C517.534 70.2576 517.148 69.2311 517.148 67.9886C517.148 66.9583 517.436 66.0568 518.011 65.2841C518.587 64.5114 519.383 63.9091 520.398 63.4773C521.413 63.0379 522.576 62.8182 523.886 62.8182C525.773 62.8182 527.258 63.2273 528.341 64.0455C529.424 64.8561 530.14 65.9432 530.489 67.3068ZM551.182 63.0455V65.7727H541.648V63.0455H551.182ZM544.205 58.8636H547.602V75.375C547.602 76.0341 547.701 76.5303 547.898 76.8636C548.095 77.1894 548.348 77.4129 548.659 77.5341C548.977 77.6477 549.322 77.7045 549.693 77.7045C549.966 77.7045 550.205 77.6856 550.409 77.6477C550.614 77.6098 550.773 77.5795 550.886 77.5568L551.5 80.3636C551.303 80.4394 551.023 80.5152 550.659 80.5909C550.295 80.6742 549.841 80.7197 549.295 80.7273C548.402 80.7424 547.568 80.5833 546.795 80.25C546.023 79.9167 545.398 79.4015 544.92 78.7045C544.443 78.0076 544.205 77.1326 544.205 76.0795V58.8636ZM562.105 80.8523C560.469 80.8523 559.041 80.4773 557.821 79.7273C556.601 78.9773 555.654 77.928 554.98 76.5795C554.306 75.2311 553.969 73.6553 553.969 71.8523C553.969 70.0417 554.306 68.4583 554.98 67.1023C555.654 65.7462 556.601 64.6932 557.821 63.9432C559.041 63.1932 560.469 62.8182 562.105 62.8182C563.741 62.8182 565.17 63.1932 566.389 63.9432C567.609 64.6932 568.556 65.7462 569.23 67.1023C569.904 68.4583 570.241 70.0417 570.241 71.8523C570.241 73.6553 569.904 75.2311 569.23 76.5795C568.556 77.928 567.609 78.9773 566.389 79.7273C565.17 80.4773 563.741 80.8523 562.105 80.8523ZM562.116 78C563.177 78 564.056 77.7197 564.753 77.1591C565.45 76.5985 565.965 75.8523 566.298 74.9205C566.639 73.9886 566.81 72.9621 566.81 71.8409C566.81 70.7273 566.639 69.7045 566.298 68.7727C565.965 67.8333 565.45 67.0795 564.753 66.5114C564.056 65.9432 563.177 65.6591 562.116 65.6591C561.048 65.6591 560.162 65.9432 559.457 66.5114C558.76 67.0795 558.241 67.8333 557.901 68.7727C557.567 69.7045 557.401 70.7273 557.401 71.8409C557.401 72.9621 557.567 73.9886 557.901 74.9205C558.241 75.8523 558.76 76.5985 559.457 77.1591C560.162 77.7197 561.048 78 562.116 78ZM43.4091 113.58L43.3864 109.432H43.9773L50.9318 102.045H55L47.0682 110.455H46.5341L43.4091 113.58ZM40.2841 119.5V96.2273H43.6818V119.5H40.2841ZM51.3068 119.5L45.0568 111.205L47.3977 108.83L55.4773 119.5H51.3068ZM64.9006 119.852C63.1809 119.852 61.6998 119.485 60.4574 118.75C59.2225 118.008 58.268 116.966 57.5938 115.625C56.9271 114.277 56.5938 112.697 56.5938 110.886C56.5938 109.098 56.9271 107.523 57.5938 106.159C58.268 104.795 59.2074 103.731 60.4119 102.966C61.6241 102.201 63.0407 101.818 64.6619 101.818C65.6468 101.818 66.6013 101.981 67.5256 102.307C68.4498 102.633 69.2794 103.144 70.0142 103.841C70.7491 104.538 71.3286 105.443 71.7528 106.557C72.1771 107.663 72.3892 109.008 72.3892 110.591V111.795H58.5142V109.25H69.0597C69.0597 108.356 68.8778 107.564 68.5142 106.875C68.1506 106.178 67.6392 105.629 66.9801 105.227C66.3286 104.826 65.5634 104.625 64.6847 104.625C63.7301 104.625 62.8968 104.86 62.1847 105.33C61.4801 105.792 60.9347 106.398 60.5483 107.148C60.1695 107.89 59.9801 108.697 59.9801 109.568V111.557C59.9801 112.723 60.1847 113.716 60.5938 114.534C61.0104 115.352 61.59 115.977 62.3324 116.409C63.0748 116.833 63.9422 117.045 64.9347 117.045C65.5786 117.045 66.1657 116.955 66.696 116.773C67.2263 116.583 67.6847 116.303 68.071 115.932C68.4574 115.561 68.7528 115.102 68.9574 114.557L72.1733 115.136C71.9157 116.083 71.4536 116.913 70.7869 117.625C70.1278 118.33 69.2983 118.879 68.2983 119.273C67.3059 119.659 66.1733 119.852 64.9006 119.852ZM83.6818 119.852C81.9621 119.852 80.4811 119.485 79.2386 118.75C78.0038 118.008 77.0492 116.966 76.375 115.625C75.7083 114.277 75.375 112.697 75.375 110.886C75.375 109.098 75.7083 107.523 76.375 106.159C77.0492 104.795 77.9886 103.731 79.1932 102.966C80.4053 102.201 81.822 101.818 83.4432 101.818C84.428 101.818 85.3826 101.981 86.3068 102.307C87.2311 102.633 88.0606 103.144 88.7955 103.841C89.5303 104.538 90.1098 105.443 90.5341 106.557C90.9583 107.663 91.1705 109.008 91.1705 110.591V111.795H77.2955V109.25H87.8409C87.8409 108.356 87.6591 107.564 87.2955 106.875C86.9318 106.178 86.4205 105.629 85.7614 105.227C85.1098 104.826 84.3447 104.625 83.4659 104.625C82.5114 104.625 81.678 104.86 80.9659 105.33C80.2614 105.792 79.7159 106.398 79.3295 107.148C78.9508 107.89 78.7614 108.697 78.7614 109.568V111.557C78.7614 112.723 78.9659 113.716 79.375 114.534C79.7917 115.352 80.3712 115.977 81.1136 116.409C81.8561 116.833 82.7235 117.045 83.7159 117.045C84.3598 117.045 84.947 116.955 85.4773 116.773C86.0076 116.583 86.4659 116.303 86.8523 115.932C87.2386 115.561 87.5341 115.102 87.7386 114.557L90.9545 115.136C90.697 116.083 90.2348 116.913 89.5682 117.625C88.9091 118.33 88.0795 118.879 87.0795 119.273C86.0871 119.659 84.9545 119.852 83.6818 119.852ZM94.9403 126.045V102.045H98.2585V104.875H98.5426C98.7396 104.511 99.0237 104.091 99.3949 103.614C99.7661 103.136 100.281 102.72 100.94 102.364C101.599 102 102.471 101.818 103.554 101.818C104.963 101.818 106.221 102.174 107.327 102.886C108.433 103.598 109.3 104.625 109.929 105.966C110.565 107.307 110.884 108.92 110.884 110.807C110.884 112.693 110.569 114.311 109.94 115.659C109.312 117 108.448 118.034 107.349 118.761C106.251 119.481 104.997 119.841 103.588 119.841C102.527 119.841 101.66 119.663 100.986 119.307C100.319 118.951 99.7964 118.534 99.4176 118.057C99.0388 117.58 98.7472 117.155 98.5426 116.784H98.3381V126.045H94.9403ZM98.2699 110.773C98.2699 112 98.4479 113.076 98.804 114C99.16 114.924 99.6752 115.648 100.349 116.17C101.024 116.686 101.849 116.943 102.827 116.943C103.842 116.943 104.69 116.674 105.372 116.136C106.054 115.591 106.569 114.852 106.918 113.92C107.274 112.989 107.452 111.939 107.452 110.773C107.452 109.621 107.277 108.587 106.929 107.67C106.588 106.754 106.073 106.03 105.384 105.5C104.702 104.97 103.849 104.705 102.827 104.705C101.842 104.705 101.009 104.958 100.327 105.466C99.6525 105.973 99.1411 106.682 98.7926 107.591C98.4441 108.5 98.2699 109.561 98.2699 110.773ZM125.307 126.045C124.799 126.045 124.337 126.004 123.92 125.92C123.504 125.845 123.193 125.761 122.989 125.67L123.807 122.886C124.428 123.053 124.981 123.125 125.466 123.102C125.951 123.08 126.379 122.898 126.75 122.557C127.129 122.216 127.462 121.659 127.75 120.886L128.17 119.727L121.784 102.045H125.42L129.841 115.591H130.023L134.443 102.045H138.091L130.898 121.83C130.564 122.739 130.14 123.508 129.625 124.136C129.11 124.773 128.496 125.25 127.784 125.568C127.072 125.886 126.246 126.045 125.307 126.045ZM148.043 119.852C146.406 119.852 144.978 119.477 143.759 118.727C142.539 117.977 141.592 116.928 140.918 115.58C140.243 114.231 139.906 112.655 139.906 110.852C139.906 109.042 140.243 107.458 140.918 106.102C141.592 104.746 142.539 103.693 143.759 102.943C144.978 102.193 146.406 101.818 148.043 101.818C149.679 101.818 151.107 102.193 152.327 102.943C153.546 103.693 154.493 104.746 155.168 106.102C155.842 107.458 156.179 109.042 156.179 110.852C156.179 112.655 155.842 114.231 155.168 115.58C154.493 116.928 153.546 117.977 152.327 118.727C151.107 119.477 149.679 119.852 148.043 119.852ZM148.054 117C149.115 117 149.993 116.72 150.69 116.159C151.387 115.598 151.902 114.852 152.236 113.92C152.577 112.989 152.747 111.962 152.747 110.841C152.747 109.727 152.577 108.705 152.236 107.773C151.902 106.833 151.387 106.08 150.69 105.511C149.993 104.943 149.115 104.659 148.054 104.659C146.986 104.659 146.099 104.943 145.395 105.511C144.698 106.08 144.179 106.833 143.838 107.773C143.505 108.705 143.338 109.727 143.338 110.841C143.338 111.962 143.505 112.989 143.838 113.92C144.179 114.852 144.698 115.598 145.395 116.159C146.099 116.72 146.986 117 148.054 117ZM171.028 112.261V102.045H174.438V119.5H171.097V116.477H170.915C170.513 117.409 169.869 118.186 168.983 118.807C168.104 119.42 167.009 119.727 165.699 119.727C164.578 119.727 163.585 119.481 162.722 118.989C161.866 118.489 161.191 117.75 160.699 116.773C160.214 115.795 159.972 114.587 159.972 113.148V102.045H163.369V112.739C163.369 113.928 163.699 114.875 164.358 115.58C165.017 116.284 165.873 116.636 166.926 116.636C167.563 116.636 168.195 116.477 168.824 116.159C169.46 115.841 169.987 115.36 170.403 114.716C170.828 114.072 171.036 113.254 171.028 112.261ZM187.472 119.5V102.045H190.756V104.818H190.938C191.256 103.879 191.816 103.14 192.619 102.602C193.43 102.057 194.347 101.784 195.369 101.784C195.581 101.784 195.831 101.792 196.119 101.807C196.415 101.822 196.646 101.841 196.812 101.864V105.114C196.676 105.076 196.434 105.034 196.085 104.989C195.737 104.936 195.388 104.909 195.04 104.909C194.237 104.909 193.521 105.08 192.892 105.42C192.271 105.754 191.778 106.22 191.415 106.818C191.051 107.409 190.869 108.083 190.869 108.841V119.5H187.472ZM206.651 119.852C204.931 119.852 203.45 119.485 202.207 118.75C200.973 118.008 200.018 116.966 199.344 115.625C198.677 114.277 198.344 112.697 198.344 110.886C198.344 109.098 198.677 107.523 199.344 106.159C200.018 104.795 200.957 103.731 202.162 102.966C203.374 102.201 204.791 101.818 206.412 101.818C207.397 101.818 208.351 101.981 209.276 102.307C210.2 102.633 211.029 103.144 211.764 103.841C212.499 104.538 213.079 105.443 213.503 106.557C213.927 107.663 214.139 109.008 214.139 110.591V111.795H200.264V109.25H210.81C210.81 108.356 210.628 107.564 210.264 106.875C209.901 106.178 209.389 105.629 208.73 105.227C208.079 104.826 207.313 104.625 206.435 104.625C205.48 104.625 204.647 104.86 203.935 105.33C203.23 105.792 202.685 106.398 202.298 107.148C201.92 107.89 201.73 108.697 201.73 109.568V111.557C201.73 112.723 201.935 113.716 202.344 114.534C202.76 115.352 203.34 115.977 204.082 116.409C204.825 116.833 205.692 117.045 206.685 117.045C207.329 117.045 207.916 116.955 208.446 116.773C208.976 116.583 209.435 116.303 209.821 115.932C210.207 115.561 210.503 115.102 210.707 114.557L213.923 115.136C213.666 116.083 213.204 116.913 212.537 117.625C211.878 118.33 211.048 118.879 210.048 119.273C209.056 119.659 207.923 119.852 206.651 119.852ZM221.307 96.2273V119.5H217.909V96.2273H221.307ZM233.401 119.852C231.681 119.852 230.2 119.485 228.957 118.75C227.723 118.008 226.768 116.966 226.094 115.625C225.427 114.277 225.094 112.697 225.094 110.886C225.094 109.098 225.427 107.523 226.094 106.159C226.768 104.795 227.707 103.731 228.912 102.966C230.124 102.201 231.541 101.818 233.162 101.818C234.147 101.818 235.101 101.981 236.026 102.307C236.95 102.633 237.779 103.144 238.514 103.841C239.249 104.538 239.829 105.443 240.253 106.557C240.677 107.663 240.889 109.008 240.889 110.591V111.795H227.014V109.25H237.56C237.56 108.356 237.378 107.564 237.014 106.875C236.651 106.178 236.139 105.629 235.48 105.227C234.829 104.826 234.063 104.625 233.185 104.625C232.23 104.625 231.397 104.86 230.685 105.33C229.98 105.792 229.435 106.398 229.048 107.148C228.67 107.89 228.48 108.697 228.48 109.568V111.557C228.48 112.723 228.685 113.716 229.094 114.534C229.51 115.352 230.09 115.977 230.832 116.409C231.575 116.833 232.442 117.045 233.435 117.045C234.079 117.045 234.666 116.955 235.196 116.773C235.726 116.583 236.185 116.303 236.571 115.932C236.957 115.561 237.253 115.102 237.457 114.557L240.673 115.136C240.416 116.083 239.954 116.913 239.287 117.625C238.628 118.33 237.798 118.879 236.798 119.273C235.806 119.659 234.673 119.852 233.401 119.852ZM259.091 102.045L252.761 119.5H249.125L242.784 102.045H246.432L250.852 115.477H251.034L255.443 102.045H259.091ZM266.864 119.886C265.758 119.886 264.758 119.682 263.864 119.273C262.97 118.856 262.261 118.254 261.739 117.466C261.223 116.678 260.966 115.712 260.966 114.568C260.966 113.583 261.155 112.773 261.534 112.136C261.913 111.5 262.424 110.996 263.068 110.625C263.712 110.254 264.432 109.973 265.227 109.784C266.023 109.595 266.833 109.451 267.659 109.352C268.705 109.231 269.553 109.133 270.205 109.057C270.856 108.973 271.33 108.841 271.625 108.659C271.92 108.477 272.068 108.182 272.068 107.773V107.693C272.068 106.701 271.788 105.932 271.227 105.386C270.674 104.841 269.848 104.568 268.75 104.568C267.606 104.568 266.705 104.822 266.045 105.33C265.394 105.83 264.943 106.386 264.693 107L261.5 106.273C261.879 105.212 262.432 104.356 263.159 103.705C263.894 103.045 264.739 102.568 265.693 102.273C266.648 101.97 267.652 101.818 268.705 101.818C269.402 101.818 270.14 101.902 270.92 102.068C271.708 102.227 272.443 102.523 273.125 102.955C273.814 103.386 274.379 104.004 274.818 104.807C275.258 105.602 275.477 106.636 275.477 107.909V119.5H272.159V117.114H272.023C271.803 117.553 271.473 117.985 271.034 118.409C270.595 118.833 270.03 119.186 269.341 119.466C268.652 119.746 267.826 119.886 266.864 119.886ZM267.602 117.159C268.542 117.159 269.345 116.973 270.011 116.602C270.686 116.231 271.197 115.746 271.545 115.148C271.902 114.542 272.08 113.894 272.08 113.205V110.955C271.958 111.076 271.723 111.189 271.375 111.295C271.034 111.394 270.644 111.481 270.205 111.557C269.765 111.625 269.337 111.689 268.92 111.75C268.504 111.803 268.155 111.848 267.875 111.886C267.216 111.97 266.614 112.11 266.068 112.307C265.53 112.504 265.098 112.788 264.773 113.159C264.455 113.523 264.295 114.008 264.295 114.614C264.295 115.455 264.606 116.091 265.227 116.523C265.848 116.947 266.64 117.159 267.602 117.159ZM283.401 109.136V119.5H280.003V102.045H283.264V104.886H283.48C283.882 103.962 284.51 103.22 285.366 102.659C286.23 102.098 287.317 101.818 288.628 101.818C289.817 101.818 290.859 102.068 291.753 102.568C292.647 103.061 293.34 103.795 293.832 104.773C294.325 105.75 294.571 106.958 294.571 108.398V119.5H291.173V108.807C291.173 107.542 290.844 106.553 290.185 105.841C289.526 105.121 288.62 104.761 287.469 104.761C286.681 104.761 285.98 104.932 285.366 105.273C284.76 105.614 284.279 106.114 283.923 106.773C283.575 107.424 283.401 108.212 283.401 109.136ZM307.276 102.045V104.773H297.741V102.045H307.276ZM300.298 97.8636H303.696V114.375C303.696 115.034 303.795 115.53 303.991 115.864C304.188 116.189 304.442 116.413 304.753 116.534C305.071 116.648 305.416 116.705 305.787 116.705C306.06 116.705 306.298 116.686 306.503 116.648C306.707 116.61 306.866 116.58 306.98 116.557L307.594 119.364C307.397 119.439 307.116 119.515 306.753 119.591C306.389 119.674 305.935 119.72 305.389 119.727C304.495 119.742 303.662 119.583 302.889 119.25C302.116 118.917 301.491 118.402 301.014 117.705C300.537 117.008 300.298 116.133 300.298 115.08V97.8636ZM315.455 116.318L315.284 117.557C315.17 118.466 314.977 119.413 314.705 120.398C314.439 121.39 314.163 122.311 313.875 123.159C313.595 124.008 313.364 124.682 313.182 125.182H310.773C310.871 124.712 311.008 124.076 311.182 123.273C311.356 122.477 311.527 121.587 311.693 120.602C311.86 119.617 311.985 118.614 312.068 117.591L312.182 116.318H315.455ZM328.347 119.5V102.045H331.631V104.818H331.812C332.131 103.879 332.691 103.14 333.494 102.602C334.305 102.057 335.222 101.784 336.244 101.784C336.456 101.784 336.706 101.792 336.994 101.807C337.29 101.822 337.521 101.841 337.688 101.864V105.114C337.551 105.076 337.309 105.034 336.96 104.989C336.612 104.936 336.263 104.909 335.915 104.909C335.112 104.909 334.396 105.08 333.767 105.42C333.146 105.754 332.653 106.22 332.29 106.818C331.926 107.409 331.744 108.083 331.744 108.841V119.5H328.347ZM347.526 119.852C345.806 119.852 344.325 119.485 343.082 118.75C341.848 118.008 340.893 116.966 340.219 115.625C339.552 114.277 339.219 112.697 339.219 110.886C339.219 109.098 339.552 107.523 340.219 106.159C340.893 104.795 341.832 103.731 343.037 102.966C344.249 102.201 345.666 101.818 347.287 101.818C348.272 101.818 349.226 101.981 350.151 102.307C351.075 102.633 351.904 103.144 352.639 103.841C353.374 104.538 353.954 105.443 354.378 106.557C354.802 107.663 355.014 109.008 355.014 110.591V111.795H341.139V109.25H351.685C351.685 108.356 351.503 107.564 351.139 106.875C350.776 106.178 350.264 105.629 349.605 105.227C348.954 104.826 348.188 104.625 347.31 104.625C346.355 104.625 345.522 104.86 344.81 105.33C344.105 105.792 343.56 106.398 343.173 107.148C342.795 107.89 342.605 108.697 342.605 109.568V111.557C342.605 112.723 342.81 113.716 343.219 114.534C343.635 115.352 344.215 115.977 344.957 116.409C345.7 116.833 346.567 117.045 347.56 117.045C348.204 117.045 348.791 116.955 349.321 116.773C349.851 116.583 350.31 116.303 350.696 115.932C351.082 115.561 351.378 115.102 351.582 114.557L354.798 115.136C354.541 116.083 354.079 116.913 353.412 117.625C352.753 118.33 351.923 118.879 350.923 119.273C349.931 119.659 348.798 119.852 347.526 119.852ZM358.784 119.5V102.045H362.045V104.886H362.261C362.625 103.924 363.22 103.174 364.045 102.636C364.871 102.091 365.86 101.818 367.011 101.818C368.178 101.818 369.155 102.091 369.943 102.636C370.739 103.182 371.326 103.932 371.705 104.886H371.886C372.303 103.955 372.966 103.212 373.875 102.659C374.784 102.098 375.867 101.818 377.125 101.818C378.708 101.818 380 102.314 381 103.307C382.008 104.299 382.511 105.795 382.511 107.795V119.5H379.114V108.114C379.114 106.932 378.792 106.076 378.148 105.545C377.504 105.015 376.735 104.75 375.841 104.75C374.735 104.75 373.875 105.091 373.261 105.773C372.648 106.447 372.341 107.314 372.341 108.375V119.5H368.955V107.898C368.955 106.951 368.659 106.189 368.068 105.614C367.477 105.038 366.708 104.75 365.761 104.75C365.117 104.75 364.523 104.92 363.977 105.261C363.439 105.595 363.004 106.061 362.67 106.659C362.345 107.258 362.182 107.951 362.182 108.739V119.5H358.784ZM394.588 119.852C392.868 119.852 391.387 119.485 390.145 118.75C388.91 118.008 387.955 116.966 387.281 115.625C386.615 114.277 386.281 112.697 386.281 110.886C386.281 109.098 386.615 107.523 387.281 106.159C387.955 104.795 388.895 103.731 390.099 102.966C391.312 102.201 392.728 101.818 394.349 101.818C395.334 101.818 396.289 101.981 397.213 102.307C398.137 102.633 398.967 103.144 399.702 103.841C400.437 104.538 401.016 105.443 401.44 106.557C401.865 107.663 402.077 109.008 402.077 110.591V111.795H388.202V109.25H398.747C398.747 108.356 398.565 107.564 398.202 106.875C397.838 106.178 397.327 105.629 396.668 105.227C396.016 104.826 395.251 104.625 394.372 104.625C393.418 104.625 392.584 104.86 391.872 105.33C391.168 105.792 390.622 106.398 390.236 107.148C389.857 107.89 389.668 108.697 389.668 109.568V111.557C389.668 112.723 389.872 113.716 390.281 114.534C390.698 115.352 391.277 115.977 392.02 116.409C392.762 116.833 393.63 117.045 394.622 117.045C395.266 117.045 395.853 116.955 396.384 116.773C396.914 116.583 397.372 116.303 397.759 115.932C398.145 115.561 398.44 115.102 398.645 114.557L401.861 115.136C401.603 116.083 401.141 116.913 400.474 117.625C399.815 118.33 398.986 118.879 397.986 119.273C396.993 119.659 395.861 119.852 394.588 119.852ZM405.847 119.5V102.045H409.108V104.886H409.324C409.688 103.924 410.282 103.174 411.108 102.636C411.934 102.091 412.922 101.818 414.074 101.818C415.241 101.818 416.218 102.091 417.006 102.636C417.801 103.182 418.388 103.932 418.767 104.886H418.949C419.366 103.955 420.028 103.212 420.938 102.659C421.847 102.098 422.93 101.818 424.188 101.818C425.771 101.818 427.062 102.314 428.062 103.307C429.07 104.299 429.574 105.795 429.574 107.795V119.5H426.176V108.114C426.176 106.932 425.854 106.076 425.21 105.545C424.566 105.015 423.797 104.75 422.903 104.75C421.797 104.75 420.938 105.091 420.324 105.773C419.71 106.447 419.403 107.314 419.403 108.375V119.5H416.017V107.898C416.017 106.951 415.722 106.189 415.131 105.614C414.54 105.038 413.771 104.75 412.824 104.75C412.18 104.75 411.585 104.92 411.04 105.261C410.502 105.595 410.066 106.061 409.733 106.659C409.407 107.258 409.244 107.951 409.244 108.739V119.5H405.847ZM434.401 119.5V96.2273H437.798V104.875H438.003C438.2 104.511 438.484 104.091 438.855 103.614C439.226 103.136 439.741 102.72 440.401 102.364C441.06 102 441.931 101.818 443.014 101.818C444.423 101.818 445.681 102.174 446.787 102.886C447.893 103.598 448.76 104.625 449.389 105.966C450.026 107.307 450.344 108.92 450.344 110.807C450.344 112.693 450.029 114.311 449.401 115.659C448.772 117 447.908 118.034 446.81 118.761C445.711 119.481 444.457 119.841 443.048 119.841C441.988 119.841 441.12 119.663 440.446 119.307C439.779 118.951 439.257 118.534 438.878 118.057C438.499 117.58 438.207 117.155 438.003 116.784H437.719V119.5H434.401ZM437.73 110.773C437.73 112 437.908 113.076 438.264 114C438.62 114.924 439.135 115.648 439.81 116.17C440.484 116.686 441.31 116.943 442.287 116.943C443.302 116.943 444.151 116.674 444.832 116.136C445.514 115.591 446.029 114.852 446.378 113.92C446.734 112.989 446.912 111.939 446.912 110.773C446.912 109.621 446.738 108.587 446.389 107.67C446.048 106.754 445.533 106.03 444.844 105.5C444.162 104.97 443.31 104.705 442.287 104.705C441.302 104.705 440.469 104.958 439.787 105.466C439.113 105.973 438.601 106.682 438.253 107.591C437.904 108.5 437.73 109.561 437.73 110.773ZM461.682 119.852C459.962 119.852 458.481 119.485 457.239 118.75C456.004 118.008 455.049 116.966 454.375 115.625C453.708 114.277 453.375 112.697 453.375 110.886C453.375 109.098 453.708 107.523 454.375 106.159C455.049 104.795 455.989 103.731 457.193 102.966C458.405 102.201 459.822 101.818 461.443 101.818C462.428 101.818 463.383 101.981 464.307 102.307C465.231 102.633 466.061 103.144 466.795 103.841C467.53 104.538 468.11 105.443 468.534 106.557C468.958 107.663 469.17 109.008 469.17 110.591V111.795H455.295V109.25H465.841C465.841 108.356 465.659 107.564 465.295 106.875C464.932 106.178 464.42 105.629 463.761 105.227C463.11 104.826 462.345 104.625 461.466 104.625C460.511 104.625 459.678 104.86 458.966 105.33C458.261 105.792 457.716 106.398 457.33 107.148C456.951 107.89 456.761 108.697 456.761 109.568V111.557C456.761 112.723 456.966 113.716 457.375 114.534C457.792 115.352 458.371 115.977 459.114 116.409C459.856 116.833 460.723 117.045 461.716 117.045C462.36 117.045 462.947 116.955 463.477 116.773C464.008 116.583 464.466 116.303 464.852 115.932C465.239 115.561 465.534 115.102 465.739 114.557L468.955 115.136C468.697 116.083 468.235 116.913 467.568 117.625C466.909 118.33 466.08 118.879 465.08 119.273C464.087 119.659 462.955 119.852 461.682 119.852ZM472.94 119.5V102.045H476.224V104.818H476.406C476.724 103.879 477.285 103.14 478.088 102.602C478.899 102.057 479.815 101.784 480.838 101.784C481.05 101.784 481.3 101.792 481.588 101.807C481.884 101.822 482.115 101.841 482.281 101.864V105.114C482.145 105.076 481.902 105.034 481.554 104.989C481.205 104.936 480.857 104.909 480.509 104.909C479.705 104.909 478.99 105.08 478.361 105.42C477.74 105.754 477.247 106.22 476.884 106.818C476.52 107.409 476.338 108.083 476.338 108.841V119.5H472.94ZM492.119 119.852C490.4 119.852 488.919 119.485 487.676 118.75C486.441 118.008 485.487 116.966 484.812 115.625C484.146 114.277 483.812 112.697 483.812 110.886C483.812 109.098 484.146 107.523 484.812 106.159C485.487 104.795 486.426 103.731 487.631 102.966C488.843 102.201 490.259 101.818 491.881 101.818C492.866 101.818 493.82 101.981 494.744 102.307C495.669 102.633 496.498 103.144 497.233 103.841C497.968 104.538 498.547 105.443 498.972 106.557C499.396 107.663 499.608 109.008 499.608 110.591V111.795H485.733V109.25H496.278C496.278 108.356 496.097 107.564 495.733 106.875C495.369 106.178 494.858 105.629 494.199 105.227C493.547 104.826 492.782 104.625 491.903 104.625C490.949 104.625 490.116 104.86 489.403 105.33C488.699 105.792 488.153 106.398 487.767 107.148C487.388 107.89 487.199 108.697 487.199 109.568V111.557C487.199 112.723 487.403 113.716 487.812 114.534C488.229 115.352 488.809 115.977 489.551 116.409C490.294 116.833 491.161 117.045 492.153 117.045C492.797 117.045 493.384 116.955 493.915 116.773C494.445 116.583 494.903 116.303 495.29 115.932C495.676 115.561 495.972 115.102 496.176 114.557L499.392 115.136C499.134 116.083 498.672 116.913 498.006 117.625C497.347 118.33 496.517 118.879 495.517 119.273C494.525 119.659 493.392 119.852 492.119 119.852ZM509.912 119.841C508.503 119.841 507.245 119.481 506.139 118.761C505.041 118.034 504.177 117 503.548 115.659C502.927 114.311 502.616 112.693 502.616 110.807C502.616 108.92 502.931 107.307 503.56 105.966C504.196 104.625 505.067 103.598 506.173 102.886C507.279 102.174 508.533 101.818 509.935 101.818C511.018 101.818 511.889 102 512.548 102.364C513.215 102.72 513.73 103.136 514.094 103.614C514.465 104.091 514.753 104.511 514.957 104.875H515.162V96.2273H518.56V119.5H515.241V116.784H514.957C514.753 117.155 514.457 117.58 514.071 118.057C513.692 118.534 513.17 118.951 512.503 119.307C511.836 119.663 510.973 119.841 509.912 119.841ZM510.662 116.943C511.639 116.943 512.465 116.686 513.139 116.17C513.821 115.648 514.336 114.924 514.685 114C515.041 113.076 515.219 112 515.219 110.773C515.219 109.561 515.045 108.5 514.696 107.591C514.348 106.682 513.836 105.973 513.162 105.466C512.488 104.958 511.654 104.705 510.662 104.705C509.639 104.705 508.787 104.97 508.105 105.5C507.423 106.03 506.908 106.754 506.56 107.67C506.219 108.587 506.048 109.621 506.048 110.773C506.048 111.939 506.223 112.989 506.571 113.92C506.92 114.852 507.435 115.591 508.116 116.136C508.806 116.674 509.654 116.943 510.662 116.943ZM527.83 116.318L527.659 117.557C527.545 118.466 527.352 119.413 527.08 120.398C526.814 121.39 526.538 122.311 526.25 123.159C525.97 124.008 525.739 124.682 525.557 125.182H523.148C523.246 124.712 523.383 124.076 523.557 123.273C523.731 122.477 523.902 121.587 524.068 120.602C524.235 119.617 524.36 118.614 524.443 117.591L524.557 116.318H527.83ZM545.801 119.886C544.695 119.886 543.695 119.682 542.801 119.273C541.907 118.856 541.199 118.254 540.676 117.466C540.161 116.678 539.903 115.712 539.903 114.568C539.903 113.583 540.093 112.773 540.472 112.136C540.85 111.5 541.362 110.996 542.006 110.625C542.65 110.254 543.369 109.973 544.165 109.784C544.96 109.595 545.771 109.451 546.597 109.352C547.642 109.231 548.491 109.133 549.142 109.057C549.794 108.973 550.267 108.841 550.562 108.659C550.858 108.477 551.006 108.182 551.006 107.773V107.693C551.006 106.701 550.725 105.932 550.165 105.386C549.612 104.841 548.786 104.568 547.688 104.568C546.544 104.568 545.642 104.822 544.983 105.33C544.331 105.83 543.881 106.386 543.631 107L540.438 106.273C540.816 105.212 541.369 104.356 542.097 103.705C542.831 103.045 543.676 102.568 544.631 102.273C545.585 101.97 546.589 101.818 547.642 101.818C548.339 101.818 549.078 101.902 549.858 102.068C550.646 102.227 551.381 102.523 552.062 102.955C552.752 103.386 553.316 104.004 553.756 104.807C554.195 105.602 554.415 106.636 554.415 107.909V119.5H551.097V117.114H550.96C550.741 117.553 550.411 117.985 549.972 118.409C549.532 118.833 548.968 119.186 548.278 119.466C547.589 119.746 546.763 119.886 545.801 119.886ZM546.54 117.159C547.479 117.159 548.282 116.973 548.949 116.602C549.623 116.231 550.134 115.746 550.483 115.148C550.839 114.542 551.017 113.894 551.017 113.205V110.955C550.896 111.076 550.661 111.189 550.312 111.295C549.972 111.394 549.581 111.481 549.142 111.557C548.703 111.625 548.275 111.689 547.858 111.75C547.441 111.803 547.093 111.848 546.812 111.886C546.153 111.97 545.551 112.11 545.006 112.307C544.468 112.504 544.036 112.788 543.71 113.159C543.392 113.523 543.233 114.008 543.233 114.614C543.233 115.455 543.544 116.091 544.165 116.523C544.786 116.947 545.578 117.159 546.54 117.159ZM562.338 109.136V119.5H558.94V102.045H562.202V104.886H562.418C562.819 103.962 563.448 103.22 564.304 102.659C565.168 102.098 566.255 101.818 567.565 101.818C568.755 101.818 569.796 102.068 570.69 102.568C571.584 103.061 572.277 103.795 572.77 104.773C573.262 105.75 573.509 106.958 573.509 108.398V119.5H570.111V108.807C570.111 107.542 569.781 106.553 569.122 105.841C568.463 105.121 567.558 104.761 566.406 104.761C565.618 104.761 564.918 104.932 564.304 105.273C563.698 105.614 563.217 106.114 562.861 106.773C562.512 107.424 562.338 108.212 562.338 109.136ZM584.599 119.841C583.19 119.841 581.933 119.481 580.827 118.761C579.728 118.034 578.865 117 578.236 115.659C577.615 114.311 577.304 112.693 577.304 110.807C577.304 108.92 577.618 107.307 578.247 105.966C578.884 104.625 579.755 103.598 580.861 102.886C581.967 102.174 583.221 101.818 584.622 101.818C585.705 101.818 586.577 102 587.236 102.364C587.902 102.72 588.418 103.136 588.781 103.614C589.152 104.091 589.44 104.511 589.645 104.875H589.849V96.2273H593.247V119.5H589.929V116.784H589.645C589.44 117.155 589.145 117.58 588.759 118.057C588.38 118.534 587.857 118.951 587.19 119.307C586.524 119.663 585.66 119.841 584.599 119.841ZM585.349 116.943C586.327 116.943 587.152 116.686 587.827 116.17C588.509 115.648 589.024 114.924 589.372 114C589.728 113.076 589.906 112 589.906 110.773C589.906 109.561 589.732 108.5 589.384 107.591C589.035 106.682 588.524 105.973 587.849 105.466C587.175 104.958 586.342 104.705 585.349 104.705C584.327 104.705 583.474 104.97 582.793 105.5C582.111 106.03 581.596 106.754 581.247 107.67C580.906 108.587 580.736 109.621 580.736 110.773C580.736 111.939 580.91 112.989 581.259 113.92C581.607 114.852 582.122 115.591 582.804 116.136C583.493 116.674 584.342 116.943 585.349 116.943ZM40.2841 158.5V141.045H43.5682V143.818H43.75C44.0682 142.879 44.6288 142.14 45.4318 141.602C46.2424 141.057 47.1591 140.784 48.1818 140.784C48.3939 140.784 48.6439 140.792 48.9318 140.807C49.2273 140.822 49.4583 140.841 49.625 140.864V144.114C49.4886 144.076 49.2462 144.034 48.8977 143.989C48.5492 143.936 48.2008 143.909 47.8523 143.909C47.0492 143.909 46.3333 144.08 45.7045 144.42C45.0833 144.754 44.5909 145.22 44.2273 145.818C43.8636 146.409 43.6818 147.083 43.6818 147.841V158.5H40.2841ZM59.4631 158.852C57.7434 158.852 56.2623 158.485 55.0199 157.75C53.785 157.008 52.8305 155.966 52.1562 154.625C51.4896 153.277 51.1562 151.697 51.1562 149.886C51.1562 148.098 51.4896 146.523 52.1562 145.159C52.8305 143.795 53.7699 142.731 54.9744 141.966C56.1866 141.201 57.6032 140.818 59.2244 140.818C60.2093 140.818 61.1638 140.981 62.0881 141.307C63.0123 141.633 63.8419 142.144 64.5767 142.841C65.3116 143.538 65.8911 144.443 66.3153 145.557C66.7396 146.663 66.9517 148.008 66.9517 149.591V150.795H53.0767V148.25H63.6222C63.6222 147.356 63.4403 146.564 63.0767 145.875C62.7131 145.178 62.2017 144.629 61.5426 144.227C60.8911 143.826 60.1259 143.625 59.2472 143.625C58.2926 143.625 57.4593 143.86 56.7472 144.33C56.0426 144.792 55.4972 145.398 55.1108 146.148C54.732 146.89 54.5426 147.697 54.5426 148.568V150.557C54.5426 151.723 54.7472 152.716 55.1562 153.534C55.5729 154.352 56.1525 154.977 56.8949 155.409C57.6373 155.833 58.5047 156.045 59.4972 156.045C60.1411 156.045 60.7282 155.955 61.2585 155.773C61.7888 155.583 62.2472 155.303 62.6335 154.932C63.0199 154.561 63.3153 154.102 63.5199 153.557L66.7358 154.136C66.4782 155.083 66.0161 155.913 65.3494 156.625C64.6903 157.33 63.8608 157.879 62.8608 158.273C61.8684 158.659 60.7358 158.852 59.4631 158.852ZM79.0284 141.045V143.773H69.1648V141.045H79.0284ZM71.8693 158.5V139.023C71.8693 137.932 72.108 137.027 72.5852 136.307C73.0625 135.58 73.6951 135.038 74.483 134.682C75.2708 134.318 76.1269 134.136 77.0511 134.136C77.733 134.136 78.3163 134.193 78.8011 134.307C79.286 134.413 79.6458 134.511 79.8807 134.602L79.0852 137.352C78.9261 137.307 78.7216 137.254 78.4716 137.193C78.2216 137.125 77.9186 137.091 77.5625 137.091C76.7367 137.091 76.1458 137.295 75.7898 137.705C75.4413 138.114 75.267 138.705 75.267 139.477V158.5H71.8693ZM89.3693 158.852C87.6496 158.852 86.1686 158.485 84.9261 157.75C83.6913 157.008 82.7367 155.966 82.0625 154.625C81.3958 153.277 81.0625 151.697 81.0625 149.886C81.0625 148.098 81.3958 146.523 82.0625 145.159C82.7367 143.795 83.6761 142.731 84.8807 141.966C86.0928 141.201 87.5095 140.818 89.1307 140.818C90.1155 140.818 91.0701 140.981 91.9943 141.307C92.9186 141.633 93.7481 142.144 94.483 142.841C95.2178 143.538 95.7973 144.443 96.2216 145.557C96.6458 146.663 96.858 148.008 96.858 149.591V150.795H82.983V148.25H93.5284C93.5284 147.356 93.3466 146.564 92.983 145.875C92.6193 145.178 92.108 144.629 91.4489 144.227C90.7973 143.826 90.0322 143.625 89.1534 143.625C88.1989 143.625 87.3655 143.86 86.6534 144.33C85.9489 144.792 85.4034 145.398 85.017 146.148C84.6383 146.89 84.4489 147.697 84.4489 148.568V150.557C84.4489 151.723 84.6534 152.716 85.0625 153.534C85.4792 154.352 86.0587 154.977 86.8011 155.409C87.5436 155.833 88.411 156.045 89.4034 156.045C90.0473 156.045 90.6345 155.955 91.1648 155.773C91.6951 155.583 92.1534 155.303 92.5398 154.932C92.9261 154.561 93.2216 154.102 93.4261 153.557L96.642 154.136C96.3845 155.083 95.9223 155.913 95.2557 156.625C94.5966 157.33 93.767 157.879 92.767 158.273C91.7746 158.659 90.642 158.852 89.3693 158.852ZM100.628 158.5V141.045H103.912V143.818H104.094C104.412 142.879 104.973 142.14 105.776 141.602C106.586 141.057 107.503 140.784 108.526 140.784C108.738 140.784 108.988 140.792 109.276 140.807C109.571 140.822 109.802 140.841 109.969 140.864V144.114C109.832 144.076 109.59 144.034 109.241 143.989C108.893 143.936 108.545 143.909 108.196 143.909C107.393 143.909 106.677 144.08 106.048 144.42C105.427 144.754 104.935 145.22 104.571 145.818C104.207 146.409 104.026 147.083 104.026 147.841V158.5H100.628ZM112.909 158.5V141.045H116.193V143.818H116.375C116.693 142.879 117.254 142.14 118.057 141.602C118.867 141.057 119.784 140.784 120.807 140.784C121.019 140.784 121.269 140.792 121.557 140.807C121.852 140.822 122.083 140.841 122.25 140.864V144.114C122.114 144.076 121.871 144.034 121.523 143.989C121.174 143.936 120.826 143.909 120.477 143.909C119.674 143.909 118.958 144.08 118.33 144.42C117.708 144.754 117.216 145.22 116.852 145.818C116.489 146.409 116.307 147.083 116.307 147.841V158.5H112.909ZM132.088 158.852C130.368 158.852 128.887 158.485 127.645 157.75C126.41 157.008 125.455 155.966 124.781 154.625C124.115 153.277 123.781 151.697 123.781 149.886C123.781 148.098 124.115 146.523 124.781 145.159C125.455 143.795 126.395 142.731 127.599 141.966C128.812 141.201 130.228 140.818 131.849 140.818C132.834 140.818 133.789 140.981 134.713 141.307C135.637 141.633 136.467 142.144 137.202 142.841C137.937 143.538 138.516 144.443 138.94 145.557C139.365 146.663 139.577 148.008 139.577 149.591V150.795H125.702V148.25H136.247C136.247 147.356 136.065 146.564 135.702 145.875C135.338 145.178 134.827 144.629 134.168 144.227C133.516 143.826 132.751 143.625 131.872 143.625C130.918 143.625 130.084 143.86 129.372 144.33C128.668 144.792 128.122 145.398 127.736 146.148C127.357 146.89 127.168 147.697 127.168 148.568V150.557C127.168 151.723 127.372 152.716 127.781 153.534C128.198 154.352 128.777 154.977 129.52 155.409C130.262 155.833 131.13 156.045 132.122 156.045C132.766 156.045 133.353 155.955 133.884 155.773C134.414 155.583 134.872 155.303 135.259 154.932C135.645 154.561 135.94 154.102 136.145 153.557L139.361 154.136C139.103 155.083 138.641 155.913 137.974 156.625C137.315 157.33 136.486 157.879 135.486 158.273C134.493 158.659 133.361 158.852 132.088 158.852ZM149.881 158.841C148.472 158.841 147.214 158.481 146.108 157.761C145.009 157.034 144.146 156 143.517 154.659C142.896 153.311 142.585 151.693 142.585 149.807C142.585 147.92 142.9 146.307 143.528 144.966C144.165 143.625 145.036 142.598 146.142 141.886C147.248 141.174 148.502 140.818 149.903 140.818C150.987 140.818 151.858 141 152.517 141.364C153.184 141.72 153.699 142.136 154.062 142.614C154.434 143.091 154.722 143.511 154.926 143.875H155.131V135.227H158.528V158.5H155.21V155.784H154.926C154.722 156.155 154.426 156.58 154.04 157.057C153.661 157.534 153.138 157.951 152.472 158.307C151.805 158.663 150.941 158.841 149.881 158.841ZM150.631 155.943C151.608 155.943 152.434 155.686 153.108 155.17C153.79 154.648 154.305 153.924 154.653 153C155.009 152.076 155.188 151 155.188 149.773C155.188 148.561 155.013 147.5 154.665 146.591C154.316 145.682 153.805 144.973 153.131 144.466C152.456 143.958 151.623 143.705 150.631 143.705C149.608 143.705 148.756 143.97 148.074 144.5C147.392 145.03 146.877 145.754 146.528 146.67C146.188 147.587 146.017 148.621 146.017 149.773C146.017 150.939 146.191 151.989 146.54 152.92C146.888 153.852 147.403 154.591 148.085 155.136C148.775 155.674 149.623 155.943 150.631 155.943ZM165.616 158.716C164.995 158.716 164.461 158.496 164.014 158.057C163.567 157.61 163.344 157.072 163.344 156.443C163.344 155.822 163.567 155.292 164.014 154.852C164.461 154.405 164.995 154.182 165.616 154.182C166.238 154.182 166.772 154.405 167.219 154.852C167.666 155.292 167.889 155.822 167.889 156.443C167.889 156.86 167.783 157.242 167.571 157.591C167.366 157.932 167.094 158.205 166.753 158.409C166.412 158.614 166.033 158.716 165.616 158.716Z" fill="#1A1F2E"/>
</g>
<defs>
<filter id="filter0_d_261_2" x="0" y="0" width="668" height="224" filterUnits="userSpaceOnUse" color-interpolation-filters="sRGB">
<feFlood flood-opacity="0" result="BackgroundImageFix"/>
<feColorMatrix in="SourceAlpha" type="matrix" values="0 0 0 0 0 0 0 0 0 0 0 0 0 0 0 0 0 0 127 0" result="hardAlpha"/>
<feOffset dy="4"/>
<feGaussianBlur stdDeviation="6"/>
<feColorMatrix type="matrix" values="0 0 0 0 0 0 0 0 0 0 0 0 0 0 0 0 0 0 0.2 0"/>
<feBlend mode="normal" in2="BackgroundImageFix" result="effect1_dropShadow_261_2"/>
<feBlend mode="normal" in="SourceGraphic" in2="effect1_dropShadow_261_2" result="shape"/>
</filter>
</defs>
</svg>
