<svg width="202" height="202" viewBox="0 0 202 202" fill="none" xmlns="http://www.w3.org/2000/svg">
<rect width="202" height="202" fill="#1E1E1E"/>
<rect width="1440" height="10195" transform="translate(-625 -3200)" fill="#FAFAFA"/>
<rect width="202" height="202" rx="101" fill="#1A1F2E"/>
<path d="M165.687 101C165.702 102.91 165.121 104.777 164.026 106.342C162.931 107.906 161.375 109.091 159.576 109.731L122.652 123.158L109.23 160.076C108.569 161.858 107.377 163.396 105.817 164.481C104.256 165.566 102.401 166.148 100.5 166.148C98.5986 166.148 96.7431 165.566 95.1825 164.481C93.6218 163.396 92.4307 161.858 91.7692 160.076L78.3475 123.152L41.4234 109.731C39.6413 109.069 38.1042 107.878 37.0188 106.317C35.9334 104.757 35.3516 102.901 35.3516 101C35.3516 99.0991 35.9334 97.2436 37.0188 95.6829C38.1042 94.1223 39.6413 92.9312 41.4234 92.2696L78.3475 78.848L91.7692 41.9239C92.4307 40.1417 93.6218 38.6047 95.1825 37.5193C96.7431 36.4338 98.5986 35.8521 100.5 35.8521C102.401 35.8521 104.256 36.4338 105.817 37.5193C107.377 38.6047 108.569 40.1417 109.23 41.9239L122.658 78.848L159.576 92.2696C161.375 92.9094 162.931 94.094 164.026 95.6586C165.121 97.2233 165.702 99.0903 165.687 101Z" fill="url(#paint0_linear_261_2)"/>
<defs>
<linearGradient id="paint0_linear_261_2" x1="100.519" y1="35.8521" x2="100.519" y2="166.148" gradientUnits="userSpaceOnUse">
<stop stop-color="#A23BF6"/>
<stop offset="1" stop-color="#DBAFFF"/>
</linearGradient>
</defs>
</svg>
