<svg width="891" height="378" viewBox="0 0 891 378" fill="none" xmlns="http://www.w3.org/2000/svg">
<rect width="891" height="378" fill="#1E1E1E"/>
<rect width="1440" height="10195" transform="translate(-275 -2226)" fill="#FAFAFA"/>
<g filter="url(#filter0_d_261_2)">
<path d="M12 43.5C12 23.8939 27.8939 8 47.5 8H429.5C449.106 8 465 23.8939 465 43.5V137.5C465 157.106 449.106 173 429.5 173H12V43.5Z" fill="#3B82F6"/>
<path d="M49.5455 82.5L43.1818 59.2273H46.0455L50.9091 78.1818H51.1364L56.0909 59.2273H59.2727L64.2273 78.1818H64.4545L69.3182 59.2273H72.1818L65.8182 82.5H62.9091L57.7727 63.9545H57.5909L52.4545 82.5H49.5455ZM80.7955 82.8636C79.2197 82.8636 77.8371 82.4886 76.6477 81.7386C75.4659 80.9886 74.5417 79.9394 73.875 78.5909C73.2159 77.2424 72.8864 75.6667 72.8864 73.8636C72.8864 72.0455 73.2159 70.4583 73.875 69.1023C74.5417 67.7462 75.4659 66.6932 76.6477 65.9432C77.8371 65.1932 79.2197 64.8182 80.7955 64.8182C82.3712 64.8182 83.75 65.1932 84.9318 65.9432C86.1212 66.6932 87.0455 67.7462 87.7045 69.1023C88.3712 70.4583 88.7045 72.0455 88.7045 73.8636C88.7045 75.6667 88.3712 77.2424 87.7045 78.5909C87.0455 79.9394 86.1212 80.9886 84.9318 81.7386C83.75 82.4886 82.3712 82.8636 80.7955 82.8636ZM80.7955 80.4545C81.9924 80.4545 82.9773 80.1477 83.75 79.5341C84.5227 78.9205 85.0947 78.1136 85.4659 77.1136C85.8371 76.1136 86.0227 75.0303 86.0227 73.8636C86.0227 72.697 85.8371 71.6098 85.4659 70.6023C85.0947 69.5947 84.5227 68.7803 83.75 68.1591C82.9773 67.5379 81.9924 67.2273 80.7955 67.2273C79.5985 67.2273 78.6136 67.5379 77.8409 68.1591C77.0682 68.7803 76.4962 69.5947 76.125 70.6023C75.7538 71.6098 75.5682 72.697 75.5682 73.8636C75.5682 75.0303 75.7538 76.1136 76.125 77.1136C76.4962 78.1136 77.0682 78.9205 77.8409 79.5341C78.6136 80.1477 79.5985 80.4545 80.7955 80.4545ZM103.798 75.3636V65.0455H106.48V82.5H103.798V79.5455H103.616C103.207 80.4318 102.571 81.1856 101.707 81.8068C100.844 82.4205 99.7528 82.7273 98.4347 82.7273C97.3438 82.7273 96.3741 82.4886 95.5256 82.0114C94.6771 81.5265 94.0104 80.7992 93.5256 79.8295C93.0407 78.8523 92.7983 77.6212 92.7983 76.1364V65.0455H95.4801V75.9545C95.4801 77.2273 95.8362 78.2424 96.5483 79C97.268 79.7576 98.1847 80.1364 99.2983 80.1364C99.965 80.1364 100.643 79.9659 101.332 79.625C102.029 79.2841 102.613 78.7614 103.082 78.0568C103.56 77.3523 103.798 76.4545 103.798 75.3636ZM114.074 59.2273V82.5H111.392V59.2273H114.074ZM125.577 82.8636C124.122 82.8636 122.838 82.4962 121.724 81.7614C120.611 81.0189 119.74 79.9735 119.111 78.625C118.482 77.2689 118.168 75.6667 118.168 73.8182C118.168 71.9848 118.482 70.3939 119.111 69.0455C119.74 67.697 120.615 66.6553 121.736 65.9205C122.857 65.1856 124.152 64.8182 125.622 64.8182C126.759 64.8182 127.656 65.0076 128.315 65.3864C128.982 65.7576 129.49 66.1818 129.838 66.6591C130.194 67.1288 130.471 67.5152 130.668 67.8182H130.895V59.2273H133.577V82.5H130.986V79.8182H130.668C130.471 80.1364 130.19 80.5379 129.827 81.0227C129.463 81.5 128.944 81.928 128.27 82.3068C127.596 82.678 126.698 82.8636 125.577 82.8636ZM125.94 80.4545C127.016 80.4545 127.925 80.1742 128.668 79.6136C129.41 79.0455 129.974 78.2614 130.361 77.2614C130.747 76.2538 130.94 75.0909 130.94 73.7727C130.94 72.4697 130.751 71.3295 130.372 70.3523C129.993 69.3674 129.433 68.6023 128.69 68.0568C127.948 67.5038 127.031 67.2273 125.94 67.2273C124.804 67.2273 123.857 67.5189 123.099 68.1023C122.349 68.678 121.785 69.4621 121.406 70.4545C121.035 71.4394 120.849 72.5455 120.849 73.7727C120.849 75.0152 121.039 76.1439 121.418 77.1591C121.804 78.1667 122.372 78.9697 123.122 79.5682C123.88 80.1591 124.819 80.4545 125.94 80.4545ZM149.588 89.0455C149.134 89.0455 148.728 89.0076 148.372 88.9318C148.016 88.8636 147.77 88.7955 147.634 88.7273L148.315 86.3636C148.967 86.5303 149.543 86.5909 150.043 86.5455C150.543 86.5 150.986 86.2765 151.372 85.875C151.766 85.4811 152.126 84.8409 152.452 83.9545L152.952 82.5909L146.497 65.0455H149.406L154.224 78.9545H154.406L159.224 65.0455H162.134L154.724 85.0455C154.391 85.947 153.978 86.6932 153.486 87.2841C152.993 87.8826 152.421 88.3258 151.77 88.6136C151.126 88.9015 150.399 89.0455 149.588 89.0455ZM172.139 82.8636C170.563 82.8636 169.181 82.4886 167.991 81.7386C166.81 80.9886 165.885 79.9394 165.219 78.5909C164.56 77.2424 164.23 75.6667 164.23 73.8636C164.23 72.0455 164.56 70.4583 165.219 69.1023C165.885 67.7462 166.81 66.6932 167.991 65.9432C169.181 65.1932 170.563 64.8182 172.139 64.8182C173.715 64.8182 175.094 65.1932 176.276 65.9432C177.465 66.6932 178.389 67.7462 179.048 69.1023C179.715 70.4583 180.048 72.0455 180.048 73.8636C180.048 75.6667 179.715 77.2424 179.048 78.5909C178.389 79.9394 177.465 80.9886 176.276 81.7386C175.094 82.4886 173.715 82.8636 172.139 82.8636ZM172.139 80.4545C173.336 80.4545 174.321 80.1477 175.094 79.5341C175.866 78.9205 176.438 78.1136 176.81 77.1136C177.181 76.1136 177.366 75.0303 177.366 73.8636C177.366 72.697 177.181 71.6098 176.81 70.6023C176.438 69.5947 175.866 68.7803 175.094 68.1591C174.321 67.5379 173.336 67.2273 172.139 67.2273C170.942 67.2273 169.957 67.5379 169.185 68.1591C168.412 68.7803 167.84 69.5947 167.469 70.6023C167.098 71.6098 166.912 72.697 166.912 73.8636C166.912 75.0303 167.098 76.1136 167.469 77.1136C167.84 78.1136 168.412 78.9205 169.185 79.5341C169.957 80.1477 170.942 80.4545 172.139 80.4545ZM195.142 75.3636V65.0455H197.824V82.5H195.142V79.5455H194.96C194.551 80.4318 193.915 81.1856 193.051 81.8068C192.188 82.4205 191.097 82.7273 189.778 82.7273C188.688 82.7273 187.718 82.4886 186.869 82.0114C186.021 81.5265 185.354 80.7992 184.869 79.8295C184.384 78.8523 184.142 77.6212 184.142 76.1364V65.0455H186.824V75.9545C186.824 77.2273 187.18 78.2424 187.892 79C188.612 79.7576 189.528 80.1364 190.642 80.1364C191.309 80.1364 191.987 79.9659 192.676 79.625C193.373 79.2841 193.956 78.7614 194.426 78.0568C194.903 77.3523 195.142 76.4545 195.142 75.3636ZM222.736 75.3636V65.0455H225.418V82.5H222.736V79.5455H222.554C222.145 80.4318 221.509 81.1856 220.645 81.8068C219.781 82.4205 218.69 82.7273 217.372 82.7273C216.281 82.7273 215.312 82.4886 214.463 82.0114C213.615 81.5265 212.948 80.7992 212.463 79.8295C211.978 78.8523 211.736 77.6212 211.736 76.1364V65.0455H214.418V75.9545C214.418 77.2273 214.774 78.2424 215.486 79C216.205 79.7576 217.122 80.1364 218.236 80.1364C218.902 80.1364 219.58 79.9659 220.27 79.625C220.967 79.2841 221.55 78.7614 222.02 78.0568C222.497 77.3523 222.736 76.4545 222.736 75.3636ZM242.693 68.9545L240.284 69.6364C240.133 69.2348 239.909 68.8447 239.614 68.4659C239.326 68.0795 238.932 67.7614 238.432 67.5114C237.932 67.2614 237.292 67.1364 236.511 67.1364C235.443 67.1364 234.553 67.3826 233.841 67.875C233.136 68.3598 232.784 68.9773 232.784 69.7273C232.784 70.3939 233.027 70.9205 233.511 71.3068C233.996 71.6932 234.754 72.0152 235.784 72.2727L238.375 72.9091C239.936 73.2879 241.098 73.8674 241.864 74.6477C242.629 75.4205 243.011 76.4167 243.011 77.6364C243.011 78.6364 242.723 79.5303 242.148 80.3182C241.58 81.1061 240.784 81.7273 239.761 82.1818C238.739 82.6364 237.549 82.8636 236.193 82.8636C234.413 82.8636 232.939 82.4773 231.773 81.7045C230.606 80.9318 229.867 79.803 229.557 78.3182L232.102 77.6818C232.345 78.6212 232.803 79.3258 233.477 79.7955C234.159 80.2652 235.049 80.5 236.148 80.5C237.398 80.5 238.39 80.2348 239.125 79.7045C239.867 79.1667 240.239 78.5227 240.239 77.7727C240.239 77.1667 240.027 76.6591 239.602 76.25C239.178 75.8333 238.527 75.5227 237.648 75.3182L234.739 74.6364C233.14 74.2576 231.966 73.6705 231.216 72.875C230.473 72.072 230.102 71.0682 230.102 69.8636C230.102 68.8788 230.379 68.0076 230.932 67.25C231.492 66.4924 232.254 65.8977 233.216 65.4659C234.186 65.0341 235.284 64.8182 236.511 64.8182C238.239 64.8182 239.595 65.197 240.58 65.9545C241.572 66.7121 242.277 67.7121 242.693 68.9545ZM254.366 82.8636C252.685 82.8636 251.234 82.4924 250.014 81.75C248.802 81 247.866 79.9545 247.207 78.6136C246.556 77.2652 246.23 75.697 246.23 73.9091C246.23 72.1212 246.556 70.5455 247.207 69.1818C247.866 67.8106 248.783 66.7424 249.957 65.9773C251.139 65.2045 252.518 64.8182 254.094 64.8182C255.003 64.8182 255.901 64.9697 256.787 65.2727C257.673 65.5758 258.48 66.0682 259.207 66.75C259.935 67.4242 260.514 68.3182 260.946 69.4318C261.378 70.5455 261.594 71.9167 261.594 73.5455V74.6818H248.139V72.3636H258.866C258.866 71.3788 258.67 70.5 258.276 69.7273C257.889 68.9545 257.336 68.3447 256.616 67.8977C255.904 67.4508 255.063 67.2273 254.094 67.2273C253.026 67.2273 252.101 67.4924 251.321 68.0227C250.548 68.5455 249.954 69.2273 249.537 70.0682C249.12 70.9091 248.912 71.8106 248.912 72.7727V74.3182C248.912 75.6364 249.139 76.7538 249.594 77.6705C250.056 78.5795 250.696 79.2727 251.514 79.75C252.332 80.2197 253.283 80.4545 254.366 80.4545C255.071 80.4545 255.707 80.3561 256.276 80.1591C256.851 79.9545 257.348 79.6515 257.764 79.25C258.181 78.8409 258.503 78.3333 258.73 77.7273L261.321 78.4545C261.048 79.3333 260.59 80.1061 259.946 80.7727C259.302 81.4318 258.507 81.947 257.56 82.3182C256.613 82.6818 255.548 82.8636 254.366 82.8636ZM281.764 82.8636C280.188 82.8636 278.806 82.4886 277.616 81.7386C276.435 80.9886 275.51 79.9394 274.844 78.5909C274.185 77.2424 273.855 75.6667 273.855 73.8636C273.855 72.0455 274.185 70.4583 274.844 69.1023C275.51 67.7462 276.435 66.6932 277.616 65.9432C278.806 65.1932 280.188 64.8182 281.764 64.8182C283.34 64.8182 284.719 65.1932 285.901 65.9432C287.09 66.6932 288.014 67.7462 288.673 69.1023C289.34 70.4583 289.673 72.0455 289.673 73.8636C289.673 75.6667 289.34 77.2424 288.673 78.5909C288.014 79.9394 287.09 80.9886 285.901 81.7386C284.719 82.4886 283.34 82.8636 281.764 82.8636ZM281.764 80.4545C282.961 80.4545 283.946 80.1477 284.719 79.5341C285.491 78.9205 286.063 78.1136 286.435 77.1136C286.806 76.1136 286.991 75.0303 286.991 73.8636C286.991 72.697 286.806 71.6098 286.435 70.6023C286.063 69.5947 285.491 68.7803 284.719 68.1591C283.946 67.5379 282.961 67.2273 281.764 67.2273C280.567 67.2273 279.582 67.5379 278.81 68.1591C278.037 68.7803 277.465 69.5947 277.094 70.6023C276.723 71.6098 276.537 72.697 276.537 73.8636C276.537 75.0303 276.723 76.1136 277.094 77.1136C277.465 78.1136 278.037 78.9205 278.81 79.5341C279.582 80.1477 280.567 80.4545 281.764 80.4545ZM304.767 75.3636V65.0455H307.449V82.5H304.767V79.5455H304.585C304.176 80.4318 303.54 81.1856 302.676 81.8068C301.813 82.4205 300.722 82.7273 299.403 82.7273C298.312 82.7273 297.343 82.4886 296.494 82.0114C295.646 81.5265 294.979 80.7992 294.494 79.8295C294.009 78.8523 293.767 77.6212 293.767 76.1364V65.0455H296.449V75.9545C296.449 77.2273 296.805 78.2424 297.517 79C298.237 79.7576 299.153 80.1364 300.267 80.1364C300.934 80.1364 301.612 79.9659 302.301 79.625C302.998 79.2841 303.581 78.7614 304.051 78.0568C304.528 77.3523 304.767 76.4545 304.767 75.3636ZM312.361 82.5V65.0455H314.952V67.6818H315.134C315.452 66.8182 316.027 66.1174 316.861 65.5795C317.694 65.0417 318.634 64.7727 319.679 64.7727C319.876 64.7727 320.122 64.7765 320.418 64.7841C320.713 64.7917 320.937 64.803 321.088 64.8182V67.5455C320.997 67.5227 320.789 67.4886 320.463 67.4432C320.145 67.3902 319.808 67.3636 319.452 67.3636C318.603 67.3636 317.846 67.5417 317.179 67.8977C316.52 68.2462 315.997 68.7311 315.611 69.3523C315.232 69.9659 315.043 70.6667 315.043 71.4545V82.5H312.361ZM57.3182 107.955L54.9091 108.636C54.7576 108.235 54.5341 107.845 54.2386 107.466C53.9508 107.08 53.5568 106.761 53.0568 106.511C52.5568 106.261 51.9167 106.136 51.1364 106.136C50.0682 106.136 49.178 106.383 48.4659 106.875C47.7614 107.36 47.4091 107.977 47.4091 108.727C47.4091 109.394 47.6515 109.92 48.1364 110.307C48.6212 110.693 49.3788 111.015 50.4091 111.273L53 111.909C54.5606 112.288 55.7235 112.867 56.4886 113.648C57.2538 114.42 57.6364 115.417 57.6364 116.636C57.6364 117.636 57.3485 118.53 56.7727 119.318C56.2045 120.106 55.4091 120.727 54.3864 121.182C53.3636 121.636 52.1742 121.864 50.8182 121.864C49.0379 121.864 47.5644 121.477 46.3977 120.705C45.2311 119.932 44.4924 118.803 44.1818 117.318L46.7273 116.682C46.9697 117.621 47.428 118.326 48.1023 118.795C48.7841 119.265 49.6742 119.5 50.7727 119.5C52.0227 119.5 53.0152 119.235 53.75 118.705C54.4924 118.167 54.8636 117.523 54.8636 116.773C54.8636 116.167 54.6515 115.659 54.2273 115.25C53.803 114.833 53.1515 114.523 52.2727 114.318L49.3636 113.636C47.7652 113.258 46.5909 112.67 45.8409 111.875C45.0985 111.072 44.7273 110.068 44.7273 108.864C44.7273 107.879 45.0038 107.008 45.5568 106.25C46.1174 105.492 46.8788 104.898 47.8409 104.466C48.8106 104.034 49.9091 103.818 51.1364 103.818C52.8636 103.818 54.2197 104.197 55.2045 104.955C56.197 105.712 56.9015 106.712 57.3182 107.955ZM68.9915 121.864C67.3097 121.864 65.8589 121.492 64.6392 120.75C63.4271 120 62.4915 118.955 61.8324 117.614C61.1809 116.265 60.8551 114.697 60.8551 112.909C60.8551 111.121 61.1809 109.545 61.8324 108.182C62.4915 106.811 63.4081 105.742 64.5824 104.977C65.7642 104.205 67.143 103.818 68.7188 103.818C69.6278 103.818 70.5256 103.97 71.4119 104.273C72.2983 104.576 73.1051 105.068 73.8324 105.75C74.5597 106.424 75.1392 107.318 75.571 108.432C76.0028 109.545 76.2188 110.917 76.2188 112.545V113.682H62.7642V111.364H73.4915C73.4915 110.379 73.2945 109.5 72.9006 108.727C72.5142 107.955 71.9612 107.345 71.2415 106.898C70.5294 106.451 69.6884 106.227 68.7188 106.227C67.6506 106.227 66.7263 106.492 65.946 107.023C65.1733 107.545 64.5786 108.227 64.1619 109.068C63.7453 109.909 63.5369 110.811 63.5369 111.773V113.318C63.5369 114.636 63.7642 115.754 64.2188 116.67C64.6809 117.58 65.321 118.273 66.1392 118.75C66.9574 119.22 67.9081 119.455 68.9915 119.455C69.696 119.455 70.3324 119.356 70.9006 119.159C71.4763 118.955 71.9725 118.652 72.3892 118.25C72.8059 117.841 73.1278 117.333 73.3551 116.727L75.946 117.455C75.6733 118.333 75.215 119.106 74.571 119.773C73.9271 120.432 73.1316 120.947 72.1847 121.318C71.2377 121.682 70.1733 121.864 68.9915 121.864ZM80.2983 121.5V104.045H82.8892V106.682H83.071C83.3892 105.818 83.965 105.117 84.7983 104.58C85.6316 104.042 86.571 103.773 87.6165 103.773C87.8134 103.773 88.0597 103.777 88.3551 103.784C88.6506 103.792 88.8741 103.803 89.0256 103.818V106.545C88.9347 106.523 88.7263 106.489 88.4006 106.443C88.0824 106.39 87.7453 106.364 87.3892 106.364C86.5407 106.364 85.7831 106.542 85.1165 106.898C84.4574 107.246 83.9347 107.731 83.5483 108.352C83.1695 108.966 82.9801 109.667 82.9801 110.455V121.5H80.2983ZM107.009 104.045L100.554 121.5H97.8267L91.3722 104.045H94.2812L99.0994 117.955H99.2812L104.099 104.045H107.009ZM110.548 121.5V104.045H113.23V121.5H110.548ZM111.912 101.136C111.389 101.136 110.938 100.958 110.56 100.602C110.188 100.246 110.003 99.8182 110.003 99.3182C110.003 98.8182 110.188 98.3902 110.56 98.0341C110.938 97.678 111.389 97.5 111.912 97.5C112.435 97.5 112.882 97.678 113.253 98.0341C113.632 98.3902 113.821 98.8182 113.821 99.3182C113.821 99.8182 113.632 100.246 113.253 100.602C112.882 100.958 112.435 101.136 111.912 101.136ZM125.233 121.864C123.597 121.864 122.188 121.477 121.006 120.705C119.824 119.932 118.915 118.867 118.278 117.511C117.642 116.155 117.324 114.606 117.324 112.864C117.324 111.091 117.65 109.527 118.301 108.17C118.96 106.807 119.877 105.742 121.051 104.977C122.233 104.205 123.612 103.818 125.188 103.818C126.415 103.818 127.521 104.045 128.506 104.5C129.491 104.955 130.297 105.591 130.926 106.409C131.555 107.227 131.945 108.182 132.097 109.273H129.415C129.21 108.477 128.756 107.773 128.051 107.159C127.354 106.538 126.415 106.227 125.233 106.227C124.188 106.227 123.271 106.5 122.483 107.045C121.703 107.583 121.093 108.345 120.653 109.33C120.222 110.307 120.006 111.455 120.006 112.773C120.006 114.121 120.218 115.295 120.642 116.295C121.074 117.295 121.68 118.072 122.46 118.625C123.248 119.178 124.172 119.455 125.233 119.455C125.93 119.455 126.562 119.333 127.131 119.091C127.699 118.848 128.18 118.5 128.574 118.045C128.968 117.591 129.248 117.045 129.415 116.409H132.097C131.945 117.439 131.57 118.367 130.972 119.193C130.381 120.011 129.597 120.663 128.619 121.148C127.65 121.625 126.521 121.864 125.233 121.864ZM143.335 121.864C141.653 121.864 140.203 121.492 138.983 120.75C137.771 120 136.835 118.955 136.176 117.614C135.525 116.265 135.199 114.697 135.199 112.909C135.199 111.121 135.525 109.545 136.176 108.182C136.835 106.811 137.752 105.742 138.926 104.977C140.108 104.205 141.487 103.818 143.062 103.818C143.972 103.818 144.869 103.97 145.756 104.273C146.642 104.576 147.449 105.068 148.176 105.75C148.903 106.424 149.483 107.318 149.915 108.432C150.347 109.545 150.562 110.917 150.562 112.545V113.682H137.108V111.364H147.835C147.835 110.379 147.638 109.5 147.244 108.727C146.858 107.955 146.305 107.345 145.585 106.898C144.873 106.451 144.032 106.227 143.062 106.227C141.994 106.227 141.07 106.492 140.29 107.023C139.517 107.545 138.922 108.227 138.506 109.068C138.089 109.909 137.881 110.811 137.881 111.773V113.318C137.881 114.636 138.108 115.754 138.562 116.67C139.025 117.58 139.665 118.273 140.483 118.75C141.301 119.22 142.252 119.455 143.335 119.455C144.04 119.455 144.676 119.356 145.244 119.159C145.82 118.955 146.316 118.652 146.733 118.25C147.15 117.841 147.472 117.333 147.699 116.727L150.29 117.455C150.017 118.333 149.559 119.106 148.915 119.773C148.271 120.432 147.475 120.947 146.528 121.318C145.581 121.682 144.517 121.864 143.335 121.864ZM167.006 107.955L164.597 108.636C164.445 108.235 164.222 107.845 163.926 107.466C163.638 107.08 163.244 106.761 162.744 106.511C162.244 106.261 161.604 106.136 160.824 106.136C159.756 106.136 158.866 106.383 158.153 106.875C157.449 107.36 157.097 107.977 157.097 108.727C157.097 109.394 157.339 109.92 157.824 110.307C158.309 110.693 159.066 111.015 160.097 111.273L162.688 111.909C164.248 112.288 165.411 112.867 166.176 113.648C166.941 114.42 167.324 115.417 167.324 116.636C167.324 117.636 167.036 118.53 166.46 119.318C165.892 120.106 165.097 120.727 164.074 121.182C163.051 121.636 161.862 121.864 160.506 121.864C158.725 121.864 157.252 121.477 156.085 120.705C154.919 119.932 154.18 118.803 153.869 117.318L156.415 116.682C156.657 117.621 157.116 118.326 157.79 118.795C158.472 119.265 159.362 119.5 160.46 119.5C161.71 119.5 162.703 119.235 163.438 118.705C164.18 118.167 164.551 117.523 164.551 116.773C164.551 116.167 164.339 115.659 163.915 115.25C163.491 114.833 162.839 114.523 161.96 114.318L159.051 113.636C157.453 113.258 156.278 112.67 155.528 111.875C154.786 111.072 154.415 110.068 154.415 108.864C154.415 107.879 154.691 107.008 155.244 106.25C155.805 105.492 156.566 104.898 157.528 104.466C158.498 104.034 159.597 103.818 160.824 103.818C162.551 103.818 163.907 104.197 164.892 104.955C165.884 105.712 166.589 106.712 167.006 107.955ZM185.497 121.909C184.391 121.909 183.387 121.701 182.486 121.284C181.584 120.86 180.868 120.25 180.338 119.455C179.808 118.652 179.543 117.682 179.543 116.545C179.543 115.545 179.74 114.735 180.134 114.114C180.527 113.485 181.054 112.992 181.713 112.636C182.372 112.28 183.099 112.015 183.895 111.841C184.698 111.659 185.505 111.515 186.315 111.409C187.376 111.273 188.236 111.17 188.895 111.102C189.562 111.027 190.046 110.902 190.349 110.727C190.66 110.553 190.815 110.25 190.815 109.818V109.727C190.815 108.606 190.509 107.735 189.895 107.114C189.289 106.492 188.368 106.182 187.134 106.182C185.853 106.182 184.849 106.462 184.122 107.023C183.395 107.583 182.884 108.182 182.588 108.818L180.043 107.909C180.497 106.848 181.103 106.023 181.861 105.432C182.626 104.833 183.459 104.417 184.361 104.182C185.27 103.939 186.164 103.818 187.043 103.818C187.603 103.818 188.247 103.886 188.974 104.023C189.709 104.152 190.418 104.42 191.099 104.83C191.789 105.239 192.361 105.856 192.815 106.682C193.27 107.508 193.497 108.614 193.497 110V121.5H190.815V119.136H190.679C190.497 119.515 190.194 119.92 189.77 120.352C189.346 120.784 188.781 121.152 188.077 121.455C187.372 121.758 186.512 121.909 185.497 121.909ZM185.906 119.5C186.967 119.5 187.861 119.292 188.588 118.875C189.323 118.458 189.876 117.92 190.247 117.261C190.626 116.602 190.815 115.909 190.815 115.182V112.727C190.702 112.864 190.452 112.989 190.065 113.102C189.687 113.208 189.247 113.303 188.747 113.386C188.255 113.462 187.774 113.53 187.304 113.591C186.842 113.644 186.467 113.689 186.179 113.727C185.482 113.818 184.83 113.966 184.224 114.17C183.626 114.367 183.141 114.667 182.77 115.068C182.406 115.462 182.224 116 182.224 116.682C182.224 117.614 182.569 118.318 183.259 118.795C183.955 119.265 184.838 119.5 185.906 119.5ZM205.438 128.409C204.142 128.409 203.028 128.242 202.097 127.909C201.165 127.583 200.388 127.152 199.767 126.614C199.153 126.083 198.665 125.515 198.301 124.909L200.438 123.409C200.68 123.727 200.987 124.091 201.358 124.5C201.729 124.917 202.237 125.277 202.881 125.58C203.532 125.89 204.384 126.045 205.438 126.045C206.847 126.045 208.009 125.705 208.926 125.023C209.843 124.341 210.301 123.273 210.301 121.818V118.273H210.074C209.877 118.591 209.597 118.985 209.233 119.455C208.877 119.917 208.362 120.33 207.688 120.693C207.021 121.049 206.119 121.227 204.983 121.227C203.574 121.227 202.309 120.894 201.188 120.227C200.074 119.561 199.191 118.591 198.54 117.318C197.896 116.045 197.574 114.5 197.574 112.682C197.574 110.894 197.888 109.337 198.517 108.011C199.146 106.678 200.021 105.648 201.142 104.92C202.263 104.186 203.559 103.818 205.028 103.818C206.165 103.818 207.066 104.008 207.733 104.386C208.407 104.758 208.922 105.182 209.278 105.659C209.642 106.129 209.922 106.515 210.119 106.818H210.392V104.045H212.983V122C212.983 123.5 212.642 124.72 211.96 125.659C211.286 126.606 210.377 127.299 209.233 127.739C208.097 128.186 206.831 128.409 205.438 128.409ZM205.347 118.818C206.422 118.818 207.331 118.572 208.074 118.08C208.816 117.587 209.381 116.879 209.767 115.955C210.153 115.03 210.347 113.924 210.347 112.636C210.347 111.379 210.157 110.269 209.778 109.307C209.4 108.345 208.839 107.591 208.097 107.045C207.354 106.5 206.438 106.227 205.347 106.227C204.21 106.227 203.263 106.515 202.506 107.091C201.756 107.667 201.191 108.439 200.812 109.409C200.441 110.379 200.256 111.455 200.256 112.636C200.256 113.848 200.445 114.92 200.824 115.852C201.21 116.777 201.778 117.504 202.528 118.034C203.286 118.557 204.225 118.818 205.347 118.818ZM223.028 121.909C221.922 121.909 220.919 121.701 220.017 121.284C219.116 120.86 218.4 120.25 217.869 119.455C217.339 118.652 217.074 117.682 217.074 116.545C217.074 115.545 217.271 114.735 217.665 114.114C218.059 113.485 218.585 112.992 219.244 112.636C219.903 112.28 220.631 112.015 221.426 111.841C222.229 111.659 223.036 111.515 223.847 111.409C224.907 111.273 225.767 111.17 226.426 111.102C227.093 111.027 227.578 110.902 227.881 110.727C228.191 110.553 228.347 110.25 228.347 109.818V109.727C228.347 108.606 228.04 107.735 227.426 107.114C226.82 106.492 225.9 106.182 224.665 106.182C223.384 106.182 222.381 106.462 221.653 107.023C220.926 107.583 220.415 108.182 220.119 108.818L217.574 107.909C218.028 106.848 218.634 106.023 219.392 105.432C220.157 104.833 220.991 104.417 221.892 104.182C222.801 103.939 223.695 103.818 224.574 103.818C225.134 103.818 225.778 103.886 226.506 104.023C227.241 104.152 227.949 104.42 228.631 104.83C229.32 105.239 229.892 105.856 230.347 106.682C230.801 107.508 231.028 108.614 231.028 110V121.5H228.347V119.136H228.21C228.028 119.515 227.725 119.92 227.301 120.352C226.877 120.784 226.313 121.152 225.608 121.455C224.903 121.758 224.044 121.909 223.028 121.909ZM223.438 119.5C224.498 119.5 225.392 119.292 226.119 118.875C226.854 118.458 227.407 117.92 227.778 117.261C228.157 116.602 228.347 115.909 228.347 115.182V112.727C228.233 112.864 227.983 112.989 227.597 113.102C227.218 113.208 226.778 113.303 226.278 113.386C225.786 113.462 225.305 113.53 224.835 113.591C224.373 113.644 223.998 113.689 223.71 113.727C223.013 113.818 222.362 113.966 221.756 114.17C221.157 114.367 220.672 114.667 220.301 115.068C219.938 115.462 219.756 116 219.756 116.682C219.756 117.614 220.1 118.318 220.79 118.795C221.487 119.265 222.369 119.5 223.438 119.5ZM235.923 121.5V104.045H238.605V121.5H235.923ZM237.287 101.136C236.764 101.136 236.313 100.958 235.935 100.602C235.563 100.246 235.378 99.8182 235.378 99.3182C235.378 98.8182 235.563 98.3902 235.935 98.0341C236.313 97.678 236.764 97.5 237.287 97.5C237.81 97.5 238.257 97.678 238.628 98.0341C239.007 98.3902 239.196 98.8182 239.196 99.3182C239.196 99.8182 239.007 100.246 238.628 100.602C238.257 100.958 237.81 101.136 237.287 101.136ZM246.199 111V121.5H243.517V104.045H246.108V106.773H246.335C246.744 105.886 247.366 105.174 248.199 104.636C249.032 104.091 250.108 103.818 251.426 103.818C252.608 103.818 253.642 104.061 254.528 104.545C255.415 105.023 256.104 105.75 256.597 106.727C257.089 107.697 257.335 108.924 257.335 110.409V121.5H254.653V110.591C254.653 109.22 254.297 108.152 253.585 107.386C252.873 106.614 251.896 106.227 250.653 106.227C249.797 106.227 249.032 106.413 248.358 106.784C247.691 107.155 247.165 107.697 246.778 108.409C246.392 109.121 246.199 109.985 246.199 111ZM265.736 114.955V114.818C265.751 113.371 265.902 112.22 266.19 111.364C266.478 110.508 266.887 109.814 267.418 109.284C267.948 108.754 268.584 108.265 269.327 107.818C269.774 107.545 270.175 107.223 270.531 106.852C270.887 106.473 271.168 106.038 271.372 105.545C271.584 105.053 271.69 104.508 271.69 103.909C271.69 103.167 271.516 102.523 271.168 101.977C270.819 101.432 270.353 101.011 269.77 100.716C269.187 100.42 268.539 100.273 267.827 100.273C267.205 100.273 266.607 100.402 266.031 100.659C265.455 100.917 264.974 101.322 264.588 101.875C264.202 102.428 263.978 103.152 263.918 104.045H261.054C261.115 102.758 261.448 101.655 262.054 100.739C262.668 99.822 263.474 99.1212 264.474 98.6364C265.482 98.1515 266.599 97.9091 267.827 97.9091C269.16 97.9091 270.319 98.1742 271.304 98.7045C272.296 99.2348 273.062 99.9621 273.599 100.886C274.145 101.811 274.418 102.864 274.418 104.045C274.418 104.879 274.289 105.633 274.031 106.307C273.781 106.981 273.418 107.583 272.94 108.114C272.471 108.644 271.902 109.114 271.236 109.523C270.569 109.939 270.035 110.379 269.634 110.841C269.232 111.295 268.94 111.837 268.759 112.466C268.577 113.095 268.478 113.879 268.463 114.818V114.955H265.736ZM267.19 121.682C266.63 121.682 266.149 121.481 265.747 121.08C265.346 120.678 265.145 120.197 265.145 119.636C265.145 119.076 265.346 118.595 265.747 118.193C266.149 117.792 266.63 117.591 267.19 117.591C267.751 117.591 268.232 117.792 268.634 118.193C269.035 118.595 269.236 119.076 269.236 119.636C269.236 120.008 269.141 120.348 268.952 120.659C268.77 120.97 268.524 121.22 268.213 121.409C267.91 121.591 267.569 121.682 267.19 121.682Z" fill="white"/>
</g>
<g filter="url(#filter1_d_261_2)">
<path d="M457 232.5C457 212.894 472.894 197 492.5 197H843.5C863.106 197 879 212.894 879 232.5V362H492.5C472.894 362 457 346.106 457 326.5V232.5Z" fill="white"/>
<path d="M526.455 279.864C526.455 282.318 526.011 284.439 525.125 286.227C524.239 288.015 523.023 289.394 521.477 290.364C519.932 291.333 518.167 291.818 516.182 291.818C514.197 291.818 512.432 291.333 510.886 290.364C509.341 289.394 508.125 288.015 507.239 286.227C506.352 284.439 505.909 282.318 505.909 279.864C505.909 277.409 506.352 275.288 507.239 273.5C508.125 271.712 509.341 270.333 510.886 269.364C512.432 268.394 514.197 267.909 516.182 267.909C518.167 267.909 519.932 268.394 521.477 269.364C523.023 270.333 524.239 271.712 525.125 273.5C526.011 275.288 526.455 277.409 526.455 279.864ZM523.727 279.864C523.727 277.848 523.39 276.148 522.716 274.761C522.049 273.375 521.144 272.326 520 271.614C518.864 270.902 517.591 270.545 516.182 270.545C514.773 270.545 513.496 270.902 512.352 271.614C511.216 272.326 510.311 273.375 509.636 274.761C508.97 276.148 508.636 277.848 508.636 279.864C508.636 281.879 508.97 283.58 509.636 284.966C510.311 286.352 511.216 287.402 512.352 288.114C513.496 288.826 514.773 289.182 516.182 289.182C517.591 289.182 518.864 288.826 520 288.114C521.144 287.402 522.049 286.352 522.716 284.966C523.39 283.58 523.727 281.879 523.727 279.864ZM538.602 274.045V276.318H529.193V274.045H538.602ZM532.011 291.5V271.636C532.011 270.636 532.246 269.803 532.716 269.136C533.186 268.47 533.795 267.97 534.545 267.636C535.295 267.303 536.087 267.136 536.92 267.136C537.58 267.136 538.117 267.189 538.534 267.295C538.951 267.402 539.261 267.5 539.466 267.591L538.693 269.909C538.557 269.864 538.367 269.807 538.125 269.739C537.89 269.67 537.58 269.636 537.193 269.636C536.307 269.636 535.667 269.86 535.273 270.307C534.886 270.754 534.693 271.409 534.693 272.273V291.5H532.011ZM548.733 291.864C547.097 291.864 545.688 291.477 544.506 290.705C543.324 289.932 542.415 288.867 541.778 287.511C541.142 286.155 540.824 284.606 540.824 282.864C540.824 281.091 541.15 279.527 541.801 278.17C542.46 276.807 543.377 275.742 544.551 274.977C545.733 274.205 547.112 273.818 548.688 273.818C549.915 273.818 551.021 274.045 552.006 274.5C552.991 274.955 553.797 275.591 554.426 276.409C555.055 277.227 555.445 278.182 555.597 279.273H552.915C552.71 278.477 552.256 277.773 551.551 277.159C550.854 276.538 549.915 276.227 548.733 276.227C547.688 276.227 546.771 276.5 545.983 277.045C545.203 277.583 544.593 278.345 544.153 279.33C543.722 280.307 543.506 281.455 543.506 282.773C543.506 284.121 543.718 285.295 544.142 286.295C544.574 287.295 545.18 288.072 545.96 288.625C546.748 289.178 547.672 289.455 548.733 289.455C549.43 289.455 550.062 289.333 550.631 289.091C551.199 288.848 551.68 288.5 552.074 288.045C552.468 287.591 552.748 287.045 552.915 286.409H555.597C555.445 287.439 555.07 288.367 554.472 289.193C553.881 290.011 553.097 290.663 552.119 291.148C551.15 291.625 550.021 291.864 548.733 291.864ZM563.517 288.318L563.335 289.545C563.206 290.409 563.009 291.333 562.744 292.318C562.487 293.303 562.218 294.231 561.938 295.102C561.657 295.973 561.426 296.667 561.244 297.182H559.199C559.297 296.697 559.426 296.057 559.585 295.261C559.744 294.466 559.903 293.576 560.062 292.591C560.229 291.614 560.366 290.614 560.472 289.591L560.608 288.318H563.517ZM580.668 268.227V291.5H577.849V268.227H580.668ZM601.545 291.864C600.091 291.864 598.807 291.496 597.693 290.761C596.58 290.019 595.708 288.973 595.08 287.625C594.451 286.269 594.136 284.667 594.136 282.818C594.136 280.985 594.451 279.394 595.08 278.045C595.708 276.697 596.583 275.655 597.705 274.92C598.826 274.186 600.121 273.818 601.591 273.818C602.727 273.818 603.625 274.008 604.284 274.386C604.951 274.758 605.458 275.182 605.807 275.659C606.163 276.129 606.439 276.515 606.636 276.818H606.864V268.227H609.545V291.5H606.955V288.818H606.636C606.439 289.136 606.159 289.538 605.795 290.023C605.432 290.5 604.913 290.928 604.239 291.307C603.564 291.678 602.667 291.864 601.545 291.864ZM601.909 289.455C602.985 289.455 603.894 289.174 604.636 288.614C605.379 288.045 605.943 287.261 606.33 286.261C606.716 285.254 606.909 284.091 606.909 282.773C606.909 281.47 606.72 280.33 606.341 279.352C605.962 278.367 605.402 277.602 604.659 277.057C603.917 276.504 603 276.227 601.909 276.227C600.773 276.227 599.826 276.519 599.068 277.102C598.318 277.678 597.754 278.462 597.375 279.455C597.004 280.439 596.818 281.545 596.818 282.773C596.818 284.015 597.008 285.144 597.386 286.159C597.773 287.167 598.341 287.97 599.091 288.568C599.848 289.159 600.788 289.455 601.909 289.455ZM622.148 291.864C620.466 291.864 619.015 291.492 617.795 290.75C616.583 290 615.648 288.955 614.989 287.614C614.337 286.265 614.011 284.697 614.011 282.909C614.011 281.121 614.337 279.545 614.989 278.182C615.648 276.811 616.564 275.742 617.739 274.977C618.92 274.205 620.299 273.818 621.875 273.818C622.784 273.818 623.682 273.97 624.568 274.273C625.455 274.576 626.261 275.068 626.989 275.75C627.716 276.424 628.295 277.318 628.727 278.432C629.159 279.545 629.375 280.917 629.375 282.545V283.682H615.92V281.364H626.648C626.648 280.379 626.451 279.5 626.057 278.727C625.67 277.955 625.117 277.345 624.398 276.898C623.686 276.451 622.845 276.227 621.875 276.227C620.807 276.227 619.883 276.492 619.102 277.023C618.33 277.545 617.735 278.227 617.318 279.068C616.902 279.909 616.693 280.811 616.693 281.773V283.318C616.693 284.636 616.92 285.754 617.375 286.67C617.837 287.58 618.477 288.273 619.295 288.75C620.114 289.22 621.064 289.455 622.148 289.455C622.852 289.455 623.489 289.356 624.057 289.159C624.633 288.955 625.129 288.652 625.545 288.25C625.962 287.841 626.284 287.333 626.511 286.727L629.102 287.455C628.83 288.333 628.371 289.106 627.727 289.773C627.083 290.432 626.288 290.947 625.341 291.318C624.394 291.682 623.33 291.864 622.148 291.864ZM641.227 274.045V276.318H631.818V274.045H641.227ZM634.636 291.5V271.636C634.636 270.636 634.871 269.803 635.341 269.136C635.811 268.47 636.42 267.97 637.17 267.636C637.92 267.303 638.712 267.136 639.545 267.136C640.205 267.136 640.742 267.189 641.159 267.295C641.576 267.402 641.886 267.5 642.091 267.591L641.318 269.909C641.182 269.864 640.992 269.807 640.75 269.739C640.515 269.67 640.205 269.636 639.818 269.636C638.932 269.636 638.292 269.86 637.898 270.307C637.511 270.754 637.318 271.409 637.318 272.273V291.5H634.636ZM644.986 291.5V274.045H647.668V291.5H644.986ZM646.349 271.136C645.827 271.136 645.376 270.958 644.997 270.602C644.626 270.246 644.44 269.818 644.44 269.318C644.44 268.818 644.626 268.39 644.997 268.034C645.376 267.678 645.827 267.5 646.349 267.5C646.872 267.5 647.319 267.678 647.69 268.034C648.069 268.39 648.259 268.818 648.259 269.318C648.259 269.818 648.069 270.246 647.69 270.602C647.319 270.958 646.872 271.136 646.349 271.136ZM655.261 281V291.5H652.58V274.045H655.17V276.773H655.398C655.807 275.886 656.428 275.174 657.261 274.636C658.095 274.091 659.17 273.818 660.489 273.818C661.67 273.818 662.705 274.061 663.591 274.545C664.477 275.023 665.167 275.75 665.659 276.727C666.152 277.697 666.398 278.924 666.398 280.409V291.5H663.716V280.591C663.716 279.22 663.36 278.152 662.648 277.386C661.936 276.614 660.958 276.227 659.716 276.227C658.86 276.227 658.095 276.413 657.42 276.784C656.754 277.155 656.227 277.697 655.841 278.409C655.455 279.121 655.261 279.985 655.261 281ZM671.298 291.5V274.045H673.98V291.5H671.298ZM672.662 271.136C672.139 271.136 671.688 270.958 671.31 270.602C670.938 270.246 670.753 269.818 670.753 269.318C670.753 268.818 670.938 268.39 671.31 268.034C671.688 267.678 672.139 267.5 672.662 267.5C673.185 267.5 673.632 267.678 674.003 268.034C674.382 268.39 674.571 268.818 674.571 269.318C674.571 269.818 674.382 270.246 674.003 270.602C673.632 270.958 673.185 271.136 672.662 271.136ZM686.483 274.045V276.318H677.438V274.045H686.483ZM680.074 269.864H682.756V286.5C682.756 287.258 682.866 287.826 683.085 288.205C683.313 288.576 683.6 288.826 683.949 288.955C684.305 289.076 684.68 289.136 685.074 289.136C685.369 289.136 685.612 289.121 685.801 289.091C685.991 289.053 686.142 289.023 686.256 289L686.801 291.409C686.619 291.477 686.366 291.545 686.04 291.614C685.714 291.689 685.301 291.727 684.801 291.727C684.044 291.727 683.301 291.564 682.574 291.239C681.854 290.913 681.256 290.417 680.778 289.75C680.309 289.083 680.074 288.242 680.074 287.227V269.864ZM697.648 291.864C695.966 291.864 694.515 291.492 693.295 290.75C692.083 290 691.148 288.955 690.489 287.614C689.837 286.265 689.511 284.697 689.511 282.909C689.511 281.121 689.837 279.545 690.489 278.182C691.148 276.811 692.064 275.742 693.239 274.977C694.42 274.205 695.799 273.818 697.375 273.818C698.284 273.818 699.182 273.97 700.068 274.273C700.955 274.576 701.761 275.068 702.489 275.75C703.216 276.424 703.795 277.318 704.227 278.432C704.659 279.545 704.875 280.917 704.875 282.545V283.682H691.42V281.364H702.148C702.148 280.379 701.951 279.5 701.557 278.727C701.17 277.955 700.617 277.345 699.898 276.898C699.186 276.451 698.345 276.227 697.375 276.227C696.307 276.227 695.383 276.492 694.602 277.023C693.83 277.545 693.235 278.227 692.818 279.068C692.402 279.909 692.193 280.811 692.193 281.773V283.318C692.193 284.636 692.42 285.754 692.875 286.67C693.337 287.58 693.977 288.273 694.795 288.75C695.614 289.22 696.564 289.455 697.648 289.455C698.352 289.455 698.989 289.356 699.557 289.159C700.133 288.955 700.629 288.652 701.045 288.25C701.462 287.841 701.784 287.333 702.011 286.727L704.602 287.455C704.33 288.333 703.871 289.106 703.227 289.773C702.583 290.432 701.788 290.947 700.841 291.318C699.894 291.682 698.83 291.864 697.648 291.864ZM711.636 268.227V291.5H708.955V268.227H711.636ZM718.276 298.045C717.821 298.045 717.416 298.008 717.06 297.932C716.704 297.864 716.457 297.795 716.321 297.727L717.003 295.364C717.654 295.53 718.23 295.591 718.73 295.545C719.23 295.5 719.673 295.277 720.06 294.875C720.454 294.481 720.813 293.841 721.139 292.955L721.639 291.591L715.185 274.045H718.094L722.912 287.955H723.094L727.912 274.045H730.821L723.412 294.045C723.079 294.947 722.666 295.693 722.173 296.284C721.681 296.883 721.109 297.326 720.457 297.614C719.813 297.902 719.086 298.045 718.276 298.045ZM747.315 291.5L741.997 274.045H744.815L748.588 287.409H748.77L752.497 274.045H755.361L759.043 287.364H759.224L762.997 274.045H765.815L760.497 291.5H757.861L754.043 278.091H753.77L749.952 291.5H747.315ZM775.858 291.864C774.282 291.864 772.9 291.489 771.71 290.739C770.528 289.989 769.604 288.939 768.938 287.591C768.278 286.242 767.949 284.667 767.949 282.864C767.949 281.045 768.278 279.458 768.938 278.102C769.604 276.746 770.528 275.693 771.71 274.943C772.9 274.193 774.282 273.818 775.858 273.818C777.434 273.818 778.813 274.193 779.994 274.943C781.184 275.693 782.108 276.746 782.767 278.102C783.434 279.458 783.767 281.045 783.767 282.864C783.767 284.667 783.434 286.242 782.767 287.591C782.108 288.939 781.184 289.989 779.994 290.739C778.813 291.489 777.434 291.864 775.858 291.864ZM775.858 289.455C777.055 289.455 778.04 289.148 778.812 288.534C779.585 287.92 780.157 287.114 780.528 286.114C780.9 285.114 781.085 284.03 781.085 282.864C781.085 281.697 780.9 280.61 780.528 279.602C780.157 278.595 779.585 277.78 778.812 277.159C778.04 276.538 777.055 276.227 775.858 276.227C774.661 276.227 773.676 276.538 772.903 277.159C772.131 277.78 771.559 278.595 771.188 279.602C770.816 280.61 770.631 281.697 770.631 282.864C770.631 284.03 770.816 285.114 771.188 286.114C771.559 287.114 772.131 287.92 772.903 288.534C773.676 289.148 774.661 289.455 775.858 289.455ZM798.861 284.364V274.045H801.543V291.5H798.861V288.545H798.679C798.27 289.432 797.634 290.186 796.77 290.807C795.906 291.42 794.815 291.727 793.497 291.727C792.406 291.727 791.437 291.489 790.588 291.011C789.74 290.527 789.073 289.799 788.588 288.83C788.103 287.852 787.861 286.621 787.861 285.136V274.045H790.543V284.955C790.543 286.227 790.899 287.242 791.611 288C792.33 288.758 793.247 289.136 794.361 289.136C795.027 289.136 795.705 288.966 796.395 288.625C797.092 288.284 797.675 287.761 798.145 287.057C798.622 286.352 798.861 285.455 798.861 284.364ZM809.136 268.227V291.5H806.455V268.227H809.136ZM820.639 291.864C819.185 291.864 817.901 291.496 816.787 290.761C815.673 290.019 814.802 288.973 814.173 287.625C813.545 286.269 813.23 284.667 813.23 282.818C813.23 280.985 813.545 279.394 814.173 278.045C814.802 276.697 815.677 275.655 816.798 274.92C817.92 274.186 819.215 273.818 820.685 273.818C821.821 273.818 822.719 274.008 823.378 274.386C824.045 274.758 824.552 275.182 824.901 275.659C825.257 276.129 825.533 276.515 825.73 276.818H825.957V268.227H828.639V291.5H826.048V288.818H825.73C825.533 289.136 825.253 289.538 824.889 290.023C824.526 290.5 824.007 290.928 823.332 291.307C822.658 291.678 821.76 291.864 820.639 291.864ZM821.003 289.455C822.079 289.455 822.988 289.174 823.73 288.614C824.473 288.045 825.037 287.261 825.423 286.261C825.81 285.254 826.003 284.091 826.003 282.773C826.003 281.47 825.813 280.33 825.435 279.352C825.056 278.367 824.495 277.602 823.753 277.057C823.01 276.504 822.094 276.227 821.003 276.227C819.866 276.227 818.92 276.519 818.162 277.102C817.412 277.678 816.848 278.462 816.469 279.455C816.098 280.439 815.912 281.545 815.912 282.773C815.912 284.015 816.101 285.144 816.48 286.159C816.866 287.167 817.435 287.97 818.185 288.568C818.942 289.159 819.882 289.455 821.003 289.455Z" fill="black"/>
</g>
<defs>
<filter id="filter0_d_261_2" x="0" y="0" width="477" height="189" filterUnits="userSpaceOnUse" color-interpolation-filters="sRGB">
<feFlood flood-opacity="0" result="BackgroundImageFix"/>
<feColorMatrix in="SourceAlpha" type="matrix" values="0 0 0 0 0 0 0 0 0 0 0 0 0 0 0 0 0 0 127 0" result="hardAlpha"/>
<feOffset dy="4"/>
<feGaussianBlur stdDeviation="6"/>
<feColorMatrix type="matrix" values="0 0 0 0 0 0 0 0 0 0 0 0 0 0 0 0 0 0 0.2 0"/>
<feBlend mode="normal" in2="BackgroundImageFix" result="effect1_dropShadow_261_2"/>
<feBlend mode="normal" in="SourceGraphic" in2="effect1_dropShadow_261_2" result="shape"/>
</filter>
<filter id="filter1_d_261_2" x="445" y="189" width="446" height="189" filterUnits="userSpaceOnUse" color-interpolation-filters="sRGB">
<feFlood flood-opacity="0" result="BackgroundImageFix"/>
<feColorMatrix in="SourceAlpha" type="matrix" values="0 0 0 0 0 0 0 0 0 0 0 0 0 0 0 0 0 0 127 0" result="hardAlpha"/>
<feOffset dy="4"/>
<feGaussianBlur stdDeviation="6"/>
<feColorMatrix type="matrix" values="0 0 0 0 0 0 0 0 0 0 0 0 0 0 0 0 0 0 0.2 0"/>
<feBlend mode="normal" in2="BackgroundImageFix" result="effect1_dropShadow_261_2"/>
<feBlend mode="normal" in="SourceGraphic" in2="effect1_dropShadow_261_2" result="shape"/>
</filter>
</defs>
</svg>
