<svg width="1296" height="407" viewBox="0 0 1296 407" fill="none" xmlns="http://www.w3.org/2000/svg">
<rect width="1296" height="407" rx="32" fill="url(#paint0_linear_317_106)"/>
<path d="M60.9517 66.4545L70.0199 92.1676H70.3778L79.446 66.4545H83.3239L72.108 97H68.2898L57.0739 66.4545H60.9517ZM87.6044 97V74.0909H91.1243V97H87.6044ZM89.3942 70.2727C88.7081 70.2727 88.1165 70.0391 87.6193 69.5717C87.1321 69.1044 86.8885 68.5426 86.8885 67.8864C86.8885 67.2301 87.1321 66.6683 87.6193 66.201C88.1165 65.7337 88.7081 65.5 89.3942 65.5C90.0803 65.5 90.6669 65.7337 91.1541 66.201C91.6513 66.6683 91.8999 67.2301 91.8999 67.8864C91.8999 68.5426 91.6513 69.1044 91.1541 69.5717C90.6669 70.0391 90.0803 70.2727 89.3942 70.2727ZM104.313 97.5369C102.861 97.5369 101.544 97.2635 100.36 96.7166C99.177 96.1598 98.2374 95.3594 97.5414 94.3153C96.8453 93.2614 96.4973 91.9886 96.4973 90.4972C96.4973 89.1847 96.7559 88.1207 97.2729 87.3054C97.79 86.4801 98.481 85.8338 99.3461 85.3665C100.211 84.8991 101.166 84.5511 102.21 84.3224C103.264 84.0838 104.323 83.8949 105.387 83.7557C106.779 83.5767 107.907 83.4425 108.772 83.353C109.647 83.2536 110.284 83.0895 110.681 82.8608C111.089 82.6321 111.293 82.2344 111.293 81.6676V81.5483C111.293 80.0767 110.89 78.9332 110.085 78.1179C109.289 77.3026 108.081 76.8949 106.46 76.8949C104.78 76.8949 103.463 77.2628 102.508 77.9986C101.553 78.7344 100.882 79.5199 100.494 80.3551L97.1536 79.1619C97.7502 77.7699 98.5456 76.6861 99.54 75.9105C100.544 75.125 101.638 74.5781 102.821 74.2699C104.014 73.9517 105.188 73.7926 106.341 73.7926C107.077 73.7926 107.922 73.8821 108.877 74.0611C109.841 74.2301 110.771 74.5831 111.666 75.12C112.57 75.657 113.321 76.4673 113.918 77.5511C114.514 78.6349 114.813 80.0866 114.813 81.9062V97H111.293V93.8977H111.114C110.875 94.3949 110.477 94.9268 109.921 95.4936C109.364 96.0604 108.623 96.5426 107.698 96.9403C106.774 97.3381 105.645 97.5369 104.313 97.5369ZM104.85 94.375C106.242 94.375 107.415 94.1016 108.369 93.5547C109.334 93.0078 110.06 92.3018 110.547 91.4368C111.044 90.5717 111.293 89.6619 111.293 88.7074V85.4858C111.144 85.6648 110.816 85.8288 110.308 85.978C109.811 86.1172 109.235 86.2415 108.578 86.3509C107.932 86.4503 107.301 86.5398 106.684 86.6193C106.078 86.6889 105.585 86.7486 105.208 86.7983C104.293 86.9176 103.438 87.1115 102.642 87.38C101.857 87.6385 101.22 88.0312 100.733 88.5582C100.256 89.0753 100.017 89.7812 100.017 90.6761C100.017 91.8991 100.47 92.8239 101.374 93.4503C102.289 94.0668 103.448 94.375 104.85 94.375ZM124.757 83.2188V97H121.237V74.0909H124.638V77.6705H124.936C125.473 76.5071 126.288 75.5724 127.382 74.8665C128.476 74.1506 129.888 73.7926 131.618 73.7926C133.169 73.7926 134.526 74.1108 135.69 74.7472C136.853 75.3736 137.758 76.3281 138.404 77.6108C139.05 78.8835 139.374 80.4943 139.374 82.4432V97H135.854V82.6818C135.854 80.8821 135.386 79.4801 134.452 78.4759C133.517 77.4616 132.234 76.9545 130.604 76.9545C129.48 76.9545 128.476 77.1982 127.591 77.6854C126.716 78.1726 126.025 78.8835 125.518 79.8182C125.011 80.7528 124.757 81.8864 124.757 83.2188ZM155.112 97.4773C153.044 97.4773 151.23 96.9851 149.669 96.0007C148.117 95.0163 146.904 93.6392 146.029 91.8693C145.164 90.0994 144.732 88.0312 144.732 85.6648C144.732 83.2784 145.164 81.1953 146.029 79.4155C146.904 77.6357 148.117 76.2536 149.669 75.2692C151.23 74.2848 153.044 73.7926 155.112 73.7926C157.181 73.7926 158.99 74.2848 160.541 75.2692C162.102 76.2536 163.316 77.6357 164.181 79.4155C165.056 81.1953 165.493 83.2784 165.493 85.6648C165.493 88.0312 165.056 90.0994 164.181 91.8693C163.316 93.6392 162.102 95.0163 160.541 96.0007C158.99 96.9851 157.181 97.4773 155.112 97.4773ZM155.112 94.3153C156.683 94.3153 157.976 93.9126 158.99 93.1072C160.004 92.3018 160.755 91.2429 161.242 89.9304C161.73 88.6179 161.973 87.196 161.973 85.6648C161.973 84.1335 161.73 82.7067 161.242 81.3842C160.755 80.0618 160.004 78.9929 158.99 78.1776C157.976 77.3622 156.683 76.9545 155.112 76.9545C153.541 76.9545 152.249 77.3622 151.235 78.1776C150.22 78.9929 149.47 80.0618 148.982 81.3842C148.495 82.7067 148.252 84.1335 148.252 85.6648C148.252 87.196 148.495 88.6179 148.982 89.9304C149.47 91.2429 150.22 92.3018 151.235 93.1072C152.249 93.9126 153.541 94.3153 155.112 94.3153ZM185.96 88.6477L185.9 84.2926H186.616L196.639 74.0909H200.994L190.315 84.8892H190.017L185.96 88.6477ZM182.679 97V66.4545H186.199V97H182.679ZM197.235 97L188.287 85.6648L190.792 83.2188L201.71 97H197.235ZM214.186 97.4773C211.979 97.4773 210.075 96.9901 208.474 96.0156C206.883 95.0312 205.655 93.6591 204.79 91.8991C203.935 90.1293 203.507 88.071 203.507 85.7244C203.507 83.3778 203.935 81.3097 204.79 79.5199C205.655 77.7202 206.858 76.3182 208.399 75.3139C209.95 74.2997 211.76 73.7926 213.828 73.7926C215.021 73.7926 216.2 73.9915 217.363 74.3892C218.526 74.7869 219.585 75.4332 220.54 76.3281C221.494 77.2131 222.255 78.3864 222.822 79.848C223.388 81.3097 223.672 83.1094 223.672 85.2472V86.7386H206.013V83.696H220.092C220.092 82.4034 219.834 81.25 219.317 80.2358C218.81 79.2216 218.084 78.4212 217.139 77.8345C216.205 77.2479 215.101 76.9545 213.828 76.9545C212.426 76.9545 211.213 77.3026 210.189 77.9986C209.175 78.6847 208.394 79.5795 207.847 80.6832C207.3 81.7869 207.027 82.9702 207.027 84.233V86.2614C207.027 87.9915 207.325 89.4581 207.922 90.6612C208.528 91.8544 209.369 92.7642 210.442 93.3906C211.516 94.0071 212.764 94.3153 214.186 94.3153C215.111 94.3153 215.946 94.1861 216.692 93.9276C217.447 93.6591 218.099 93.2614 218.646 92.7344C219.192 92.1974 219.615 91.5312 219.913 90.7358L223.314 91.6903C222.956 92.8438 222.354 93.858 221.509 94.733C220.664 95.598 219.62 96.2741 218.377 96.7614C217.134 97.2386 215.737 97.4773 214.186 97.4773ZM238.631 97.4773C236.424 97.4773 234.52 96.9901 232.919 96.0156C231.328 95.0312 230.1 93.6591 229.235 91.8991C228.38 90.1293 227.952 88.071 227.952 85.7244C227.952 83.3778 228.38 81.3097 229.235 79.5199C230.1 77.7202 231.303 76.3182 232.844 75.3139C234.396 74.2997 236.205 73.7926 238.273 73.7926C239.467 73.7926 240.645 73.9915 241.808 74.3892C242.972 74.7869 244.031 75.4332 244.985 76.3281C245.94 77.2131 246.7 78.3864 247.267 79.848C247.834 81.3097 248.117 83.1094 248.117 85.2472V86.7386H230.458V83.696H244.538C244.538 82.4034 244.279 81.25 243.762 80.2358C243.255 79.2216 242.529 78.4212 241.585 77.8345C240.65 77.2479 239.546 76.9545 238.273 76.9545C236.871 76.9545 235.658 77.3026 234.634 77.9986C233.62 78.6847 232.839 79.5795 232.293 80.6832C231.746 81.7869 231.472 82.9702 231.472 84.233V86.2614C231.472 87.9915 231.771 89.4581 232.367 90.6612C232.974 91.8544 233.814 92.7642 234.888 93.3906C235.962 94.0071 237.21 94.3153 238.631 94.3153C239.556 94.3153 240.391 94.1861 241.137 93.9276C241.893 93.6591 242.544 93.2614 243.091 92.7344C243.638 92.1974 244.06 91.5312 244.359 90.7358L247.759 91.6903C247.401 92.8438 246.8 93.858 245.955 94.733C245.109 95.598 244.065 96.2741 242.822 96.7614C241.58 97.2386 240.183 97.4773 238.631 97.4773ZM253.472 105.591V74.0909H256.872V77.7301H257.29C257.548 77.3324 257.906 76.8253 258.364 76.2088C258.831 75.5824 259.497 75.0256 260.362 74.5384C261.237 74.0412 262.42 73.7926 263.912 73.7926C265.841 73.7926 267.541 74.2749 269.013 75.2393C270.484 76.2038 271.633 77.571 272.458 79.3409C273.283 81.1108 273.696 83.1989 273.696 85.6051C273.696 88.0312 273.283 90.1342 272.458 91.9141C271.633 93.6839 270.489 95.0561 269.028 96.0305C267.566 96.995 265.881 97.4773 263.972 97.4773C262.5 97.4773 261.322 97.2337 260.437 96.7464C259.552 96.2493 258.871 95.6875 258.393 95.0611C257.916 94.4247 257.548 93.8977 257.29 93.4801H256.991V105.591H253.472ZM256.932 85.5455C256.932 87.2756 257.185 88.8018 257.692 90.1243C258.2 91.4368 258.94 92.4659 259.915 93.2116C260.889 93.9474 262.082 94.3153 263.494 94.3153C264.966 94.3153 266.194 93.9276 267.178 93.152C268.173 92.3665 268.918 91.3125 269.415 89.9901C269.923 88.6577 270.176 87.1761 270.176 85.5455C270.176 83.9347 269.928 82.483 269.43 81.1903C268.943 79.8878 268.202 78.8587 267.208 78.103C266.224 77.3374 264.986 76.9545 263.494 76.9545C262.063 76.9545 260.859 77.3175 259.885 78.0433C258.911 78.7592 258.175 79.7635 257.678 81.0561C257.18 82.3388 256.932 83.8352 256.932 85.5455ZM295.293 79.2216L292.131 80.1165C291.932 79.5895 291.638 79.0774 291.251 78.5803C290.873 78.0732 290.356 77.6555 289.7 77.3274C289.043 76.9993 288.203 76.8352 287.179 76.8352C285.777 76.8352 284.609 77.1584 283.674 77.8047C282.749 78.4411 282.287 79.2514 282.287 80.2358C282.287 81.1108 282.605 81.8018 283.241 82.3089C283.878 82.8161 284.872 83.2386 286.224 83.5767L289.625 84.4119C291.673 84.9091 293.2 85.6697 294.204 86.6939C295.208 87.7081 295.71 89.0156 295.71 90.6165C295.71 91.929 295.332 93.1023 294.577 94.1364C293.831 95.1705 292.787 95.9858 291.445 96.5824C290.102 97.179 288.541 97.4773 286.761 97.4773C284.425 97.4773 282.491 96.9702 280.96 95.956C279.428 94.9418 278.459 93.4602 278.051 91.5114L281.392 90.6761C281.71 91.9091 282.312 92.8338 283.197 93.4503C284.092 94.0668 285.26 94.375 286.702 94.375C288.342 94.375 289.645 94.027 290.609 93.331C291.584 92.625 292.071 91.7798 292.071 90.7955C292.071 90 291.793 89.3338 291.236 88.7969C290.679 88.25 289.824 87.8423 288.67 87.5739L284.852 86.679C282.754 86.1818 281.213 85.4112 280.229 84.3672C279.254 83.3132 278.767 81.9957 278.767 80.4148C278.767 79.1222 279.13 77.9787 279.856 76.9844C280.592 75.9901 281.591 75.2095 282.854 74.6428C284.126 74.076 285.568 73.7926 287.179 73.7926C289.446 73.7926 291.226 74.2898 292.518 75.2841C293.821 76.2784 294.746 77.5909 295.293 79.2216ZM315.088 105.591C314.492 105.591 313.96 105.541 313.492 105.442C313.025 105.352 312.702 105.263 312.523 105.173L313.418 102.071C314.273 102.29 315.029 102.369 315.685 102.31C316.341 102.25 316.923 101.957 317.43 101.43C317.947 100.913 318.419 100.072 318.847 98.9091L319.503 97.1193L311.031 74.0909H314.85L321.173 92.3466H321.412L327.736 74.0909H331.554L321.83 100.341C321.392 101.524 320.85 102.504 320.204 103.279C319.558 104.065 318.807 104.646 317.952 105.024C317.107 105.402 316.152 105.591 315.088 105.591ZM344.687 97.4773C342.618 97.4773 340.804 96.9851 339.243 96.0007C337.692 95.0163 336.479 93.6392 335.604 91.8693C334.738 90.0994 334.306 88.0312 334.306 85.6648C334.306 83.2784 334.738 81.1953 335.604 79.4155C336.479 77.6357 337.692 76.2536 339.243 75.2692C340.804 74.2848 342.618 73.7926 344.687 73.7926C346.755 73.7926 348.564 74.2848 350.116 75.2692C351.677 76.2536 352.89 77.6357 353.755 79.4155C354.63 81.1953 355.067 83.2784 355.067 85.6648C355.067 88.0312 354.63 90.0994 353.755 91.8693C352.89 93.6392 351.677 95.0163 350.116 96.0007C348.564 96.9851 346.755 97.4773 344.687 97.4773ZM344.687 94.3153C346.258 94.3153 347.55 93.9126 348.564 93.1072C349.579 92.3018 350.329 91.2429 350.817 89.9304C351.304 88.6179 351.547 87.196 351.547 85.6648C351.547 84.1335 351.304 82.7067 350.817 81.3842C350.329 80.0618 349.579 78.9929 348.564 78.1776C347.55 77.3622 346.258 76.9545 344.687 76.9545C343.116 76.9545 341.823 77.3622 340.809 78.1776C339.795 78.9929 339.044 80.0618 338.557 81.3842C338.069 82.7067 337.826 84.1335 337.826 85.6648C337.826 87.196 338.069 88.6179 338.557 89.9304C339.044 91.2429 339.795 92.3018 340.809 93.1072C341.823 93.9126 343.116 94.3153 344.687 94.3153ZM374.878 87.6335V74.0909H378.398V97H374.878V93.1222H374.639C374.102 94.2855 373.267 95.2749 372.134 96.0902C371 96.8956 369.568 97.2983 367.838 97.2983C366.406 97.2983 365.134 96.9851 364.02 96.3587C362.906 95.7223 362.031 94.7678 361.395 93.495C360.759 92.2124 360.44 90.5966 360.44 88.6477V74.0909H363.96V88.4091C363.96 90.0795 364.428 91.4119 365.362 92.4062C366.307 93.4006 367.51 93.8977 368.972 93.8977C369.847 93.8977 370.737 93.674 371.641 93.2266C372.556 92.7791 373.322 92.093 373.938 91.1683C374.565 90.2436 374.878 89.0653 374.878 87.6335ZM406.62 74.0909V77.0739H394.748V74.0909H406.62ZM398.208 68.6023H401.728V90.4375C401.728 91.4318 401.872 92.1776 402.161 92.6747C402.459 93.1619 402.837 93.4901 403.294 93.6591C403.762 93.8182 404.254 93.8977 404.771 93.8977C405.159 93.8977 405.477 93.8778 405.725 93.8381C405.974 93.7884 406.173 93.7486 406.322 93.7188L407.038 96.8807C406.799 96.9702 406.466 97.0597 406.039 97.1491C405.611 97.2486 405.069 97.2983 404.413 97.2983C403.419 97.2983 402.444 97.0845 401.49 96.657C400.545 96.2294 399.759 95.5781 399.133 94.7031C398.517 93.8281 398.208 92.7244 398.208 91.392V68.6023ZM420.976 97.4773C418.907 97.4773 417.093 96.9851 415.532 96.0007C413.981 95.0163 412.768 93.6392 411.893 91.8693C411.028 90.0994 410.595 88.0312 410.595 85.6648C410.595 83.2784 411.028 81.1953 411.893 79.4155C412.768 77.6357 413.981 76.2536 415.532 75.2692C417.093 74.2848 418.907 73.7926 420.976 73.7926C423.044 73.7926 424.854 74.2848 426.405 75.2692C427.966 76.2536 429.179 77.6357 430.044 79.4155C430.919 81.1953 431.356 83.2784 431.356 85.6648C431.356 88.0312 430.919 90.0994 430.044 91.8693C429.179 93.6392 427.966 95.0163 426.405 96.0007C424.854 96.9851 423.044 97.4773 420.976 97.4773ZM420.976 94.3153C422.547 94.3153 423.839 93.9126 424.854 93.1072C425.868 92.3018 426.618 91.2429 427.106 89.9304C427.593 88.6179 427.836 87.196 427.836 85.6648C427.836 84.1335 427.593 82.7067 427.106 81.3842C426.618 80.0618 425.868 78.9929 424.854 78.1776C423.839 77.3622 422.547 76.9545 420.976 76.9545C419.405 76.9545 418.112 77.3622 417.098 78.1776C416.084 78.9929 415.333 80.0618 414.846 81.3842C414.358 82.7067 414.115 84.1335 414.115 85.6648C414.115 87.196 414.358 88.6179 414.846 89.9304C415.333 91.2429 416.084 92.3018 417.098 93.1072C418.112 93.9126 419.405 94.3153 420.976 94.3153ZM436.729 105.591V74.0909H440.13V77.7301H440.548C440.806 77.3324 441.164 76.8253 441.621 76.2088C442.089 75.5824 442.755 75.0256 443.62 74.5384C444.495 74.0412 445.678 73.7926 447.17 73.7926C449.099 73.7926 450.799 74.2749 452.271 75.2393C453.742 76.2038 454.891 77.571 455.716 79.3409C456.541 81.1108 456.954 83.1989 456.954 85.6051C456.954 88.0312 456.541 90.1342 455.716 91.9141C454.891 93.6839 453.747 95.0561 452.286 96.0305C450.824 96.995 449.138 97.4773 447.229 97.4773C445.758 97.4773 444.58 97.2337 443.695 96.7464C442.81 96.2493 442.129 95.6875 441.651 95.0611C441.174 94.4247 440.806 93.8977 440.548 93.4801H440.249V105.591H436.729ZM440.19 85.5455C440.19 87.2756 440.443 88.8018 440.95 90.1243C441.457 91.4368 442.198 92.4659 443.173 93.2116C444.147 93.9474 445.34 94.3153 446.752 94.3153C448.224 94.3153 449.452 93.9276 450.436 93.152C451.43 92.3665 452.176 91.3125 452.673 89.9901C453.18 88.6577 453.434 87.1761 453.434 85.5455C453.434 83.9347 453.185 82.483 452.688 81.1903C452.201 79.8878 451.46 78.8587 450.466 78.103C449.482 77.3374 448.244 76.9545 446.752 76.9545C445.32 76.9545 444.117 77.3175 443.143 78.0433C442.168 78.7592 441.433 79.7635 440.935 81.0561C440.438 82.3388 440.19 83.8352 440.19 85.5455ZM475.448 82.2642V85.5455H462.085V82.2642H475.448ZM490.948 97.4773C488.88 97.4773 487.066 96.9851 485.504 96.0007C483.953 95.0163 482.74 93.6392 481.865 91.8693C481 90.0994 480.568 88.0312 480.568 85.6648C480.568 83.2784 481 81.1953 481.865 79.4155C482.74 77.6357 483.953 76.2536 485.504 75.2692C487.066 74.2848 488.88 73.7926 490.948 73.7926C493.017 73.7926 494.826 74.2848 496.377 75.2692C497.938 76.2536 499.151 77.6357 500.017 79.4155C500.892 81.1953 501.329 83.2784 501.329 85.6648C501.329 88.0312 500.892 90.0994 500.017 91.8693C499.151 93.6392 497.938 95.0163 496.377 96.0007C494.826 96.9851 493.017 97.4773 490.948 97.4773ZM490.948 94.3153C492.519 94.3153 493.812 93.9126 494.826 93.1072C495.84 92.3018 496.591 91.2429 497.078 89.9304C497.566 88.6179 497.809 87.196 497.809 85.6648C497.809 84.1335 497.566 82.7067 497.078 81.3842C496.591 80.0618 495.84 78.9929 494.826 78.1776C493.812 77.3622 492.519 76.9545 490.948 76.9545C489.377 76.9545 488.085 77.3622 487.07 78.1776C486.056 78.9929 485.306 80.0618 484.818 81.3842C484.331 82.7067 484.088 84.1335 484.088 85.6648C484.088 87.196 484.331 88.6179 484.818 89.9304C485.306 91.2429 486.056 92.3018 487.07 93.1072C488.085 93.9126 489.377 94.3153 490.948 94.3153ZM516.904 74.0909V77.0739H504.554V74.0909H516.904ZM508.253 97V70.929C508.253 69.6165 508.561 68.5227 509.178 67.6477C509.794 66.7727 510.595 66.1165 511.579 65.679C512.564 65.2415 513.603 65.0227 514.696 65.0227C515.561 65.0227 516.267 65.0923 516.814 65.2315C517.361 65.3707 517.769 65.5 518.037 65.6193L517.023 68.6619C516.844 68.6023 516.596 68.5277 516.277 68.4382C515.969 68.3487 515.561 68.304 515.054 68.304C513.891 68.304 513.051 68.5973 512.534 69.1839C512.027 69.7706 511.773 70.6307 511.773 71.7642V97H508.253ZM533.772 82.2642V85.5455H520.409V82.2642H533.772ZM539.966 97V74.0909H543.366V77.6705H543.665C544.142 76.4474 544.912 75.4979 545.976 74.8217C547.04 74.1357 548.318 73.7926 549.809 73.7926C551.321 73.7926 552.579 74.1357 553.583 74.8217C554.597 75.4979 555.388 76.4474 555.954 77.6705H556.193C556.78 76.4872 557.66 75.5476 558.833 74.8516C560.006 74.1456 561.413 73.7926 563.054 73.7926C565.102 73.7926 566.778 74.4339 568.08 75.7166C569.383 76.9893 570.034 78.973 570.034 81.6676V97H566.514V81.6676C566.514 79.9773 566.052 78.7692 565.127 78.0433C564.202 77.3175 563.113 76.9545 561.861 76.9545C560.25 76.9545 559.002 77.4418 558.117 78.4162C557.232 79.3807 556.79 80.6037 556.79 82.0852V97H553.21V81.3097C553.21 80.0071 552.787 78.9581 551.942 78.1626C551.097 77.3572 550.008 76.9545 548.676 76.9545C547.761 76.9545 546.906 77.1982 546.111 77.6854C545.325 78.1726 544.689 78.8487 544.202 79.7138C543.724 80.5689 543.486 81.5582 543.486 82.6818V97H539.966ZM576.47 97V74.0909H579.99V97H576.47ZM578.259 70.2727C577.573 70.2727 576.982 70.0391 576.485 69.5717C575.997 69.1044 575.754 68.5426 575.754 67.8864C575.754 67.2301 575.997 66.6683 576.485 66.201C576.982 65.7337 577.573 65.5 578.259 65.5C578.945 65.5 579.532 65.7337 580.019 66.201C580.517 66.6683 580.765 67.2301 580.765 67.8864C580.765 68.5426 580.517 69.1044 580.019 69.5717C579.532 70.0391 578.945 70.2727 578.259 70.2727ZM589.956 83.2188V97H586.436V74.0909H589.837V77.6705H590.135C590.672 76.5071 591.488 75.5724 592.581 74.8665C593.675 74.1506 595.087 73.7926 596.817 73.7926C598.368 73.7926 599.725 74.1108 600.889 74.7472C602.052 75.3736 602.957 76.3281 603.603 77.6108C604.25 78.8835 604.573 80.4943 604.573 82.4432V97H601.053V82.6818C601.053 80.8821 600.586 79.4801 599.651 78.4759C598.716 77.4616 597.434 76.9545 595.803 76.9545C594.679 76.9545 593.675 77.1982 592.79 77.6854C591.915 78.1726 591.224 78.8835 590.717 79.8182C590.21 80.7528 589.956 81.8864 589.956 83.2188ZM619.655 97.4773C617.746 97.4773 616.061 96.995 614.599 96.0305C613.138 95.0561 611.994 93.6839 611.169 91.9141C610.344 90.1342 609.931 88.0312 609.931 85.6051C609.931 83.1989 610.344 81.1108 611.169 79.3409C611.994 77.571 613.143 76.2038 614.614 75.2393C616.086 74.2749 617.786 73.7926 619.715 73.7926C621.206 73.7926 622.385 74.0412 623.25 74.5384C624.125 75.0256 624.791 75.5824 625.248 76.2088C625.716 76.8253 626.079 77.3324 626.337 77.7301H626.635V66.4545H630.155V97H626.755V93.4801H626.337C626.079 93.8977 625.711 94.4247 625.233 95.0611C624.756 95.6875 624.075 96.2493 623.19 96.7464C622.305 97.2337 621.127 97.4773 619.655 97.4773ZM620.133 94.3153C621.545 94.3153 622.738 93.9474 623.712 93.2116C624.687 92.4659 625.427 91.4368 625.934 90.1243C626.442 88.8018 626.695 87.2756 626.695 85.5455C626.695 83.8352 626.447 82.3388 625.949 81.0561C625.452 79.7635 624.716 78.7592 623.742 78.0433C622.768 77.3175 621.564 76.9545 620.133 76.9545C618.641 76.9545 617.398 77.3374 616.404 78.103C615.42 78.8587 614.679 79.8878 614.182 81.1903C613.694 82.483 613.451 83.9347 613.451 85.5455C613.451 87.1761 613.699 88.6577 614.197 89.9901C614.704 91.3125 615.449 92.3665 616.434 93.152C617.428 93.9276 618.661 94.3153 620.133 94.3153ZM654.094 97L647.113 74.0909H650.812L655.764 91.6307H656.003L660.895 74.0909H664.653L669.486 91.571H669.724L674.676 74.0909H678.375L671.395 97H667.934L662.923 79.4006H662.565L657.554 97H654.094ZM683.028 97V74.0909H686.548V97H683.028ZM684.818 70.2727C684.132 70.2727 683.54 70.0391 683.043 69.5717C682.556 69.1044 682.312 68.5426 682.312 67.8864C682.312 67.2301 682.556 66.6683 683.043 66.201C683.54 65.7337 684.132 65.5 684.818 65.5C685.504 65.5 686.091 65.7337 686.578 66.201C687.075 66.6683 687.324 67.2301 687.324 67.8864C687.324 68.5426 687.075 69.1044 686.578 69.5717C686.091 70.0391 685.504 70.2727 684.818 70.2727ZM702.958 74.0909V77.0739H691.086V74.0909H702.958ZM694.546 68.6023H698.066V90.4375C698.066 91.4318 698.21 92.1776 698.499 92.6747C698.797 93.1619 699.175 93.4901 699.632 93.6591C700.099 93.8182 700.592 93.8977 701.109 93.8977C701.496 93.8977 701.815 93.8778 702.063 93.8381C702.312 93.7884 702.511 93.7486 702.66 93.7188L703.376 96.8807C703.137 96.9702 702.804 97.0597 702.376 97.1491C701.949 97.2486 701.407 97.2983 700.751 97.2983C699.756 97.2983 698.782 97.0845 697.827 96.657C696.883 96.2294 696.097 95.5781 695.471 94.7031C694.854 93.8281 694.546 92.7244 694.546 91.392V68.6023ZM712.265 83.2188V97H708.745V66.4545H712.265V77.6705H712.563C713.1 76.4872 713.906 75.5476 714.979 74.8516C716.063 74.1456 717.505 73.7926 719.305 73.7926C720.866 73.7926 722.233 74.1058 723.406 74.7322C724.58 75.3487 725.489 76.2983 726.136 77.581C726.792 78.8537 727.12 80.4744 727.12 82.4432V97H723.6V82.6818C723.6 80.8622 723.128 79.4553 722.183 78.4609C721.249 77.4567 719.951 76.9545 718.29 76.9545C717.137 76.9545 716.103 77.1982 715.188 77.6854C714.283 78.1726 713.567 78.8835 713.04 79.8182C712.523 80.7528 712.265 81.8864 712.265 83.2188ZM65.9631 148.537C64.5114 148.537 63.1939 148.263 62.0107 147.717C60.8274 147.16 59.8878 146.359 59.1918 145.315C58.4957 144.261 58.1477 142.989 58.1477 141.497C58.1477 140.185 58.4063 139.121 58.9233 138.305C59.4403 137.48 60.1314 136.834 60.9964 136.366C61.8615 135.899 62.8161 135.551 63.8601 135.322C64.9141 135.084 65.973 134.895 67.0369 134.756C68.429 134.577 69.5575 134.442 70.4226 134.353C71.2976 134.254 71.9339 134.089 72.3317 133.861C72.7393 133.632 72.9432 133.234 72.9432 132.668V132.548C72.9432 131.077 72.5405 129.933 71.7351 129.118C70.9396 128.303 69.7315 127.895 68.1108 127.895C66.4304 127.895 65.1129 128.263 64.1584 128.999C63.2038 129.734 62.5327 130.52 62.1449 131.355L58.804 130.162C59.4006 128.77 60.196 127.686 61.1903 126.911C62.1946 126.125 63.2884 125.578 64.4716 125.27C65.6648 124.952 66.8381 124.793 67.9915 124.793C68.7273 124.793 69.5724 124.882 70.527 125.061C71.4915 125.23 72.4212 125.583 73.3161 126.12C74.2209 126.657 74.9716 127.467 75.5682 128.551C76.1648 129.635 76.4631 131.087 76.4631 132.906V148H72.9432V144.898H72.7642C72.5256 145.395 72.1278 145.927 71.571 146.494C71.0142 147.06 70.2734 147.543 69.3487 147.94C68.424 148.338 67.2955 148.537 65.9631 148.537ZM66.5 145.375C67.892 145.375 69.0653 145.102 70.0199 144.555C70.9844 144.008 71.7102 143.302 72.1974 142.437C72.6946 141.572 72.9432 140.662 72.9432 139.707V136.486C72.794 136.665 72.4659 136.829 71.9588 136.978C71.4616 137.117 70.8849 137.241 70.2287 137.351C69.5824 137.45 68.951 137.54 68.3345 137.619C67.728 137.689 67.2358 137.749 66.858 137.798C65.9432 137.918 65.0881 138.112 64.2926 138.38C63.5071 138.638 62.8707 139.031 62.3835 139.558C61.9063 140.075 61.6676 140.781 61.6676 141.676C61.6676 142.899 62.12 143.824 63.0249 144.45C63.9396 145.067 65.098 145.375 66.5 145.375ZM97.3251 138.634V125.091H100.845V148H97.3251V144.122H97.0865C96.5495 145.286 95.7143 146.275 94.5808 147.09C93.4473 147.896 92.0154 148.298 90.2853 148.298C88.8535 148.298 87.5808 147.985 86.4672 147.359C85.3535 146.722 84.4785 145.768 83.8422 144.495C83.2058 143.212 82.8876 141.597 82.8876 139.648V125.091H86.4075V139.409C86.4075 141.08 86.8748 142.412 87.8095 143.406C88.7541 144.401 89.9572 144.898 91.4189 144.898C92.2939 144.898 93.1838 144.674 94.0886 144.227C95.0034 143.779 95.769 143.093 96.3855 142.168C97.0119 141.244 97.3251 140.065 97.3251 138.634ZM117.255 125.091V128.074H105.383V125.091H117.255ZM108.843 119.602H112.363V141.438C112.363 142.432 112.507 143.178 112.795 143.675C113.094 144.162 113.472 144.49 113.929 144.659C114.396 144.818 114.888 144.898 115.406 144.898C115.793 144.898 116.112 144.878 116.36 144.838C116.609 144.788 116.808 144.749 116.957 144.719L117.673 147.881C117.434 147.97 117.101 148.06 116.673 148.149C116.246 148.249 115.704 148.298 115.048 148.298C114.053 148.298 113.079 148.085 112.124 147.657C111.18 147.229 110.394 146.578 109.768 145.703C109.151 144.828 108.843 143.724 108.843 142.392V119.602ZM131.61 148.477C129.542 148.477 127.728 147.985 126.167 147.001C124.615 146.016 123.402 144.639 122.527 142.869C121.662 141.099 121.23 139.031 121.23 136.665C121.23 134.278 121.662 132.195 122.527 130.415C123.402 128.636 124.615 127.254 126.167 126.269C127.728 125.285 129.542 124.793 131.61 124.793C133.679 124.793 135.488 125.285 137.039 126.269C138.6 127.254 139.814 128.636 140.679 130.415C141.554 132.195 141.991 134.278 141.991 136.665C141.991 139.031 141.554 141.099 140.679 142.869C139.814 144.639 138.6 146.016 137.039 147.001C135.488 147.985 133.679 148.477 131.61 148.477ZM131.61 145.315C133.181 145.315 134.474 144.913 135.488 144.107C136.502 143.302 137.253 142.243 137.74 140.93C138.228 139.618 138.471 138.196 138.471 136.665C138.471 135.134 138.228 133.707 137.74 132.384C137.253 131.062 136.502 129.993 135.488 129.178C134.474 128.362 133.181 127.955 131.61 127.955C130.039 127.955 128.747 128.362 127.733 129.178C126.718 129.993 125.968 131.062 125.48 132.384C124.993 133.707 124.75 135.134 124.75 136.665C124.75 138.196 124.993 139.618 125.48 140.93C125.968 142.243 126.718 143.302 127.733 144.107C128.747 144.913 130.039 145.315 131.61 145.315ZM147.364 148V125.091H150.765V128.67H151.063C151.54 127.447 152.311 126.498 153.375 125.822C154.439 125.136 155.716 124.793 157.208 124.793C158.719 124.793 159.977 125.136 160.981 125.822C161.996 126.498 162.786 127.447 163.353 128.67H163.591C164.178 127.487 165.058 126.548 166.231 125.852C167.405 125.146 168.812 124.793 170.452 124.793C172.501 124.793 174.176 125.434 175.479 126.717C176.781 127.989 177.432 129.973 177.432 132.668V148H173.912V132.668C173.912 130.977 173.45 129.769 172.525 129.043C171.601 128.317 170.512 127.955 169.259 127.955C167.648 127.955 166.4 128.442 165.515 129.416C164.631 130.381 164.188 131.604 164.188 133.085V148H160.608V132.31C160.608 131.007 160.186 129.958 159.341 129.163C158.496 128.357 157.407 127.955 156.074 127.955C155.16 127.955 154.305 128.198 153.509 128.685C152.724 129.173 152.087 129.849 151.6 130.714C151.123 131.569 150.884 132.558 150.884 133.682V148H147.364ZM190.61 148.537C189.158 148.537 187.84 148.263 186.657 147.717C185.474 147.16 184.534 146.359 183.838 145.315C183.142 144.261 182.794 142.989 182.794 141.497C182.794 140.185 183.053 139.121 183.57 138.305C184.087 137.48 184.778 136.834 185.643 136.366C186.508 135.899 187.463 135.551 188.507 135.322C189.561 135.084 190.619 134.895 191.683 134.756C193.075 134.577 194.204 134.442 195.069 134.353C195.944 134.254 196.58 134.089 196.978 133.861C197.386 133.632 197.59 133.234 197.59 132.668V132.548C197.59 131.077 197.187 129.933 196.382 129.118C195.586 128.303 194.378 127.895 192.757 127.895C191.077 127.895 189.759 128.263 188.805 128.999C187.85 129.734 187.179 130.52 186.791 131.355L183.45 130.162C184.047 128.77 184.843 127.686 185.837 126.911C186.841 126.125 187.935 125.578 189.118 125.27C190.311 124.952 191.485 124.793 192.638 124.793C193.374 124.793 194.219 124.882 195.173 125.061C196.138 125.23 197.068 125.583 197.963 126.12C198.867 126.657 199.618 127.467 200.215 128.551C200.811 129.635 201.11 131.087 201.11 132.906V148H197.59V144.898H197.411C197.172 145.395 196.774 145.927 196.218 146.494C195.661 147.06 194.92 147.543 193.995 147.94C193.07 148.338 191.942 148.537 190.61 148.537ZM191.146 145.375C192.539 145.375 193.712 145.102 194.666 144.555C195.631 144.008 196.357 143.302 196.844 142.437C197.341 141.572 197.59 140.662 197.59 139.707V136.486C197.441 136.665 197.112 136.829 196.605 136.978C196.108 137.117 195.531 137.241 194.875 137.351C194.229 137.45 193.597 137.54 192.981 137.619C192.374 137.689 191.882 137.749 191.504 137.798C190.59 137.918 189.735 138.112 188.939 138.38C188.154 138.638 187.517 139.031 187.03 139.558C186.553 140.075 186.314 140.781 186.314 141.676C186.314 142.899 186.767 143.824 187.671 144.45C188.586 145.067 189.744 145.375 191.146 145.375ZM217.497 125.091V128.074H205.625V125.091H217.497ZM209.085 119.602H212.605V141.438C212.605 142.432 212.749 143.178 213.038 143.675C213.336 144.162 213.714 144.49 214.171 144.659C214.638 144.818 215.131 144.898 215.648 144.898C216.036 144.898 216.354 144.878 216.602 144.838C216.851 144.788 217.05 144.749 217.199 144.719L217.915 147.881C217.676 147.97 217.343 148.06 216.915 148.149C216.488 148.249 215.946 148.298 215.29 148.298C214.295 148.298 213.321 148.085 212.366 147.657C211.422 147.229 210.636 146.578 210.01 145.703C209.393 144.828 209.085 143.724 209.085 142.392V119.602ZM232.151 148.477C229.944 148.477 228.039 147.99 226.439 147.016C224.848 146.031 223.62 144.659 222.755 142.899C221.9 141.129 221.472 139.071 221.472 136.724C221.472 134.378 221.9 132.31 222.755 130.52C223.62 128.72 224.823 127.318 226.364 126.314C227.915 125.3 229.725 124.793 231.793 124.793C232.986 124.793 234.164 124.991 235.328 125.389C236.491 125.787 237.55 126.433 238.505 127.328C239.459 128.213 240.22 129.386 240.787 130.848C241.353 132.31 241.637 134.109 241.637 136.247V137.739H223.978V134.696H238.057C238.057 133.403 237.799 132.25 237.282 131.236C236.775 130.222 236.049 129.421 235.104 128.835C234.169 128.248 233.066 127.955 231.793 127.955C230.391 127.955 229.178 128.303 228.154 128.999C227.14 129.685 226.359 130.58 225.812 131.683C225.265 132.787 224.992 133.97 224.992 135.233V137.261C224.992 138.991 225.29 140.458 225.887 141.661C226.493 142.854 227.333 143.764 228.407 144.391C229.481 145.007 230.729 145.315 232.151 145.315C233.076 145.315 233.911 145.186 234.657 144.928C235.412 144.659 236.064 144.261 236.61 143.734C237.157 143.197 237.58 142.531 237.878 141.736L241.279 142.69C240.921 143.844 240.319 144.858 239.474 145.733C238.629 146.598 237.585 147.274 236.342 147.761C235.099 148.239 233.702 148.477 232.151 148.477ZM255.642 148.477C253.733 148.477 252.047 147.995 250.586 147.031C249.124 146.056 247.98 144.684 247.155 142.914C246.33 141.134 245.917 139.031 245.917 136.605C245.917 134.199 246.33 132.111 247.155 130.341C247.98 128.571 249.129 127.204 250.6 126.239C252.072 125.275 253.772 124.793 255.701 124.793C257.193 124.793 258.371 125.041 259.236 125.538C260.111 126.026 260.777 126.582 261.235 127.209C261.702 127.825 262.065 128.332 262.324 128.73H262.622V117.455H266.142V148H262.741V144.48H262.324C262.065 144.898 261.697 145.425 261.22 146.061C260.743 146.687 260.061 147.249 259.176 147.746C258.292 148.234 257.113 148.477 255.642 148.477ZM256.119 145.315C257.531 145.315 258.724 144.947 259.699 144.212C260.673 143.466 261.414 142.437 261.921 141.124C262.428 139.802 262.681 138.276 262.681 136.545C262.681 134.835 262.433 133.339 261.936 132.056C261.439 130.763 260.703 129.759 259.728 129.043C258.754 128.317 257.551 127.955 256.119 127.955C254.627 127.955 253.385 128.337 252.39 129.103C251.406 129.859 250.665 130.888 250.168 132.19C249.681 133.483 249.437 134.935 249.437 136.545C249.437 138.176 249.686 139.658 250.183 140.99C250.69 142.312 251.436 143.366 252.42 144.152C253.414 144.928 254.647 145.315 256.119 145.315ZM278.327 143.824L278.088 145.435C277.919 146.568 277.661 147.781 277.313 149.074C276.975 150.366 276.622 151.585 276.254 152.728C275.886 153.871 275.583 154.781 275.344 155.457H272.659C272.789 154.821 272.958 153.981 273.167 152.937C273.375 151.893 273.584 150.724 273.793 149.432C274.012 148.149 274.191 146.837 274.33 145.494L274.509 143.824H278.327ZM315.394 125.091L306.922 148H303.343L294.871 125.091H298.689L305.013 143.347H305.252L311.576 125.091H315.394ZM326.084 148.537C324.632 148.537 323.315 148.263 322.132 147.717C320.949 147.16 320.009 146.359 319.313 145.315C318.617 144.261 318.269 142.989 318.269 141.497C318.269 140.185 318.527 139.121 319.044 138.305C319.561 137.48 320.252 136.834 321.118 136.366C321.983 135.899 322.937 135.551 323.981 135.322C325.035 135.084 326.094 134.895 327.158 134.756C328.55 134.577 329.679 134.442 330.544 134.353C331.419 134.254 332.055 134.089 332.453 133.861C332.86 133.632 333.064 133.234 333.064 132.668V132.548C333.064 131.077 332.662 129.933 331.856 129.118C331.061 128.303 329.853 127.895 328.232 127.895C326.551 127.895 325.234 128.263 324.279 128.999C323.325 129.734 322.654 130.52 322.266 131.355L318.925 130.162C319.522 128.77 320.317 127.686 321.311 126.911C322.316 126.125 323.409 125.578 324.593 125.27C325.786 124.952 326.959 124.793 328.113 124.793C328.848 124.793 329.694 124.882 330.648 125.061C331.613 125.23 332.542 125.583 333.437 126.12C334.342 126.657 335.093 127.467 335.689 128.551C336.286 129.635 336.584 131.087 336.584 132.906V148H333.064V144.898H332.885C332.647 145.395 332.249 145.927 331.692 146.494C331.135 147.06 330.395 147.543 329.47 147.94C328.545 148.338 327.417 148.537 326.084 148.537ZM326.621 145.375C328.013 145.375 329.186 145.102 330.141 144.555C331.105 144.008 331.831 143.302 332.319 142.437C332.816 141.572 333.064 140.662 333.064 139.707V136.486C332.915 136.665 332.587 136.829 332.08 136.978C331.583 137.117 331.006 137.241 330.35 137.351C329.703 137.45 329.072 137.54 328.456 137.619C327.849 137.689 327.357 137.749 326.979 137.798C326.064 137.918 325.209 138.112 324.414 138.38C323.628 138.638 322.992 139.031 322.505 139.558C322.027 140.075 321.789 140.781 321.789 141.676C321.789 142.899 322.241 143.824 323.146 144.45C324.061 145.067 325.219 145.375 326.621 145.375ZM346.529 117.455V148H343.009V117.455H346.529ZM367.413 138.634V125.091H370.933V148H367.413V144.122H367.174C366.637 145.286 365.802 146.275 364.669 147.09C363.535 147.896 362.103 148.298 360.373 148.298C358.941 148.298 357.669 147.985 356.555 147.359C355.441 146.722 354.566 145.768 353.93 144.495C353.294 143.212 352.975 141.597 352.975 139.648V125.091H356.495V139.409C356.495 141.08 356.963 142.412 357.897 143.406C358.842 144.401 360.045 144.898 361.507 144.898C362.382 144.898 363.272 144.674 364.176 144.227C365.091 143.779 365.857 143.093 366.473 142.168C367.1 141.244 367.413 140.065 367.413 138.634ZM384.121 148.537C382.67 148.537 381.352 148.263 380.169 147.717C378.986 147.16 378.046 146.359 377.35 145.315C376.654 144.261 376.306 142.989 376.306 141.497C376.306 140.185 376.564 139.121 377.081 138.305C377.599 137.48 378.29 136.834 379.155 136.366C380.02 135.899 380.974 135.551 382.018 135.322C383.072 135.084 384.131 134.895 385.195 134.756C386.587 134.577 387.716 134.442 388.581 134.353C389.456 134.254 390.092 134.089 390.49 133.861C390.898 133.632 391.101 133.234 391.101 132.668V132.548C391.101 131.077 390.699 129.933 389.893 129.118C389.098 128.303 387.89 127.895 386.269 127.895C384.589 127.895 383.271 128.263 382.317 128.999C381.362 129.734 380.691 130.52 380.303 131.355L376.962 130.162C377.559 128.77 378.354 127.686 379.349 126.911C380.353 126.125 381.447 125.578 382.63 125.27C383.823 124.952 384.996 124.793 386.15 124.793C386.885 124.793 387.731 124.882 388.685 125.061C389.65 125.23 390.579 125.583 391.474 126.12C392.379 126.657 393.13 127.467 393.726 128.551C394.323 129.635 394.621 131.087 394.621 132.906V148H391.101V144.898H390.922C390.684 145.395 390.286 145.927 389.729 146.494C389.172 147.06 388.432 147.543 387.507 147.94C386.582 148.338 385.454 148.537 384.121 148.537ZM384.658 145.375C386.05 145.375 387.224 145.102 388.178 144.555C389.143 144.008 389.868 143.302 390.356 142.437C390.853 141.572 391.101 140.662 391.101 139.707V136.486C390.952 136.665 390.624 136.829 390.117 136.978C389.62 137.117 389.043 137.241 388.387 137.351C387.741 137.45 387.109 137.54 386.493 137.619C385.886 137.689 385.394 137.749 385.016 137.798C384.101 137.918 383.246 138.112 382.451 138.38C381.665 138.638 381.029 139.031 380.542 139.558C380.064 140.075 379.826 140.781 379.826 141.676C379.826 142.899 380.278 143.824 381.183 144.45C382.098 145.067 383.256 145.375 384.658 145.375ZM401.523 148V117.455H405.043V128.73H405.341C405.6 128.332 405.958 127.825 406.415 127.209C406.882 126.582 407.549 126.026 408.414 125.538C409.289 125.041 410.472 124.793 411.963 124.793C413.892 124.793 415.593 125.275 417.064 126.239C418.536 127.204 419.684 128.571 420.51 130.341C421.335 132.111 421.748 134.199 421.748 136.605C421.748 139.031 421.335 141.134 420.51 142.914C419.684 144.684 418.541 146.056 417.079 147.031C415.618 147.995 413.932 148.477 412.023 148.477C410.551 148.477 409.373 148.234 408.488 147.746C407.603 147.249 406.922 146.687 406.445 146.061C405.968 145.425 405.6 144.898 405.341 144.48H404.924V148H401.523ZM404.983 136.545C404.983 138.276 405.237 139.802 405.744 141.124C406.251 142.437 406.992 143.466 407.966 144.212C408.941 144.947 410.134 145.315 411.546 145.315C413.017 145.315 414.245 144.928 415.23 144.152C416.224 143.366 416.97 142.312 417.467 140.99C417.974 139.658 418.228 138.176 418.228 136.545C418.228 134.935 417.979 133.483 417.482 132.19C416.995 130.888 416.254 129.859 415.26 129.103C414.275 128.337 413.037 127.955 411.546 127.955C410.114 127.955 408.911 128.317 407.936 129.043C406.962 129.759 406.226 130.763 405.729 132.056C405.232 133.339 404.983 134.835 404.983 136.545ZM430.652 117.455V148H427.132V117.455H430.652ZM446.704 148.477C444.496 148.477 442.592 147.99 440.991 147.016C439.4 146.031 438.172 144.659 437.307 142.899C436.452 141.129 436.025 139.071 436.025 136.724C436.025 134.378 436.452 132.31 437.307 130.52C438.172 128.72 439.376 127.318 440.917 126.314C442.468 125.3 444.278 124.793 446.346 124.793C447.539 124.793 448.717 124.991 449.881 125.389C451.044 125.787 452.103 126.433 453.057 127.328C454.012 128.213 454.773 129.386 455.339 130.848C455.906 132.31 456.189 134.109 456.189 136.247V137.739H438.53V134.696H452.61C452.61 133.403 452.351 132.25 451.834 131.236C451.327 130.222 450.601 129.421 449.657 128.835C448.722 128.248 447.618 127.955 446.346 127.955C444.944 127.955 443.731 128.303 442.706 128.999C441.692 129.685 440.912 130.58 440.365 131.683C439.818 132.787 439.545 133.97 439.545 135.233V137.261C439.545 138.991 439.843 140.458 440.439 141.661C441.046 142.854 441.886 143.764 442.96 144.391C444.034 145.007 445.282 145.315 446.704 145.315C447.628 145.315 448.464 145.186 449.209 144.928C449.965 144.659 450.616 144.261 451.163 143.734C451.71 143.197 452.133 142.531 452.431 141.736L455.832 142.69C455.474 143.844 454.872 144.858 454.027 145.733C453.182 146.598 452.138 147.274 450.895 147.761C449.652 148.239 448.255 148.477 446.704 148.477ZM483.558 125.091V128.074H471.209V125.091H483.558ZM474.907 148V121.929C474.907 120.616 475.216 119.523 475.832 118.648C476.449 117.773 477.249 117.116 478.233 116.679C479.218 116.241 480.257 116.023 481.351 116.023C482.216 116.023 482.922 116.092 483.469 116.232C484.015 116.371 484.423 116.5 484.692 116.619L483.677 119.662C483.498 119.602 483.25 119.528 482.932 119.438C482.623 119.349 482.216 119.304 481.709 119.304C480.545 119.304 479.705 119.597 479.188 120.184C478.681 120.771 478.427 121.631 478.427 122.764V148H474.907ZM496.855 148.477C494.786 148.477 492.972 147.985 491.411 147.001C489.86 146.016 488.646 144.639 487.771 142.869C486.906 141.099 486.474 139.031 486.474 136.665C486.474 134.278 486.906 132.195 487.771 130.415C488.646 128.636 489.86 127.254 491.411 126.269C492.972 125.285 494.786 124.793 496.855 124.793C498.923 124.793 500.732 125.285 502.284 126.269C503.845 127.254 505.058 128.636 505.923 130.415C506.798 132.195 507.235 134.278 507.235 136.665C507.235 139.031 506.798 141.099 505.923 142.869C505.058 144.639 503.845 146.016 502.284 147.001C500.732 147.985 498.923 148.477 496.855 148.477ZM496.855 145.315C498.426 145.315 499.718 144.913 500.732 144.107C501.747 143.302 502.497 142.243 502.985 140.93C503.472 139.618 503.715 138.196 503.715 136.665C503.715 135.134 503.472 133.707 502.985 132.384C502.497 131.062 501.747 129.993 500.732 129.178C499.718 128.362 498.426 127.955 496.855 127.955C495.284 127.955 493.991 128.362 492.977 129.178C491.963 129.993 491.212 131.062 490.725 132.384C490.237 133.707 489.994 135.134 489.994 136.665C489.994 138.196 490.237 139.618 490.725 140.93C491.212 142.243 491.963 143.302 492.977 144.107C493.991 144.913 495.284 145.315 496.855 145.315ZM516.128 117.455V148H512.608V117.455H516.128ZM526.095 117.455V148H522.575V117.455H526.095ZM541.849 148.477C539.781 148.477 537.966 147.985 536.405 147.001C534.854 146.016 533.641 144.639 532.766 142.869C531.901 141.099 531.468 139.031 531.468 136.665C531.468 134.278 531.901 132.195 532.766 130.415C533.641 128.636 534.854 127.254 536.405 126.269C537.966 125.285 539.781 124.793 541.849 124.793C543.917 124.793 545.727 125.285 547.278 126.269C548.839 127.254 550.052 128.636 550.917 130.415C551.792 132.195 552.229 134.278 552.229 136.665C552.229 139.031 551.792 141.099 550.917 142.869C550.052 144.639 548.839 146.016 547.278 147.001C545.727 147.985 543.917 148.477 541.849 148.477ZM541.849 145.315C543.42 145.315 544.712 144.913 545.727 144.107C546.741 143.302 547.491 142.243 547.979 140.93C548.466 139.618 548.71 138.196 548.71 136.665C548.71 135.134 548.466 133.707 547.979 132.384C547.491 131.062 546.741 129.993 545.727 129.178C544.712 128.362 543.42 127.955 541.849 127.955C540.278 127.955 538.985 128.362 537.971 129.178C536.957 129.993 536.206 131.062 535.719 132.384C535.232 133.707 534.988 135.134 534.988 136.665C534.988 138.196 535.232 139.618 535.719 140.93C536.206 142.243 536.957 143.302 537.971 144.107C538.985 144.913 540.278 145.315 541.849 145.315ZM562.013 148L555.033 125.091H558.732L563.684 142.631H563.923L568.815 125.091H572.573L577.406 142.571H577.644L582.596 125.091H586.295L579.315 148H575.854L570.843 130.401H570.485L565.474 148H562.013ZM604.073 133.264V136.545H590.71V133.264H604.073ZM624.704 138.634V125.091H628.224V148H624.704V144.122H624.465C623.928 145.286 623.093 146.275 621.96 147.09C620.826 147.896 619.394 148.298 617.664 148.298C616.232 148.298 614.96 147.985 613.846 147.359C612.732 146.722 611.857 145.768 611.221 144.495C610.585 143.212 610.267 141.597 610.267 139.648V125.091H613.786V139.409C613.786 141.08 614.254 142.412 615.188 143.406C616.133 144.401 617.336 144.898 618.798 144.898C619.673 144.898 620.563 144.674 621.468 144.227C622.382 143.779 623.148 143.093 623.764 142.168C624.391 141.244 624.704 140.065 624.704 138.634ZM634.671 156.591V125.091H638.071V128.73H638.489C638.748 128.332 639.105 127.825 639.563 127.209C640.03 126.582 640.696 126.026 641.561 125.538C642.436 125.041 643.62 124.793 645.111 124.793C647.04 124.793 648.74 125.275 650.212 126.239C651.684 127.204 652.832 128.571 653.657 130.341C654.483 132.111 654.895 134.199 654.895 136.605C654.895 139.031 654.483 141.134 653.657 142.914C652.832 144.684 651.689 146.056 650.227 147.031C648.765 147.995 647.08 148.477 645.171 148.477C643.699 148.477 642.521 148.234 641.636 147.746C640.751 147.249 640.07 146.687 639.593 146.061C639.115 145.425 638.748 144.898 638.489 144.48H638.191V156.591H634.671ZM638.131 136.545C638.131 138.276 638.385 139.802 638.892 141.124C639.399 142.437 640.14 143.466 641.114 144.212C642.088 144.947 643.282 145.315 644.694 145.315C646.165 145.315 647.393 144.928 648.377 144.152C649.372 143.366 650.118 142.312 650.615 140.99C651.122 139.658 651.375 138.176 651.375 136.545C651.375 134.935 651.127 133.483 650.63 132.19C650.142 130.888 649.402 129.859 648.407 129.103C647.423 128.337 646.185 127.955 644.694 127.955C643.262 127.955 642.059 128.317 641.084 129.043C640.11 129.759 639.374 130.763 638.877 132.056C638.38 133.339 638.131 134.835 638.131 136.545ZM686.515 138.634V125.091H690.034V148H686.515V144.122H686.276C685.739 145.286 684.904 146.275 683.77 147.09C682.637 147.896 681.205 148.298 679.475 148.298C678.043 148.298 676.77 147.985 675.657 147.359C674.543 146.722 673.668 145.768 673.032 144.495C672.395 143.212 672.077 141.597 672.077 139.648V125.091H675.597V139.409C675.597 141.08 676.064 142.412 676.999 143.406C677.944 144.401 679.147 144.898 680.608 144.898C681.483 144.898 682.373 144.674 683.278 144.227C684.193 143.779 684.958 143.093 685.575 142.168C686.201 141.244 686.515 140.065 686.515 138.634ZM712.709 130.222L709.547 131.116C709.348 130.589 709.055 130.077 708.667 129.58C708.289 129.073 707.772 128.656 707.116 128.327C706.459 127.999 705.619 127.835 704.595 127.835C703.193 127.835 702.025 128.158 701.09 128.805C700.165 129.441 699.703 130.251 699.703 131.236C699.703 132.111 700.021 132.802 700.657 133.309C701.294 133.816 702.288 134.239 703.64 134.577L707.041 135.412C709.089 135.909 710.616 136.67 711.62 137.694C712.624 138.708 713.126 140.016 713.126 141.616C713.126 142.929 712.748 144.102 711.993 145.136C711.247 146.17 710.203 146.986 708.861 147.582C707.518 148.179 705.957 148.477 704.177 148.477C701.841 148.477 699.907 147.97 698.376 146.956C696.844 145.942 695.875 144.46 695.467 142.511L698.808 141.676C699.126 142.909 699.728 143.834 700.613 144.45C701.508 145.067 702.676 145.375 704.118 145.375C705.758 145.375 707.061 145.027 708.025 144.331C709 143.625 709.487 142.78 709.487 141.795C709.487 141 709.209 140.334 708.652 139.797C708.095 139.25 707.24 138.842 706.086 138.574L702.268 137.679C700.17 137.182 698.629 136.411 697.645 135.367C696.67 134.313 696.183 132.996 696.183 131.415C696.183 130.122 696.546 128.979 697.272 127.984C698.008 126.99 699.007 126.21 700.27 125.643C701.542 125.076 702.984 124.793 704.595 124.793C706.862 124.793 708.642 125.29 709.934 126.284C711.237 127.278 712.162 128.591 712.709 130.222ZM718.425 148V125.091H721.945V148H718.425ZM720.214 121.273C719.528 121.273 718.937 121.039 718.44 120.572C717.952 120.104 717.709 119.543 717.709 118.886C717.709 118.23 717.952 117.668 718.44 117.201C718.937 116.734 719.528 116.5 720.214 116.5C720.901 116.5 721.487 116.734 721.974 117.201C722.472 117.668 722.72 118.23 722.72 118.886C722.72 119.543 722.472 120.104 721.974 120.572C721.487 121.039 720.901 121.273 720.214 121.273ZM731.911 134.219V148H728.392V125.091H731.792V128.67H732.09C732.627 127.507 733.443 126.572 734.536 125.866C735.63 125.151 737.042 124.793 738.772 124.793C740.323 124.793 741.681 125.111 742.844 125.747C744.007 126.374 744.912 127.328 745.558 128.611C746.205 129.884 746.528 131.494 746.528 133.443V148H743.008V133.682C743.008 131.882 742.541 130.48 741.606 129.476C740.671 128.462 739.389 127.955 737.758 127.955C736.634 127.955 735.63 128.198 734.745 128.685C733.87 129.173 733.179 129.884 732.672 130.818C732.165 131.753 731.911 132.886 731.911 134.219ZM762.207 157.068C760.507 157.068 759.045 156.849 757.822 156.412C756.599 155.984 755.58 155.418 754.765 154.712C753.959 154.016 753.318 153.27 752.841 152.474L755.645 150.506C755.963 150.923 756.365 151.401 756.853 151.938C757.34 152.484 758.006 152.957 758.851 153.354C759.706 153.762 760.825 153.966 762.207 153.966C764.056 153.966 765.583 153.518 766.786 152.624C767.989 151.729 768.591 150.327 768.591 148.418V143.764H768.292C768.034 144.182 767.666 144.699 767.189 145.315C766.721 145.922 766.045 146.464 765.16 146.941C764.285 147.408 763.102 147.642 761.61 147.642C759.761 147.642 758.1 147.205 756.629 146.33C755.167 145.455 754.009 144.182 753.154 142.511C752.309 140.841 751.886 138.812 751.886 136.426C751.886 134.08 752.299 132.036 753.124 130.296C753.949 128.546 755.098 127.194 756.569 126.239C758.041 125.275 759.741 124.793 761.67 124.793C763.162 124.793 764.345 125.041 765.22 125.538C766.105 126.026 766.781 126.582 767.248 127.209C767.725 127.825 768.093 128.332 768.352 128.73H768.71V125.091H772.11V148.656C772.11 150.625 771.663 152.226 770.768 153.459C769.883 154.702 768.69 155.612 767.189 156.188C765.697 156.775 764.037 157.068 762.207 157.068ZM762.088 144.48C763.5 144.48 764.693 144.157 765.667 143.511C766.642 142.864 767.382 141.935 767.89 140.722C768.397 139.509 768.65 138.057 768.65 136.366C768.65 134.716 768.402 133.259 767.904 131.996C767.407 130.734 766.672 129.744 765.697 129.028C764.723 128.312 763.52 127.955 762.088 127.955C760.596 127.955 759.353 128.332 758.359 129.088C757.375 129.844 756.634 130.858 756.137 132.131C755.65 133.403 755.406 134.815 755.406 136.366C755.406 137.957 755.654 139.364 756.152 140.587C756.659 141.8 757.404 142.755 758.389 143.451C759.383 144.137 760.616 144.48 762.088 144.48ZM59.2216 199V176.091H62.7415V199H59.2216ZM61.0114 172.273C60.3253 172.273 59.7337 172.039 59.2365 171.572C58.7493 171.104 58.5057 170.543 58.5057 169.886C58.5057 169.23 58.7493 168.668 59.2365 168.201C59.7337 167.734 60.3253 167.5 61.0114 167.5C61.6974 167.5 62.2841 167.734 62.7713 168.201C63.2685 168.668 63.517 169.23 63.517 169.886C63.517 170.543 63.2685 171.104 62.7713 171.572C62.2841 172.039 61.6974 172.273 61.0114 172.273ZM72.7083 185.219V199H69.1884V176.091H72.589V179.67H72.8873C73.4242 178.507 74.2395 177.572 75.3333 176.866C76.427 176.151 77.839 175.793 79.5691 175.793C81.1202 175.793 82.4775 176.111 83.6408 176.747C84.8042 177.374 85.709 178.328 86.3553 179.611C87.0016 180.884 87.3248 182.494 87.3248 184.443V199H83.8049V184.682C83.8049 182.882 83.3375 181.48 82.4029 180.476C81.4682 179.462 80.1855 178.955 78.5549 178.955C77.4313 178.955 76.427 179.198 75.5421 179.685C74.6671 180.173 73.976 180.884 73.4689 181.818C72.9618 182.753 72.7083 183.886 72.7083 185.219ZM109.984 181.222L106.822 182.116C106.623 181.589 106.33 181.077 105.942 180.58C105.564 180.073 105.047 179.656 104.391 179.327C103.735 178.999 102.895 178.835 101.87 178.835C100.468 178.835 99.3001 179.158 98.3654 179.805C97.4407 180.441 96.9783 181.251 96.9783 182.236C96.9783 183.111 97.2965 183.802 97.9329 184.309C98.5692 184.816 99.5636 185.239 100.916 185.577L104.316 186.412C106.365 186.909 107.891 187.67 108.895 188.694C109.9 189.708 110.402 191.016 110.402 192.616C110.402 193.929 110.024 195.102 109.268 196.136C108.522 197.17 107.478 197.986 106.136 198.582C104.794 199.179 103.233 199.477 101.453 199.477C99.1161 199.477 97.1822 198.97 95.6509 197.956C94.1197 196.942 93.1502 195.46 92.7425 193.511L96.0835 192.676C96.4016 193.909 97.0032 194.834 97.8881 195.45C98.783 196.067 99.9513 196.375 101.393 196.375C103.034 196.375 104.336 196.027 105.301 195.331C106.275 194.625 106.762 193.78 106.762 192.795C106.762 192 106.484 191.334 105.927 190.797C105.37 190.25 104.515 189.842 103.362 189.574L99.5437 188.679C97.4457 188.182 95.9045 187.411 94.9201 186.367C93.9457 185.313 93.4585 183.996 93.4585 182.415C93.4585 181.122 93.8214 179.979 94.5472 178.984C95.283 177.99 96.2823 177.21 97.5451 176.643C98.8178 176.076 100.26 175.793 101.87 175.793C104.137 175.793 105.917 176.29 107.21 177.284C108.512 178.278 109.437 179.591 109.984 181.222ZM115.7 207.591V176.091H119.101V179.73H119.518C119.777 179.332 120.135 178.825 120.592 178.209C121.059 177.582 121.726 177.026 122.591 176.538C123.466 176.041 124.649 175.793 126.14 175.793C128.069 175.793 129.77 176.275 131.241 177.239C132.713 178.204 133.861 179.571 134.687 181.341C135.512 183.111 135.925 185.199 135.925 187.605C135.925 190.031 135.512 192.134 134.687 193.914C133.861 195.684 132.718 197.056 131.256 198.031C129.795 198.995 128.109 199.477 126.2 199.477C124.729 199.477 123.55 199.234 122.665 198.746C121.78 198.249 121.099 197.687 120.622 197.061C120.145 196.425 119.777 195.898 119.518 195.48H119.22V207.591H115.7ZM119.16 187.545C119.16 189.276 119.414 190.802 119.921 192.124C120.428 193.437 121.169 194.466 122.143 195.212C123.118 195.947 124.311 196.315 125.723 196.315C127.194 196.315 128.422 195.928 129.407 195.152C130.401 194.366 131.147 193.312 131.644 191.99C132.151 190.658 132.405 189.176 132.405 187.545C132.405 185.935 132.156 184.483 131.659 183.19C131.172 181.888 130.431 180.859 129.437 180.103C128.452 179.337 127.214 178.955 125.723 178.955C124.291 178.955 123.088 179.317 122.113 180.043C121.139 180.759 120.403 181.763 119.906 183.056C119.409 184.339 119.16 185.835 119.16 187.545ZM150.899 199.477C148.692 199.477 146.787 198.99 145.187 198.016C143.596 197.031 142.368 195.659 141.503 193.899C140.648 192.129 140.22 190.071 140.22 187.724C140.22 185.378 140.648 183.31 141.503 181.52C142.368 179.72 143.571 178.318 145.112 177.314C146.663 176.3 148.473 175.793 150.541 175.793C151.734 175.793 152.912 175.991 154.076 176.389C155.239 176.787 156.298 177.433 157.253 178.328C158.207 179.213 158.968 180.386 159.535 181.848C160.101 183.31 160.385 185.109 160.385 187.247V188.739H142.726V185.696H156.805C156.805 184.403 156.547 183.25 156.03 182.236C155.523 181.222 154.797 180.421 153.852 179.835C152.917 179.248 151.814 178.955 150.541 178.955C149.139 178.955 147.926 179.303 146.902 179.999C145.888 180.685 145.107 181.58 144.56 182.683C144.013 183.787 143.74 184.97 143.74 186.233V188.261C143.74 189.991 144.038 191.458 144.635 192.661C145.241 193.854 146.081 194.764 147.155 195.391C148.229 196.007 149.477 196.315 150.899 196.315C151.824 196.315 152.659 196.186 153.405 195.928C154.16 195.659 154.812 195.261 155.358 194.734C155.905 194.197 156.328 193.531 156.626 192.736L160.027 193.69C159.669 194.844 159.067 195.858 158.222 196.733C157.377 197.598 156.333 198.274 155.09 198.761C153.847 199.239 152.45 199.477 150.899 199.477ZM175.046 199.477C172.898 199.477 171.049 198.97 169.498 197.956C167.947 196.942 166.753 195.545 165.918 193.765C165.083 191.985 164.665 189.952 164.665 187.665C164.665 185.338 165.093 183.285 165.948 181.505C166.813 179.715 168.016 178.318 169.557 177.314C171.108 176.3 172.918 175.793 174.986 175.793C176.597 175.793 178.049 176.091 179.341 176.688C180.634 177.284 181.693 178.119 182.518 179.193C183.344 180.267 183.856 181.52 184.055 182.952H180.535C180.266 181.908 179.67 180.983 178.745 180.178C177.83 179.362 176.597 178.955 175.046 178.955C173.674 178.955 172.471 179.312 171.437 180.028C170.412 180.734 169.612 181.734 169.035 183.026C168.469 184.309 168.185 185.815 168.185 187.545C168.185 189.315 168.464 190.857 169.02 192.169C169.587 193.482 170.383 194.501 171.407 195.227C172.441 195.952 173.654 196.315 175.046 196.315C175.961 196.315 176.791 196.156 177.537 195.838C178.282 195.52 178.914 195.062 179.431 194.466C179.948 193.869 180.316 193.153 180.535 192.318H184.055C183.856 193.67 183.363 194.888 182.578 195.972C181.802 197.046 180.773 197.901 179.491 198.538C178.218 199.164 176.736 199.477 175.046 199.477ZM199.163 176.091V179.074H187.291V176.091H199.163ZM190.751 170.602H194.271V192.438C194.271 193.432 194.415 194.178 194.704 194.675C195.002 195.162 195.38 195.49 195.837 195.659C196.305 195.818 196.797 195.898 197.314 195.898C197.702 195.898 198.02 195.878 198.268 195.838C198.517 195.788 198.716 195.749 198.865 195.719L199.581 198.881C199.342 198.97 199.009 199.06 198.581 199.149C198.154 199.249 197.612 199.298 196.956 199.298C195.961 199.298 194.987 199.085 194.032 198.657C193.088 198.229 192.302 197.578 191.676 196.703C191.059 195.828 190.751 194.724 190.751 193.392V170.602ZM204.458 199V176.091H207.978V199H204.458ZM206.248 172.273C205.562 172.273 204.97 172.039 204.473 171.572C203.986 171.104 203.742 170.543 203.742 169.886C203.742 169.23 203.986 168.668 204.473 168.201C204.97 167.734 205.562 167.5 206.248 167.5C206.934 167.5 207.52 167.734 208.008 168.201C208.505 168.668 208.753 169.23 208.753 169.886C208.753 170.543 208.505 171.104 208.008 171.572C207.52 172.039 206.934 172.273 206.248 172.273ZM223.732 199.477C221.663 199.477 219.849 198.985 218.288 198.001C216.737 197.016 215.523 195.639 214.648 193.869C213.783 192.099 213.351 190.031 213.351 187.665C213.351 185.278 213.783 183.195 214.648 181.415C215.523 179.636 216.737 178.254 218.288 177.269C219.849 176.285 221.663 175.793 223.732 175.793C225.8 175.793 227.609 176.285 229.161 177.269C230.722 178.254 231.935 179.636 232.8 181.415C233.675 183.195 234.112 185.278 234.112 187.665C234.112 190.031 233.675 192.099 232.8 193.869C231.935 195.639 230.722 197.016 229.161 198.001C227.609 198.985 225.8 199.477 223.732 199.477ZM223.732 196.315C225.303 196.315 226.595 195.913 227.609 195.107C228.624 194.302 229.374 193.243 229.862 191.93C230.349 190.618 230.592 189.196 230.592 187.665C230.592 186.134 230.349 184.707 229.862 183.384C229.374 182.062 228.624 180.993 227.609 180.178C226.595 179.362 225.303 178.955 223.732 178.955C222.161 178.955 220.868 179.362 219.854 180.178C218.839 180.993 218.089 182.062 217.602 183.384C217.114 184.707 216.871 186.134 216.871 187.665C216.871 189.196 217.114 190.618 217.602 191.93C218.089 193.243 218.839 194.302 219.854 195.107C220.868 195.913 222.161 196.315 223.732 196.315ZM243.005 185.219V199H239.485V176.091H242.886V179.67H243.184C243.721 178.507 244.536 177.572 245.63 176.866C246.724 176.151 248.136 175.793 249.866 175.793C251.417 175.793 252.774 176.111 253.938 176.747C255.101 177.374 256.006 178.328 256.652 179.611C257.298 180.884 257.622 182.494 257.622 184.443V199H254.102V184.682C254.102 182.882 253.634 181.48 252.7 180.476C251.765 179.462 250.482 178.955 248.852 178.955C247.728 178.955 246.724 179.198 245.839 179.685C244.964 180.173 244.273 180.884 243.766 181.818C243.259 182.753 243.005 183.886 243.005 185.219ZM296.329 199.477C294.42 199.477 292.735 198.995 291.273 198.031C289.811 197.056 288.668 195.684 287.843 193.914C287.017 192.134 286.605 190.031 286.605 187.605C286.605 185.199 287.017 183.111 287.843 181.341C288.668 179.571 289.816 178.204 291.288 177.239C292.76 176.275 294.46 175.793 296.389 175.793C297.88 175.793 299.059 176.041 299.924 176.538C300.799 177.026 301.465 177.582 301.922 178.209C302.39 178.825 302.752 179.332 303.011 179.73H303.309V168.455H306.829V199H303.429V195.48H303.011C302.752 195.898 302.385 196.425 301.907 197.061C301.43 197.687 300.749 198.249 299.864 198.746C298.979 199.234 297.801 199.477 296.329 199.477ZM296.806 196.315C298.218 196.315 299.412 195.947 300.386 195.212C301.36 194.466 302.101 193.437 302.608 192.124C303.115 190.802 303.369 189.276 303.369 187.545C303.369 185.835 303.12 184.339 302.623 183.056C302.126 181.763 301.39 180.759 300.416 180.043C299.441 179.317 298.238 178.955 296.806 178.955C295.315 178.955 294.072 179.337 293.078 180.103C292.093 180.859 291.353 181.888 290.855 183.19C290.368 184.483 290.125 185.935 290.125 187.545C290.125 189.176 290.373 190.658 290.87 191.99C291.377 193.312 292.123 194.366 293.108 195.152C294.102 195.928 295.335 196.315 296.806 196.315ZM320.506 199.537C319.054 199.537 317.737 199.263 316.554 198.717C315.37 198.16 314.431 197.359 313.735 196.315C313.039 195.261 312.691 193.989 312.691 192.497C312.691 191.185 312.949 190.121 313.466 189.305C313.983 188.48 314.674 187.834 315.539 187.366C316.404 186.899 317.359 186.551 318.403 186.322C319.457 186.084 320.516 185.895 321.58 185.756C322.972 185.577 324.1 185.442 324.966 185.353C325.841 185.254 326.477 185.089 326.875 184.861C327.282 184.632 327.486 184.234 327.486 183.668V183.548C327.486 182.077 327.083 180.933 326.278 180.118C325.483 179.303 324.275 178.895 322.654 178.895C320.973 178.895 319.656 179.263 318.701 179.999C317.747 180.734 317.076 181.52 316.688 182.355L313.347 181.162C313.944 179.77 314.739 178.686 315.733 177.911C316.738 177.125 317.831 176.578 319.015 176.27C320.208 175.952 321.381 175.793 322.534 175.793C323.27 175.793 324.115 175.882 325.07 176.061C326.034 176.23 326.964 176.583 327.859 177.12C328.764 177.657 329.515 178.467 330.111 179.551C330.708 180.635 331.006 182.087 331.006 183.906V199H327.486V195.898H327.307C327.069 196.395 326.671 196.927 326.114 197.494C325.557 198.06 324.816 198.543 323.892 198.94C322.967 199.338 321.838 199.537 320.506 199.537ZM321.043 196.375C322.435 196.375 323.608 196.102 324.563 195.555C325.527 195.008 326.253 194.302 326.74 193.437C327.238 192.572 327.486 191.662 327.486 190.707V187.486C327.337 187.665 327.009 187.829 326.502 187.978C326.005 188.117 325.428 188.241 324.772 188.351C324.125 188.45 323.494 188.54 322.877 188.619C322.271 188.689 321.779 188.749 321.401 188.798C320.486 188.918 319.631 189.112 318.836 189.38C318.05 189.638 317.414 190.031 316.926 190.558C316.449 191.075 316.211 191.781 316.211 192.676C316.211 193.899 316.663 194.824 317.568 195.45C318.483 196.067 319.641 196.375 321.043 196.375ZM347.394 176.091V179.074H335.521V176.091H347.394ZM338.982 170.602H342.502V192.438C342.502 193.432 342.646 194.178 342.934 194.675C343.232 195.162 343.61 195.49 344.068 195.659C344.535 195.818 345.027 195.898 345.544 195.898C345.932 195.898 346.25 195.878 346.499 195.838C346.747 195.788 346.946 195.749 347.095 195.719L347.811 198.881C347.573 198.97 347.24 199.06 346.812 199.149C346.384 199.249 345.843 199.298 345.186 199.298C344.192 199.298 343.218 199.085 342.263 198.657C341.318 198.229 340.533 197.578 339.906 196.703C339.29 195.828 338.982 194.724 338.982 193.392V170.602ZM359.43 199.537C357.978 199.537 356.661 199.263 355.477 198.717C354.294 198.16 353.355 197.359 352.659 196.315C351.963 195.261 351.615 193.989 351.615 192.497C351.615 191.185 351.873 190.121 352.39 189.305C352.907 188.48 353.598 187.834 354.463 187.366C355.328 186.899 356.283 186.551 357.327 186.322C358.381 186.084 359.44 185.895 360.504 185.756C361.896 185.577 363.024 185.442 363.889 185.353C364.764 185.254 365.401 185.089 365.798 184.861C366.206 184.632 366.41 184.234 366.41 183.668V183.548C366.41 182.077 366.007 180.933 365.202 180.118C364.406 179.303 363.198 178.895 361.578 178.895C359.897 178.895 358.58 179.263 357.625 179.999C356.671 180.734 355.999 181.52 355.612 182.355L352.271 181.162C352.867 179.77 353.663 178.686 354.657 177.911C355.661 177.125 356.755 176.578 357.938 176.27C359.132 175.952 360.305 175.793 361.458 175.793C362.194 175.793 363.039 175.882 363.994 176.061C364.958 176.23 365.888 176.583 366.783 177.12C367.688 177.657 368.438 178.467 369.035 179.551C369.632 180.635 369.93 182.087 369.93 183.906V199H366.41V195.898H366.231C365.992 196.395 365.595 196.927 365.038 197.494C364.481 198.06 363.74 198.543 362.816 198.94C361.891 199.338 360.762 199.537 359.43 199.537ZM359.967 196.375C361.359 196.375 362.532 196.102 363.487 195.555C364.451 195.008 365.177 194.302 365.664 193.437C366.161 192.572 366.41 191.662 366.41 190.707V187.486C366.261 187.665 365.933 187.829 365.426 187.978C364.928 188.117 364.352 188.241 363.695 188.351C363.049 188.45 362.418 188.54 361.801 188.619C361.195 188.689 360.703 188.749 360.325 188.798C359.41 188.918 358.555 189.112 357.759 189.38C356.974 189.638 356.338 190.031 355.85 190.558C355.373 191.075 355.134 191.781 355.134 192.676C355.134 193.899 355.587 194.824 356.492 195.45C357.406 196.067 358.565 196.375 359.967 196.375ZM397.474 199.477C395.406 199.477 393.591 198.985 392.03 198.001C390.479 197.016 389.266 195.639 388.391 193.869C387.526 192.099 387.093 190.031 387.093 187.665C387.093 185.278 387.526 183.195 388.391 181.415C389.266 179.636 390.479 178.254 392.03 177.269C393.591 176.285 395.406 175.793 397.474 175.793C399.542 175.793 401.352 176.285 402.903 177.269C404.464 178.254 405.677 179.636 406.542 181.415C407.417 183.195 407.854 185.278 407.854 187.665C407.854 190.031 407.417 192.099 406.542 193.869C405.677 195.639 404.464 197.016 402.903 198.001C401.352 198.985 399.542 199.477 397.474 199.477ZM397.474 196.315C399.045 196.315 400.337 195.913 401.352 195.107C402.366 194.302 403.116 193.243 403.604 191.93C404.091 190.618 404.335 189.196 404.335 187.665C404.335 186.134 404.091 184.707 403.604 183.384C403.116 182.062 402.366 180.993 401.352 180.178C400.337 179.362 399.045 178.955 397.474 178.955C395.903 178.955 394.61 179.362 393.596 180.178C392.582 180.993 391.831 182.062 391.344 183.384C390.857 184.707 390.613 186.134 390.613 187.665C390.613 189.196 390.857 190.618 391.344 191.93C391.831 193.243 392.582 194.302 393.596 195.107C394.61 195.913 395.903 196.315 397.474 196.315ZM416.747 185.219V199H413.227V176.091H416.628V179.67H416.926C417.463 178.507 418.279 177.572 419.372 176.866C420.466 176.151 421.878 175.793 423.608 175.793C425.159 175.793 426.517 176.111 427.68 176.747C428.843 177.374 429.748 178.328 430.394 179.611C431.041 180.884 431.364 182.494 431.364 184.443V199H427.844V184.682C427.844 182.882 427.377 181.48 426.442 180.476C425.507 179.462 424.225 178.955 422.594 178.955C421.47 178.955 420.466 179.198 419.581 179.685C418.706 180.173 418.015 180.884 417.508 181.818C417.001 182.753 416.747 183.886 416.747 185.219ZM441.316 168.455V199H437.796V168.455H441.316ZM450.03 207.591C449.433 207.591 448.901 207.541 448.434 207.442C447.966 207.352 447.643 207.263 447.464 207.173L448.359 204.071C449.214 204.29 449.97 204.369 450.626 204.31C451.282 204.25 451.864 203.957 452.371 203.43C452.888 202.913 453.361 202.072 453.788 200.909L454.444 199.119L445.973 176.091H449.791L456.115 194.347H456.354L462.677 176.091H466.496L456.771 202.341C456.334 203.524 455.792 204.504 455.145 205.279C454.499 206.065 453.748 206.646 452.893 207.024C452.048 207.402 451.094 207.591 450.03 207.591ZM480.806 168.455H485.042L493.514 182.713H493.872L502.343 168.455H506.579L495.542 186.412V199H491.843V186.412L480.806 168.455ZM535.7 183.727C535.7 186.949 535.118 189.733 533.955 192.08C532.792 194.426 531.196 196.236 529.167 197.509C527.139 198.781 524.822 199.418 522.217 199.418C519.612 199.418 517.295 198.781 515.267 197.509C513.238 196.236 511.643 194.426 510.479 192.08C509.316 189.733 508.734 186.949 508.734 183.727C508.734 180.506 509.316 177.722 510.479 175.375C511.643 173.028 513.238 171.219 515.267 169.946C517.295 168.673 519.612 168.037 522.217 168.037C524.822 168.037 527.139 168.673 529.167 169.946C531.196 171.219 532.792 173.028 533.955 175.375C535.118 177.722 535.7 180.506 535.7 183.727ZM532.121 183.727C532.121 181.082 531.678 178.85 530.793 177.031C529.918 175.211 528.73 173.834 527.229 172.899C525.737 171.964 524.067 171.497 522.217 171.497C520.368 171.497 518.692 171.964 517.191 172.899C515.699 173.834 514.511 175.211 513.626 177.031C512.751 178.85 512.314 181.082 512.314 183.727C512.314 186.372 512.751 188.604 513.626 190.424C514.511 192.244 515.699 193.621 517.191 194.555C518.692 195.49 520.368 195.957 522.217 195.957C524.067 195.957 525.737 195.49 527.229 194.555C528.73 193.621 529.918 192.244 530.793 190.424C531.678 188.604 532.121 186.372 532.121 183.727ZM561.965 168.455H565.664V188.679C565.664 190.767 565.172 192.631 564.187 194.272C563.213 195.903 561.836 197.19 560.056 198.135C558.276 199.07 556.188 199.537 553.792 199.537C551.395 199.537 549.307 199.07 547.528 198.135C545.748 197.19 544.366 195.903 543.381 194.272C542.407 192.631 541.92 190.767 541.92 188.679V168.455H545.618V188.381C545.618 189.872 545.947 191.2 546.603 192.363C547.259 193.516 548.194 194.426 549.407 195.092C550.63 195.749 552.091 196.077 553.792 196.077C555.492 196.077 556.954 195.749 558.177 195.092C559.4 194.426 560.334 193.516 560.981 192.363C561.637 191.2 561.965 189.872 561.965 188.381V168.455ZM587.906 185.219V199H584.386V168.455H587.906V179.67H588.204C588.741 178.487 589.546 177.548 590.62 176.852C591.704 176.146 593.146 175.793 594.945 175.793C596.506 175.793 597.874 176.106 599.047 176.732C600.22 177.349 601.13 178.298 601.776 179.581C602.433 180.854 602.761 182.474 602.761 184.443V199H599.241V184.682C599.241 182.862 598.768 181.455 597.824 180.461C596.889 179.457 595.592 178.955 593.931 178.955C592.778 178.955 591.744 179.198 590.829 179.685C589.924 180.173 589.208 180.884 588.681 181.818C588.164 182.753 587.906 183.886 587.906 185.219ZM615.942 199.537C614.49 199.537 613.172 199.263 611.989 198.717C610.806 198.16 609.866 197.359 609.17 196.315C608.474 195.261 608.126 193.989 608.126 192.497C608.126 191.185 608.385 190.121 608.902 189.305C609.419 188.48 610.11 187.834 610.975 187.366C611.84 186.899 612.795 186.551 613.839 186.322C614.893 186.084 615.952 185.895 617.015 185.756C618.407 185.577 619.536 185.442 620.401 185.353C621.276 185.254 621.912 185.089 622.31 184.861C622.718 184.632 622.922 184.234 622.922 183.668V183.548C622.922 182.077 622.519 180.933 621.714 180.118C620.918 179.303 619.71 178.895 618.089 178.895C616.409 178.895 615.091 179.263 614.137 179.999C613.182 180.734 612.511 181.52 612.123 182.355L608.782 181.162C609.379 179.77 610.175 178.686 611.169 177.911C612.173 177.125 613.267 176.578 614.45 176.27C615.643 175.952 616.817 175.793 617.97 175.793C618.706 175.793 619.551 175.882 620.506 176.061C621.47 176.23 622.4 176.583 623.295 177.12C624.199 177.657 624.95 178.467 625.547 179.551C626.143 180.635 626.442 182.087 626.442 183.906V199H622.922V195.898H622.743C622.504 196.395 622.106 196.927 621.55 197.494C620.993 198.06 620.252 198.543 619.327 198.94C618.403 199.338 617.274 199.537 615.942 199.537ZM616.479 196.375C617.871 196.375 619.044 196.102 619.998 195.555C620.963 195.008 621.689 194.302 622.176 193.437C622.673 192.572 622.922 191.662 622.922 190.707V187.486C622.773 187.665 622.444 187.829 621.937 187.978C621.44 188.117 620.863 188.241 620.207 188.351C619.561 188.45 618.93 188.54 618.313 188.619C617.706 188.689 617.214 188.749 616.836 188.798C615.922 188.918 615.067 189.112 614.271 189.38C613.486 189.638 612.849 190.031 612.362 190.558C611.885 191.075 611.646 191.781 611.646 192.676C611.646 193.899 612.099 194.824 613.003 195.45C613.918 196.067 615.077 196.375 616.479 196.375ZM650.779 176.091L642.307 199H638.728L630.256 176.091H634.074L640.398 194.347H640.637L646.961 176.091H650.779ZM664.21 199.477C662.002 199.477 660.098 198.99 658.497 198.016C656.906 197.031 655.678 195.659 654.813 193.899C653.958 192.129 653.531 190.071 653.531 187.724C653.531 185.378 653.958 183.31 654.813 181.52C655.678 179.72 656.881 178.318 658.423 177.314C659.974 176.3 661.783 175.793 663.852 175.793C665.045 175.793 666.223 175.991 667.386 176.389C668.55 176.787 669.609 177.433 670.563 178.328C671.518 179.213 672.278 180.386 672.845 181.848C673.412 183.31 673.695 185.109 673.695 187.247V188.739H656.036V185.696H670.116C670.116 184.403 669.857 183.25 669.34 182.236C668.833 181.222 668.107 180.421 667.163 179.835C666.228 179.248 665.124 178.955 663.852 178.955C662.45 178.955 661.237 179.303 660.212 179.999C659.198 180.685 658.418 181.58 657.871 182.683C657.324 183.787 657.05 184.97 657.05 186.233V188.261C657.05 189.991 657.349 191.458 657.945 192.661C658.552 193.854 659.392 194.764 660.466 195.391C661.54 196.007 662.788 196.315 664.21 196.315C665.134 196.315 665.969 196.186 666.715 195.928C667.471 195.659 668.122 195.261 668.669 194.734C669.216 194.197 669.638 193.531 669.937 192.736L673.337 193.69C672.979 194.844 672.378 195.858 671.533 196.733C670.688 197.598 669.643 198.274 668.401 198.761C667.158 199.239 665.761 199.477 664.21 199.477ZM681.615 199.239C680.879 199.239 680.248 198.975 679.721 198.448C679.194 197.921 678.93 197.29 678.93 196.554C678.93 195.818 679.194 195.187 679.721 194.66C680.248 194.133 680.879 193.869 681.615 193.869C682.351 193.869 682.982 194.133 683.509 194.66C684.036 195.187 684.3 195.818 684.3 196.554C684.3 197.041 684.175 197.489 683.927 197.896C683.688 198.304 683.365 198.632 682.957 198.881C682.56 199.119 682.112 199.239 681.615 199.239Z" fill="white"/>
<rect x="56" y="249" width="204" height="51" rx="12" fill="#3B82F6"/>
<path d="M81.4652 272C81.3402 271.617 81.1754 271.275 80.9709 270.972C80.7701 270.665 80.5296 270.403 80.2493 270.188C79.9728 269.972 79.6584 269.807 79.3061 269.693C78.9538 269.58 78.5675 269.523 78.147 269.523C77.4576 269.523 76.8307 269.701 76.2663 270.057C75.7019 270.413 75.2531 270.938 74.9197 271.631C74.5864 272.324 74.4197 273.174 74.4197 274.182C74.4197 275.189 74.5883 276.04 74.9254 276.733C75.2625 277.426 75.719 277.951 76.2947 278.307C76.8705 278.663 77.5182 278.841 78.2379 278.841C78.9046 278.841 79.4917 278.699 79.9993 278.415C80.5107 278.127 80.9084 277.722 81.1925 277.199C81.4804 276.672 81.6243 276.053 81.6243 275.341L82.0561 275.432H78.5561V274.182H82.9879V275.432C82.9879 276.39 82.7834 277.223 82.3743 277.932C81.969 278.64 81.4084 279.189 80.6925 279.58C79.9804 279.966 79.1622 280.159 78.2379 280.159C77.2076 280.159 76.3023 279.917 75.522 279.432C74.7455 278.947 74.1394 278.258 73.7038 277.364C73.272 276.47 73.0561 275.409 73.0561 274.182C73.0561 273.261 73.1792 272.434 73.4254 271.699C73.6754 270.96 74.0277 270.331 74.4822 269.812C74.9368 269.294 75.4747 268.896 76.0959 268.619C76.7171 268.343 77.4008 268.205 78.147 268.205C78.7607 268.205 79.3326 268.297 79.8629 268.483C80.397 268.665 80.8724 268.924 81.2891 269.261C81.7095 269.595 82.0599 269.994 82.3402 270.46C82.6205 270.922 82.8137 271.436 82.9197 272H81.4652ZM88.8786 280.182C88.0376 280.182 87.3123 279.996 86.7024 279.625C86.0964 279.25 85.6286 278.727 85.299 278.057C84.9732 277.383 84.8104 276.598 84.8104 275.705C84.8104 274.811 84.9732 274.023 85.299 273.341C85.6286 272.655 86.0869 272.121 86.674 271.739C87.2649 271.352 87.9543 271.159 88.7422 271.159C89.1967 271.159 89.6456 271.235 90.0888 271.386C90.532 271.538 90.9354 271.784 91.299 272.125C91.6626 272.462 91.9524 272.909 92.1683 273.466C92.3842 274.023 92.4922 274.708 92.4922 275.523V276.091H85.7649V274.932H91.1286C91.1286 274.439 91.0301 274 90.8331 273.614C90.6399 273.227 90.3634 272.922 90.0036 272.699C89.6475 272.475 89.227 272.364 88.7422 272.364C88.2081 272.364 87.746 272.496 87.3558 272.761C86.9695 273.023 86.6721 273.364 86.4638 273.784C86.2554 274.205 86.1513 274.655 86.1513 275.136V275.909C86.1513 276.568 86.2649 277.127 86.4922 277.585C86.7232 278.04 87.0433 278.386 87.4524 278.625C87.8615 278.86 88.3369 278.977 88.8786 278.977C89.2308 278.977 89.549 278.928 89.8331 278.83C90.121 278.727 90.3691 278.576 90.5774 278.375C90.7857 278.17 90.9467 277.917 91.0604 277.614L92.3558 277.977C92.2195 278.417 91.9903 278.803 91.6683 279.136C91.3464 279.466 90.9486 279.723 90.4751 279.909C90.0017 280.091 89.4695 280.182 88.8786 280.182ZM98.3274 271.273V272.409H93.8047V271.273H98.3274ZM95.1229 269.182H96.4638V277.5C96.4638 277.879 96.5187 278.163 96.6286 278.352C96.7422 278.538 96.8861 278.663 97.0604 278.727C97.2384 278.788 97.4259 278.818 97.6229 278.818C97.7706 278.818 97.8918 278.811 97.9865 278.795C98.0812 278.777 98.157 278.761 98.2138 278.75L98.4865 279.955C98.3956 279.989 98.2687 280.023 98.1058 280.057C97.9429 280.095 97.7365 280.114 97.4865 280.114C97.1077 280.114 96.7365 280.032 96.3729 279.869C96.013 279.706 95.7138 279.458 95.4751 279.125C95.2403 278.792 95.1229 278.371 95.1229 277.864V269.182ZM111.39 271.273C111.322 270.697 111.045 270.25 110.56 269.932C110.076 269.614 109.481 269.455 108.776 269.455C108.261 269.455 107.81 269.538 107.424 269.705C107.041 269.871 106.742 270.1 106.526 270.392C106.314 270.684 106.208 271.015 106.208 271.386C106.208 271.697 106.282 271.964 106.43 272.188C106.581 272.407 106.774 272.591 107.009 272.739C107.244 272.883 107.49 273.002 107.748 273.097C108.005 273.187 108.242 273.261 108.458 273.318L109.64 273.636C109.943 273.716 110.28 273.826 110.651 273.966C111.026 274.106 111.384 274.297 111.725 274.54C112.07 274.778 112.354 275.085 112.577 275.46C112.801 275.835 112.913 276.295 112.913 276.841C112.913 277.47 112.748 278.038 112.418 278.545C112.093 279.053 111.615 279.456 110.987 279.756C110.362 280.055 109.602 280.205 108.708 280.205C107.875 280.205 107.153 280.07 106.543 279.801C105.937 279.532 105.46 279.157 105.112 278.676C104.767 278.195 104.572 277.636 104.526 277H105.981C106.019 277.439 106.166 277.803 106.424 278.091C106.685 278.375 107.015 278.587 107.413 278.727C107.814 278.864 108.246 278.932 108.708 278.932C109.246 278.932 109.729 278.845 110.157 278.67C110.585 278.492 110.924 278.246 111.174 277.932C111.424 277.614 111.549 277.242 111.549 276.818C111.549 276.432 111.441 276.117 111.225 275.875C111.009 275.633 110.725 275.436 110.373 275.284C110.021 275.133 109.64 275 109.231 274.886L107.799 274.477C106.89 274.216 106.17 273.843 105.64 273.358C105.11 272.873 104.844 272.239 104.844 271.455C104.844 270.803 105.021 270.235 105.373 269.75C105.729 269.261 106.206 268.883 106.805 268.614C107.407 268.341 108.079 268.205 108.822 268.205C109.572 268.205 110.238 268.339 110.822 268.608C111.405 268.873 111.867 269.237 112.208 269.699C112.553 270.161 112.735 270.686 112.754 271.273H111.39ZM118.843 271.273V272.409H114.32V271.273H118.843ZM115.638 269.182H116.979V277.5C116.979 277.879 117.034 278.163 117.144 278.352C117.258 278.538 117.402 278.663 117.576 278.727C117.754 278.788 117.942 278.818 118.138 278.818C118.286 278.818 118.407 278.811 118.502 278.795C118.597 278.777 118.673 278.761 118.729 278.75L119.002 279.955C118.911 279.989 118.784 280.023 118.621 280.057C118.459 280.095 118.252 280.114 118.002 280.114C117.623 280.114 117.252 280.032 116.888 279.869C116.529 279.706 116.229 279.458 115.991 279.125C115.756 278.792 115.638 278.371 115.638 277.864V269.182ZM123.428 280.205C122.875 280.205 122.373 280.1 121.923 279.892C121.472 279.68 121.114 279.375 120.849 278.977C120.584 278.576 120.451 278.091 120.451 277.523C120.451 277.023 120.549 276.617 120.746 276.307C120.943 275.992 121.207 275.746 121.536 275.568C121.866 275.39 122.229 275.258 122.627 275.17C123.029 275.08 123.432 275.008 123.837 274.955C124.368 274.886 124.798 274.835 125.127 274.801C125.46 274.763 125.703 274.701 125.854 274.614C126.01 274.527 126.087 274.375 126.087 274.159V274.114C126.087 273.553 125.934 273.117 125.627 272.807C125.324 272.496 124.864 272.341 124.246 272.341C123.606 272.341 123.104 272.481 122.741 272.761C122.377 273.042 122.121 273.341 121.974 273.659L120.701 273.205C120.928 272.674 121.231 272.261 121.61 271.966C121.993 271.667 122.409 271.458 122.86 271.341C123.315 271.22 123.762 271.159 124.201 271.159C124.481 271.159 124.803 271.193 125.167 271.261C125.534 271.326 125.888 271.46 126.229 271.665C126.574 271.869 126.86 272.178 127.087 272.591C127.315 273.004 127.428 273.557 127.428 274.25V280H126.087V278.818H126.019C125.928 279.008 125.777 279.21 125.565 279.426C125.353 279.642 125.07 279.826 124.718 279.977C124.366 280.129 123.936 280.205 123.428 280.205ZM123.633 279C124.163 279 124.61 278.896 124.974 278.688C125.341 278.479 125.618 278.21 125.803 277.881C125.993 277.551 126.087 277.205 126.087 276.841V275.614C126.031 275.682 125.906 275.744 125.712 275.801C125.523 275.854 125.303 275.902 125.053 275.943C124.807 275.981 124.567 276.015 124.332 276.045C124.101 276.072 123.913 276.095 123.769 276.114C123.421 276.159 123.095 276.233 122.792 276.335C122.493 276.434 122.25 276.583 122.065 276.784C121.883 276.981 121.792 277.25 121.792 277.591C121.792 278.057 121.964 278.409 122.309 278.648C122.657 278.883 123.099 279 123.633 279ZM129.876 280V271.273H131.171V272.591H131.262C131.421 272.159 131.709 271.809 132.126 271.54C132.542 271.271 133.012 271.136 133.535 271.136C133.633 271.136 133.756 271.138 133.904 271.142C134.052 271.146 134.164 271.152 134.239 271.159V272.523C134.194 272.511 134.09 272.494 133.927 272.472C133.768 272.445 133.599 272.432 133.421 272.432C132.997 272.432 132.618 272.521 132.285 272.699C131.955 272.873 131.694 273.116 131.501 273.426C131.311 273.733 131.217 274.083 131.217 274.477V280H129.876ZM140.171 271.273V272.409H135.648V271.273H140.171ZM136.967 269.182H138.308V277.5C138.308 277.879 138.362 278.163 138.472 278.352C138.586 278.538 138.73 278.663 138.904 278.727C139.082 278.788 139.27 278.818 139.467 278.818C139.614 278.818 139.736 278.811 139.83 278.795C139.925 278.777 140.001 278.761 140.058 278.75L140.33 279.955C140.239 279.989 140.112 280.023 139.95 280.057C139.787 280.095 139.58 280.114 139.33 280.114C138.951 280.114 138.58 280.032 138.217 279.869C137.857 279.706 137.558 279.458 137.319 279.125C137.084 278.792 136.967 278.371 136.967 277.864V269.182ZM145.754 280.182C144.913 280.182 144.187 279.996 143.577 279.625C142.971 279.25 142.504 278.727 142.174 278.057C141.848 277.383 141.685 276.598 141.685 275.705C141.685 274.811 141.848 274.023 142.174 273.341C142.504 272.655 142.962 272.121 143.549 271.739C144.14 271.352 144.829 271.159 145.617 271.159C146.072 271.159 146.521 271.235 146.964 271.386C147.407 271.538 147.81 271.784 148.174 272.125C148.538 272.462 148.827 272.909 149.043 273.466C149.259 274.023 149.367 274.708 149.367 275.523V276.091H142.64V274.932H148.004C148.004 274.439 147.905 274 147.708 273.614C147.515 273.227 147.238 272.922 146.879 272.699C146.522 272.475 146.102 272.364 145.617 272.364C145.083 272.364 144.621 272.496 144.231 272.761C143.844 273.023 143.547 273.364 143.339 273.784C143.13 274.205 143.026 274.655 143.026 275.136V275.909C143.026 276.568 143.14 277.127 143.367 277.585C143.598 278.04 143.918 278.386 144.327 278.625C144.737 278.86 145.212 278.977 145.754 278.977C146.106 278.977 146.424 278.928 146.708 278.83C146.996 278.727 147.244 278.576 147.452 278.375C147.661 278.17 147.822 277.917 147.935 277.614L149.231 277.977C149.094 278.417 148.865 278.803 148.543 279.136C148.221 279.466 147.824 279.723 147.35 279.909C146.877 280.091 146.344 280.182 145.754 280.182ZM154.702 280.182C153.975 280.182 153.333 279.998 152.776 279.631C152.219 279.259 151.784 278.737 151.469 278.062C151.155 277.384 150.998 276.583 150.998 275.659C150.998 274.742 151.155 273.947 151.469 273.273C151.784 272.598 152.221 272.078 152.782 271.71C153.343 271.343 153.99 271.159 154.725 271.159C155.293 271.159 155.742 271.254 156.072 271.443C156.405 271.629 156.659 271.841 156.833 272.08C157.011 272.314 157.149 272.508 157.248 272.659H157.362V268.364H158.702V280H157.407V278.659H157.248C157.149 278.818 157.009 279.019 156.827 279.261C156.646 279.5 156.386 279.714 156.049 279.903C155.712 280.089 155.263 280.182 154.702 280.182ZM154.884 278.977C155.422 278.977 155.877 278.837 156.248 278.557C156.619 278.273 156.901 277.881 157.094 277.381C157.288 276.877 157.384 276.295 157.384 275.636C157.384 274.985 157.29 274.415 157.1 273.926C156.911 273.434 156.63 273.051 156.259 272.778C155.888 272.502 155.43 272.364 154.884 272.364C154.316 272.364 153.843 272.509 153.464 272.801C153.089 273.089 152.807 273.481 152.617 273.977C152.432 274.47 152.339 275.023 152.339 275.636C152.339 276.258 152.433 276.822 152.623 277.33C152.816 277.833 153.1 278.235 153.475 278.534C153.854 278.83 154.324 278.977 154.884 278.977ZM167.822 280L165.163 271.273H166.572L168.458 277.955H168.549L170.413 271.273H171.844L173.685 277.932H173.776L175.663 271.273H177.072L174.413 280H173.094L171.185 273.295H171.049L169.14 280H167.822ZM178.844 280V271.273H180.185V280H178.844ZM179.526 269.818C179.265 269.818 179.04 269.729 178.85 269.551C178.665 269.373 178.572 269.159 178.572 268.909C178.572 268.659 178.665 268.445 178.85 268.267C179.04 268.089 179.265 268 179.526 268C179.788 268 180.011 268.089 180.197 268.267C180.386 268.445 180.481 268.659 180.481 268.909C180.481 269.159 180.386 269.373 180.197 269.551C180.011 269.729 179.788 269.818 179.526 269.818ZM186.437 271.273V272.409H181.914V271.273H186.437ZM183.232 269.182H184.573V277.5C184.573 277.879 184.628 278.163 184.738 278.352C184.852 278.538 184.996 278.663 185.17 278.727C185.348 278.788 185.535 278.818 185.732 278.818C185.88 278.818 186.001 278.811 186.096 278.795C186.191 278.777 186.266 278.761 186.323 278.75L186.596 279.955C186.505 279.989 186.378 280.023 186.215 280.057C186.052 280.095 185.846 280.114 185.596 280.114C185.217 280.114 184.846 280.032 184.482 279.869C184.122 279.706 183.823 279.458 183.585 279.125C183.35 278.792 183.232 278.371 183.232 277.864V269.182ZM189.982 274.75V280H188.641V268.364H189.982V272.636H190.096C190.3 272.186 190.607 271.828 191.016 271.562C191.429 271.294 191.978 271.159 192.664 271.159C193.259 271.159 193.78 271.278 194.227 271.517C194.674 271.752 195.02 272.114 195.266 272.602C195.516 273.087 195.641 273.705 195.641 274.455V280H194.3V274.545C194.3 273.852 194.121 273.316 193.761 272.938C193.405 272.555 192.91 272.364 192.278 272.364C191.838 272.364 191.444 272.456 191.096 272.642C190.751 272.828 190.478 273.098 190.278 273.455C190.081 273.811 189.982 274.242 189.982 274.75ZM203.254 268.364L206.708 278.159H206.844L210.299 268.364H211.776L207.504 280H206.049L201.776 268.364H203.254ZM213.407 280V271.273H214.748V280H213.407ZM214.089 269.818C213.827 269.818 213.602 269.729 213.413 269.551C213.227 269.373 213.134 269.159 213.134 268.909C213.134 268.659 213.227 268.445 213.413 268.267C213.602 268.089 213.827 268 214.089 268C214.35 268 214.574 268.089 214.759 268.267C214.949 268.445 215.043 268.659 215.043 268.909C215.043 269.159 214.949 269.373 214.759 269.551C214.574 269.729 214.35 269.818 214.089 269.818ZM219.772 280.205C219.219 280.205 218.717 280.1 218.266 279.892C217.816 279.68 217.458 279.375 217.192 278.977C216.927 278.576 216.795 278.091 216.795 277.523C216.795 277.023 216.893 276.617 217.09 276.307C217.287 275.992 217.55 275.746 217.88 275.568C218.21 275.39 218.573 275.258 218.971 275.17C219.372 275.08 219.776 275.008 220.181 274.955C220.711 274.886 221.141 274.835 221.471 274.801C221.804 274.763 222.047 274.701 222.198 274.614C222.353 274.527 222.431 274.375 222.431 274.159V274.114C222.431 273.553 222.278 273.117 221.971 272.807C221.668 272.496 221.208 272.341 220.59 272.341C219.95 272.341 219.448 272.481 219.085 272.761C218.721 273.042 218.465 273.341 218.317 273.659L217.045 273.205C217.272 272.674 217.575 272.261 217.954 271.966C218.336 271.667 218.753 271.458 219.204 271.341C219.658 271.22 220.105 271.159 220.545 271.159C220.825 271.159 221.147 271.193 221.511 271.261C221.878 271.326 222.232 271.46 222.573 271.665C222.918 271.869 223.204 272.178 223.431 272.591C223.658 273.004 223.772 273.557 223.772 274.25V280H222.431V278.818H222.363C222.272 279.008 222.121 279.21 221.908 279.426C221.696 279.642 221.414 279.826 221.062 279.977C220.71 280.129 220.28 280.205 219.772 280.205ZM219.977 279C220.507 279 220.954 278.896 221.317 278.688C221.685 278.479 221.961 278.21 222.147 277.881C222.336 277.551 222.431 277.205 222.431 276.841V275.614C222.374 275.682 222.249 275.744 222.056 275.801C221.867 275.854 221.647 275.902 221.397 275.943C221.151 275.981 220.91 276.015 220.675 276.045C220.444 276.072 220.257 276.095 220.113 276.114C219.764 276.159 219.439 276.233 219.136 276.335C218.836 276.434 218.594 276.583 218.408 276.784C218.227 276.981 218.136 277.25 218.136 277.591C218.136 278.057 218.308 278.409 218.653 278.648C219.001 278.883 219.442 279 219.977 279ZM227.56 274.75V280H226.219V271.273H227.515V272.636H227.629C227.833 272.193 228.144 271.837 228.56 271.568C228.977 271.295 229.515 271.159 230.174 271.159C230.765 271.159 231.282 271.28 231.725 271.523C232.168 271.761 232.513 272.125 232.759 272.614C233.005 273.098 233.129 273.712 233.129 274.455V280H231.788V274.545C231.788 273.86 231.61 273.326 231.254 272.943C230.897 272.557 230.409 272.364 229.788 272.364C229.36 272.364 228.977 272.456 228.64 272.642C228.307 272.828 228.043 273.098 227.85 273.455C227.657 273.811 227.56 274.242 227.56 274.75ZM239.124 280.182C238.336 280.182 237.645 279.994 237.05 279.619C236.46 279.244 235.997 278.72 235.664 278.045C235.335 277.371 235.17 276.583 235.17 275.682C235.17 274.773 235.335 273.979 235.664 273.301C235.997 272.623 236.46 272.097 237.05 271.722C237.645 271.347 238.336 271.159 239.124 271.159C239.912 271.159 240.602 271.347 241.192 271.722C241.787 272.097 242.249 272.623 242.579 273.301C242.912 273.979 243.079 274.773 243.079 275.682C243.079 276.583 242.912 277.371 242.579 278.045C242.249 278.72 241.787 279.244 241.192 279.619C240.602 279.994 239.912 280.182 239.124 280.182ZM239.124 278.977C239.723 278.977 240.215 278.824 240.602 278.517C240.988 278.21 241.274 277.807 241.46 277.307C241.645 276.807 241.738 276.265 241.738 275.682C241.738 275.098 241.645 274.555 241.46 274.051C241.274 273.547 240.988 273.14 240.602 272.83C240.215 272.519 239.723 272.364 239.124 272.364C238.526 272.364 238.033 272.519 237.647 272.83C237.261 273.14 236.975 273.547 236.789 274.051C236.603 274.555 236.511 275.098 236.511 275.682C236.511 276.265 236.603 276.807 236.789 277.307C236.975 277.807 237.261 278.21 237.647 278.517C238.033 278.824 238.526 278.977 239.124 278.977Z" fill="white"/>
<path d="M1139.63 285.001C1139.64 287.333 1138.93 289.614 1137.6 291.525C1136.26 293.436 1134.36 294.883 1132.16 295.665L1087.06 312.066L1070.66 357.161C1069.86 359.338 1068.4 361.215 1066.5 362.541C1064.59 363.867 1062.32 364.577 1060 364.577C1057.68 364.577 1055.41 363.867 1053.51 362.541C1051.6 361.215 1050.14 359.338 1049.34 357.161L1032.94 312.059L987.84 295.665C985.664 294.857 983.786 293.402 982.46 291.495C981.134 289.589 980.424 287.323 980.424 285.001C980.424 282.679 981.134 280.412 982.46 278.506C983.786 276.6 985.664 275.145 987.84 274.337L1032.94 257.942L1049.34 212.84C1050.14 210.664 1051.6 208.786 1053.51 207.46C1055.41 206.134 1057.68 205.424 1060 205.424C1062.32 205.424 1064.59 206.134 1066.5 207.46C1068.4 208.786 1069.86 210.664 1070.66 212.84L1087.07 257.942L1132.16 274.337C1134.36 275.118 1136.26 276.565 1137.6 278.476C1138.93 280.387 1139.64 282.668 1139.63 285.001Z" fill="url(#paint1_linear_317_106)"/>
<path d="M1231 336C1231.01 337.173 1230.65 338.319 1229.98 339.28C1229.31 340.24 1228.35 340.968 1227.25 341.36L1204.58 349.605L1196.35 372.272C1195.94 373.366 1195.21 374.31 1194.25 374.976C1193.29 375.643 1192.15 376 1190.99 376C1189.82 376 1188.68 375.643 1187.72 374.976C1186.77 374.31 1186.04 373.366 1185.63 372.272L1177.39 349.601L1154.73 341.36C1153.63 340.954 1152.69 340.223 1152.02 339.265C1151.36 338.306 1151 337.167 1151 336C1151 334.833 1151.36 333.694 1152.02 332.735C1152.69 331.777 1153.63 331.046 1154.73 330.64L1177.39 322.399L1185.63 299.728C1186.04 298.634 1186.77 297.69 1187.72 297.024C1188.68 296.357 1189.82 296 1190.99 296C1192.15 296 1193.29 296.357 1194.25 297.024C1195.21 297.69 1195.94 298.634 1196.35 299.728L1204.59 322.399L1227.25 330.64C1228.35 331.032 1229.31 331.76 1229.98 332.72C1230.65 333.681 1231.01 334.827 1231 336Z" fill="url(#paint2_linear_317_106)"/>
<defs>
<linearGradient id="paint0_linear_317_106" x1="648" y1="5.83746e-05" x2="1311.47" y2="781.178" gradientUnits="userSpaceOnUse">
<stop stop-color="#1A1F2E"/>
<stop offset="1" stop-color="#546494"/>
</linearGradient>
<linearGradient id="paint1_linear_317_106" x1="1032" y1="225.5" x2="1160.5" y2="392" gradientUnits="userSpaceOnUse">
<stop stop-color="#A23BF6"/>
<stop offset="1" stop-color="#DBAFFF"/>
</linearGradient>
<linearGradient id="paint2_linear_317_106" x1="1176.92" y1="306.092" x2="1241.51" y2="389.765" gradientUnits="userSpaceOnUse">
<stop stop-color="#A23BF6"/>
<stop offset="1" stop-color="#DBAFFF"/>
</linearGradient>
</defs>
</svg>
