<svg width="668" height="600" viewBox="0 0 668 600" fill="none" xmlns="http://www.w3.org/2000/svg">
<g filter="url(#filter0_d_449_35)">
<rect x="12" y="8" width="644" height="576" rx="17" fill="white"/>
<rect x="57.5" y="37.5" width="214" height="38" rx="19" stroke="#1A1F2E"/>
<path d="M68.4091 62V50.3636H69.8182V60.75H75.2273V62H68.4091ZM80.7727 62.1818C79.9848 62.1818 79.2936 61.9943 78.6989 61.6193C78.108 61.2443 77.6458 60.7197 77.3125 60.0455C76.983 59.3712 76.8182 58.5833 76.8182 57.6818C76.8182 56.7727 76.983 55.9792 77.3125 55.3011C77.6458 54.6231 78.108 54.0966 78.6989 53.7216C79.2936 53.3466 79.9848 53.1591 80.7727 53.1591C81.5606 53.1591 82.25 53.3466 82.8409 53.7216C83.4356 54.0966 83.8977 54.6231 84.2273 55.3011C84.5606 55.9792 84.7273 56.7727 84.7273 57.6818C84.7273 58.5833 84.5606 59.3712 84.2273 60.0455C83.8977 60.7197 83.4356 61.2443 82.8409 61.6193C82.25 61.9943 81.5606 62.1818 80.7727 62.1818ZM80.7727 60.9773C81.3712 60.9773 81.8636 60.8239 82.25 60.517C82.6364 60.2102 82.9223 59.8068 83.108 59.3068C83.2936 58.8068 83.3864 58.2652 83.3864 57.6818C83.3864 57.0985 83.2936 56.5549 83.108 56.0511C82.9223 55.5473 82.6364 55.1402 82.25 54.8295C81.8636 54.5189 81.3712 54.3636 80.7727 54.3636C80.1742 54.3636 79.6818 54.5189 79.2955 54.8295C78.9091 55.1402 78.6231 55.5473 78.4375 56.0511C78.2519 56.5549 78.1591 57.0985 78.1591 57.6818C78.1591 58.2652 78.2519 58.8068 78.4375 59.3068C78.6231 59.8068 78.9091 60.2102 79.2955 60.517C79.6818 60.8239 80.1742 60.9773 80.7727 60.9773ZM90.3196 62.1818C89.5014 62.1818 88.7969 61.9886 88.206 61.6023C87.6151 61.2159 87.1605 60.6837 86.8423 60.0057C86.5241 59.3277 86.3651 58.553 86.3651 57.6818C86.3651 56.7955 86.5279 56.0133 86.8537 55.3352C87.1832 54.6534 87.6416 54.1212 88.2287 53.7386C88.8196 53.3523 89.509 53.1591 90.2969 53.1591C90.9105 53.1591 91.4635 53.2727 91.956 53.5C92.4484 53.7273 92.8518 54.0455 93.1662 54.4545C93.4806 54.8636 93.6757 55.3409 93.7514 55.8864H92.4105C92.3082 55.4886 92.081 55.1364 91.7287 54.8295C91.3802 54.5189 90.9105 54.3636 90.3196 54.3636C89.7969 54.3636 89.3385 54.5 88.9446 54.7727C88.5545 55.0417 88.2495 55.4223 88.0298 55.9148C87.8139 56.4034 87.706 56.9773 87.706 57.6364C87.706 58.3106 87.812 58.8977 88.0241 59.3977C88.2401 59.8977 88.5431 60.286 88.9332 60.5625C89.3272 60.839 89.7893 60.9773 90.3196 60.9773C90.6681 60.9773 90.9844 60.9167 91.2685 60.7955C91.5526 60.6742 91.7931 60.5 91.9901 60.2727C92.187 60.0455 92.3272 59.7727 92.4105 59.4545H93.7514C93.6757 59.9697 93.4882 60.4337 93.1889 60.8466C92.8935 61.2557 92.5014 61.5814 92.0128 61.8239C91.5279 62.0625 90.9635 62.1818 90.3196 62.1818ZM98.2798 62.2045C97.7268 62.2045 97.2249 62.1004 96.7741 61.892C96.3234 61.6799 95.9654 61.375 95.7003 60.9773C95.4351 60.5758 95.3026 60.0909 95.3026 59.5227C95.3026 59.0227 95.401 58.6174 95.598 58.3068C95.795 57.9924 96.0582 57.7462 96.3878 57.5682C96.7173 57.3902 97.081 57.2576 97.4787 57.1705C97.8802 57.0795 98.2836 57.0076 98.6889 56.9545C99.2192 56.8864 99.6491 56.8352 99.9787 56.8011C100.312 56.7633 100.554 56.7008 100.706 56.6136C100.861 56.5265 100.939 56.375 100.939 56.1591V56.1136C100.939 55.553 100.786 55.1174 100.479 54.8068C100.176 54.4962 99.7154 54.3409 99.098 54.3409C98.4579 54.3409 97.956 54.4811 97.5923 54.7614C97.2287 55.0417 96.973 55.3409 96.8253 55.6591L95.5526 55.2045C95.7798 54.6742 96.0829 54.2614 96.4616 53.9659C96.8442 53.6667 97.2609 53.4583 97.7116 53.3409C98.1662 53.2197 98.6132 53.1591 99.0526 53.1591C99.3329 53.1591 99.6548 53.1932 100.018 53.2614C100.386 53.3258 100.74 53.4602 101.081 53.6648C101.426 53.8693 101.712 54.178 101.939 54.5909C102.166 55.0038 102.28 55.5568 102.28 56.25V62H100.939V60.8182H100.871C100.78 61.0076 100.628 61.2102 100.416 61.4261C100.204 61.642 99.9219 61.8258 99.5696 61.9773C99.2173 62.1288 98.7874 62.2045 98.2798 62.2045ZM98.4844 61C99.0147 61 99.4616 60.8958 99.8253 60.6875C100.193 60.4792 100.469 60.2102 100.655 59.8807C100.844 59.5511 100.939 59.2045 100.939 58.8409V57.6136C100.882 57.6818 100.757 57.7443 100.564 57.8011C100.375 57.8542 100.155 57.9015 99.9048 57.9432C99.6586 57.9811 99.4181 58.0152 99.1832 58.0455C98.9522 58.072 98.7647 58.0947 98.6207 58.1136C98.2723 58.1591 97.9465 58.233 97.6435 58.3352C97.3442 58.4337 97.1018 58.5833 96.9162 58.7841C96.7344 58.9811 96.6435 59.25 96.6435 59.5909C96.6435 60.0568 96.8158 60.4091 97.1605 60.6477C97.509 60.8826 97.9503 61 98.4844 61ZM106.068 50.3636V62H104.727V50.3636H106.068ZM122.57 54H121.161C121.077 53.5947 120.931 53.2386 120.723 52.9318C120.518 52.625 120.268 52.3674 119.973 52.1591C119.681 51.947 119.357 51.7879 119.001 51.6818C118.645 51.5758 118.274 51.5227 117.888 51.5227C117.183 51.5227 116.545 51.7008 115.973 52.0568C115.405 52.4129 114.952 52.9375 114.615 53.6307C114.282 54.3239 114.115 55.1742 114.115 56.1818C114.115 57.1894 114.282 58.0398 114.615 58.733C114.952 59.4261 115.405 59.9508 115.973 60.3068C116.545 60.6629 117.183 60.8409 117.888 60.8409C118.274 60.8409 118.645 60.7879 119.001 60.6818C119.357 60.5758 119.681 60.4186 119.973 60.2102C120.268 59.9981 120.518 59.7386 120.723 59.4318C120.931 59.1212 121.077 58.7652 121.161 58.3636H122.57C122.464 58.9583 122.27 59.4905 121.99 59.9602C121.71 60.4299 121.361 60.8295 120.945 61.1591C120.528 61.4848 120.06 61.733 119.541 61.9034C119.026 62.0739 118.475 62.1591 117.888 62.1591C116.895 62.1591 116.013 61.9167 115.24 61.4318C114.467 60.947 113.859 60.2576 113.416 59.3636C112.973 58.4697 112.751 57.4091 112.751 56.1818C112.751 54.9545 112.973 53.8939 113.416 53C113.859 52.1061 114.467 51.4167 115.24 50.9318C116.013 50.447 116.895 50.2045 117.888 50.2045C118.475 50.2045 119.026 50.2898 119.541 50.4602C120.06 50.6307 120.528 50.8807 120.945 51.2102C121.361 51.536 121.71 51.9337 121.99 52.4034C122.27 52.8693 122.464 53.4015 122.57 54ZM128.21 62.1818C127.422 62.1818 126.731 61.9943 126.136 61.6193C125.545 61.2443 125.083 60.7197 124.75 60.0455C124.42 59.3712 124.256 58.5833 124.256 57.6818C124.256 56.7727 124.42 55.9792 124.75 55.3011C125.083 54.6231 125.545 54.0966 126.136 53.7216C126.731 53.3466 127.422 53.1591 128.21 53.1591C128.998 53.1591 129.688 53.3466 130.278 53.7216C130.873 54.0966 131.335 54.6231 131.665 55.3011C131.998 55.9792 132.165 56.7727 132.165 57.6818C132.165 58.5833 131.998 59.3712 131.665 60.0455C131.335 60.7197 130.873 61.2443 130.278 61.6193C129.688 61.9943 128.998 62.1818 128.21 62.1818ZM128.21 60.9773C128.809 60.9773 129.301 60.8239 129.688 60.517C130.074 60.2102 130.36 59.8068 130.545 59.3068C130.731 58.8068 130.824 58.2652 130.824 57.6818C130.824 57.0985 130.731 56.5549 130.545 56.0511C130.36 55.5473 130.074 55.1402 129.688 54.8295C129.301 54.5189 128.809 54.3636 128.21 54.3636C127.612 54.3636 127.119 54.5189 126.733 54.8295C126.347 55.1402 126.061 55.5473 125.875 56.0511C125.689 56.5549 125.597 57.0985 125.597 57.6818C125.597 58.2652 125.689 58.8068 125.875 59.3068C126.061 59.8068 126.347 60.2102 126.733 60.517C127.119 60.8239 127.612 60.9773 128.21 60.9773ZM135.553 56.75V62H134.212V53.2727H135.507V54.6364H135.621C135.825 54.1932 136.136 53.8371 136.553 53.5682C136.969 53.2955 137.507 53.1591 138.166 53.1591C138.757 53.1591 139.274 53.2803 139.717 53.5227C140.161 53.7614 140.505 54.125 140.751 54.6136C140.998 55.0985 141.121 55.7121 141.121 56.4545V62H139.78V56.5455C139.78 55.8598 139.602 55.3258 139.246 54.9432C138.89 54.5568 138.401 54.3636 137.78 54.3636C137.352 54.3636 136.969 54.4564 136.632 54.642C136.299 54.8277 136.036 55.0985 135.842 55.4545C135.649 55.8106 135.553 56.2424 135.553 56.75ZM147.366 53.2727V54.4091H142.844V53.2727H147.366ZM144.162 51.1818H145.503V59.5C145.503 59.8788 145.558 60.1629 145.668 60.3523C145.781 60.5379 145.925 60.6629 146.099 60.7273C146.277 60.7879 146.465 60.8182 146.662 60.8182C146.81 60.8182 146.931 60.8106 147.026 60.7955C147.12 60.7765 147.196 60.7614 147.253 60.75L147.526 61.9545C147.435 61.9886 147.308 62.0227 147.145 62.0568C146.982 62.0947 146.776 62.1136 146.526 62.1136C146.147 62.1136 145.776 62.0322 145.412 61.8693C145.052 61.7064 144.753 61.4583 144.514 61.125C144.279 60.7917 144.162 60.3712 144.162 59.8636V51.1818ZM149.384 62V53.2727H150.679V54.5909H150.77C150.929 54.1591 151.217 53.8087 151.634 53.5398C152.05 53.2708 152.52 53.1364 153.043 53.1364C153.141 53.1364 153.264 53.1383 153.412 53.142C153.56 53.1458 153.671 53.1515 153.747 53.1591V54.5227C153.702 54.5114 153.598 54.4943 153.435 54.4716C153.276 54.4451 153.107 54.4318 152.929 54.4318C152.505 54.4318 152.126 54.5208 151.793 54.6989C151.463 54.8731 151.202 55.1155 151.009 55.4261C150.819 55.733 150.724 56.0833 150.724 56.4773V62H149.384ZM157.905 62.2045C157.352 62.2045 156.85 62.1004 156.399 61.892C155.948 61.6799 155.59 61.375 155.325 60.9773C155.06 60.5758 154.928 60.0909 154.928 59.5227C154.928 59.0227 155.026 58.6174 155.223 58.3068C155.42 57.9924 155.683 57.7462 156.013 57.5682C156.342 57.3902 156.706 57.2576 157.104 57.1705C157.505 57.0795 157.909 57.0076 158.314 56.9545C158.844 56.8864 159.274 56.8352 159.604 56.8011C159.937 56.7633 160.179 56.7008 160.331 56.6136C160.486 56.5265 160.564 56.375 160.564 56.1591V56.1136C160.564 55.553 160.411 55.1174 160.104 54.8068C159.801 54.4962 159.34 54.3409 158.723 54.3409C158.083 54.3409 157.581 54.4811 157.217 54.7614C156.854 55.0417 156.598 55.3409 156.45 55.6591L155.178 55.2045C155.405 54.6742 155.708 54.2614 156.087 53.9659C156.469 53.6667 156.886 53.4583 157.337 53.3409C157.791 53.2197 158.238 53.1591 158.678 53.1591C158.958 53.1591 159.28 53.1932 159.643 53.2614C160.011 53.3258 160.365 53.4602 160.706 53.6648C161.051 53.8693 161.337 54.178 161.564 54.5909C161.791 55.0038 161.905 55.5568 161.905 56.25V62H160.564V60.8182H160.496C160.405 61.0076 160.253 61.2102 160.041 61.4261C159.829 61.642 159.547 61.8258 159.195 61.9773C158.842 62.1288 158.412 62.2045 157.905 62.2045ZM158.109 61C158.64 61 159.087 60.8958 159.45 60.6875C159.818 60.4792 160.094 60.2102 160.28 59.8807C160.469 59.5511 160.564 59.2045 160.564 58.8409V57.6136C160.507 57.6818 160.382 57.7443 160.189 57.8011C160 57.8542 159.78 57.9015 159.53 57.9432C159.284 57.9811 159.043 58.0152 158.808 58.0455C158.577 58.072 158.39 58.0947 158.246 58.1136C157.897 58.1591 157.571 58.233 157.268 58.3352C156.969 58.4337 156.727 58.5833 156.541 58.7841C156.359 58.9811 156.268 59.25 156.268 59.5909C156.268 60.0568 156.441 60.4091 156.786 60.6477C157.134 60.8826 157.575 61 158.109 61ZM167.898 62.1818C167.08 62.1818 166.375 61.9886 165.784 61.6023C165.193 61.2159 164.739 60.6837 164.42 60.0057C164.102 59.3277 163.943 58.553 163.943 57.6818C163.943 56.7955 164.106 56.0133 164.432 55.3352C164.761 54.6534 165.22 54.1212 165.807 53.7386C166.398 53.3523 167.087 53.1591 167.875 53.1591C168.489 53.1591 169.042 53.2727 169.534 53.5C170.027 53.7273 170.43 54.0455 170.744 54.4545C171.059 54.8636 171.254 55.3409 171.33 55.8864H169.989C169.886 55.4886 169.659 55.1364 169.307 54.8295C168.958 54.5189 168.489 54.3636 167.898 54.3636C167.375 54.3636 166.917 54.5 166.523 54.7727C166.133 55.0417 165.828 55.4223 165.608 55.9148C165.392 56.4034 165.284 56.9773 165.284 57.6364C165.284 58.3106 165.39 58.8977 165.602 59.3977C165.818 59.8977 166.121 60.286 166.511 60.5625C166.905 60.839 167.367 60.9773 167.898 60.9773C168.246 60.9773 168.562 60.9167 168.847 60.7955C169.131 60.6742 169.371 60.5 169.568 60.2727C169.765 60.0455 169.905 59.7727 169.989 59.4545H171.33C171.254 59.9697 171.066 60.4337 170.767 60.8466C170.472 61.2557 170.08 61.5814 169.591 61.8239C169.106 62.0625 168.542 62.1818 167.898 62.1818ZM177.085 53.2727V54.4091H172.562V53.2727H177.085ZM173.881 51.1818H175.222V59.5C175.222 59.8788 175.277 60.1629 175.386 60.3523C175.5 60.5379 175.644 60.6629 175.818 60.7273C175.996 60.7879 176.184 60.8182 176.381 60.8182C176.528 60.8182 176.65 60.8106 176.744 60.7955C176.839 60.7765 176.915 60.7614 176.972 60.75L177.244 61.9545C177.153 61.9886 177.027 62.0227 176.864 62.0568C176.701 62.0947 176.494 62.1136 176.244 62.1136C175.866 62.1136 175.494 62.0322 175.131 61.8693C174.771 61.7064 174.472 61.4583 174.233 61.125C173.998 60.7917 173.881 60.3712 173.881 59.8636V51.1818ZM182.554 62.1818C181.766 62.1818 181.075 61.9943 180.48 61.6193C179.889 61.2443 179.427 60.7197 179.094 60.0455C178.764 59.3712 178.599 58.5833 178.599 57.6818C178.599 56.7727 178.764 55.9792 179.094 55.3011C179.427 54.6231 179.889 54.0966 180.48 53.7216C181.075 53.3466 181.766 53.1591 182.554 53.1591C183.342 53.1591 184.031 53.3466 184.622 53.7216C185.217 54.0966 185.679 54.6231 186.009 55.3011C186.342 55.9792 186.509 56.7727 186.509 57.6818C186.509 58.5833 186.342 59.3712 186.009 60.0455C185.679 60.7197 185.217 61.2443 184.622 61.6193C184.031 61.9943 183.342 62.1818 182.554 62.1818ZM182.554 60.9773C183.152 60.9773 183.645 60.8239 184.031 60.517C184.418 60.2102 184.704 59.8068 184.889 59.3068C185.075 58.8068 185.168 58.2652 185.168 57.6818C185.168 57.0985 185.075 56.5549 184.889 56.0511C184.704 55.5473 184.418 55.1402 184.031 54.8295C183.645 54.5189 183.152 54.3636 182.554 54.3636C181.955 54.3636 181.463 54.5189 181.077 54.8295C180.69 55.1402 180.404 55.5473 180.219 56.0511C180.033 56.5549 179.94 57.0985 179.94 57.6818C179.94 58.2652 180.033 58.8068 180.219 59.3068C180.404 59.8068 180.69 60.2102 181.077 60.517C181.463 60.8239 181.955 60.9773 182.554 60.9773ZM188.555 62V53.2727H189.851V54.5909H189.942C190.101 54.1591 190.389 53.8087 190.805 53.5398C191.222 53.2708 191.692 53.1364 192.214 53.1364C192.313 53.1364 192.436 53.1383 192.584 53.142C192.732 53.1458 192.843 53.1515 192.919 53.1591V54.5227C192.874 54.5114 192.769 54.4943 192.607 54.4716C192.447 54.4451 192.279 54.4318 192.101 54.4318C191.677 54.4318 191.298 54.5208 190.964 54.6989C190.635 54.8731 190.374 55.1155 190.18 55.4261C189.991 55.733 189.896 56.0833 189.896 56.4773V62H188.555ZM208.418 50.3636V62H207.054L200.713 52.8636H200.599V62H199.19V50.3636H200.554L206.918 59.5227H207.031V50.3636H208.418ZM214.714 62.1818C213.874 62.1818 213.148 61.9962 212.538 61.625C211.932 61.25 211.464 60.7273 211.135 60.0568C210.809 59.3826 210.646 58.5985 210.646 57.7045C210.646 56.8106 210.809 56.0227 211.135 55.3409C211.464 54.6553 211.923 54.1212 212.51 53.7386C213.101 53.3523 213.79 53.1591 214.578 53.1591C215.033 53.1591 215.482 53.2348 215.925 53.3864C216.368 53.5379 216.771 53.7841 217.135 54.125C217.499 54.4621 217.788 54.9091 218.004 55.4659C218.22 56.0227 218.328 56.7083 218.328 57.5227V58.0909H211.601V56.9318H216.964C216.964 56.4394 216.866 56 216.669 55.6136C216.476 55.2273 216.199 54.9223 215.839 54.6989C215.483 54.4754 215.063 54.3636 214.578 54.3636C214.044 54.3636 213.582 54.4962 213.192 54.7614C212.805 55.0227 212.508 55.3636 212.3 55.7841C212.091 56.2045 211.987 56.6553 211.987 57.1364V57.9091C211.987 58.5682 212.101 59.1269 212.328 59.5852C212.559 60.0398 212.879 60.3864 213.288 60.625C213.697 60.8598 214.173 60.9773 214.714 60.9773C215.067 60.9773 215.385 60.928 215.669 60.8295C215.957 60.7273 216.205 60.5758 216.413 60.375C216.622 60.1705 216.783 59.9167 216.896 59.6136L218.192 59.9773C218.055 60.4167 217.826 60.803 217.504 61.1364C217.182 61.4659 216.785 61.7235 216.311 61.9091C215.838 62.0909 215.305 62.1818 214.714 62.1818ZM224.163 53.2727V54.4091H219.641V53.2727H224.163ZM220.959 51.1818H222.3V59.5C222.3 59.8788 222.355 60.1629 222.464 60.3523C222.578 60.5379 222.722 60.6629 222.896 60.7273C223.074 60.7879 223.262 60.8182 223.459 60.8182C223.607 60.8182 223.728 60.8106 223.822 60.7955C223.917 60.7765 223.993 60.7614 224.05 60.75L224.322 61.9545C224.232 61.9886 224.105 62.0227 223.942 62.0568C223.779 62.0947 223.572 62.1136 223.322 62.1136C222.944 62.1136 222.572 62.0322 222.209 61.8693C221.849 61.7064 221.55 61.4583 221.311 61.125C221.076 60.7917 220.959 60.3712 220.959 59.8636V51.1818ZM228.158 62L225.499 53.2727H226.908L228.794 59.9545H228.885L230.749 53.2727H232.18L234.021 59.9318H234.112L235.999 53.2727H237.408L234.749 62H233.43L231.521 55.2955H231.385L229.476 62H228.158ZM242.429 62.1818C241.641 62.1818 240.95 61.9943 240.355 61.6193C239.764 61.2443 239.302 60.7197 238.969 60.0455C238.639 59.3712 238.474 58.5833 238.474 57.6818C238.474 56.7727 238.639 55.9792 238.969 55.3011C239.302 54.6231 239.764 54.0966 240.355 53.7216C240.95 53.3466 241.641 53.1591 242.429 53.1591C243.217 53.1591 243.906 53.3466 244.497 53.7216C245.092 54.0966 245.554 54.6231 245.884 55.3011C246.217 55.9792 246.384 56.7727 246.384 57.6818C246.384 58.5833 246.217 59.3712 245.884 60.0455C245.554 60.7197 245.092 61.2443 244.497 61.6193C243.906 61.9943 243.217 62.1818 242.429 62.1818ZM242.429 60.9773C243.027 60.9773 243.52 60.8239 243.906 60.517C244.293 60.2102 244.579 59.8068 244.764 59.3068C244.95 58.8068 245.043 58.2652 245.043 57.6818C245.043 57.0985 244.95 56.5549 244.764 56.0511C244.579 55.5473 244.293 55.1402 243.906 54.8295C243.52 54.5189 243.027 54.3636 242.429 54.3636C241.83 54.3636 241.338 54.5189 240.952 54.8295C240.565 55.1402 240.279 55.5473 240.094 56.0511C239.908 56.5549 239.815 57.0985 239.815 57.6818C239.815 58.2652 239.908 58.8068 240.094 59.3068C240.279 59.8068 240.565 60.2102 240.952 60.517C241.338 60.8239 241.83 60.9773 242.429 60.9773ZM248.43 62V53.2727H249.726V54.5909H249.817C249.976 54.1591 250.264 53.8087 250.68 53.5398C251.097 53.2708 251.567 53.1364 252.089 53.1364C252.188 53.1364 252.311 53.1383 252.459 53.142C252.607 53.1458 252.718 53.1515 252.794 53.1591V54.5227C252.749 54.5114 252.644 54.4943 252.482 54.4716C252.322 54.4451 252.154 54.4318 251.976 54.4318C251.552 54.4318 251.173 54.5208 250.839 54.6989C250.51 54.8731 250.249 55.1155 250.055 55.4261C249.866 55.733 249.771 56.0833 249.771 56.4773V62H248.43ZM255.634 58.8182L255.611 57.1591H255.884L259.702 53.2727H261.361L257.293 57.3864H257.179L255.634 58.8182ZM254.384 62V50.3636H255.724V62H254.384ZM259.929 62L256.52 57.6818L257.474 56.75L261.634 62H259.929Z" fill="#1A1F2E"/>
<path d="M62.1648 100.818L69.4517 122.142H69.7457L77.0327 100.818H81.3026L71.8807 127H67.3168L57.8949 100.818H62.1648ZM91.271 127.396C89.3363 127.396 87.6701 126.983 86.2724 126.156C84.8832 125.321 83.8093 124.149 83.0508 122.641C82.3008 121.124 81.9258 119.347 81.9258 117.31C81.9258 115.298 82.3008 113.526 83.0508 111.991C83.8093 110.457 84.8661 109.26 86.2212 108.399C87.5849 107.538 89.1786 107.108 91.0025 107.108C92.1104 107.108 93.1843 107.291 94.2241 107.658C95.2638 108.024 96.1971 108.599 97.0238 109.384C97.8505 110.168 98.5025 111.186 98.9798 112.439C99.457 113.683 99.6957 115.196 99.6957 116.977V118.332H84.0863V115.469H95.9499C95.9499 114.463 95.7454 113.572 95.3363 112.797C94.9272 112.013 94.3519 111.395 93.6104 110.943C92.8775 110.491 92.0167 110.266 91.0281 110.266C89.9542 110.266 89.0167 110.53 88.2156 111.058C87.4229 111.578 86.8093 112.26 86.3746 113.104C85.9485 113.939 85.7354 114.847 85.7354 115.827V118.064C85.7354 119.376 85.9656 120.493 86.4258 121.413C86.8945 122.334 87.5465 123.037 88.3817 123.523C89.217 124 90.1928 124.239 91.3093 124.239C92.0337 124.239 92.6942 124.136 93.2908 123.932C93.8874 123.719 94.4031 123.403 94.8377 122.986C95.2724 122.568 95.6048 122.053 95.8349 121.439L99.4528 122.091C99.163 123.156 98.6431 124.089 97.8931 124.891C97.1516 125.683 96.2184 126.301 95.0934 126.744C93.9769 127.179 92.7028 127.396 91.271 127.396ZM113.103 107.364V110.432H102.377V107.364H113.103ZM105.254 102.659H109.076V121.234C109.076 121.976 109.187 122.534 109.408 122.909C109.63 123.276 109.915 123.527 110.265 123.663C110.623 123.791 111.011 123.855 111.428 123.855C111.735 123.855 112.004 123.834 112.234 123.791C112.464 123.749 112.643 123.714 112.771 123.689L113.461 126.847C113.239 126.932 112.924 127.017 112.515 127.102C112.106 127.196 111.594 127.247 110.981 127.256C109.975 127.273 109.038 127.094 108.168 126.719C107.299 126.344 106.596 125.764 106.059 124.98C105.522 124.196 105.254 123.212 105.254 122.027V102.659ZM126.498 107.364V110.432H115.772V107.364H126.498ZM118.648 102.659H122.471V121.234C122.471 121.976 122.581 122.534 122.803 122.909C123.025 123.276 123.31 123.527 123.659 123.663C124.017 123.791 124.405 123.855 124.823 123.855C125.13 123.855 125.398 123.834 125.628 123.791C125.858 123.749 126.037 123.714 126.165 123.689L126.855 126.847C126.634 126.932 126.319 127.017 125.909 127.102C125.5 127.196 124.989 127.247 124.375 127.256C123.37 127.273 122.432 127.094 121.563 126.719C120.694 126.344 119.99 125.764 119.453 124.98C118.917 124.196 118.648 123.212 118.648 122.027V102.659ZM138.978 127.396C137.043 127.396 135.377 126.983 133.979 126.156C132.59 125.321 131.516 124.149 130.758 122.641C130.008 121.124 129.633 119.347 129.633 117.31C129.633 115.298 130.008 113.526 130.758 111.991C131.516 110.457 132.573 109.26 133.928 108.399C135.292 107.538 136.886 107.108 138.71 107.108C139.817 107.108 140.891 107.291 141.931 107.658C142.971 108.024 143.904 108.599 144.731 109.384C145.558 110.168 146.21 111.186 146.687 112.439C147.164 113.683 147.403 115.196 147.403 116.977V118.332H131.793V115.469H143.657C143.657 114.463 143.452 113.572 143.043 112.797C142.634 112.013 142.059 111.395 141.317 110.943C140.585 110.491 139.724 110.266 138.735 110.266C137.661 110.266 136.724 110.53 135.923 111.058C135.13 111.578 134.516 112.26 134.082 113.104C133.656 113.939 133.442 114.847 133.442 115.827V118.064C133.442 119.376 133.673 120.493 134.133 121.413C134.602 122.334 135.254 123.037 136.089 123.523C136.924 124 137.9 124.239 139.016 124.239C139.741 124.239 140.401 124.136 140.998 123.932C141.594 123.719 142.11 123.403 142.545 122.986C142.979 122.568 143.312 122.053 143.542 121.439L147.16 122.091C146.87 123.156 146.35 124.089 145.6 124.891C144.859 125.683 143.925 126.301 142.8 126.744C141.684 127.179 140.41 127.396 138.978 127.396ZM158.995 127.384C157.409 127.384 155.995 126.979 154.75 126.169C153.515 125.351 152.543 124.187 151.836 122.679C151.137 121.162 150.787 119.342 150.787 117.22C150.787 115.098 151.141 113.283 151.848 111.774C152.564 110.266 153.544 109.111 154.789 108.31C156.033 107.509 157.444 107.108 159.02 107.108C160.239 107.108 161.219 107.312 161.961 107.722C162.711 108.122 163.29 108.591 163.699 109.128C164.117 109.665 164.441 110.138 164.671 110.547H164.901V100.818H168.723V127H164.99V123.945H164.671C164.441 124.362 164.108 124.839 163.674 125.376C163.248 125.913 162.659 126.382 161.909 126.783C161.159 127.183 160.188 127.384 158.995 127.384ZM159.838 124.124C160.938 124.124 161.867 123.834 162.625 123.254C163.392 122.666 163.972 121.852 164.364 120.812C164.765 119.773 164.965 118.562 164.965 117.182C164.965 115.818 164.769 114.625 164.377 113.602C163.985 112.58 163.409 111.783 162.651 111.212C161.892 110.641 160.955 110.355 159.838 110.355C158.688 110.355 157.729 110.653 156.962 111.25C156.195 111.847 155.615 112.661 155.223 113.692C154.84 114.723 154.648 115.886 154.648 117.182C154.648 118.494 154.844 119.675 155.236 120.723C155.628 121.771 156.208 122.602 156.975 123.216C157.75 123.821 158.705 124.124 159.838 124.124ZM191.978 127.396C190.077 127.396 188.441 126.966 187.069 126.105C185.705 125.236 184.657 124.038 183.924 122.513C183.191 120.987 182.824 119.24 182.824 117.271C182.824 115.277 183.199 113.517 183.949 111.991C184.699 110.457 185.756 109.26 187.12 108.399C188.483 107.538 190.09 107.108 191.939 107.108C193.431 107.108 194.76 107.385 195.928 107.939C197.096 108.484 198.037 109.251 198.753 110.24C199.478 111.229 199.908 112.384 200.044 113.705H196.324C196.12 112.784 195.651 111.991 194.918 111.327C194.194 110.662 193.222 110.33 192.003 110.33C190.938 110.33 190.005 110.611 189.203 111.173C188.411 111.727 187.793 112.52 187.35 113.551C186.907 114.574 186.685 115.784 186.685 117.182C186.685 118.614 186.902 119.849 187.337 120.889C187.772 121.929 188.385 122.734 189.178 123.305C189.979 123.876 190.921 124.162 192.003 124.162C192.728 124.162 193.384 124.03 193.972 123.766C194.569 123.493 195.067 123.105 195.468 122.602C195.877 122.099 196.162 121.494 196.324 120.787H200.044C199.908 122.057 199.495 123.19 198.804 124.188C198.114 125.185 197.189 125.969 196.03 126.54C194.88 127.111 193.529 127.396 191.978 127.396ZM212.403 127.396C210.563 127.396 208.956 126.974 207.584 126.131C206.212 125.287 205.146 124.107 204.388 122.589C203.629 121.072 203.25 119.3 203.25 117.271C203.25 115.234 203.629 113.453 204.388 111.928C205.146 110.402 206.212 109.217 207.584 108.374C208.956 107.53 210.563 107.108 212.403 107.108C214.244 107.108 215.851 107.53 217.223 108.374C218.595 109.217 219.661 110.402 220.419 111.928C221.178 113.453 221.557 115.234 221.557 117.271C221.557 119.3 221.178 121.072 220.419 122.589C219.661 124.107 218.595 125.287 217.223 126.131C215.851 126.974 214.244 127.396 212.403 127.396ZM212.416 124.188C213.609 124.188 214.598 123.872 215.382 123.241C216.166 122.611 216.746 121.771 217.121 120.723C217.504 119.675 217.696 118.52 217.696 117.259C217.696 116.006 217.504 114.855 217.121 113.807C216.746 112.75 216.166 111.902 215.382 111.263C214.598 110.624 213.609 110.304 212.416 110.304C211.214 110.304 210.217 110.624 209.425 111.263C208.641 111.902 208.057 112.75 207.673 113.807C207.298 114.855 207.111 116.006 207.111 117.259C207.111 118.52 207.298 119.675 207.673 120.723C208.057 121.771 208.641 122.611 209.425 123.241C210.217 123.872 211.214 124.188 212.416 124.188ZM229.646 115.341V127H225.824V107.364H229.493V110.56H229.735C230.187 109.52 230.895 108.685 231.858 108.054C232.829 107.423 234.052 107.108 235.527 107.108C236.865 107.108 238.037 107.389 239.042 107.952C240.048 108.506 240.828 109.332 241.382 110.432C241.936 111.531 242.213 112.891 242.213 114.51V127H238.39V114.97C238.39 113.547 238.02 112.435 237.278 111.634C236.537 110.824 235.518 110.419 234.223 110.419C233.336 110.419 232.548 110.611 231.858 110.994C231.176 111.378 230.635 111.94 230.234 112.682C229.842 113.415 229.646 114.301 229.646 115.341ZM256.505 107.364V110.432H245.779V107.364H256.505ZM248.656 102.659H252.478V121.234C252.478 121.976 252.589 122.534 252.811 122.909C253.032 123.276 253.318 123.527 253.667 123.663C254.025 123.791 254.413 123.855 254.831 123.855C255.137 123.855 255.406 123.834 255.636 123.791C255.866 123.749 256.045 123.714 256.173 123.689L256.863 126.847C256.642 126.932 256.326 127.017 255.917 127.102C255.508 127.196 254.997 127.247 254.383 127.256C253.377 127.273 252.44 127.094 251.571 126.719C250.701 126.344 249.998 125.764 249.461 124.98C248.924 124.196 248.656 123.212 248.656 122.027V102.659ZM260.734 127V107.364H264.428V110.483H264.633C264.991 109.426 265.621 108.595 266.525 107.99C267.437 107.376 268.468 107.07 269.619 107.07C269.857 107.07 270.138 107.078 270.462 107.095C270.795 107.112 271.055 107.134 271.242 107.159V110.815C271.089 110.773 270.816 110.726 270.424 110.675C270.032 110.615 269.64 110.585 269.248 110.585C268.344 110.585 267.539 110.777 266.832 111.161C266.133 111.536 265.579 112.06 265.17 112.733C264.761 113.398 264.556 114.156 264.556 115.009V127H260.734ZM280.089 127.435C278.844 127.435 277.719 127.205 276.714 126.744C275.708 126.276 274.911 125.598 274.323 124.712C273.744 123.825 273.454 122.739 273.454 121.452C273.454 120.344 273.667 119.432 274.093 118.716C274.519 118 275.094 117.433 275.819 117.016C276.543 116.598 277.353 116.283 278.248 116.07C279.143 115.857 280.055 115.695 280.984 115.584C282.16 115.447 283.114 115.337 283.847 115.251C284.58 115.158 285.113 115.009 285.445 114.804C285.778 114.599 285.944 114.267 285.944 113.807V113.717C285.944 112.601 285.629 111.736 284.998 111.122C284.376 110.509 283.447 110.202 282.211 110.202C280.924 110.202 279.91 110.487 279.168 111.058C278.435 111.621 277.928 112.247 277.647 112.938L274.055 112.119C274.481 110.926 275.103 109.963 275.921 109.23C276.748 108.489 277.698 107.952 278.772 107.619C279.846 107.278 280.975 107.108 282.16 107.108C282.944 107.108 283.775 107.202 284.653 107.389C285.539 107.568 286.366 107.901 287.133 108.386C287.908 108.872 288.543 109.567 289.038 110.47C289.532 111.365 289.779 112.528 289.779 113.96V127H286.046V124.315H285.893C285.646 124.81 285.275 125.295 284.781 125.773C284.286 126.25 283.651 126.646 282.876 126.962C282.1 127.277 281.171 127.435 280.089 127.435ZM280.92 124.366C281.977 124.366 282.88 124.158 283.63 123.74C284.388 123.322 284.964 122.777 285.356 122.104C285.756 121.422 285.957 120.693 285.957 119.918V117.386C285.82 117.523 285.556 117.651 285.164 117.77C284.781 117.881 284.342 117.979 283.847 118.064C283.353 118.141 282.871 118.213 282.403 118.281C281.934 118.341 281.542 118.392 281.227 118.435C280.485 118.528 279.808 118.686 279.194 118.908C278.589 119.129 278.103 119.449 277.737 119.866C277.379 120.276 277.2 120.821 277.2 121.503C277.2 122.449 277.549 123.165 278.248 123.651C278.947 124.128 279.837 124.366 280.92 124.366ZM303.142 127.396C301.241 127.396 299.605 126.966 298.233 126.105C296.869 125.236 295.821 124.038 295.088 122.513C294.355 120.987 293.988 119.24 293.988 117.271C293.988 115.277 294.363 113.517 295.113 111.991C295.863 110.457 296.92 109.26 298.284 108.399C299.647 107.538 301.254 107.108 303.103 107.108C304.595 107.108 305.924 107.385 307.092 107.939C308.26 108.484 309.201 109.251 309.917 110.24C310.642 111.229 311.072 112.384 311.208 113.705H307.488C307.284 112.784 306.815 111.991 306.082 111.327C305.358 110.662 304.386 110.33 303.167 110.33C302.102 110.33 301.169 110.611 300.368 111.173C299.575 111.727 298.957 112.52 298.514 113.551C298.071 114.574 297.849 115.784 297.849 117.182C297.849 118.614 298.066 119.849 298.501 120.889C298.936 121.929 299.549 122.734 300.342 123.305C301.143 123.876 302.085 124.162 303.167 124.162C303.892 124.162 304.548 124.03 305.136 123.766C305.733 123.493 306.231 123.105 306.632 122.602C307.041 122.099 307.326 121.494 307.488 120.787H311.208C311.072 122.057 310.659 123.19 309.968 124.188C309.278 125.185 308.353 125.969 307.194 126.54C306.044 127.111 304.693 127.396 303.142 127.396ZM324.462 107.364V110.432H313.737V107.364H324.462ZM316.613 102.659H320.435V121.234C320.435 121.976 320.546 122.534 320.768 122.909C320.989 123.276 321.275 123.527 321.624 123.663C321.982 123.791 322.37 123.855 322.788 123.855C323.094 123.855 323.363 123.834 323.593 123.791C323.823 123.749 324.002 123.714 324.13 123.689L324.82 126.847C324.599 126.932 324.283 127.017 323.874 127.102C323.465 127.196 322.954 127.247 322.34 127.256C321.335 127.273 320.397 127.094 319.528 126.719C318.658 126.344 317.955 125.764 317.418 124.98C316.881 124.196 316.613 123.212 316.613 122.027V102.659ZM336.751 127.396C334.91 127.396 333.304 126.974 331.931 126.131C330.559 125.287 329.494 124.107 328.735 122.589C327.977 121.072 327.598 119.3 327.598 117.271C327.598 115.234 327.977 113.453 328.735 111.928C329.494 110.402 330.559 109.217 331.931 108.374C333.304 107.53 334.91 107.108 336.751 107.108C338.592 107.108 340.199 107.53 341.571 108.374C342.943 109.217 344.008 110.402 344.767 111.928C345.525 113.453 345.904 115.234 345.904 117.271C345.904 119.3 345.525 121.072 344.767 122.589C344.008 124.107 342.943 125.287 341.571 126.131C340.199 126.974 338.592 127.396 336.751 127.396ZM336.764 124.188C337.957 124.188 338.946 123.872 339.73 123.241C340.514 122.611 341.093 121.771 341.468 120.723C341.852 119.675 342.044 118.52 342.044 117.259C342.044 116.006 341.852 114.855 341.468 113.807C341.093 112.75 340.514 111.902 339.73 111.263C338.946 110.624 337.957 110.304 336.764 110.304C335.562 110.304 334.565 110.624 333.772 111.263C332.988 111.902 332.404 112.75 332.021 113.807C331.646 114.855 331.458 116.006 331.458 117.259C331.458 118.52 331.646 119.675 332.021 120.723C332.404 121.771 332.988 122.611 333.772 123.241C334.565 123.872 335.562 124.188 336.764 124.188ZM350.171 127V107.364H353.866V110.483H354.07C354.428 109.426 355.059 108.595 355.962 107.99C356.874 107.376 357.906 107.07 359.056 107.07C359.295 107.07 359.576 107.078 359.9 107.095C360.232 107.112 360.492 107.134 360.68 107.159V110.815C360.526 110.773 360.254 110.726 359.862 110.675C359.469 110.615 359.077 110.585 358.685 110.585C357.782 110.585 356.977 110.777 356.269 111.161C355.57 111.536 355.016 112.06 354.607 112.733C354.198 113.398 353.994 114.156 353.994 115.009V127H350.171ZM378.702 112.158L375.238 112.771C375.093 112.328 374.863 111.906 374.547 111.506C374.24 111.105 373.823 110.777 373.294 110.521C372.766 110.266 372.105 110.138 371.313 110.138C370.23 110.138 369.327 110.381 368.603 110.866C367.878 111.344 367.516 111.962 367.516 112.72C367.516 113.376 367.759 113.905 368.245 114.305C368.73 114.706 369.515 115.034 370.597 115.29L373.716 116.006C375.523 116.423 376.87 117.067 377.756 117.936C378.642 118.805 379.086 119.935 379.086 121.324C379.086 122.5 378.745 123.548 378.063 124.469C377.39 125.381 376.448 126.097 375.238 126.616C374.036 127.136 372.642 127.396 371.057 127.396C368.858 127.396 367.064 126.928 365.675 125.99C364.286 125.044 363.434 123.702 363.118 121.963L366.813 121.401C367.043 122.364 367.516 123.092 368.232 123.587C368.948 124.072 369.881 124.315 371.032 124.315C372.284 124.315 373.286 124.055 374.036 123.536C374.786 123.007 375.161 122.364 375.161 121.605C375.161 120.991 374.931 120.476 374.471 120.058C374.019 119.641 373.324 119.325 372.387 119.112L369.063 118.384C367.23 117.966 365.875 117.301 364.998 116.389C364.128 115.477 363.694 114.322 363.694 112.925C363.694 111.766 364.017 110.751 364.665 109.882C365.313 109.013 366.208 108.335 367.35 107.849C368.492 107.355 369.8 107.108 371.275 107.108C373.397 107.108 375.067 107.568 376.286 108.489C377.505 109.401 378.31 110.624 378.702 112.158ZM398.53 127.435C397.286 127.435 396.161 127.205 395.155 126.744C394.15 126.276 393.353 125.598 392.765 124.712C392.185 123.825 391.895 122.739 391.895 121.452C391.895 120.344 392.108 119.432 392.534 118.716C392.961 118 393.536 117.433 394.26 117.016C394.985 116.598 395.794 116.283 396.689 116.07C397.584 115.857 398.496 115.695 399.425 115.584C400.601 115.447 401.556 115.337 402.289 115.251C403.022 115.158 403.554 115.009 403.887 114.804C404.219 114.599 404.385 114.267 404.385 113.807V113.717C404.385 112.601 404.07 111.736 403.439 111.122C402.817 110.509 401.888 110.202 400.652 110.202C399.365 110.202 398.351 110.487 397.61 111.058C396.877 111.621 396.37 112.247 396.088 112.938L392.496 112.119C392.922 110.926 393.544 109.963 394.363 109.23C395.189 108.489 396.14 107.952 397.213 107.619C398.287 107.278 399.417 107.108 400.601 107.108C401.385 107.108 402.216 107.202 403.094 107.389C403.98 107.568 404.807 107.901 405.574 108.386C406.35 108.872 406.985 109.567 407.479 110.47C407.973 111.365 408.221 112.528 408.221 113.96V127H404.488V124.315H404.334C404.087 124.81 403.716 125.295 403.222 125.773C402.728 126.25 402.093 126.646 401.317 126.962C400.542 127.277 399.613 127.435 398.53 127.435ZM399.361 124.366C400.418 124.366 401.321 124.158 402.071 123.74C402.83 123.322 403.405 122.777 403.797 122.104C404.198 121.422 404.398 120.693 404.398 119.918V117.386C404.262 117.523 403.998 117.651 403.605 117.77C403.222 117.881 402.783 117.979 402.289 118.064C401.794 118.141 401.313 118.213 400.844 118.281C400.375 118.341 399.983 118.392 399.668 118.435C398.926 118.528 398.249 118.686 397.635 118.908C397.03 119.129 396.544 119.449 396.178 119.866C395.82 120.276 395.641 120.821 395.641 121.503C395.641 122.449 395.99 123.165 396.689 123.651C397.388 124.128 398.279 124.366 399.361 124.366ZM422.478 107.364V110.432H411.752V107.364H422.478ZM414.629 102.659H418.451V121.234C418.451 121.976 418.562 122.534 418.783 122.909C419.005 123.276 419.29 123.527 419.64 123.663C419.998 123.791 420.386 123.855 420.803 123.855C421.11 123.855 421.379 123.834 421.609 123.791C421.839 123.749 422.018 123.714 422.146 123.689L422.836 126.847C422.614 126.932 422.299 127.017 421.89 127.102C421.481 127.196 420.969 127.247 420.356 127.256C419.35 127.273 418.413 127.094 417.543 126.719C416.674 126.344 415.971 125.764 415.434 124.98C414.897 124.196 414.629 123.212 414.629 122.027V102.659ZM438.65 134.364C438.079 134.364 437.559 134.317 437.09 134.223C436.621 134.138 436.272 134.044 436.042 133.942L436.962 130.81C437.661 130.997 438.283 131.078 438.829 131.053C439.374 131.027 439.856 130.822 440.273 130.439C440.7 130.055 441.075 129.429 441.398 128.56L441.871 127.256L434.687 107.364H438.778L443.751 122.602H443.955L448.928 107.364H453.032L444.94 129.621C444.565 130.643 444.087 131.509 443.508 132.216C442.928 132.932 442.238 133.469 441.437 133.827C440.636 134.185 439.707 134.364 438.65 134.364ZM464.228 127.396C462.387 127.396 460.78 126.974 459.408 126.131C458.036 125.287 456.971 124.107 456.212 122.589C455.453 121.072 455.074 119.3 455.074 117.271C455.074 115.234 455.453 113.453 456.212 111.928C456.971 110.402 458.036 109.217 459.408 108.374C460.78 107.53 462.387 107.108 464.228 107.108C466.069 107.108 467.675 107.53 469.047 108.374C470.419 109.217 471.485 110.402 472.243 111.928C473.002 113.453 473.381 115.234 473.381 117.271C473.381 119.3 473.002 121.072 472.243 122.589C471.485 124.107 470.419 125.287 469.047 126.131C467.675 126.974 466.069 127.396 464.228 127.396ZM464.24 124.188C465.434 124.188 466.422 123.872 467.206 123.241C467.99 122.611 468.57 121.771 468.945 120.723C469.328 119.675 469.52 118.52 469.52 117.259C469.52 116.006 469.328 114.855 468.945 113.807C468.57 112.75 467.99 111.902 467.206 111.263C466.422 110.624 465.434 110.304 464.24 110.304C463.039 110.304 462.042 110.624 461.249 111.263C460.465 111.902 459.881 112.75 459.498 113.807C459.123 114.855 458.935 116.006 458.935 117.259C458.935 118.52 459.123 119.675 459.498 120.723C459.881 121.771 460.465 122.611 461.249 123.241C462.042 123.872 463.039 124.188 464.24 124.188ZM490.087 118.857V107.364H493.922V127H490.163V123.599H489.959C489.507 124.648 488.783 125.521 487.786 126.22C486.797 126.911 485.565 127.256 484.091 127.256C482.83 127.256 481.713 126.979 480.741 126.425C479.778 125.862 479.02 125.031 478.466 123.932C477.92 122.832 477.648 121.473 477.648 119.854V107.364H481.47V119.393C481.47 120.732 481.841 121.797 482.582 122.589C483.324 123.382 484.287 123.778 485.472 123.778C486.188 123.778 486.899 123.599 487.607 123.241C488.322 122.884 488.915 122.342 489.384 121.618C489.861 120.893 490.095 119.973 490.087 118.857ZM499.058 127V107.364H502.752V110.483H502.957C503.315 109.426 503.946 108.595 504.849 107.99C505.761 107.376 506.792 107.07 507.943 107.07C508.181 107.07 508.463 107.078 508.787 107.095C509.119 107.112 509.379 107.134 509.566 107.159V110.815C509.413 110.773 509.14 110.726 508.748 110.675C508.356 110.615 507.964 110.585 507.572 110.585C506.669 110.585 505.863 110.777 505.156 111.161C504.457 111.536 503.903 112.06 503.494 112.733C503.085 113.398 502.88 114.156 502.88 115.009V127H499.058ZM68.9148 151.364V154.432H57.8182V151.364H68.9148ZM60.8608 171V149.088C60.8608 147.861 61.1293 146.842 61.6662 146.033C62.2031 145.214 62.9148 144.605 63.8011 144.205C64.6875 143.795 65.6506 143.591 66.6903 143.591C67.4574 143.591 68.1136 143.655 68.6591 143.783C69.2045 143.902 69.6094 144.013 69.8736 144.115L68.9787 147.209C68.7997 147.158 68.5696 147.098 68.2884 147.03C68.0071 146.953 67.6662 146.915 67.2656 146.915C66.3366 146.915 65.6719 147.145 65.2713 147.605C64.8793 148.065 64.6832 148.73 64.6832 149.599V171H60.8608ZM72.8587 171V151.364H76.6811V171H72.8587ZM74.7891 148.334C74.1243 148.334 73.5533 148.112 73.076 147.669C72.6072 147.217 72.3729 146.68 72.3729 146.058C72.3729 145.428 72.6072 144.891 73.076 144.447C73.5533 143.996 74.1243 143.77 74.7891 143.77C75.4538 143.77 76.0206 143.996 76.4893 144.447C76.9666 144.891 77.2053 145.428 77.2053 146.058C77.2053 146.68 76.9666 147.217 76.4893 147.669C76.0206 148.112 75.4538 148.334 74.7891 148.334ZM85.646 159.341V171H81.8235V151.364H85.4925V154.56H85.7354C86.1871 153.52 86.8945 152.685 87.8576 152.054C88.8292 151.423 90.0522 151.108 91.5266 151.108C92.8647 151.108 94.0366 151.389 95.0423 151.952C96.0479 152.506 96.8278 153.332 97.3817 154.432C97.9357 155.531 98.2127 156.891 98.2127 158.51V171H94.3903V158.97C94.3903 157.547 94.0195 156.435 93.2781 155.634C92.5366 154.824 91.5181 154.419 90.2227 154.419C89.3363 154.419 88.5479 154.611 87.8576 154.994C87.1758 155.378 86.6346 155.94 86.234 156.682C85.842 157.415 85.646 158.301 85.646 159.341ZM111.572 178.773C110.012 178.773 108.67 178.568 107.545 178.159C106.429 177.75 105.517 177.209 104.809 176.536C104.102 175.862 103.574 175.125 103.224 174.324L106.51 172.969C106.74 173.344 107.047 173.74 107.43 174.158C107.822 174.584 108.35 174.946 109.015 175.244C109.689 175.543 110.554 175.692 111.61 175.692C113.059 175.692 114.257 175.338 115.203 174.631C116.149 173.932 116.622 172.815 116.622 171.281V167.42H116.379C116.149 167.838 115.816 168.303 115.382 168.814C114.956 169.325 114.368 169.768 113.618 170.143C112.868 170.518 111.892 170.706 110.69 170.706C109.139 170.706 107.741 170.344 106.497 169.619C105.261 168.886 104.281 167.808 103.556 166.385C102.841 164.953 102.483 163.193 102.483 161.105C102.483 159.017 102.836 157.227 103.544 155.736C104.26 154.244 105.24 153.102 106.484 152.31C107.728 151.509 109.139 151.108 110.716 151.108C111.934 151.108 112.919 151.312 113.669 151.722C114.419 152.122 115.002 152.591 115.42 153.128C115.846 153.665 116.174 154.138 116.404 154.547H116.686V151.364H120.431V171.435C120.431 173.122 120.039 174.507 119.255 175.589C118.471 176.672 117.41 177.473 116.072 177.993C114.743 178.513 113.243 178.773 111.572 178.773ZM111.534 167.536C112.633 167.536 113.562 167.28 114.321 166.768C115.088 166.249 115.667 165.507 116.059 164.544C116.46 163.572 116.66 162.409 116.66 161.054C116.66 159.733 116.464 158.57 116.072 157.564C115.68 156.558 115.105 155.774 114.346 155.212C113.588 154.641 112.65 154.355 111.534 154.355C110.383 154.355 109.424 154.653 108.657 155.25C107.89 155.838 107.311 156.639 106.919 157.653C106.535 158.668 106.343 159.801 106.343 161.054C106.343 162.341 106.539 163.47 106.931 164.442C107.324 165.413 107.903 166.172 108.67 166.717C109.446 167.263 110.4 167.536 111.534 167.536ZM134.021 171.396C132.086 171.396 130.42 170.983 129.022 170.156C127.633 169.321 126.559 168.149 125.801 166.641C125.051 165.124 124.676 163.347 124.676 161.31C124.676 159.298 125.051 157.526 125.801 155.991C126.559 154.457 127.616 153.26 128.971 152.399C130.335 151.538 131.929 151.108 133.752 151.108C134.86 151.108 135.934 151.291 136.974 151.658C138.014 152.024 138.947 152.599 139.774 153.384C140.6 154.168 141.252 155.186 141.73 156.439C142.207 157.683 142.446 159.196 142.446 160.977V162.332H126.836V159.469H138.7C138.7 158.463 138.495 157.572 138.086 156.797C137.677 156.013 137.102 155.395 136.36 154.943C135.627 154.491 134.767 154.266 133.778 154.266C132.704 154.266 131.767 154.53 130.966 155.058C130.173 155.578 129.559 156.26 129.125 157.104C128.699 157.939 128.485 158.847 128.485 159.827V162.064C128.485 163.376 128.716 164.493 129.176 165.413C129.645 166.334 130.297 167.037 131.132 167.523C131.967 168 132.943 168.239 134.059 168.239C134.784 168.239 135.444 168.136 136.041 167.932C136.637 167.719 137.153 167.403 137.588 166.986C138.022 166.568 138.355 166.053 138.585 165.439L142.203 166.091C141.913 167.156 141.393 168.089 140.643 168.891C139.902 169.683 138.968 170.301 137.843 170.744C136.727 171.179 135.453 171.396 134.021 171.396ZM146.687 171V151.364H150.381V154.483H150.586C150.944 153.426 151.575 152.595 152.478 151.99C153.39 151.376 154.421 151.07 155.572 151.07C155.81 151.07 156.092 151.078 156.415 151.095C156.748 151.112 157.008 151.134 157.195 151.159V154.815C157.042 154.773 156.769 154.726 156.377 154.675C155.985 154.615 155.593 154.585 155.201 154.585C154.298 154.585 153.492 154.777 152.785 155.161C152.086 155.536 151.532 156.06 151.123 156.733C150.714 157.398 150.509 158.156 150.509 159.009V171H146.687ZM170.83 151.364V154.432H160.104V151.364H170.83ZM162.98 146.659H166.803V165.234C166.803 165.976 166.913 166.534 167.135 166.909C167.357 167.276 167.642 167.527 167.991 167.663C168.349 167.791 168.737 167.855 169.155 167.855C169.462 167.855 169.73 167.834 169.96 167.791C170.19 167.749 170.369 167.714 170.497 167.689L171.188 170.847C170.966 170.932 170.651 171.017 170.241 171.102C169.832 171.196 169.321 171.247 168.707 171.256C167.702 171.273 166.764 171.094 165.895 170.719C165.026 170.344 164.322 169.764 163.786 168.98C163.249 168.196 162.98 167.212 162.98 166.027V146.659ZM175.058 171V151.364H178.88V171H175.058ZM176.988 148.334C176.324 148.334 175.752 148.112 175.275 147.669C174.806 147.217 174.572 146.68 174.572 146.058C174.572 145.428 174.806 144.891 175.275 144.447C175.752 143.996 176.324 143.77 176.988 143.77C177.653 143.77 178.22 143.996 178.689 144.447C179.166 144.891 179.404 145.428 179.404 146.058C179.404 146.68 179.166 147.217 178.689 147.669C178.22 148.112 177.653 148.334 176.988 148.334ZM184.023 178.364V151.364H187.756V154.547H188.075C188.297 154.138 188.616 153.665 189.034 153.128C189.452 152.591 190.031 152.122 190.773 151.722C191.514 151.312 192.494 151.108 193.713 151.108C195.298 151.108 196.713 151.509 197.957 152.31C199.202 153.111 200.178 154.266 200.885 155.774C201.601 157.283 201.959 159.098 201.959 161.22C201.959 163.342 201.605 165.162 200.898 166.679C200.19 168.187 199.219 169.351 197.983 170.169C196.747 170.979 195.337 171.384 193.751 171.384C192.558 171.384 191.582 171.183 190.824 170.783C190.074 170.382 189.486 169.913 189.06 169.376C188.634 168.839 188.305 168.362 188.075 167.945H187.845V178.364H184.023ZM187.768 161.182C187.768 162.562 187.969 163.773 188.369 164.812C188.77 165.852 189.349 166.666 190.108 167.254C190.866 167.834 191.795 168.124 192.895 168.124C194.037 168.124 194.991 167.821 195.759 167.216C196.526 166.602 197.105 165.771 197.497 164.723C197.898 163.675 198.098 162.494 198.098 161.182C198.098 159.886 197.902 158.723 197.51 157.692C197.126 156.661 196.547 155.847 195.771 155.25C195.004 154.653 194.045 154.355 192.895 154.355C191.787 154.355 190.849 154.641 190.082 155.212C189.324 155.783 188.749 156.58 188.357 157.602C187.964 158.625 187.768 159.818 187.768 161.182ZM220.956 156.158L217.491 156.771C217.347 156.328 217.116 155.906 216.801 155.506C216.494 155.105 216.077 154.777 215.548 154.521C215.02 154.266 214.359 154.138 213.567 154.138C212.484 154.138 211.581 154.381 210.857 154.866C210.132 155.344 209.77 155.962 209.77 156.72C209.77 157.376 210.013 157.905 210.499 158.305C210.984 158.706 211.768 159.034 212.851 159.29L215.97 160.006C217.777 160.423 219.124 161.067 220.01 161.936C220.896 162.805 221.339 163.935 221.339 165.324C221.339 166.5 220.999 167.548 220.317 168.469C219.643 169.381 218.702 170.097 217.491 170.616C216.29 171.136 214.896 171.396 213.311 171.396C211.112 171.396 209.318 170.928 207.929 169.99C206.54 169.044 205.688 167.702 205.372 165.963L209.067 165.401C209.297 166.364 209.77 167.092 210.486 167.587C211.202 168.072 212.135 168.315 213.286 168.315C214.538 168.315 215.54 168.055 216.29 167.536C217.04 167.007 217.415 166.364 217.415 165.605C217.415 164.991 217.185 164.476 216.724 164.058C216.273 163.641 215.578 163.325 214.641 163.112L211.317 162.384C209.484 161.966 208.129 161.301 207.251 160.389C206.382 159.477 205.947 158.322 205.947 156.925C205.947 155.766 206.271 154.751 206.919 153.882C207.567 153.013 208.462 152.335 209.604 151.849C210.746 151.355 212.054 151.108 213.528 151.108C215.651 151.108 217.321 151.568 218.54 152.489C219.759 153.401 220.564 154.624 220.956 156.158ZM228.061 171.243C227.362 171.243 226.761 170.996 226.258 170.501C225.755 169.999 225.504 169.393 225.504 168.686C225.504 167.987 225.755 167.391 226.258 166.896C226.761 166.393 227.362 166.142 228.061 166.142C228.76 166.142 229.36 166.393 229.863 166.896C230.366 167.391 230.618 167.987 230.618 168.686C230.618 169.155 230.498 169.585 230.26 169.977C230.029 170.361 229.723 170.668 229.339 170.898C228.956 171.128 228.529 171.243 228.061 171.243ZM250.276 171L243.015 144.818H247.17L252.271 165.094H252.513L257.819 144.818H261.935L267.241 165.107H267.484L272.572 144.818H276.739L269.465 171H265.489L259.979 151.389H259.775L254.265 171H250.276ZM280.034 171V151.364H283.857V171H280.034ZM281.965 148.334C281.3 148.334 280.729 148.112 280.252 147.669C279.783 147.217 279.549 146.68 279.549 146.058C279.549 145.428 279.783 144.891 280.252 144.447C280.729 143.996 281.3 143.77 281.965 143.77C282.63 143.77 283.196 143.996 283.665 144.447C284.142 144.891 284.381 145.428 284.381 146.058C284.381 146.68 284.142 147.217 283.665 147.669C283.196 148.112 282.63 148.334 281.965 148.334ZM292.822 159.341V171H288.999V151.364H292.668V154.56H292.911C293.363 153.52 294.07 152.685 295.033 152.054C296.005 151.423 297.228 151.108 298.702 151.108C300.04 151.108 301.212 151.389 302.218 151.952C303.224 152.506 304.004 153.332 304.558 154.432C305.112 155.531 305.388 156.891 305.388 158.51V171H301.566V158.97C301.566 157.547 301.195 156.435 300.454 155.634C299.712 154.824 298.694 154.419 297.398 154.419C296.512 154.419 295.724 154.611 295.033 154.994C294.352 155.378 293.81 155.94 293.41 156.682C293.018 157.415 292.822 158.301 292.822 159.341ZM322.085 158.28V161.591H310.477V158.28H322.085ZM331.436 171L325.658 151.364H329.608L333.456 165.784H333.648L337.509 151.364H341.459L345.294 165.72H345.486L349.308 151.364H353.259L347.493 171H343.594L339.605 156.822H339.311L335.322 171H331.436ZM356.886 171V151.364H360.708V171H356.886ZM358.816 148.334C358.152 148.334 357.581 148.112 357.103 147.669C356.635 147.217 356.4 146.68 356.4 146.058C356.4 145.428 356.635 144.891 357.103 144.447C357.581 143.996 358.152 143.77 358.816 143.77C359.481 143.77 360.048 143.996 360.517 144.447C360.994 144.891 361.233 145.428 361.233 146.058C361.233 146.68 360.994 147.217 360.517 147.669C360.048 148.112 359.481 148.334 358.816 148.334ZM369.673 159.341V171H365.851V151.364H369.52V154.56H369.763C370.214 153.52 370.922 152.685 371.885 152.054C372.857 151.423 374.08 151.108 375.554 151.108C376.892 151.108 378.064 151.389 379.07 151.952C380.075 152.506 380.855 153.332 381.409 154.432C381.963 155.531 382.24 156.891 382.24 158.51V171H378.418V158.97C378.418 157.547 378.047 156.435 377.305 155.634C376.564 154.824 375.545 154.419 374.25 154.419C373.364 154.419 372.575 154.611 371.885 154.994C371.203 155.378 370.662 155.94 370.261 156.682C369.869 157.415 369.673 158.301 369.673 159.341ZM398.936 158.28V161.591H387.328V158.28H398.936ZM408.288 171L402.509 151.364H406.46L410.308 165.784H410.499L414.36 151.364H418.31L422.146 165.72H422.337L426.16 151.364H430.11L424.344 171H420.445L416.457 156.822H416.163L412.174 171H408.288ZM433.738 171V151.364H437.56V171H433.738ZM435.668 148.334C435.003 148.334 434.432 148.112 433.955 147.669C433.486 147.217 433.252 146.68 433.252 146.058C433.252 145.428 433.486 144.891 433.955 144.447C434.432 143.996 435.003 143.77 435.668 143.77C436.333 143.77 436.9 143.996 437.368 144.447C437.846 144.891 438.084 145.428 438.084 146.058C438.084 146.68 437.846 147.217 437.368 147.669C436.9 148.112 436.333 148.334 435.668 148.334ZM446.525 159.341V171H442.702V151.364H446.371V154.56H446.614C447.066 153.52 447.773 152.685 448.737 152.054C449.708 151.423 450.931 151.108 452.406 151.108C453.744 151.108 454.915 151.389 455.921 151.952C456.927 152.506 457.707 153.332 458.261 154.432C458.815 155.531 459.092 156.891 459.092 158.51V171H455.269V158.97C455.269 157.547 454.898 156.435 454.157 155.634C453.415 154.824 452.397 154.419 451.102 154.419C450.215 154.419 449.427 154.611 448.737 154.994C448.055 155.378 447.513 155.94 447.113 156.682C446.721 157.415 446.525 158.301 446.525 159.341ZM466.737 171.243C466.038 171.243 465.437 170.996 464.934 170.501C464.431 169.999 464.18 169.393 464.18 168.686C464.18 167.987 464.431 167.391 464.934 166.896C465.437 166.393 466.038 166.142 466.737 166.142C467.435 166.142 468.036 166.393 468.539 166.896C469.042 167.391 469.293 167.987 469.293 168.686C469.293 169.155 469.174 169.585 468.935 169.977C468.705 170.361 468.398 170.668 468.015 170.898C467.631 171.128 467.205 171.243 466.737 171.243Z" fill="#1A1F2E"/>
<path d="M351.5 442C352.833 425.667 364.5 382 403 348.5" stroke="#D9D9D9" stroke-width="2" stroke-dasharray="4 4"/>
<path d="M472 322.196C488.26 320.147 533.391 322.601 574.082 353.403" stroke="#D9D9D9" stroke-width="2" stroke-dasharray="4 4"/>
<rect x="466" y="434" width="108" height="108" rx="54" fill="#BAD4FF"/>
<path d="M545.375 488C545.381 488.743 545.155 489.47 544.729 490.079C544.302 490.688 543.697 491.149 542.996 491.398L528.623 496.625L523.399 510.996C523.141 511.69 522.678 512.288 522.07 512.711C521.463 513.133 520.74 513.36 520 513.36C519.26 513.36 518.538 513.133 517.931 512.711C517.323 512.288 516.859 511.69 516.602 510.996L511.377 496.623L497.004 491.398C496.31 491.141 495.712 490.677 495.29 490.07C494.867 489.462 494.641 488.74 494.641 488C494.641 487.26 494.867 486.538 495.29 485.93C495.712 485.323 496.31 484.859 497.004 484.602L511.377 479.377L516.602 465.004C516.859 464.31 517.323 463.712 517.931 463.289C518.538 462.867 519.26 462.64 520 462.64C520.74 462.64 521.463 462.867 522.07 463.289C522.678 463.712 523.141 464.31 523.399 465.004L528.626 479.377L542.996 484.602C543.697 484.851 544.302 485.312 544.729 485.921C545.155 486.53 545.381 487.257 545.375 488Z" fill="#A23BF6"/>
<rect x="394" y="283" width="77" height="77" rx="38.5" fill="#1A1F2E"/>
<path d="M445.767 332.328C443.804 328.934 440.779 326.5 437.248 325.347C438.994 324.307 440.351 322.723 441.11 320.837C441.869 318.952 441.988 316.869 441.449 314.909C440.91 312.95 439.742 311.221 438.126 309.989C436.509 308.757 434.533 308.09 432.5 308.09C430.468 308.09 428.491 308.757 426.875 309.989C425.258 311.221 424.091 312.95 423.551 314.909C423.012 316.869 423.131 318.952 423.89 320.837C424.649 322.723 426.006 324.307 427.753 325.347C424.222 326.499 421.196 328.933 419.233 332.328C419.161 332.445 419.113 332.576 419.093 332.712C419.072 332.848 419.079 332.987 419.113 333.121C419.147 333.254 419.207 333.38 419.29 333.489C419.373 333.599 419.477 333.691 419.597 333.76C419.716 333.829 419.848 333.873 419.984 333.89C420.121 333.908 420.26 333.897 420.392 333.86C420.525 333.822 420.648 333.759 420.756 333.673C420.864 333.587 420.953 333.48 421.019 333.359C423.447 329.162 427.74 326.656 432.5 326.656C437.261 326.656 441.553 329.162 443.982 333.359C444.048 333.48 444.137 333.587 444.245 333.673C444.352 333.759 444.476 333.822 444.608 333.86C444.741 333.897 444.88 333.908 445.016 333.89C445.153 333.873 445.285 333.829 445.404 333.76C445.523 333.691 445.627 333.599 445.711 333.489C445.794 333.38 445.854 333.254 445.888 333.121C445.922 332.987 445.928 332.848 445.908 332.712C445.887 332.576 445.839 332.445 445.767 332.328ZM425.281 317.375C425.281 315.947 425.705 314.552 426.498 313.364C427.291 312.177 428.419 311.252 429.738 310.706C431.057 310.159 432.508 310.016 433.909 310.295C435.309 310.573 436.595 311.261 437.605 312.271C438.614 313.28 439.302 314.566 439.58 315.967C439.859 317.367 439.716 318.818 439.169 320.137C438.623 321.457 437.698 322.584 436.511 323.377C435.324 324.17 433.928 324.594 432.5 324.594C430.586 324.592 428.751 323.83 427.398 322.477C426.045 321.124 425.284 319.289 425.281 317.375Z" fill="white"/>
<rect x="548" y="309" width="77" height="77" rx="38.5" fill="#1A1F2E"/>
<path d="M599.767 358.328C597.804 354.934 594.779 352.5 591.248 351.347C592.994 350.307 594.351 348.723 595.11 346.837C595.869 344.952 595.988 342.869 595.449 340.909C594.91 338.95 593.742 337.221 592.126 335.989C590.509 334.757 588.533 334.09 586.5 334.09C584.468 334.09 582.491 334.757 580.875 335.989C579.258 337.221 578.091 338.95 577.551 340.909C577.012 342.869 577.131 344.952 577.89 346.837C578.649 348.723 580.006 350.307 581.753 351.347C578.222 352.499 575.196 354.933 573.233 358.328C573.161 358.445 573.113 358.576 573.093 358.712C573.072 358.848 573.079 358.987 573.113 359.121C573.147 359.254 573.207 359.38 573.29 359.489C573.373 359.599 573.477 359.691 573.597 359.76C573.716 359.829 573.848 359.873 573.984 359.89C574.121 359.908 574.26 359.897 574.392 359.86C574.525 359.822 574.648 359.759 574.756 359.673C574.864 359.587 574.953 359.48 575.019 359.359C577.447 355.162 581.74 352.656 586.5 352.656C591.261 352.656 595.553 355.162 597.982 359.359C598.048 359.48 598.137 359.587 598.245 359.673C598.352 359.759 598.476 359.822 598.608 359.86C598.741 359.897 598.88 359.908 599.016 359.89C599.153 359.873 599.285 359.829 599.404 359.76C599.523 359.691 599.627 359.599 599.711 359.489C599.794 359.38 599.854 359.254 599.888 359.121C599.922 358.987 599.928 358.848 599.908 358.712C599.887 358.576 599.839 358.445 599.767 358.328ZM579.281 343.375C579.281 341.947 579.705 340.552 580.498 339.364C581.291 338.177 582.419 337.252 583.738 336.706C585.057 336.159 586.508 336.016 587.909 336.295C589.309 336.573 590.595 337.261 591.605 338.271C592.614 339.28 593.302 340.566 593.58 341.967C593.859 343.367 593.716 344.818 593.169 346.137C592.623 347.457 591.698 348.584 590.511 349.377C589.324 350.17 587.928 350.594 586.5 350.594C584.586 350.592 582.751 349.83 581.398 348.477C580.045 347.124 579.284 345.289 579.281 343.375Z" fill="white"/>
<rect x="305" y="442" width="77" height="77" rx="38.5" fill="#1A1F2E"/>
<path d="M356.767 491.328C354.804 487.934 351.779 485.5 348.248 484.347C349.994 483.307 351.351 481.723 352.11 479.837C352.869 477.952 352.988 475.869 352.449 473.909C351.91 471.95 350.742 470.221 349.126 468.989C347.509 467.757 345.533 467.09 343.5 467.09C341.468 467.09 339.491 467.757 337.875 468.989C336.258 470.221 335.091 471.95 334.551 473.909C334.012 475.869 334.131 477.952 334.89 479.837C335.649 481.723 337.006 483.307 338.753 484.347C335.222 485.499 332.196 487.933 330.233 491.328C330.161 491.445 330.113 491.576 330.093 491.712C330.072 491.848 330.079 491.987 330.113 492.121C330.147 492.254 330.207 492.38 330.29 492.489C330.373 492.599 330.477 492.691 330.597 492.76C330.716 492.829 330.848 492.873 330.984 492.89C331.121 492.908 331.26 492.897 331.392 492.86C331.525 492.822 331.648 492.759 331.756 492.673C331.864 492.587 331.953 492.48 332.019 492.359C334.447 488.162 338.74 485.656 343.5 485.656C348.261 485.656 352.553 488.162 354.982 492.359C355.048 492.48 355.137 492.587 355.245 492.673C355.352 492.759 355.476 492.822 355.608 492.86C355.741 492.897 355.88 492.908 356.016 492.89C356.153 492.873 356.285 492.829 356.404 492.76C356.523 492.691 356.627 492.599 356.711 492.489C356.794 492.38 356.854 492.254 356.888 492.121C356.922 491.987 356.928 491.848 356.908 491.712C356.887 491.576 356.839 491.445 356.767 491.328ZM336.281 476.375C336.281 474.947 336.705 473.552 337.498 472.364C338.291 471.177 339.419 470.252 340.738 469.706C342.057 469.159 343.508 469.016 344.909 469.295C346.309 469.573 347.595 470.261 348.605 471.271C349.614 472.28 350.302 473.566 350.58 474.967C350.859 476.367 350.716 477.818 350.169 479.137C349.623 480.457 348.698 481.584 347.511 482.377C346.324 483.17 344.928 483.594 343.5 483.594C341.586 483.592 339.751 482.83 338.398 481.477C337.045 480.124 336.284 478.289 336.281 476.375Z" fill="white"/>
<path d="M575 388C574.333 403 571.4 435.8 565 447M447.5 364.5C453.333 381.333 469.8 419.6 489 438M375.5 509C398 523 432.8 521.3 464 516.5" stroke="#D9D9D9" stroke-width="2" stroke-dasharray="4 4"/>
</g>
<defs>
<filter id="filter0_d_449_35" x="0" y="0" width="668" height="600" filterUnits="userSpaceOnUse" color-interpolation-filters="sRGB">
<feFlood flood-opacity="0" result="BackgroundImageFix"/>
<feColorMatrix in="SourceAlpha" type="matrix" values="0 0 0 0 0 0 0 0 0 0 0 0 0 0 0 0 0 0 127 0" result="hardAlpha"/>
<feOffset dy="4"/>
<feGaussianBlur stdDeviation="6"/>
<feColorMatrix type="matrix" values="0 0 0 0 0 0 0 0 0 0 0 0 0 0 0 0 0 0 0.2 0"/>
<feBlend mode="normal" in2="BackgroundImageFix" result="effect1_dropShadow_449_35"/>
<feBlend mode="normal" in="SourceGraphic" in2="effect1_dropShadow_449_35" result="shape"/>
</filter>
</defs>
</svg>
