<svg width="1440" height="697" viewBox="0 0 1440 697" fill="none" xmlns="http://www.w3.org/2000/svg" xmlns:xlink="http://www.w3.org/1999/xlink">
<g clip-path="url(#clip0_323_327)">
<rect x="579.457" y="-39.6379" width="931.085" height="776.276" fill="url(#pattern0_323_327)"/>
<ellipse cx="134" cy="87" rx="808" ry="758" fill="#0A1628"/>
<g filter="url(#filter0_f_323_327)">
<path d="M402.483 356.906C181 647.5 292.452 589.351 126.5 498C-39.4517 406.649 -298.323 169.586 -237.999 60C-177.676 -49.5864 45.2737 -98.2749 211.226 -6.92384C377.178 84.4272 648 9.50002 402.483 356.906Z" fill="#D776F7" fill-opacity="0.13"/>
</g>
<path d="M167.64 142.808C167.652 144.239 167.217 145.637 166.396 146.809C165.576 147.981 164.41 148.869 163.062 149.348L135.403 159.407L125.348 187.062C124.853 188.397 123.961 189.549 122.791 190.362C121.622 191.175 120.232 191.611 118.808 191.611C117.384 191.611 115.994 191.175 114.825 190.362C113.656 189.549 112.764 188.397 112.268 187.062L102.214 159.402L74.5543 149.348C73.2193 148.853 72.0679 147.96 71.2548 146.791C70.4417 145.622 70.0059 144.232 70.0059 142.808C70.0059 141.384 70.4417 139.994 71.2548 138.825C72.0679 137.656 73.2193 136.764 74.5543 136.268L102.214 126.214L112.268 98.554C112.764 97.219 113.656 96.0676 114.825 95.2545C115.994 94.4414 117.384 94.0056 118.808 94.0056C120.232 94.0056 121.622 94.4414 122.791 95.2545C123.961 96.0676 124.853 97.219 125.348 98.554L135.407 126.214L163.062 136.268C164.41 136.747 165.576 137.635 166.396 138.807C167.217 139.979 167.652 141.377 167.64 142.808Z" fill="url(#paint0_linear_323_327)"/>
<path d="M68.7528 276.616V224.252H87.4176C91.4915 224.252 94.8665 224.994 97.5426 226.477C100.219 227.96 102.222 229.988 103.551 232.562C104.881 235.119 105.545 238 105.545 241.204C105.545 244.426 104.872 247.324 103.526 249.897C102.196 252.454 100.185 254.483 97.4915 255.983C94.8153 257.466 91.4489 258.207 87.392 258.207H74.5568V251.508H86.6761C89.25 251.508 91.3381 251.065 92.9403 250.179C94.5426 249.275 95.7188 248.048 96.4688 246.497C97.2188 244.946 97.5938 243.181 97.5938 241.204C97.5938 239.227 97.2188 237.471 96.4688 235.937C95.7188 234.403 94.5341 233.201 92.9148 232.332C91.3125 231.463 89.1989 231.028 86.5739 231.028H76.6534V276.616H68.7528ZM112.754 276.616V237.343H120.143V243.582H120.552C121.268 241.468 122.529 239.806 124.336 238.596C126.16 237.369 128.223 236.755 130.524 236.755C131.001 236.755 131.564 236.772 132.211 236.806C132.876 236.841 133.396 236.883 133.771 236.934V244.247C133.464 244.162 132.919 244.068 132.135 243.966C131.35 243.846 130.566 243.787 129.782 243.787C127.975 243.787 126.365 244.17 124.95 244.937C123.552 245.687 122.444 246.735 121.626 248.082C120.808 249.412 120.399 250.929 120.399 252.633V276.616H112.754ZM154.083 277.409C150.401 277.409 147.188 276.565 144.444 274.877C141.7 273.19 139.569 270.829 138.052 267.795C136.535 264.761 135.776 261.216 135.776 257.159C135.776 253.085 136.535 249.522 138.052 246.471C139.569 243.42 141.7 241.051 144.444 239.363C147.188 237.676 150.401 236.832 154.083 236.832C157.765 236.832 160.978 237.676 163.722 239.363C166.467 241.051 168.597 243.42 170.114 246.471C171.631 249.522 172.39 253.085 172.39 257.159C172.39 261.216 171.631 264.761 170.114 267.795C168.597 270.829 166.467 273.19 163.722 274.877C160.978 276.565 157.765 277.409 154.083 277.409ZM154.109 270.991C156.495 270.991 158.472 270.36 160.04 269.099C161.609 267.838 162.768 266.159 163.518 264.062C164.285 261.966 164.668 259.656 164.668 257.133C164.668 254.627 164.285 252.326 163.518 250.23C162.768 248.116 161.609 246.42 160.04 245.142C158.472 243.863 156.495 243.224 154.109 243.224C151.705 243.224 149.711 243.863 148.126 245.142C146.558 246.42 145.39 248.116 144.623 250.23C143.873 252.326 143.498 254.627 143.498 257.133C143.498 259.656 143.873 261.966 144.623 264.062C145.39 266.159 146.558 267.838 148.126 269.099C149.711 270.36 151.705 270.991 154.109 270.991ZM179.483 291.343V237.343H186.949V243.71H187.588C188.032 242.892 188.671 241.946 189.506 240.872C190.341 239.798 191.5 238.86 192.983 238.059C194.466 237.241 196.426 236.832 198.864 236.832C202.034 236.832 204.864 237.633 207.353 239.235C209.841 240.838 211.793 243.147 213.208 246.164C214.64 249.181 215.355 252.812 215.355 257.056C215.355 261.301 214.648 264.94 213.233 267.974C211.818 270.991 209.875 273.318 207.404 274.954C204.932 276.574 202.111 277.383 198.941 277.383C196.554 277.383 194.603 276.983 193.086 276.181C191.586 275.38 190.409 274.443 189.557 273.369C188.705 272.295 188.049 271.341 187.588 270.505H187.128V291.343H179.483ZM186.975 256.98C186.975 259.741 187.375 262.162 188.176 264.241C188.978 266.321 190.137 267.949 191.654 269.125C193.171 270.284 195.029 270.863 197.228 270.863C199.512 270.863 201.421 270.258 202.955 269.048C204.489 267.821 205.648 266.159 206.432 264.062C207.233 261.966 207.634 259.605 207.634 256.98C207.634 254.389 207.242 252.062 206.458 250C205.691 247.937 204.532 246.309 202.98 245.116C201.446 243.923 199.529 243.326 197.228 243.326C195.012 243.326 193.137 243.897 191.603 245.039C190.086 246.181 188.935 247.775 188.151 249.821C187.367 251.866 186.975 254.252 186.975 256.98ZM239.407 277.409C235.538 277.409 232.205 276.582 229.41 274.929C226.631 273.258 224.484 270.914 222.967 267.897C221.467 264.863 220.717 261.309 220.717 257.235C220.717 253.213 221.467 249.667 222.967 246.599C224.484 243.531 226.597 241.136 229.307 239.414C232.035 237.693 235.222 236.832 238.87 236.832C241.086 236.832 243.234 237.199 245.313 237.931C247.393 238.664 249.259 239.815 250.913 241.383C252.566 242.951 253.87 244.988 254.825 247.494C255.779 249.983 256.256 253.008 256.256 256.571V259.281H225.038V253.554H248.765C248.765 251.542 248.356 249.761 247.538 248.21C246.719 246.642 245.569 245.406 244.086 244.502C242.62 243.599 240.898 243.147 238.921 243.147C236.773 243.147 234.898 243.676 233.296 244.733C231.711 245.772 230.484 247.136 229.614 248.824C228.762 250.494 228.336 252.309 228.336 254.27V258.744C228.336 261.369 228.796 263.602 229.717 265.443C230.654 267.284 231.958 268.69 233.629 269.662C235.299 270.616 237.251 271.093 239.484 271.093C240.932 271.093 242.254 270.889 243.447 270.48C244.64 270.054 245.671 269.423 246.54 268.588C247.41 267.752 248.075 266.721 248.535 265.494L255.771 266.798C255.191 268.929 254.151 270.795 252.651 272.397C251.168 273.983 249.302 275.218 247.052 276.105C244.819 276.974 242.271 277.409 239.407 277.409ZM263.299 276.616V237.343H270.688V243.582H271.097C271.813 241.468 273.074 239.806 274.881 238.596C276.705 237.369 278.767 236.755 281.068 236.755C281.546 236.755 282.108 236.772 282.756 236.806C283.421 236.841 283.941 236.883 284.316 236.934V244.247C284.009 244.162 283.463 244.068 282.679 243.966C281.895 243.846 281.111 243.787 280.327 243.787C278.52 243.787 276.909 244.17 275.495 244.937C274.097 245.687 272.989 246.735 272.171 248.082C271.353 249.412 270.943 250.929 270.943 252.633V276.616H263.299ZM310.144 237.343V243.48H288.692V237.343H310.144ZM294.445 227.934H302.09V265.085C302.09 266.568 302.312 267.684 302.755 268.434C303.198 269.167 303.769 269.67 304.468 269.943C305.184 270.199 305.959 270.326 306.795 270.326C307.408 270.326 307.945 270.284 308.405 270.199C308.866 270.113 309.224 270.045 309.479 269.994L310.86 276.309C310.417 276.48 309.786 276.65 308.968 276.821C308.15 277.008 307.127 277.11 305.9 277.127C303.888 277.162 302.013 276.804 300.275 276.054C298.536 275.304 297.13 274.145 296.056 272.576C294.982 271.008 294.445 269.039 294.445 266.67V227.934ZM321.993 291.343C320.851 291.343 319.811 291.25 318.874 291.062C317.936 290.892 317.237 290.704 316.777 290.5L318.618 284.235C320.016 284.61 321.26 284.772 322.351 284.721C323.442 284.67 324.405 284.261 325.24 283.494C326.093 282.727 326.843 281.474 327.49 279.735L328.436 277.127L314.067 237.343H322.249L332.195 267.821H332.604L342.55 237.343H350.757L334.573 281.858C333.823 283.903 332.868 285.633 331.709 287.048C330.55 288.48 329.169 289.554 327.567 290.27C325.965 290.985 324.107 291.343 321.993 291.343ZM382.631 224.252V276.616H374.73V224.252H382.631ZM399.728 253.298V276.616H392.083V237.343H399.421V243.735H399.907C400.81 241.656 402.225 239.985 404.151 238.724C406.094 237.463 408.54 236.832 411.489 236.832C414.165 236.832 416.509 237.395 418.52 238.52C420.532 239.627 422.091 241.281 423.199 243.48C424.307 245.679 424.861 248.397 424.861 251.636V276.616H417.216V252.556C417.216 249.71 416.475 247.485 414.992 245.883C413.509 244.264 411.472 243.454 408.881 243.454C407.109 243.454 405.532 243.838 404.151 244.605C402.788 245.372 401.705 246.497 400.904 247.98C400.12 249.446 399.728 251.218 399.728 253.298ZM452.007 237.343V243.48H430.555V237.343H452.007ZM436.308 227.934H443.953V265.085C443.953 266.568 444.174 267.684 444.617 268.434C445.061 269.167 445.632 269.67 446.33 269.943C447.046 270.199 447.822 270.326 448.657 270.326C449.271 270.326 449.808 270.284 450.268 270.199C450.728 270.113 451.086 270.045 451.342 269.994L452.723 276.309C452.279 276.48 451.649 276.65 450.83 276.821C450.012 277.008 448.99 277.11 447.762 277.127C445.751 277.162 443.876 276.804 442.137 276.054C440.399 275.304 438.992 274.145 437.919 272.576C436.845 271.008 436.308 269.039 436.308 266.67V227.934ZM475.528 277.409C471.658 277.409 468.326 276.582 465.53 274.929C462.752 273.258 460.604 270.914 459.087 267.897C457.587 264.863 456.837 261.309 456.837 257.235C456.837 253.213 457.587 249.667 459.087 246.599C460.604 243.531 462.718 241.136 465.428 239.414C468.155 237.693 471.343 236.832 474.991 236.832C477.207 236.832 479.354 237.199 481.434 237.931C483.513 238.664 485.38 239.815 487.033 241.383C488.687 242.951 489.991 244.988 490.945 247.494C491.9 249.983 492.377 253.008 492.377 256.571V259.281H461.158V253.554H484.885C484.885 251.542 484.476 249.761 483.658 248.21C482.84 246.642 481.689 245.406 480.207 244.502C478.741 243.599 477.019 243.147 475.042 243.147C472.894 243.147 471.019 243.676 469.417 244.733C467.832 245.772 466.604 247.136 465.735 248.824C464.883 250.494 464.457 252.309 464.457 254.27V258.744C464.457 261.369 464.917 263.602 465.837 265.443C466.775 267.284 468.079 268.69 469.749 269.662C471.42 270.616 473.371 271.093 475.604 271.093C477.053 271.093 478.374 270.889 479.567 270.48C480.76 270.054 481.792 269.423 482.661 268.588C483.53 267.752 484.195 266.721 484.655 265.494L491.891 266.798C491.312 268.929 490.272 270.795 488.772 272.397C487.289 273.983 485.422 275.218 483.172 276.105C480.939 276.974 478.391 277.409 475.528 277.409ZM507.064 224.252V276.616H499.419V224.252H507.064ZM523.554 224.252V276.616H515.909V224.252H523.554ZM532.399 276.616V237.343H540.043V276.616H532.399ZM536.259 231.284C534.93 231.284 533.788 230.841 532.833 229.954C531.896 229.051 531.427 227.977 531.427 226.733C531.427 225.471 531.896 224.397 532.833 223.511C533.788 222.608 534.93 222.156 536.259 222.156C537.589 222.156 538.722 222.608 539.66 223.511C540.614 224.397 541.092 225.471 541.092 226.733C541.092 227.977 540.614 229.051 539.66 229.954C538.722 230.841 537.589 231.284 536.259 231.284ZM565.354 292.162C562.235 292.162 559.55 291.752 557.3 290.934C555.067 290.116 553.243 289.034 551.829 287.687C550.414 286.341 549.357 284.866 548.658 283.264L555.229 280.554C555.689 281.304 556.303 282.096 557.07 282.931C557.854 283.784 558.911 284.508 560.241 285.105C561.587 285.701 563.317 286 565.431 286C568.329 286 570.723 285.292 572.616 283.877C574.508 282.48 575.454 280.247 575.454 277.179V269.457H574.968C574.508 270.292 573.843 271.221 572.973 272.244C572.121 273.267 570.945 274.153 569.445 274.903C567.945 275.653 565.993 276.028 563.59 276.028C560.488 276.028 557.692 275.304 555.204 273.855C552.732 272.389 550.772 270.233 549.323 267.386C547.891 264.522 547.175 261.002 547.175 256.826C547.175 252.65 547.883 249.071 549.297 246.088C550.729 243.105 552.689 240.821 555.178 239.235C557.667 237.633 560.488 236.832 563.641 236.832C566.079 236.832 568.047 237.241 569.547 238.059C571.047 238.86 572.215 239.798 573.05 240.872C573.902 241.946 574.559 242.892 575.019 243.71H575.581V237.343H583.073V277.485C583.073 280.86 582.289 283.63 580.721 285.795C579.152 287.96 577.03 289.562 574.354 290.602C571.695 291.642 568.695 292.162 565.354 292.162ZM565.277 269.687C567.476 269.687 569.334 269.176 570.851 268.153C572.385 267.113 573.545 265.63 574.329 263.704C575.13 261.761 575.53 259.434 575.53 256.724C575.53 254.082 575.138 251.755 574.354 249.744C573.57 247.733 572.42 246.164 570.902 245.039C569.385 243.897 567.51 243.326 565.277 243.326C562.976 243.326 561.059 243.923 559.525 245.116C557.991 246.292 556.831 247.895 556.047 249.923C555.28 251.951 554.897 254.218 554.897 256.724C554.897 259.298 555.289 261.556 556.073 263.5C556.857 265.443 558.016 266.96 559.55 268.051C561.101 269.142 563.01 269.687 565.277 269.687ZM608.812 277.409C604.943 277.409 601.61 276.582 598.815 274.929C596.036 273.258 593.889 270.914 592.372 267.897C590.872 264.863 590.122 261.309 590.122 257.235C590.122 253.213 590.872 249.667 592.372 246.599C593.889 243.531 596.002 241.136 598.712 239.414C601.44 237.693 604.627 236.832 608.275 236.832C610.491 236.832 612.639 237.199 614.718 237.931C616.798 238.664 618.664 239.815 620.318 241.383C621.971 242.951 623.275 244.988 624.23 247.494C625.184 249.983 625.661 253.008 625.661 256.571V259.281H594.443V253.554H618.17C618.17 251.542 617.761 249.761 616.943 248.21C616.124 246.642 614.974 245.406 613.491 244.502C612.025 243.599 610.303 243.147 608.326 243.147C606.178 243.147 604.303 243.676 602.701 244.733C601.116 245.772 599.889 247.136 599.019 248.824C598.167 250.494 597.741 252.309 597.741 254.27V258.744C597.741 261.369 598.201 263.602 599.122 265.443C600.059 267.284 601.363 268.69 603.034 269.662C604.704 270.616 606.656 271.093 608.889 271.093C610.337 271.093 611.659 270.889 612.852 270.48C614.045 270.054 615.076 269.423 615.945 268.588C616.815 267.752 617.48 266.721 617.94 265.494L625.176 266.798C624.596 268.929 623.556 270.795 622.056 272.397C620.573 273.983 618.707 275.218 616.457 276.105C614.224 276.974 611.676 277.409 608.812 277.409ZM640.348 253.298V276.616H632.704V237.343H640.042V243.735H640.527C641.431 241.656 642.846 239.985 644.772 238.724C646.715 237.463 649.161 236.832 652.11 236.832C654.786 236.832 657.13 237.395 659.141 238.52C661.152 239.627 662.712 241.281 663.82 243.48C664.928 245.679 665.482 248.397 665.482 251.636V276.616H657.837V252.556C657.837 249.71 657.096 247.485 655.613 245.883C654.13 244.264 652.093 243.454 649.502 243.454C647.729 243.454 646.152 243.838 644.772 244.605C643.408 245.372 642.326 246.497 641.525 247.98C640.741 249.446 640.348 251.218 640.348 253.298ZM690.837 277.409C687.036 277.409 683.764 276.548 681.019 274.826C678.292 273.088 676.195 270.693 674.73 267.642C673.264 264.591 672.531 261.096 672.531 257.159C672.531 253.17 673.281 249.65 674.781 246.599C676.281 243.531 678.394 241.136 681.122 239.414C683.849 237.693 687.062 236.832 690.761 236.832C693.744 236.832 696.403 237.386 698.738 238.494C701.073 239.585 702.957 241.119 704.389 243.096C705.837 245.074 706.698 247.383 706.971 250.025H699.531C699.122 248.184 698.184 246.599 696.718 245.27C695.269 243.94 693.326 243.275 690.889 243.275C688.758 243.275 686.891 243.838 685.289 244.963C683.704 246.071 682.468 247.656 681.582 249.718C680.695 251.764 680.252 254.184 680.252 256.98C680.252 259.843 680.687 262.315 681.556 264.395C682.426 266.474 683.653 268.085 685.238 269.227C686.84 270.369 688.724 270.94 690.889 270.94C692.337 270.94 693.65 270.676 694.826 270.147C696.019 269.602 697.016 268.826 697.818 267.821C698.636 266.815 699.207 265.605 699.531 264.19H706.971C706.698 266.73 705.872 268.997 704.491 270.991C703.11 272.985 701.261 274.554 698.943 275.696C696.641 276.838 693.94 277.409 690.837 277.409ZM730.633 277.409C726.763 277.409 723.431 276.582 720.635 274.929C717.857 273.258 715.709 270.914 714.192 267.897C712.692 264.863 711.942 261.309 711.942 257.235C711.942 253.213 712.692 249.667 714.192 246.599C715.709 243.531 717.823 241.136 720.533 239.414C723.26 237.693 726.448 236.832 730.096 236.832C732.312 236.832 734.459 237.199 736.539 237.931C738.618 238.664 740.485 239.815 742.138 241.383C743.792 242.951 745.096 244.988 746.05 247.494C747.005 249.983 747.482 253.008 747.482 256.571V259.281H716.263V253.554H739.99C739.99 251.542 739.581 249.761 738.763 248.21C737.945 246.642 736.794 245.406 735.312 244.502C733.846 243.599 732.124 243.147 730.147 243.147C727.999 243.147 726.124 243.676 724.522 244.733C722.937 245.772 721.709 247.136 720.84 248.824C719.988 250.494 719.562 252.309 719.562 254.27V258.744C719.562 261.369 720.022 263.602 720.942 265.443C721.88 267.284 723.184 268.69 724.854 269.662C726.525 270.616 728.476 271.093 730.709 271.093C732.158 271.093 733.479 270.889 734.672 270.48C735.865 270.054 736.897 269.423 737.766 268.588C738.635 267.752 739.3 266.721 739.76 265.494L746.996 266.798C746.417 268.929 745.377 270.795 743.877 272.397C742.394 273.983 740.527 275.218 738.277 276.105C736.044 276.974 733.496 277.409 730.633 277.409ZM777.176 276.616H768.789L787.633 224.252H796.761L815.605 276.616H807.218L792.414 233.764H792.005L777.176 276.616ZM778.582 256.11H805.787V262.758H778.582V256.11ZM829.627 224.252V276.616H821.727V224.252H829.627ZM86.8295 309.343V315.48H64.6364V309.343H86.8295ZM70.7216 348.616V304.792C70.7216 302.338 71.2585 300.301 72.3324 298.681C73.4063 297.045 74.8295 295.826 76.6023 295.025C78.375 294.207 80.3011 293.798 82.3807 293.798C83.9148 293.798 85.2273 293.926 86.3182 294.181C87.4091 294.42 88.2188 294.642 88.7472 294.846L86.9574 301.034C86.5994 300.931 86.1392 300.812 85.5767 300.676C85.0142 300.522 84.3324 300.446 83.5312 300.446C81.6733 300.446 80.3438 300.906 79.5426 301.826C78.7585 302.747 78.3665 304.076 78.3665 305.815V348.616H70.7216ZM108.273 349.409C104.591 349.409 101.378 348.565 98.6339 346.877C95.8895 345.19 93.7589 342.829 92.2418 339.795C90.7248 336.761 89.9662 333.216 89.9662 329.159C89.9662 325.085 90.7248 321.522 92.2418 318.471C93.7589 315.42 95.8895 313.051 98.6339 311.363C101.378 309.676 104.591 308.832 108.273 308.832C111.955 308.832 115.168 309.676 117.912 311.363C120.657 313.051 122.787 315.42 124.304 318.471C125.821 321.522 126.58 325.085 126.58 329.159C126.58 333.216 125.821 336.761 124.304 339.795C122.787 342.829 120.657 345.19 117.912 346.877C115.168 348.565 111.955 349.409 108.273 349.409ZM108.299 342.991C110.685 342.991 112.662 342.36 114.23 341.099C115.799 339.838 116.958 338.159 117.708 336.062C118.475 333.966 118.858 331.656 118.858 329.133C118.858 326.627 118.475 324.326 117.708 322.23C116.958 320.116 115.799 318.42 114.23 317.142C112.662 315.863 110.685 315.224 108.299 315.224C105.895 315.224 103.901 315.863 102.316 317.142C100.747 318.42 99.5799 320.116 98.8128 322.23C98.0628 324.326 97.6878 326.627 97.6878 329.133C97.6878 331.656 98.0628 333.966 98.8128 336.062C99.5799 338.159 100.747 339.838 102.316 341.099C103.901 342.36 105.895 342.991 108.299 342.991ZM133.673 348.616V309.343H141.062V315.582H141.472C142.187 313.468 143.449 311.806 145.256 310.596C147.08 309.369 149.142 308.755 151.443 308.755C151.92 308.755 152.483 308.772 153.131 308.806C153.795 308.841 154.315 308.883 154.69 308.934V316.247C154.383 316.162 153.838 316.068 153.054 315.966C152.27 315.846 151.486 315.787 150.702 315.787C148.895 315.787 147.284 316.17 145.869 316.937C144.472 317.687 143.364 318.735 142.545 320.082C141.727 321.412 141.318 322.929 141.318 324.633V348.616H133.673ZM178.094 348.616V296.252H210.924V303.054H185.995V319.008H209.211V325.784H185.995V341.815H211.231V348.616H178.094ZM227.068 296.252V348.616H219.424V296.252H227.068ZM235.913 348.616V309.343H243.558V348.616H235.913ZM239.774 303.284C238.445 303.284 237.302 302.841 236.348 301.954C235.41 301.051 234.942 299.977 234.942 298.733C234.942 297.471 235.41 296.397 236.348 295.511C237.302 294.608 238.445 294.156 239.774 294.156C241.104 294.156 242.237 294.608 243.175 295.511C244.129 296.397 244.606 297.471 244.606 298.733C244.606 299.977 244.129 301.051 243.175 301.954C242.237 302.841 241.104 303.284 239.774 303.284ZM270.735 309.343V315.48H249.284V309.343H270.735ZM255.036 299.934H262.681V337.085C262.681 338.568 262.903 339.684 263.346 340.434C263.789 341.167 264.36 341.67 265.059 341.943C265.775 342.199 266.551 342.326 267.386 342.326C268 342.326 268.536 342.284 268.997 342.199C269.457 342.113 269.815 342.045 270.071 341.994L271.451 348.309C271.008 348.48 270.377 348.65 269.559 348.821C268.741 349.008 267.718 349.11 266.491 349.127C264.48 349.162 262.605 348.804 260.866 348.054C259.127 347.304 257.721 346.145 256.647 344.576C255.573 343.008 255.036 341.039 255.036 338.67V299.934ZM294.256 349.409C290.387 349.409 287.055 348.582 284.259 346.929C281.481 345.258 279.333 342.914 277.816 339.897C276.316 336.863 275.566 333.309 275.566 329.235C275.566 325.213 276.316 321.667 277.816 318.599C279.333 315.531 281.447 313.136 284.157 311.414C286.884 309.693 290.072 308.832 293.719 308.832C295.935 308.832 298.083 309.199 300.163 309.931C302.242 310.664 304.109 311.815 305.762 313.383C307.415 314.951 308.719 316.988 309.674 319.494C310.628 321.983 311.106 325.008 311.106 328.571V331.281H279.887V325.554H303.614C303.614 323.542 303.205 321.761 302.387 320.21C301.569 318.642 300.418 317.406 298.935 316.502C297.469 315.599 295.748 315.147 293.77 315.147C291.623 315.147 289.748 315.676 288.145 316.733C286.56 317.772 285.333 319.136 284.464 320.824C283.611 322.494 283.185 324.309 283.185 326.27V330.744C283.185 333.369 283.645 335.602 284.566 337.443C285.503 339.284 286.807 340.69 288.478 341.662C290.148 342.616 292.1 343.093 294.333 343.093C295.782 343.093 297.103 342.889 298.296 342.48C299.489 342.054 300.52 341.423 301.39 340.588C302.259 339.752 302.924 338.721 303.384 337.494L310.62 338.798C310.04 340.929 309.001 342.795 307.501 344.397C306.018 345.983 304.151 347.218 301.901 348.105C299.668 348.974 297.12 349.409 294.256 349.409ZM336.376 348.616V296.252H355.041C359.098 296.252 362.464 296.951 365.14 298.349C367.834 299.747 369.845 301.681 371.175 304.153C372.504 306.608 373.169 309.446 373.169 312.667C373.169 315.872 372.496 318.693 371.149 321.13C369.819 323.551 367.808 325.434 365.115 326.781C362.439 328.127 359.072 328.801 355.015 328.801H340.876V322H354.3C356.856 322 358.936 321.633 360.538 320.9C362.158 320.167 363.342 319.102 364.092 317.704C364.842 316.306 365.217 314.627 365.217 312.667C365.217 310.69 364.834 308.977 364.067 307.528C363.317 306.079 362.132 304.971 360.513 304.204C358.91 303.42 356.805 303.028 354.197 303.028H344.277V348.616H336.376ZM362.226 324.991L375.163 348.616H366.163L353.481 324.991H362.226ZM397.163 349.409C393.294 349.409 389.961 348.582 387.166 346.929C384.387 345.258 382.24 342.914 380.723 339.897C379.223 336.863 378.473 333.309 378.473 329.235C378.473 325.213 379.223 321.667 380.723 318.599C382.24 315.531 384.353 313.136 387.063 311.414C389.791 309.693 392.978 308.832 396.626 308.832C398.842 308.832 400.99 309.199 403.069 309.931C405.149 310.664 407.015 311.815 408.669 313.383C410.322 314.951 411.626 316.988 412.58 319.494C413.535 321.983 414.012 325.008 414.012 328.571V331.281H382.794V325.554H406.521C406.521 323.542 406.112 321.761 405.294 320.21C404.475 318.642 403.325 317.406 401.842 316.502C400.376 315.599 398.654 315.147 396.677 315.147C394.529 315.147 392.654 315.676 391.052 316.733C389.467 317.772 388.24 319.136 387.37 320.824C386.518 322.494 386.092 324.309 386.092 326.27V330.744C386.092 333.369 386.552 335.602 387.473 337.443C388.41 339.284 389.714 340.69 391.384 341.662C393.055 342.616 395.007 343.093 397.24 343.093C398.688 343.093 400.009 342.889 401.203 342.48C402.396 342.054 403.427 341.423 404.296 340.588C405.166 339.752 405.83 338.721 406.291 337.494L413.526 338.798C412.947 340.929 411.907 342.795 410.407 344.397C408.924 345.983 407.058 347.218 404.808 348.105C402.575 348.974 400.026 349.409 397.163 349.409ZM432.483 349.485C429.995 349.485 427.745 349.025 425.733 348.105C423.722 347.167 422.128 345.812 420.952 344.039C419.793 342.267 419.214 340.093 419.214 337.52C419.214 335.304 419.64 333.48 420.492 332.048C421.344 330.616 422.495 329.483 423.944 328.647C425.393 327.812 427.012 327.181 428.802 326.755C430.591 326.329 432.415 326.005 434.273 325.784C436.626 325.511 438.535 325.289 440.001 325.119C441.466 324.931 442.532 324.633 443.197 324.224C443.861 323.815 444.194 323.15 444.194 322.23V322.051C444.194 319.818 443.563 318.088 442.302 316.86C441.057 315.633 439.199 315.02 436.728 315.02C434.154 315.02 432.126 315.591 430.643 316.733C429.177 317.858 428.162 319.11 427.6 320.491L420.415 318.855C421.268 316.468 422.512 314.542 424.148 313.076C425.802 311.593 427.702 310.52 429.85 309.855C431.998 309.173 434.256 308.832 436.626 308.832C438.194 308.832 439.856 309.02 441.611 309.395C443.384 309.752 445.037 310.417 446.572 311.389C448.123 312.36 449.393 313.75 450.381 315.556C451.37 317.346 451.864 319.673 451.864 322.537V348.616H444.398V343.247H444.091C443.597 344.235 442.856 345.207 441.867 346.162C440.878 347.116 439.608 347.909 438.057 348.539C436.506 349.17 434.648 349.485 432.483 349.485ZM434.145 343.349C436.259 343.349 438.066 342.931 439.566 342.096C441.083 341.261 442.233 340.17 443.018 338.824C443.819 337.46 444.219 336.002 444.219 334.451V329.389C443.947 329.662 443.418 329.917 442.634 330.156C441.867 330.377 440.989 330.574 440.001 330.744C439.012 330.897 438.049 331.042 437.111 331.179C436.174 331.298 435.39 331.4 434.759 331.485C433.276 331.673 431.921 331.988 430.694 332.431C429.483 332.875 428.512 333.514 427.779 334.349C427.063 335.167 426.705 336.258 426.705 337.622C426.705 339.514 427.404 340.946 428.802 341.917C430.199 342.872 431.981 343.349 434.145 343.349ZM468.252 296.252V348.616H460.607V296.252H468.252ZM495.429 309.343V315.48H473.977V309.343H495.429ZM479.73 299.934H487.375V337.085C487.375 338.568 487.596 339.684 488.04 340.434C488.483 341.167 489.054 341.67 489.753 341.943C490.469 342.199 491.244 342.326 492.079 342.326C492.693 342.326 493.23 342.284 493.69 342.199C494.15 342.113 494.508 342.045 494.764 341.994L496.145 348.309C495.702 348.48 495.071 348.65 494.253 348.821C493.434 349.008 492.412 349.11 491.184 349.127C489.173 349.162 487.298 348.804 485.559 348.054C483.821 347.304 482.415 346.145 481.341 344.576C480.267 343.008 479.73 341.039 479.73 338.67V299.934ZM518.566 349.409C514.884 349.409 511.671 348.565 508.927 346.877C506.183 345.19 504.052 342.829 502.535 339.795C501.018 336.761 500.259 333.216 500.259 329.159C500.259 325.085 501.018 321.522 502.535 318.471C504.052 315.42 506.183 313.051 508.927 311.363C511.671 309.676 514.884 308.832 518.566 308.832C522.248 308.832 525.461 309.676 528.205 311.363C530.95 313.051 533.08 315.42 534.597 318.471C536.114 321.522 536.873 325.085 536.873 329.159C536.873 333.216 536.114 336.761 534.597 339.795C533.08 342.829 530.95 345.19 528.205 346.877C525.461 348.565 522.248 349.409 518.566 349.409ZM518.592 342.991C520.978 342.991 522.955 342.36 524.524 341.099C526.092 339.838 527.251 338.159 528.001 336.062C528.768 333.966 529.151 331.656 529.151 329.133C529.151 326.627 528.768 324.326 528.001 322.23C527.251 320.116 526.092 318.42 524.524 317.142C522.955 315.863 520.978 315.224 518.592 315.224C516.188 315.224 514.194 315.863 512.609 317.142C511.041 318.42 509.873 320.116 509.106 322.23C508.356 324.326 507.981 326.627 507.981 329.133C507.981 331.656 508.356 333.966 509.106 336.062C509.873 338.159 511.041 339.838 512.609 341.099C514.194 342.36 516.188 342.991 518.592 342.991ZM543.966 348.616V309.343H551.356V315.582H551.765C552.481 313.468 553.742 311.806 555.549 310.596C557.373 309.369 559.435 308.755 561.736 308.755C562.214 308.755 562.776 308.772 563.424 308.806C564.089 308.841 564.608 308.883 564.983 308.934V316.247C564.677 316.162 564.131 316.068 563.347 315.966C562.563 315.846 561.779 315.787 560.995 315.787C559.188 315.787 557.577 316.17 556.162 316.937C554.765 317.687 553.657 318.735 552.839 320.082C552.02 321.412 551.611 322.929 551.611 324.633V348.616H543.966ZM599.588 318.931L592.659 320.159C592.369 319.272 591.909 318.429 591.279 317.627C590.665 316.826 589.83 316.17 588.773 315.659C587.716 315.147 586.395 314.892 584.81 314.892C582.645 314.892 580.838 315.377 579.389 316.349C577.94 317.304 577.216 318.539 577.216 320.056C577.216 321.369 577.702 322.426 578.673 323.227C579.645 324.028 581.213 324.684 583.378 325.196L589.617 326.627C593.23 327.463 595.923 328.75 597.696 330.488C599.469 332.227 600.355 334.485 600.355 337.264C600.355 339.616 599.673 341.713 598.31 343.554C596.963 345.377 595.08 346.809 592.659 347.849C590.256 348.889 587.469 349.409 584.298 349.409C579.901 349.409 576.313 348.471 573.534 346.596C570.756 344.704 569.051 342.02 568.421 338.542L575.81 337.417C576.27 339.343 577.216 340.801 578.648 341.789C580.08 342.761 581.946 343.247 584.247 343.247C586.753 343.247 588.756 342.727 590.256 341.687C591.756 340.63 592.506 339.343 592.506 337.826C592.506 336.599 592.046 335.568 591.125 334.733C590.222 333.897 588.832 333.267 586.957 332.841L580.31 331.383C576.645 330.548 573.935 329.218 572.179 327.395C570.44 325.571 569.571 323.261 569.571 320.466C569.571 318.147 570.219 316.119 571.514 314.38C572.81 312.642 574.6 311.287 576.884 310.315C579.168 309.326 581.784 308.832 584.733 308.832C588.977 308.832 592.318 309.752 594.756 311.593C597.193 313.417 598.804 315.863 599.588 318.931Z" fill="white"/>
<rect x="63" y="407.616" width="166" height="48" rx="8" fill="#09A8F3"/>
<path d="M89.2976 429.661C89.174 429.273 89.0078 428.926 88.799 428.619C88.5945 428.308 88.3494 428.044 88.0639 427.826C87.7784 427.605 87.4524 427.436 87.0859 427.321C86.7237 427.206 86.3253 427.149 85.8906 427.149C85.1534 427.149 84.4886 427.338 83.8963 427.718C83.304 428.097 82.8352 428.653 82.4901 429.386C82.1491 430.115 81.9787 431.007 81.9787 432.064C81.9787 433.125 82.1513 434.022 82.4964 434.755C82.8416 435.488 83.3146 436.044 83.9155 436.424C84.5163 436.803 85.2003 436.993 85.9673 436.993C86.679 436.993 87.299 436.848 87.8274 436.558C88.3601 436.268 88.7713 435.859 89.0611 435.331C89.3551 434.798 89.5021 434.171 89.5021 433.451L90.0135 433.547H86.2678V431.917H91.4134V433.407C91.4134 434.506 91.179 435.461 90.7102 436.27C90.2457 437.076 89.6023 437.698 88.7798 438.137C87.9616 438.576 87.0241 438.795 85.9673 438.795C84.7827 438.795 83.7429 438.522 82.848 437.977C81.9574 437.431 81.2628 436.658 80.7642 435.657C80.2656 434.651 80.0163 433.458 80.0163 432.077C80.0163 431.033 80.1612 430.095 80.451 429.265C80.7408 428.434 81.1477 427.728 81.6719 427.149C82.2003 426.565 82.8203 426.12 83.532 425.813C84.2479 425.502 85.0298 425.346 85.8778 425.346C86.5852 425.346 87.2436 425.451 87.853 425.659C88.4666 425.868 89.0121 426.164 89.4893 426.548C89.9709 426.931 90.3693 427.387 90.6847 427.916C91 428.44 91.2131 429.022 91.3239 429.661H89.2976ZM97.9988 438.814C97.0314 438.814 96.1983 438.608 95.4995 438.194C94.8049 437.777 94.2679 437.191 93.8887 436.436C93.5137 435.678 93.3262 434.789 93.3262 433.771C93.3262 432.765 93.5137 431.879 93.8887 431.112C94.2679 430.345 94.7963 429.746 95.4739 429.316C96.1557 428.885 96.9526 428.67 97.8645 428.67C98.4185 428.67 98.9554 428.762 99.4753 428.945C99.9952 429.128 100.462 429.416 100.875 429.808C101.289 430.2 101.615 430.709 101.853 431.336C102.092 431.958 102.211 432.714 102.211 433.605V434.282H94.4064V432.85H100.338C100.338 432.348 100.236 431.902 100.031 431.515C99.8269 431.122 99.5392 430.814 99.1685 430.588C98.802 430.362 98.3716 430.249 97.8773 430.249C97.3404 430.249 96.8716 430.381 96.4711 430.645C96.0748 430.905 95.7679 431.246 95.5506 431.668C95.3375 432.086 95.231 432.539 95.231 433.029V434.148C95.231 434.804 95.3461 435.363 95.5762 435.823C95.8105 436.283 96.1365 436.635 96.5542 436.877C96.9718 437.116 97.4597 437.235 98.0179 437.235C98.3801 437.235 98.7104 437.184 99.0087 437.082C99.307 436.975 99.5648 436.818 99.7821 436.609C99.9995 436.4 100.166 436.142 100.281 435.836L102.09 436.162C101.945 436.694 101.685 437.161 101.31 437.561C100.939 437.958 100.472 438.267 99.91 438.488C99.3517 438.706 98.7147 438.814 97.9988 438.814ZM108.915 428.798V430.332H103.552V428.798H108.915ZM104.99 426.446H106.901V435.733C106.901 436.104 106.957 436.383 107.067 436.571C107.178 436.754 107.321 436.88 107.496 436.948C107.675 437.012 107.869 437.044 108.077 437.044C108.231 437.044 108.365 437.033 108.48 437.012C108.595 436.99 108.685 436.973 108.749 436.961L109.094 438.539C108.983 438.582 108.825 438.625 108.621 438.667C108.416 438.714 108.161 438.74 107.854 438.744C107.351 438.752 106.882 438.663 106.447 438.475C106.013 438.288 105.661 437.998 105.393 437.606C105.124 437.214 104.99 436.722 104.99 436.13V426.446ZM123.086 428.964C123.018 428.359 122.737 427.89 122.242 427.558C121.748 427.221 121.126 427.053 120.376 427.053C119.839 427.053 119.374 427.138 118.982 427.309C118.59 427.475 118.286 427.705 118.068 427.999C117.855 428.289 117.749 428.619 117.749 428.99C117.749 429.301 117.821 429.569 117.966 429.795C118.115 430.021 118.309 430.211 118.548 430.364C118.79 430.513 119.05 430.639 119.327 430.741C119.604 430.839 119.871 430.92 120.126 430.984L121.405 431.316C121.822 431.419 122.251 431.557 122.69 431.732C123.129 431.907 123.536 432.137 123.911 432.422C124.286 432.708 124.588 433.061 124.818 433.483C125.053 433.905 125.17 434.41 125.17 434.998C125.17 435.74 124.978 436.398 124.594 436.973C124.215 437.549 123.663 438.002 122.939 438.335C122.219 438.667 121.347 438.833 120.325 438.833C119.344 438.833 118.496 438.678 117.781 438.367C117.065 438.056 116.504 437.615 116.099 437.044C115.695 436.468 115.471 435.787 115.428 434.998H117.41C117.448 435.471 117.602 435.865 117.87 436.181C118.143 436.492 118.49 436.724 118.912 436.877C119.338 437.027 119.805 437.101 120.312 437.101C120.87 437.101 121.366 437.014 121.801 436.839C122.24 436.66 122.585 436.413 122.837 436.098C123.088 435.778 123.214 435.405 123.214 434.979C123.214 434.591 123.103 434.274 122.881 434.027C122.664 433.779 122.368 433.575 121.993 433.413C121.622 433.251 121.202 433.108 120.734 432.985L119.187 432.563C118.138 432.277 117.308 431.858 116.694 431.304C116.085 430.75 115.78 430.017 115.78 429.105C115.78 428.35 115.984 427.692 116.393 427.13C116.803 426.567 117.357 426.13 118.055 425.819C118.754 425.504 119.543 425.346 120.42 425.346C121.307 425.346 122.089 425.502 122.766 425.813C123.448 426.124 123.985 426.552 124.377 427.098C124.769 427.639 124.974 428.261 124.991 428.964H123.086ZM131.96 428.798V430.332H126.597V428.798H131.96ZM128.035 426.446H129.946V435.733C129.946 436.104 130.002 436.383 130.112 436.571C130.223 436.754 130.366 436.88 130.541 436.948C130.72 437.012 130.914 437.044 131.122 437.044C131.276 437.044 131.41 437.033 131.525 437.012C131.64 436.99 131.73 436.973 131.794 436.961L132.139 438.539C132.028 438.582 131.87 438.625 131.666 438.667C131.461 438.714 131.205 438.74 130.899 438.744C130.396 438.752 129.927 438.663 129.492 438.475C129.058 438.288 128.706 437.998 128.438 437.606C128.169 437.214 128.035 436.722 128.035 436.13V426.446ZM136.931 438.833C136.309 438.833 135.746 438.718 135.244 438.488C134.741 438.254 134.342 437.915 134.048 437.472C133.759 437.029 133.614 436.485 133.614 435.842C133.614 435.288 133.72 434.832 133.933 434.474C134.146 434.116 134.434 433.833 134.796 433.624C135.158 433.415 135.563 433.257 136.011 433.151C136.458 433.044 136.914 432.963 137.379 432.908C137.967 432.84 138.444 432.784 138.81 432.742C139.177 432.695 139.443 432.62 139.609 432.518C139.776 432.416 139.859 432.25 139.859 432.019V431.975C139.859 431.417 139.701 430.984 139.386 430.677C139.075 430.37 138.61 430.217 137.992 430.217C137.349 430.217 136.842 430.36 136.471 430.645C136.104 430.926 135.851 431.24 135.71 431.585L133.914 431.176C134.127 430.579 134.438 430.098 134.847 429.731C135.261 429.36 135.736 429.092 136.273 428.926C136.81 428.755 137.374 428.67 137.967 428.67C138.359 428.67 138.774 428.717 139.213 428.811C139.656 428.9 140.07 429.066 140.453 429.309C140.841 429.552 141.158 429.899 141.406 430.351C141.653 430.799 141.776 431.38 141.776 432.096V438.616H139.91V437.274H139.833C139.71 437.521 139.524 437.764 139.277 438.002C139.03 438.241 138.712 438.439 138.325 438.597C137.937 438.755 137.472 438.833 136.931 438.833ZM137.347 437.299C137.875 437.299 138.327 437.195 138.702 436.986C139.081 436.777 139.369 436.505 139.565 436.168C139.765 435.827 139.865 435.463 139.865 435.075V433.809C139.797 433.877 139.665 433.941 139.469 434.001C139.277 434.056 139.058 434.105 138.81 434.148C138.563 434.186 138.322 434.223 138.088 434.257C137.854 434.287 137.658 434.312 137.5 434.333C137.129 434.38 136.79 434.459 136.484 434.57C136.181 434.681 135.938 434.841 135.755 435.049C135.576 435.254 135.487 435.527 135.487 435.868C135.487 436.341 135.661 436.698 136.011 436.941C136.36 437.18 136.805 437.299 137.347 437.299ZM144.322 438.616V428.798H146.169V430.358H146.271C146.45 429.829 146.766 429.414 147.218 429.111C147.673 428.804 148.189 428.651 148.764 428.651C148.884 428.651 149.024 428.655 149.186 428.664C149.352 428.672 149.482 428.683 149.576 428.696V430.524C149.499 430.502 149.363 430.479 149.167 430.453C148.971 430.424 148.775 430.409 148.579 430.409C148.127 430.409 147.725 430.505 147.371 430.696C147.021 430.884 146.744 431.146 146.54 431.483C146.335 431.815 146.233 432.194 146.233 432.62V438.616H144.322ZM156.393 428.798V430.332H151.03V428.798H156.393ZM152.469 426.446H154.38V435.733C154.38 436.104 154.435 436.383 154.546 436.571C154.657 436.754 154.8 436.88 154.974 436.948C155.153 437.012 155.347 437.044 155.556 437.044C155.709 437.044 155.844 437.033 155.959 437.012C156.074 436.99 156.163 436.973 156.227 436.961L156.572 438.539C156.461 438.582 156.304 438.625 156.099 438.667C155.895 438.714 155.639 438.74 155.332 438.744C154.829 438.752 154.361 438.663 153.926 438.475C153.491 438.288 153.14 437.998 152.871 437.606C152.603 437.214 152.469 436.722 152.469 436.13V426.446ZM162.634 438.814C161.666 438.814 160.833 438.608 160.134 438.194C159.44 437.777 158.903 437.191 158.523 436.436C158.148 435.678 157.961 434.789 157.961 433.771C157.961 432.765 158.148 431.879 158.523 431.112C158.903 430.345 159.431 429.746 160.109 429.316C160.79 428.885 161.587 428.67 162.499 428.67C163.053 428.67 163.59 428.762 164.11 428.945C164.63 429.128 165.097 429.416 165.51 429.808C165.923 430.2 166.249 430.709 166.488 431.336C166.727 431.958 166.846 432.714 166.846 433.605V434.282H159.041V432.85H164.973C164.973 432.348 164.871 431.902 164.666 431.515C164.462 431.122 164.174 430.814 163.803 430.588C163.437 430.362 163.006 430.249 162.512 430.249C161.975 430.249 161.506 430.381 161.106 430.645C160.71 430.905 160.403 431.246 160.185 431.668C159.972 432.086 159.866 432.539 159.866 433.029V434.148C159.866 434.804 159.981 435.363 160.211 435.823C160.445 436.283 160.771 436.635 161.189 436.877C161.607 437.116 162.094 437.235 162.653 437.235C163.015 437.235 163.345 437.184 163.643 437.082C163.942 436.975 164.2 436.818 164.417 436.609C164.634 436.4 164.8 436.142 164.915 435.836L166.724 436.162C166.58 436.694 166.32 437.161 165.945 437.561C165.574 437.958 165.107 438.267 164.545 438.488C163.987 438.706 163.349 438.814 162.634 438.814ZM172.642 438.808C171.849 438.808 171.142 438.605 170.52 438.201C169.902 437.792 169.416 437.21 169.062 436.456C168.713 435.697 168.538 434.787 168.538 433.726C168.538 432.665 168.715 431.757 169.069 431.003C169.427 430.249 169.917 429.671 170.539 429.271C171.161 428.87 171.866 428.67 172.655 428.67C173.264 428.67 173.754 428.772 174.125 428.977C174.5 429.177 174.79 429.412 174.994 429.68C175.203 429.948 175.365 430.185 175.48 430.39H175.595V425.525H177.506V438.616H175.64V437.088H175.48C175.365 437.297 175.199 437.536 174.981 437.804C174.768 438.073 174.474 438.307 174.099 438.507C173.724 438.708 173.238 438.808 172.642 438.808ZM173.064 437.178C173.613 437.178 174.078 437.033 174.457 436.743C174.841 436.449 175.131 436.042 175.327 435.522C175.527 435.002 175.627 434.397 175.627 433.707C175.627 433.025 175.529 432.429 175.333 431.917C175.137 431.406 174.849 431.007 174.47 430.722C174.091 430.436 173.622 430.294 173.064 430.294C172.488 430.294 172.009 430.443 171.626 430.741C171.242 431.039 170.952 431.446 170.756 431.962C170.564 432.478 170.469 433.059 170.469 433.707C170.469 434.363 170.567 434.953 170.763 435.478C170.959 436.002 171.248 436.417 171.632 436.724C172.02 437.027 172.497 437.178 173.064 437.178Z" fill="white"/>
<path d="M209.781 432.147L203.031 438.897C202.89 439.037 202.699 439.116 202.5 439.116C202.301 439.116 202.11 439.037 201.969 438.897C201.829 438.756 201.75 438.565 201.75 438.366C201.75 438.167 201.829 437.976 201.969 437.835L207.44 432.366H192.75C192.551 432.366 192.36 432.287 192.22 432.146C192.079 432.006 192 431.815 192 431.616C192 431.417 192.079 431.226 192.22 431.086C192.36 430.945 192.551 430.866 192.75 430.866H207.44L201.969 425.397C201.829 425.256 201.75 425.065 201.75 424.866C201.75 424.667 201.829 424.476 201.969 424.335C202.11 424.195 202.301 424.116 202.5 424.116C202.699 424.116 202.89 424.195 203.031 424.335L209.781 431.085C209.85 431.155 209.906 431.238 209.943 431.329C209.981 431.42 210.001 431.518 210.001 431.616C210.001 431.715 209.981 431.812 209.943 431.903C209.906 431.994 209.85 432.077 209.781 432.147Z" fill="white"/>
</g>
<defs>
<pattern id="pattern0_323_327" patternContentUnits="objectBoundingBox" width="1" height="1">
<use xlink:href="#image0_323_327" transform="matrix(0.00069589 0 0 0.000834669 0.000390037 0.000623588)"/>
</pattern>
<filter id="filter0_f_323_327" x="-485.734" y="-293.632" width="1225.5" height="1104.86" filterUnits="userSpaceOnUse" color-interpolation-filters="sRGB">
<feFlood flood-opacity="0" result="BackgroundImageFix"/>
<feBlend mode="normal" in="SourceGraphic" in2="BackgroundImageFix" result="shape"/>
<feGaussianBlur stdDeviation="119.4" result="effect1_foregroundBlur_323_327"/>
</filter>
<linearGradient id="paint0_linear_323_327" x1="70.0059" y1="142.808" x2="167.641" y2="142.808" gradientUnits="userSpaceOnUse">
<stop stop-color="#A23BF6"/>
<stop offset="1" stop-color="#96BEFF"/>
</linearGradient>
<clipPath id="clip0_323_327">
<rect width="1440" height="697" fill="white"/>
</clipPath>
<image id="image0_323_327" width="1436" height="1197" preserveAspectRatio="none" xlink:href="Picture In Header.svg"/>
</defs>
</svg>

