<svg width="360" height="298" viewBox="298 275 332 275" fill="none" xmlns="http://www.w3.org/2000/svg">
<path d="M351.5 442C352.833 425.667 364.5 382 403 348.5" stroke="#D9D9D9" stroke-width="2" stroke-dasharray="4 4"/>
<path d="M472 322.196C488.26 320.147 533.391 322.601 574.082 353.403" stroke="#D9D9D9" stroke-width="2" stroke-dasharray="4 4"/>
<rect x="466" y="434" width="108" height="108" rx="54" fill="#BAD4FF"/>
<path d="M545.375 488C545.381 488.743 545.155 489.47 544.729 490.079C544.302 490.688 543.697 491.149 542.996 491.398L528.623 496.625L523.399 510.996C523.141 511.69 522.678 512.288 522.07 512.711C521.463 513.133 520.74 513.36 520 513.36C519.26 513.36 518.538 513.133 517.931 512.711C517.323 512.288 516.859 511.69 516.602 510.996L511.377 496.623L497.004 491.398C496.31 491.141 495.712 490.677 495.29 490.07C494.867 489.462 494.641 488.74 494.641 488C494.641 487.26 494.867 486.538 495.29 485.93C495.712 485.323 496.31 484.859 497.004 484.602L511.377 479.377L516.602 465.004C516.859 464.31 517.323 463.712 517.931 463.289C518.538 462.867 519.26 462.64 520 462.64C520.74 462.64 521.463 462.867 522.07 463.289C522.678 463.712 523.141 464.31 523.399 465.004L528.626 479.377L542.996 484.602C543.697 484.851 544.302 485.312 544.729 485.921C545.155 486.53 545.381 487.257 545.375 488Z" fill="#A23BF6"/>
<rect x="394" y="283" width="77" height="77" rx="38.5" fill="#1A1F2E"/>
<path d="M445.767 332.328C443.804 328.934 440.779 326.5 437.248 325.347C438.994 324.307 440.351 322.723 441.11 320.837C441.869 318.952 441.988 316.869 441.449 314.909C440.91 312.95 439.742 311.221 438.126 309.989C436.509 308.757 434.533 308.09 432.5 308.09C430.468 308.09 428.491 308.757 426.875 309.989C425.258 311.221 424.091 312.95 423.551 314.909C423.012 316.869 423.131 318.952 423.89 320.837C424.649 322.723 426.006 324.307 427.753 325.347C424.222 326.499 421.196 328.933 419.233 332.328C419.161 332.445 419.113 332.576 419.093 332.712C419.072 332.848 419.079 332.987 419.113 333.121C419.147 333.254 419.207 333.38 419.29 333.489C419.373 333.599 419.477 333.691 419.597 333.76C419.716 333.829 419.848 333.873 419.984 333.89C420.121 333.908 420.26 333.897 420.392 333.86C420.525 333.822 420.648 333.759 420.756 333.673C420.864 333.587 420.953 333.48 421.019 333.359C423.447 329.162 427.74 326.656 432.5 326.656C437.261 326.656 441.553 329.162 443.982 333.359C444.048 333.48 444.137 333.587 444.245 333.673C444.352 333.759 444.476 333.822 444.608 333.86C444.741 333.897 444.88 333.908 445.016 333.89C445.153 333.873 445.285 333.829 445.404 333.76C445.523 333.691 445.627 333.599 445.711 333.489C445.794 333.38 445.854 333.254 445.888 333.121C445.922 332.987 445.928 332.848 445.908 332.712C445.887 332.576 445.839 332.445 445.767 332.328ZM425.281 317.375C425.281 315.947 425.705 314.552 426.498 313.364C427.291 312.177 428.419 311.252 429.738 310.706C431.057 310.159 432.508 310.016 433.909 310.295C435.309 310.573 436.595 311.261 437.605 312.271C438.614 313.28 439.302 314.566 439.58 315.967C439.859 317.367 439.716 318.818 439.169 320.137C438.623 321.457 437.698 322.584 436.511 323.377C435.324 324.17 433.928 324.594 432.5 324.594C430.586 324.592 428.751 323.83 427.398 322.477C426.045 321.124 425.284 319.289 425.281 317.375Z" fill="white"/>
<rect x="548" y="309" width="77" height="77" rx="38.5" fill="#1A1F2E"/>
<path d="M599.767 358.328C597.804 354.934 594.779 352.5 591.248 351.347C592.994 350.307 594.351 348.723 595.11 346.837C595.869 344.952 595.988 342.869 595.449 340.909C594.91 338.95 593.742 337.221 592.126 335.989C590.509 334.757 588.533 334.09 586.5 334.09C584.468 334.09 582.491 334.757 580.875 335.989C579.258 337.221 578.091 338.95 577.551 340.909C577.012 342.869 577.131 344.952 577.89 346.837C578.649 348.723 580.006 350.307 581.753 351.347C578.222 352.499 575.196 354.933 573.233 358.328C573.161 358.445 573.113 358.576 573.093 358.712C573.072 358.848 573.079 358.987 573.113 359.121C573.147 359.254 573.207 359.38 573.29 359.489C573.373 359.599 573.477 359.691 573.597 359.76C573.716 359.829 573.848 359.873 573.984 359.89C574.121 359.908 574.26 359.897 574.392 359.86C574.525 359.822 574.648 359.759 574.756 359.673C574.864 359.587 574.953 359.48 575.019 359.359C577.447 355.162 581.74 352.656 586.5 352.656C591.261 352.656 595.553 355.162 597.982 359.359C598.048 359.48 598.137 359.587 598.245 359.673C598.352 359.759 598.476 359.822 598.608 359.86C598.741 359.897 598.88 359.908 599.016 359.89C599.153 359.873 599.285 359.829 599.404 359.76C599.523 359.691 599.627 359.599 599.711 359.489C599.794 359.38 599.854 359.254 599.888 359.121C599.922 358.987 599.928 358.848 599.908 358.712C599.887 358.576 599.839 358.445 599.767 358.328ZM579.281 343.375C579.281 341.947 579.705 340.552 580.498 339.364C581.291 338.177 582.419 337.252 583.738 336.706C585.057 336.159 586.508 336.016 587.909 336.295C589.309 336.573 590.595 337.261 591.605 338.271C592.614 339.28 593.302 340.566 593.58 341.967C593.859 343.367 593.716 344.818 593.169 346.137C592.623 347.457 591.698 348.584 590.511 349.377C589.324 350.17 587.928 350.594 586.5 350.594C584.586 350.592 582.751 349.83 581.398 348.477C580.045 347.124 579.284 345.289 579.281 343.375Z" fill="white"/>
<rect x="305" y="442" width="77" height="77" rx="38.5" fill="#1A1F2E"/>
<path d="M356.767 491.328C354.804 487.934 351.779 485.5 348.248 484.347C349.994 483.307 351.351 481.723 352.11 479.837C352.869 477.952 352.988 475.869 352.449 473.909C351.91 471.95 350.742 470.221 349.126 468.989C347.509 467.757 345.533 467.09 343.5 467.09C341.468 467.09 339.491 467.757 337.875 468.989C336.258 470.221 335.091 471.95 334.551 473.909C334.012 475.869 334.131 477.952 334.89 479.837C335.649 481.723 337.006 483.307 338.753 484.347C335.222 485.499 332.196 487.933 330.233 491.328C330.161 491.445 330.113 491.576 330.093 491.712C330.072 491.848 330.079 491.987 330.113 492.121C330.147 492.254 330.207 492.38 330.29 492.489C330.373 492.599 330.477 492.691 330.597 492.76C330.716 492.829 330.848 492.873 330.984 492.89C331.121 492.908 331.26 492.897 331.392 492.86C331.525 492.822 331.648 492.759 331.756 492.673C331.864 492.587 331.953 492.48 332.019 492.359C334.447 488.162 338.74 485.656 343.5 485.656C348.261 485.656 352.553 488.162 354.982 492.359C355.048 492.48 355.137 492.587 355.245 492.673C355.352 492.759 355.476 492.822 355.608 492.86C355.741 492.897 355.88 492.908 356.016 492.89C356.153 492.873 356.285 492.829 356.404 492.76C356.523 492.691 356.627 492.599 356.711 492.489C356.794 492.38 356.854 492.254 356.888 492.121C356.922 491.987 356.928 491.848 356.908 491.712C356.887 491.576 356.839 491.445 356.767 491.328ZM336.281 476.375C336.281 474.947 336.705 473.552 337.498 472.364C338.291 471.177 339.419 470.252 340.738 469.706C342.057 469.159 343.508 469.016 344.909 469.295C346.309 469.573 347.595 470.261 348.605 471.271C349.614 472.28 350.302 473.566 350.58 474.967C350.859 476.367 350.716 477.818 350.169 479.137C349.623 480.457 348.698 481.584 347.511 482.377C346.324 483.17 344.928 483.594 343.5 483.594C341.586 483.592 339.751 482.83 338.398 481.477C337.045 480.124 336.284 478.289 336.281 476.375Z" fill="white"/>
<path d="M575 388C574.333 403 571.4 435.8 565 447M447.5 364.5C453.333 381.333 469.8 419.6 489 438M375.5 509C398 523 432.8 521.3 464 516.5" stroke="#D9D9D9" stroke-width="2" stroke-dasharray="4 4"/>
</svg>
