<svg width="155" height="52" viewBox="0 0 155 52" fill="none" xmlns="http://www.w3.org/2000/svg">
<path d="M22.1667 31.7868C22.5761 31.1659 23.1162 29.9951 23.5564 29.2514L26.8948 23.6877C29.8762 18.645 32.1362 14.5849 37.287 11.3811C42.2935 8.26698 47.717 6.28595 53.7085 6.38358C55.4362 6.41173 56.7417 7.14587 56.7057 9.06688C56.5445 11.8962 53.0699 11.3117 51.0088 11.5942C46.2243 12.2502 41.6675 14.1559 38.0611 17.4224C34.7022 20.325 33.0283 24.1127 30.741 27.7938L27.4384 33.129C26.7883 34.1735 26.1137 35.2154 25.5091 36.2837C25.1573 36.9054 25.5028 37.7891 25.9596 38.2698C26.8633 39.2043 27.9221 39.6566 29.1911 39.7634C31.862 39.9881 32.4168 37.89 33.6733 36.0572C34.492 34.8629 35.1923 33.5082 35.9626 32.2703C36.6281 31.2008 37.3325 30.1127 38.006 29.0447C39.6509 26.3627 41.2631 23.2026 43.5433 21.023C43.8302 20.7489 45.05 19.6993 45.5023 19.4243C46.8963 18.5766 48.9739 17.4694 50.6185 17.1914C50.7695 17.1659 50.8592 17.2908 50.9329 17.3795C51.0885 18.0942 50.0184 19.5443 49.6521 20.2003C48.5525 22.1698 47.2735 24.0267 46.1172 25.9642L34.5496 45.0765C34.2136 45.6251 33.5447 46.5815 33.1104 47.0424C32.0583 48.1586 29.5145 50.1002 28.0267 50.459C25.6509 51.4383 23.0464 51.7243 20.5148 51.2842C20.4223 51.2748 20.3301 51.2621 20.2385 51.2458C17.0367 50.681 13.7144 48.4201 11.8838 45.7518C11.4426 45.1087 11.007 44.3226 10.5872 43.6485L7.16586 38.0871C6.07413 36.3199 3.1815 32.0109 2.54332 30.2586C2.01552 28.8522 1.87099 27.3308 2.12452 25.8502C3.29426 19.3524 11.9553 17.7512 16.0606 22.2342C18.4448 24.8377 20.1169 28.8183 22.1667 31.7868ZM25.1426 46.0876C26.138 45.8174 27.4563 45.1852 28.2784 44.5516C27.1766 44.386 26.3039 44.2999 25.2457 43.8825C22.3283 42.7316 21.0674 40.0079 19.5264 37.5121L14.9828 30.0501C13.9973 28.3956 12.2073 24.3779 9.90763 24.6202C7.54806 25.0741 6.35731 26.9092 7.69472 29.0664C9.75893 32.3961 11.7439 35.7766 13.8565 39.0742C14.5631 40.1772 15.1106 41.3662 15.9448 42.3848C18.0093 45.141 21.6253 47.0902 25.1426 46.0876Z" fill="#E8730A"/>
<path d="M22.8805 48.7434C23.5504 49.207 23.5772 49.3741 23.8362 50.1408L23.5008 50.4893C23.4229 50.8251 23.5843 50.6337 23.6592 50.9525L23.4096 51.0514L23.4543 51.1434C24.0469 51.5501 24.4709 51.091 24.9779 50.8575C25.0568 50.8211 25.8978 51.0016 26.0875 50.9712C26.6466 50.8817 27.5151 50.3298 28.0262 50.4591C25.6504 51.4383 23.046 51.7244 20.5144 51.2842C20.6293 51.2268 20.7209 51.1816 20.8306 51.1118L20.7753 50.9983L20.5098 50.9656L20.5152 50.8339C20.7842 50.6008 21.5374 51.2382 22.3479 50.7535C22.3729 50.3206 21.3309 50.842 22.1153 49.1917C22.3437 49.0142 22.6233 48.8795 22.8805 48.7434Z" fill="#E8730A"/>
<path d="M94.3215 24.1708C94.6704 24.1118 95.8381 24.0884 96.2104 24.1249C98.794 24.378 99.6923 25.0763 101.267 26.8757C101.235 26.2777 101.11 25.1372 101.42 24.6594C101.994 24.4072 105.039 24.4877 105.766 24.5587C105.903 25.9971 105.797 29.2687 105.795 30.7961L105.783 42.914C104.896 42.9223 101.891 43.1471 101.334 42.7935C101.129 42.4392 101.256 40.8978 101.266 40.3614L100.558 41.3302C99.7868 42.4808 97.9971 43.2255 96.6705 43.414C86.113 44.9147 82.9278 30.697 90.6195 25.3065C91.7258 24.5306 93.0244 24.3579 94.3215 24.1708ZM96.6614 39.0771C100.508 38.5662 101.098 35.5567 100.72 32.2535C100.444 29.8439 98.0841 28.2255 95.7556 28.4035C95.2894 28.4917 94.7635 28.5751 94.3374 28.7828C90.8291 30.4916 90.3977 36.1826 93.6064 38.4077C94.5402 39.0558 95.5634 39.1148 96.6614 39.0771Z" fill="#0a0a0a"/>
<path d="M137.962 23.9151C143.441 23.8473 147.944 28.2209 148.039 33.7007C148.133 39.1805 143.781 43.706 138.303 43.8262C132.788 43.9473 128.226 39.5592 128.131 34.0423C128.037 28.5253 132.446 23.9834 137.962 23.9151ZM138.74 39.1198C141.606 38.7675 143.65 36.1672 143.316 33.2987C142.982 30.4302 140.395 28.3697 137.525 28.6858C134.63 29.0048 132.547 31.6204 132.884 34.5145C133.221 37.4087 135.849 39.4753 138.74 39.1198Z" fill="#0a0a0a"/>
<path d="M117.843 24.1714C120.652 23.8024 124.014 25.1395 125.244 27.8083C126.427 30.3734 126.168 33.5689 126.166 36.3417L126.15 42.9205C124.922 42.9131 122.601 43.0451 121.538 42.8852C121.204 40.0377 122.015 32.7443 121.015 30.5761C120.652 29.7907 120.004 29.2136 119.194 28.9177C117.957 28.4653 116.694 28.5976 115.515 29.1465C115.169 29.3515 114.958 29.4993 114.663 29.7787C114.17 30.2519 113.826 30.8585 113.673 31.5243C113.403 32.6823 113.519 35.0136 113.509 36.2718C113.492 38.4749 113.524 40.6859 113.456 42.8922C112.018 42.9459 110.367 42.9266 108.922 42.9064C108.699 39.0116 109.008 34.8198 108.888 30.8976C108.825 28.864 108.852 26.5678 108.922 24.5295C109.427 24.4492 112.63 24.4784 113.265 24.502C113.291 25.3377 113.263 26.0226 113.395 26.8536C114.762 25.2029 115.581 24.4528 117.843 24.1714Z" fill="#0a0a0a"/>
<path d="M68.7572 35.9952C69.3018 34.775 69.8344 32.9433 70.3434 31.6469C70.9276 30.1588 71.4983 28.636 72.099 27.1525C72.3675 26.4895 72.7701 25.0799 73.1579 24.5781C73.836 24.3154 77.0235 24.505 77.9362 24.5254C77.7106 25.6286 77.0152 26.9878 76.6239 28.0646C76.2085 29.2095 75.8119 30.2687 75.3428 31.3921C74.2787 34.3819 72.9139 37.4226 71.7984 40.4096C71.5124 41.1753 71.1795 42.1577 70.7668 42.8446C69.8537 42.9709 67.6009 42.9609 66.6878 42.8103C66.463 42.4366 66.106 41.4407 65.9293 40.9895C65.5125 39.9161 65.0859 38.8466 64.6494 37.781C63.6207 35.2757 62.5696 32.7766 61.6 30.245C60.9471 28.5406 59.8075 26.2429 59.3291 24.5353C59.9553 24.4798 61.0817 24.503 61.7597 24.4862C62.6124 24.4374 63.4675 24.4563 64.3172 24.5428C65.8789 28.2532 67.2177 32.2525 68.7572 35.9952Z" fill="#0a0a0a"/>
<path d="M80.0044 24.4778C81.3273 24.5155 82.7636 24.4306 84.0705 24.5482C84.1749 27.6072 84.0887 31.1551 84.0856 34.2603L84.0735 40.3282C84.0728 40.7623 84.1863 42.6478 83.9933 42.8821L83.792 42.8977C82.4177 42.9036 81.0124 42.9275 79.642 42.8653C79.6071 38.8417 79.6071 29.1312 79.6927 24.6093C79.6934 24.5352 79.8992 24.5053 80.0044 24.4778Z" fill="#0a0a0a"/>
<path d="M81.7593 16.0139C83.2986 15.8724 84.663 17.0013 84.8129 18.5402C84.9627 20.0792 83.8412 21.4499 82.3034 21.6076C80.7536 21.7666 79.371 20.6347 79.2204 19.0842C79.0698 17.5338 80.2087 16.1566 81.7593 16.0139Z" fill="#0a0a0a"/>
</svg>
