<svg width="320" height="259" viewBox="0 0 320 259" fill="none" xmlns="http://www.w3.org/2000/svg">

<g filter="url(#filter0_d_261_2)">
<rect x="-293" y="-275" width="644" height="576" rx="17" fill="white"/>
<path d="M46.5 159C47.8333 142.667 59.5 99 98 65.5" stroke="#D9D9D9" stroke-width="2" stroke-dasharray="4 4"/>
<path d="M167 39.1958C183.26 37.1475 228.391 39.6007 269.082 70.403" stroke="#D9D9D9" stroke-width="2" stroke-dasharray="4 4"/>
<rect x="161" y="151" width="108" height="108" rx="54" fill="#BAD4FF"/>
<path d="M240.375 205C240.381 205.743 240.155 206.47 239.729 207.079C239.302 207.688 238.697 208.149 237.996 208.398L223.623 213.625L218.399 227.996C218.141 228.69 217.678 229.288 217.07 229.711C216.463 230.133 215.74 230.36 215 230.36C214.26 230.36 213.538 230.133 212.931 229.711C212.323 229.288 211.859 228.69 211.602 227.996L206.377 213.623L192.004 208.398C191.31 208.141 190.712 207.677 190.29 207.07C189.867 206.462 189.641 205.74 189.641 205C189.641 204.26 189.867 203.538 190.29 202.93C190.712 202.323 191.31 201.859 192.004 201.602L206.377 196.377L211.602 182.004C211.859 181.31 212.323 180.712 212.931 180.289C213.538 179.867 214.26 179.64 215 179.64C215.74 179.64 216.463 179.867 217.07 180.289C217.678 180.712 218.141 181.31 218.399 182.004L223.626 196.377L237.996 201.602C238.697 201.851 239.302 202.312 239.729 202.921C240.155 203.53 240.381 204.257 240.375 205Z" fill="#A23BF6"/>
<rect x="89" width="77" height="77" rx="38.5" fill="#1A1F2E"/>
<path d="M140.767 49.3281C138.804 45.934 135.779 43.5002 132.248 42.3465C133.994 41.3068 135.351 39.7226 136.11 37.8371C136.869 35.9516 136.988 33.8691 136.449 31.9095C135.91 29.9498 134.742 28.2212 133.126 26.9893C131.509 25.7574 129.533 25.0902 127.5 25.0902C125.468 25.0902 123.491 25.7574 121.875 26.9893C120.258 28.2212 119.091 29.9498 118.551 31.9095C118.012 33.8691 118.131 35.9516 118.89 37.8371C119.649 39.7226 121.006 41.3068 122.753 42.3465C119.222 43.499 116.196 45.9327 114.233 49.3281C114.161 49.4455 114.113 49.5761 114.093 49.7123C114.072 49.8484 114.079 49.9873 114.113 50.1208C114.147 50.2543 114.207 50.3796 114.29 50.4895C114.373 50.5993 114.477 50.6913 114.597 50.7602C114.716 50.8291 114.848 50.8734 114.984 50.8905C115.121 50.9076 115.26 50.8972 115.392 50.8598C115.525 50.8224 115.648 50.7589 115.756 50.6729C115.864 50.587 115.953 50.4804 116.019 50.3593C118.447 46.1622 122.74 43.6562 127.5 43.6562C132.261 43.6562 136.553 46.1622 138.982 50.3593C139.048 50.4804 139.137 50.587 139.245 50.6729C139.352 50.7589 139.476 50.8224 139.608 50.8598C139.741 50.8972 139.88 50.9076 140.016 50.8905C140.153 50.8734 140.285 50.8291 140.404 50.7602C140.523 50.6913 140.627 50.5993 140.711 50.4895C140.794 50.3796 140.854 50.2543 140.888 50.1208C140.922 49.9873 140.928 49.8484 140.908 49.7123C140.887 49.5761 140.839 49.4455 140.767 49.3281ZM120.281 34.375C120.281 32.9472 120.705 31.5516 121.498 30.3644C122.291 29.1773 123.419 28.2521 124.738 27.7057C126.057 27.1593 127.508 27.0164 128.909 27.2949C130.309 27.5735 131.595 28.261 132.605 29.2705C133.614 30.2801 134.302 31.5664 134.58 32.9667C134.859 34.367 134.716 35.8184 134.169 37.1375C133.623 38.4565 132.698 39.5839 131.511 40.3771C130.324 41.1703 128.928 41.5937 127.5 41.5937C125.586 41.5917 123.751 40.8305 122.398 39.4771C121.045 38.1238 120.284 36.2889 120.281 34.375Z" fill="white"/>
<rect x="243" y="26" width="77" height="77" rx="38.5" fill="#1A1F2E"/>
<path d="M294.767 75.3281C292.804 71.934 289.779 69.5002 286.248 68.3465C287.994 67.3068 289.351 65.7226 290.11 63.8371C290.869 61.9516 290.988 59.8691 290.449 57.9095C289.91 55.9498 288.742 54.2212 287.126 52.9893C285.509 51.7574 283.533 51.0902 281.5 51.0902C279.468 51.0902 277.491 51.7574 275.875 52.9893C274.258 54.2212 273.091 55.9498 272.551 57.9095C272.012 59.8691 272.131 61.9516 272.89 63.8371C273.649 65.7226 275.006 67.3068 276.753 68.3465C273.222 69.499 270.196 71.9327 268.233 75.3281C268.161 75.4455 268.113 75.5761 268.093 75.7123C268.072 75.8484 268.079 75.9873 268.113 76.1208C268.147 76.2543 268.207 76.3796 268.29 76.4895C268.373 76.5993 268.477 76.6913 268.597 76.7602C268.716 76.8291 268.848 76.8734 268.984 76.8905C269.121 76.9076 269.26 76.8972 269.392 76.8598C269.525 76.8224 269.648 76.7589 269.756 76.6729C269.864 76.587 269.953 76.4804 270.019 76.3593C272.447 72.1622 276.74 69.6562 281.5 69.6562C286.261 69.6562 290.553 72.1622 292.982 76.3593C293.048 76.4804 293.137 76.587 293.245 76.6729C293.352 76.7589 293.476 76.8224 293.608 76.8598C293.741 76.8972 293.88 76.9076 294.016 76.8905C294.153 76.8734 294.285 76.8291 294.404 76.7602C294.523 76.6913 294.627 76.5993 294.711 76.4895C294.794 76.3796 294.854 76.2543 294.888 76.1208C294.922 75.9873 294.928 75.8484 294.908 75.7123C294.887 75.5761 294.839 75.4455 294.767 75.3281ZM274.281 60.375C274.281 58.9472 274.705 57.5516 275.498 56.3644C276.291 55.1773 277.419 54.2521 278.738 53.7057C280.057 53.1593 281.508 53.0164 282.909 53.2949C284.309 53.5735 285.595 54.261 286.605 55.2705C287.614 56.2801 288.302 57.5664 288.58 58.9667C288.859 60.367 288.716 61.8184 288.169 63.1375C287.623 64.4565 286.698 65.5839 285.511 66.3771C284.324 67.1703 282.928 67.5937 281.5 67.5937C279.586 67.5917 277.751 66.8305 276.398 65.4771C275.045 64.1238 274.284 62.2889 274.281 60.375Z" fill="white"/>
<rect y="159" width="77" height="77" rx="38.5" fill="#1A1F2E"/>
<path d="M51.7673 208.328C49.804 204.934 46.7786 202.5 43.2479 201.347C44.9943 200.307 46.3512 198.723 47.1102 196.837C47.8691 194.952 47.9881 192.869 47.449 190.909C46.9098 188.95 45.7423 187.221 44.1257 185.989C42.5091 184.757 40.5327 184.09 38.5002 184.09C36.4677 184.09 34.4914 184.757 32.8748 185.989C31.2582 187.221 30.0907 188.95 29.5515 190.909C29.0123 192.869 29.1314 194.952 29.8903 196.837C30.6493 198.723 32.0062 200.307 33.7526 201.347C30.2219 202.499 27.1965 204.933 25.2332 208.328C25.1612 208.445 25.1135 208.576 25.0928 208.712C25.0721 208.848 25.0789 208.987 25.1127 209.121C25.1466 209.254 25.2068 209.38 25.2899 209.489C25.373 209.599 25.4773 209.691 25.5965 209.76C25.7157 209.829 25.8476 209.873 25.9842 209.89C26.1209 209.908 26.2596 209.897 26.3921 209.86C26.5247 209.822 26.6484 209.759 26.756 209.673C26.8636 209.587 26.9528 209.48 27.0186 209.359C29.4472 205.162 33.7397 202.656 38.5002 202.656C43.2607 202.656 47.5533 205.162 49.9819 209.359C50.0476 209.48 50.1369 209.587 50.2445 209.673C50.3521 209.759 50.4758 209.822 50.6084 209.86C50.7409 209.897 50.8796 209.908 51.0163 209.89C51.1529 209.873 51.2847 209.829 51.404 209.76C51.5232 209.691 51.6275 209.599 51.7106 209.489C51.7937 209.38 51.8539 209.254 51.8878 209.121C51.9216 208.987 51.9284 208.848 51.9077 208.712C51.887 208.576 51.8393 208.445 51.7673 208.328ZM31.2815 193.375C31.2815 191.947 31.7049 190.552 32.4981 189.364C33.2913 188.177 34.4187 187.252 35.7377 186.706C37.0568 186.159 38.5083 186.016 39.9086 186.295C41.3089 186.573 42.5951 187.261 43.6047 188.271C44.6142 189.28 45.3017 190.566 45.5803 191.967C45.8588 193.367 45.7159 194.818 45.1695 196.137C44.6231 197.457 43.6979 198.584 42.5108 199.377C41.3236 200.17 39.928 200.594 38.5002 200.594C36.5863 200.592 34.7514 199.83 33.3981 198.477C32.0447 197.124 31.2835 195.289 31.2815 193.375Z" fill="white"/>
<path d="M270 105C269.333 120 266.4 152.8 260 164M142.5 81.5C148.333 98.3333 164.8 136.6 184 155M70.5 226C93 240 127.8 238.3 159 233.5" stroke="#D9D9D9" stroke-width="2" stroke-dasharray="4 4"/>
</g>
<defs>
<filter id="filter0_d_261_2" x="-305" y="-283" width="668" height="600" filterUnits="userSpaceOnUse" color-interpolation-filters="sRGB">
<feFlood flood-opacity="0" result="BackgroundImageFix"/>
<feColorMatrix in="SourceAlpha" type="matrix" values="0 0 0 0 0 0 0 0 0 0 0 0 0 0 0 0 0 0 127 0" result="hardAlpha"/>
<feOffset dy="4"/>
<feGaussianBlur stdDeviation="6"/>
<feColorMatrix type="matrix" values="0 0 0 0 0 0 0 0 0 0 0 0 0 0 0 0 0 0 0.2 0"/>
<feBlend mode="normal" in2="BackgroundImageFix" result="effect1_dropShadow_261_2"/>
<feBlend mode="normal" in="SourceGraphic" in2="effect1_dropShadow_261_2" result="shape"/>
</filter>
</defs>
</svg>
